<?xml version="1.0" standalone="no"?>
<!DOCTYPE svg PUBLIC "-//W3C//DTD SVG 20010904//EN"
 "http://www.w3.org/TR/2001/REC-SVG-20010904/DTD/svg10.dtd">
<svg version="1.0" xmlns="http://www.w3.org/2000/svg"
 width="171.000000pt" height="170.000000pt" viewBox="0 0 171.000000 170.000000"
 preserveAspectRatio="xMidYMid meet">

<g transform="translate(0.000000,170.000000) scale(0.100000,-0.100000)"
fill="#000000" stroke="none">
<path d="M807 1620 c3 -11 10 -20 16 -20 6 0 28 -19 49 -42 l37 -43 -1 45 c0
35 -2 39 -7 19 l-6 -27 -35 44 c-37 47 -62 58 -53 24z"/>
<path d="M900 1629 c0 -5 5 -7 10 -4 6 3 10 8 10 11 0 2 -4 4 -10 4 -5 0 -10
-5 -10 -11z"/>
<path d="M805 1530 c-3 -5 1 -10 10 -10 9 0 13 5 10 10 -3 6 -8 10 -10 10 -2
0 -7 -4 -10 -10z"/>
<path d="M850 1450 c-1 -19 -2 -41 -1 -47 1 -7 0 -13 -3 -13 -20 0 -159 -32
-193 -44 -177 -63 -318 -249 -348 -458 -8 -53 -21 -63 -28 -20 -4 27 -4 27 -6
1 -1 -17 -9 -28 -28 -36 l-28 -11 27 -1 c25 -1 27 -5 34 -58 9 -78 25 -115 18
-43 -3 30 -7 65 -10 78 -2 12 0 22 5 22 5 0 14 -33 21 -72 14 -90 30 -135 80
-218 80 -137 237 -238 399 -258 39 -5 56 -12 57 -22 1 -8 2 -28 3 -45 3 -29 3
-29 10 -5 6 21 17 26 91 41 79 15 187 56 176 66 -2 2 -22 -5 -45 -16 -22 -12
-51 -21 -64 -21 -12 0 -27 -4 -33 -9 -5 -5 -33 -12 -62 -15 -42 -5 -53 -4 -50
6 3 7 27 16 55 19 226 28 410 192 468 417 8 31 15 73 15 94 0 26 4 38 14 38 8
0 16 -4 18 -8 2 -4 14 -3 27 4 23 12 23 12 3 18 -12 4 -23 15 -25 24 -3 12 -5
10 -6 -6 -2 -36 -26 -20 -28 19 -8 110 -57 235 -121 310 -39 46 -35 64 6 28
16 -13 -2 6 -39 43 -37 37 -83 74 -101 83 -18 8 -25 10 -14 3 60 -41 116 -90
111 -99 -4 -5 -25 7 -48 26 -70 60 -183 107 -290 120 -31 4 -47 11 -44 18 2 7
-2 28 -9 47 l-12 35 -2 -35z m0 -299 c1 -217 0 -219 -21 -224 -36 -10 -42 2
-35 64 3 33 2 59 -2 59 -4 0 -23 28 -42 62 -38 71 -50 64 -24 -14 9 -29 19
-48 21 -41 2 7 -1 22 -7 34 -7 12 -8 19 -2 15 12 -7 42 -70 42 -88 -1 -9 -5
-8 -14 4 -7 10 -16 15 -19 12 -7 -8 -118 58 -175 104 l-43 34 23 25 c24 26 80
63 101 67 6 2 26 8 42 15 17 7 57 19 90 27 57 13 57 13 12 8 -27 -3 -66 -12
-87 -19 -36 -13 -39 -12 -45 6 -4 10 -4 23 -1 28 11 17 136 36 136 20 0 -5
-11 -11 -25 -15 -14 -4 -24 -8 -21 -11 10 -10 86 19 86 32 0 8 2 15 4 15 3 0
5 -98 6 -219z m180 191 c25 -13 34 -24 32 -37 -2 -18 -1 -18 8 -3 13 22 32 15
89 -31 25 -20 51 -41 59 -47 12 -9 12 -12 -1 -22 -11 -10 -20 -8 -41 9 -14 11
-24 24 -21 29 3 5 0 12 -6 16 -8 4 -9 3 -5 -4 10 -16 11 -17 -79 23 -43 19
-103 37 -132 41 -29 3 -50 10 -47 15 3 5 16 6 30 3 18 -5 24 -2 24 10 0 21 44
20 90 -2z m-380 -51 c0 -15 -15 -27 -64 -49 -5 -3 -5 2 -1 9 5 8 4 11 -1 6 -5
-5 -9 -13 -9 -19 0 -6 -12 -20 -27 -31 -22 -17 -30 -18 -43 -7 -21 17 -19 30
5 30 12 0 20 7 20 16 0 9 9 18 20 21 11 3 20 9 20 14 0 5 7 9 15 9 8 0 15 4
15 8 0 4 11 9 25 10 18 1 25 -3 25 -17z m401 -21 c66 -27 139 -75 139 -91 0
-5 -22 -26 -49 -48 -28 -21 -48 -41 -45 -43 5 -5 -144 -168 -155 -168 -12 0
-3 74 11 84 7 6 22 38 32 71 10 33 22 65 28 72 5 7 5 13 0 17 -5 3 -15 -9 -22
-27 -29 -77 -44 -113 -53 -122 -6 -6 -8 -2 -4 13 3 12 1 22 -3 22 -5 0 -12 26
-16 58 -3 31 -8 66 -10 77 -2 11 -7 44 -11 73 l-6 54 49 -7 c27 -4 79 -20 115
-35z m229 -122 c0 -14 33 -47 42 -42 4 3 5 -3 1 -12 -5 -13 -3 -15 7 -9 9 6
11 4 5 -5 -4 -7 -2 -16 5 -20 11 -7 19 -35 23 -82 1 -9 4 -15 8 -12 4 2 10 -4
14 -13 6 -16 -2 -25 -22 -24 -4 0 -12 22 -19 48 -9 36 -9 50 -1 56 7 5 3 6
-10 2 -17 -5 -25 0 -37 23 -8 16 -12 32 -9 36 4 3 1 6 -5 6 -7 0 -11 3 -11 8
3 19 -2 33 -11 27 -6 -3 -7 1 -4 9 4 10 1 16 -9 16 -19 0 -31 16 -22 31 7 11
55 -26 55 -43z m-800 35 c0 -5 -9 -21 -20 -38 -11 -16 -30 -45 -41 -62 -22
-34 -33 -40 -44 -24 -3 6 3 15 14 20 10 6 23 24 29 40 15 44 62 92 62 64z m52
-30 c14 -16 33 -40 43 -56 17 -26 17 -28 -1 -50 -17 -20 -16 -19 8 2 l27 24
48 -44 c54 -49 103 -103 103 -113 0 -3 -12 -6 -26 -6 -30 0 -43 14 -79 82 -14
26 -30 50 -36 54 -7 4 3 -19 21 -51 28 -48 30 -57 14 -50 -10 4 -28 9 -39 10
-11 1 -33 7 -48 14 -32 13 -54 15 -43 4 4 -5 11 -8 14 -8 4 0 32 -16 62 -35
l55 -34 -30 -7 c-27 -6 -28 -7 -5 -8 14 0 42 3 62 8 43 10 78 -8 78 -40 0 -18
-9 -19 -202 -19 -112 0 -198 4 -192 8 6 4 16 39 23 79 16 91 29 110 62 94 l24
-12 -24 19 c-22 18 -23 20 -7 49 8 17 27 45 42 62 14 17 20 29 12 26 -8 -3
-29 -30 -47 -61 -19 -30 -36 -53 -38 -50 -8 8 74 135 88 136 3 0 17 -12 31
-27z m745 -90 c15 -28 32 -51 37 -50 6 1 12 -9 13 -23 2 -22 2 -23 -6 -5 -7
13 -10 15 -10 5 -1 -17 18 -50 20 -35 0 6 7 -10 14 -35 7 -25 13 -37 14 -27 1
22 17 22 29 1 13 -24 3 -54 -19 -54 -12 0 -21 10 -25 28 -9 43 -14 50 -11 15
3 -29 1 -33 -22 -34 -24 0 -24 -1 -6 -9 12 -5 -53 -8 -164 -7 -113 1 -186 6
-187 12 -2 6 9 19 23 29 26 19 28 19 127 1 56 -10 119 -19 141 -21 39 -3 39
-2 5 4 -25 5 -36 14 -41 32 -7 25 -7 25 -8 2 -1 -20 -5 -23 -28 -18 -16 3 -45
8 -65 12 -21 3 -38 9 -38 13 0 3 23 19 50 34 28 16 50 30 50 33 0 7 -43 -6
-50 -15 -7 -8 -72 -10 -68 -2 25 53 64 111 74 107 7 -3 10 2 7 12 -2 10 12 36
33 61 l38 44 23 -29 c13 -16 35 -52 50 -81z m-879 -31 c10 -7 10 -15 -2 -43
-8 -19 -17 -56 -21 -84 -7 -45 -18 -64 -36 -65 -15 0 -16 42 -2 56 11 11 13
18 5 26 -8 8 -7 21 3 46 8 19 15 43 15 53 0 20 16 24 38 11z m227 -92 c3 -6
-1 -7 -9 -4 -18 7 -21 14 -7 14 6 0 13 -4 16 -10z m450 -20 c-34 -22 -45 -25
-45 -10 0 11 35 28 60 29 8 1 2 -8 -15 -19z m-161 -25 c36 -34 38 -70 4 -117
-15 -22 -27 -28 -56 -28 -86 1 -119 92 -53 147 34 30 72 29 105 -2z m-549 -86
c4 -6 5 -12 2 -15 -7 -7 -37 7 -37 17 0 13 27 11 35 -2z m1015 -10 c-16 -14
-19 -19 -8 -15 14 4 17 0 14 -17 -3 -12 -5 -24 -6 -27 -2 -3 -2 -8 -1 -12 1
-12 -61 -182 -72 -196 -8 -11 -13 -10 -24 1 -12 12 -11 20 7 55 12 23 25 40
28 38 4 -2 7 8 8 22 2 60 29 161 44 166 32 8 34 5 10 -15z m-885 -8 c6 -3 17
-6 25 -6 39 -2 130 -18 130 -24 0 -8 -80 -57 -109 -66 -12 -3 -19 -10 -16 -15
3 -4 33 0 67 11 34 10 64 17 66 14 2 -2 -11 -30 -29 -61 l-32 -57 -25 29 c-13
16 -21 22 -17 14 5 -8 14 -22 22 -31 12 -14 9 -22 -22 -63 -19 -25 -32 -46
-29 -46 3 0 24 14 45 31 22 17 46 29 54 26 8 -4 12 -1 10 6 -4 9 76 67 117 85
3 2 -2 -18 -11 -45 -26 -69 -33 -103 -21 -103 5 0 10 4 10 10 0 5 15 33 32 62
l33 53 7 -45 c4 -25 10 -55 13 -67 4 -17 1 -23 -12 -24 -16 -1 -16 -2 -1 -6
16 -4 20 -15 34 -95 6 -35 4 -38 -17 -39 l-24 -1 25 -7 c17 -5 26 -15 27 -31
l3 -25 -12 23 c-13 26 -26 28 -35 6 -5 -13 -15 -15 -52 -9 -40 6 -130 43 -108
45 5 0 17 -5 27 -10 16 -8 18 -8 14 5 -4 8 -11 15 -16 15 -6 0 -8 6 -5 14 4
10 -8 21 -36 35 -96 47 -204 192 -231 311 -24 105 -25 103 37 95 28 -4 57 -10
62 -14z m845 4 c0 -66 -53 -201 -107 -273 -21 -28 -27 -31 -40 -20 -17 14
-143 202 -143 213 0 3 10 4 23 0 18 -5 17 -3 -5 10 -16 9 -28 20 -28 25 0 5
16 0 35 -12 20 -11 38 -18 42 -15 3 4 -6 12 -20 18 -15 7 -24 15 -22 19 4 7
53 17 125 26 14 2 41 8 60 13 54 14 80 13 80 -4z m-980 -20 c7 -8 10 -15 6
-15 -3 0 8 -37 24 -82 16 -45 26 -86 24 -90 -3 -5 -1 -7 5 -6 5 2 21 -12 35
-31 20 -27 23 -37 13 -44 -9 -7 -9 -10 1 -14 6 -2 10 -9 6 -14 -3 -5 0 -9 6
-9 6 0 8 -5 5 -11 -4 -6 -19 2 -36 21 -17 17 -27 35 -24 40 3 6 -1 10 -9 10
-14 0 -20 12 -17 33 0 4 -3 7 -8 7 -18 0 -21 33 -4 47 17 13 17 14 -4 8 -17
-5 -23 0 -32 27 -6 18 -13 57 -17 86 -7 53 2 66 26 37z m620 -17 c0 -11 -8
-10 -31 3 -11 5 -17 14 -14 19 6 10 45 -9 45 -22z m-200 0 c0 -6 -40 -50 -90
-98 -49 -48 -90 -86 -90 -85 0 2 23 42 51 89 46 80 58 90 96 89 7 0 12 2 11 6
-2 16 3 22 12 16 6 -3 10 -11 10 -17z m256 -40 c9 -18 30 -52 46 -76 17 -24
28 -45 26 -47 -2 -3 -37 28 -77 67 -62 61 -70 73 -54 79 33 13 42 9 59 -23z
m-381 14 c-13 -11 -65 -33 -65 -27 0 2 12 11 28 19 30 17 52 21 37 8z m259
-11 c13 -14 16 -28 10 -55 -4 -26 -2 -42 9 -54 8 -9 27 -41 42 -70 14 -30 29
-52 31 -49 3 3 -4 33 -15 68 -24 73 -24 69 -11 69 18 0 110 -72 104 -81 -3 -5
2 -6 10 -3 18 7 111 -58 127 -88 9 -17 8 -19 -8 -14 -13 4 -27 -2 -44 -21
l-24 -27 27 17 c40 25 42 21 5 -16 -34 -35 -86 -62 -96 -51 -3 4 0 9 6 11 7 3
23 14 35 25 21 18 20 18 -14 -2 -52 -30 -48 -11 5 22 23 15 54 39 67 54 22 25
21 24 -18 -5 -23 -18 -66 -46 -95 -63 -28 -16 -42 -27 -31 -23 16 4 23 0 27
-17 8 -28 9 -27 -54 -44 -72 -19 -90 -18 -82 2 5 14 1 16 -20 12 -15 -3 -27
-2 -27 2 0 4 21 11 46 15 26 3 56 11 68 16 19 9 19 9 -4 5 -14 -3 -45 -8 -69
-12 l-44 -7 7 49 c10 67 15 84 29 84 9 0 9 2 0 8 -9 5 -9 19 -3 47 5 22 9 51
9 65 0 14 -10 -23 -22 -82 -12 -58 -25 -110 -29 -114 -5 -4 -8 69 -8 163 0 93
3 173 7 176 11 12 29 7 47 -12z m-124 -78 c-1 -13 -49 -99 -50 -88 0 18 33 95
41 95 5 0 9 -3 9 -7z m170 -26 c0 -5 -4 -5 -10 -2 -5 3 -10 14 -10 23 0 15 2
15 10 2 5 -8 10 -19 10 -23z m307 -134 c-12 -27 -20 -29 -37 -8 -11 13 -9 20
11 41 21 23 24 23 30 7 3 -10 2 -28 -4 -40z m-697 -57 c33 -24 66 -46 72 -49
7 -2 10 -8 6 -11 -9 -10 -148 82 -148 98 0 11 10 6 70 -38z m-17 -22 c21 -20
36 -38 33 -42 -4 -3 -13 4 -22 16 -8 12 -25 22 -36 22 -12 0 -18 3 -15 7 4 3
2 12 -4 20 -23 27 7 11 44 -23z"/>
<path d="M831 1264 c0 -11 3 -14 6 -6 3 7 2 16 -1 19 -3 4 -6 -2 -5 -13z"/>
<path d="M822 1220 c0 -14 2 -19 5 -12 2 6 2 18 0 25 -3 6 -5 1 -5 -13z"/>
<path d="M958 1323 c6 -2 18 -2 25 0 6 3 1 5 -13 5 -14 0 -19 -2 -12 -5z"/>
<path d="M1170 1236 c0 -2 8 -10 18 -17 15 -13 16 -12 3 4 -13 16 -21 21 -21
13z"/>
<path d="M524 1215 c-10 -8 -14 -15 -8 -15 6 0 17 7 24 15 16 19 9 19 -16 0z"/>
<path d="M1054 1074 c-18 -14 -18 -15 4 -4 12 6 22 13 22 15 0 8 -5 6 -26 -11z"/>
<path d="M516 935 c-3 -9 -6 -22 -5 -28 0 -7 5 -1 10 12 5 13 8 26 5 28 -2 2
-6 -3 -10 -12z"/>
<path d="M558 873 c6 -2 18 -2 25 0 6 3 1 5 -13 5 -14 0 -19 -2 -12 -5z"/>
<path d="M508 863 c6 -2 18 -2 25 0 6 3 1 5 -13 5 -14 0 -19 -2 -12 -5z"/>
<path d="M468 853 c7 -3 16 -2 19 1 4 3 -2 6 -13 5 -11 0 -14 -3 -6 -6z"/>
<path d="M1180 969 c0 -5 5 -7 10 -4 6 3 10 8 10 11 0 2 -4 4 -10 4 -5 0 -10
-5 -10 -11z"/>
<path d="M376 993 c-6 -14 -5 -15 5 -6 7 7 10 15 7 18 -3 3 -9 -2 -12 -12z"/>
<path d="M816 885 c-49 -45 -23 -125 42 -125 36 0 72 37 72 74 0 31 -40 76
-68 76 -11 0 -31 -11 -46 -25z m61 -31 c3 -8 -1 -22 -9 -30 -12 -12 -17 -12
-33 0 -16 12 -17 16 -6 30 17 20 40 21 48 0z"/>
<path d="M1290 549 c0 -5 5 -7 10 -4 6 3 10 8 10 11 0 2 -4 4 -10 4 -5 0 -10
-5 -10 -11z"/>
<path d="M511 754 c0 -11 3 -14 6 -6 3 7 2 16 -1 19 -3 4 -6 -2 -5 -13z"/>
<path d="M690 360 c8 -5 22 -9 30 -9 10 0 8 3 -5 9 -27 12 -43 12 -25 0z"/>
<path d="M758 343 c7 -3 16 -2 19 1 4 3 -2 6 -13 5 -11 0 -14 -3 -6 -6z"/>
<path d="M1113 712 c-7 -5 5 -13 33 -24 49 -17 60 -9 17 13 -16 7 -30 15 -33
16 -3 1 -10 -1 -17 -5z"/>
<path d="M990 330 c-18 -12 -2 -12 25 0 13 6 15 9 5 9 -8 0 -22 -4 -30 -9z"/>
<path d="M1249 493 c-13 -16 -12 -17 4 -4 9 7 17 15 17 17 0 8 -8 3 -21 -13z"/>
<path d="M753 1403 c9 -2 23 -2 30 0 6 3 -1 5 -18 5 -16 0 -22 -2 -12 -5z"/>
<path d="M950 1406 c0 -2 7 -6 15 -10 8 -3 15 -1 15 4 0 6 -7 10 -15 10 -8 0
-15 -2 -15 -4z"/>
<path d="M708 1393 c7 -3 16 -2 19 1 4 3 -2 6 -13 5 -11 0 -14 -3 -6 -6z"/>
<path d="M640 1369 c0 -5 5 -7 10 -4 6 3 10 8 10 11 0 2 -4 4 -10 4 -5 0 -10
-5 -10 -11z"/>
<path d="M1060 1376 c0 -2 7 -7 16 -10 8 -3 12 -2 9 4 -6 10 -25 14 -25 6z"/>
<path d="M553 1330 c-28 -16 -55 -35 -59 -42 -6 -11 -5 -11 8 0 8 7 40 26 69
42 30 16 50 30 44 30 -5 0 -33 -14 -62 -30z"/>
<path d="M416 1212 l-30 -37 37 34 c38 36 42 42 30 40 -5 0 -21 -17 -37 -37z"/>
<path d="M1351 1136 c12 -20 23 -36 25 -36 7 0 -25 58 -36 65 -5 3 -1 -10 11
-29z"/>
<path d="M345 1109 c-4 -6 -5 -12 -2 -15 2 -3 7 2 10 11 7 17 1 20 -8 4z"/>
<path d="M311 1039 c-6 -18 -11 -37 -10 -43 0 -6 7 7 15 28 8 22 12 41 10 43
-2 2 -9 -10 -15 -28z"/>
<path d="M1390 1055 c0 -8 4 -15 10 -15 5 0 7 7 4 15 -4 8 -8 15 -10 15 -2 0
-4 -7 -4 -15z"/>
<path d="M1411 1005 c0 -11 4 -29 9 -40 l9 -20 0 20 c0 11 -4 29 -9 40 l-9 20
0 -20z"/>
<path d="M282 925 c0 -16 2 -22 5 -12 2 9 2 23 0 30 -3 6 -5 -1 -5 -18z"/>
<path d="M1432 920 c0 -14 2 -19 5 -12 2 6 2 18 0 25 -3 6 -5 1 -5 -13z"/>
<path d="M1560 875 c8 -10 11 -33 8 -65 -4 -36 -2 -50 7 -50 9 0 12 16 10 55
-3 43 0 57 13 65 14 7 10 9 -17 10 -29 0 -32 -2 -21 -15z"/>
<path d="M1625 880 c3 -5 11 -10 16 -10 6 0 7 5 4 10 -3 6 -11 10 -16 10 -6 0
-7 -4 -4 -10z"/>
<path d="M31 843 c10 -21 19 -43 19 -50 0 -21 18 -24 23 -3 3 11 2 18 -2 15
-5 -2 -14 14 -21 35 -7 22 -19 40 -26 40 -8 0 -6 -11 7 -37z"/>
<path d="M85 855 c0 -14 3 -25 7 -25 5 0 14 -15 21 -32 l14 -33 12 23 c7 13
10 28 7 35 -2 7 -5 4 -5 -5 -2 -31 -17 -19 -30 22 -13 45 -26 52 -26 15z"/>
<path d="M1630 775 c-10 -12 -10 -15 4 -15 9 0 16 7 16 15 0 8 -2 15 -4 15 -2
0 -9 -7 -16 -15z"/>
<path d="M1431 734 c0 -11 3 -14 6 -6 3 7 2 16 -1 19 -3 4 -6 -2 -5 -13z"/>
<path d="M1421 694 c0 -11 3 -14 6 -6 3 7 2 16 -1 19 -3 4 -6 -2 -5 -13z"/>
<path d="M300 652 c0 -16 36 -95 54 -117 9 -11 2 12 -16 50 -35 77 -38 83 -38
67z"/>
<path d="M1382 583 c-32 -76 -102 -162 -176 -218 -36 -27 -66 -51 -66 -53 0
-6 48 26 93 61 24 19 43 27 55 22 13 -5 14 -3 5 6 -9 9 -2 23 29 62 45 57 91
143 86 159 -2 6 -14 -11 -26 -39z"/>
<path d="M399 463 c53 -78 219 -191 306 -208 17 -4 1 6 -35 21 -95 40 -167 88
-234 158 -32 33 -49 47 -37 29z"/>
<path d="M1320 366 c0 -2 8 -10 18 -17 15 -13 16 -12 3 4 -13 16 -21 21 -21
13z"/>
<path d="M745 250 c-4 -6 6 -10 22 -10 22 0 25 2 13 10 -19 12 -27 12 -35 0z"/>
<path d="M826 124 c-6 -14 1 -26 26 -47 18 -15 32 -35 30 -43 -2 -9 1 -13 7
-9 18 10 13 30 -15 56 -14 13 -29 33 -33 43 -8 19 -8 19 -15 0z"/>
<path d="M820 30 c0 -5 5 -10 11 -10 5 0 7 5 4 10 -3 6 -8 10 -11 10 -2 0 -4
-4 -4 -10z"/>
</g>
</svg>
