<?xml version="1.0" standalone="no"?>
<!DOCTYPE svg PUBLIC "-//W3C//DTD SVG 20010904//EN"
 "http://www.w3.org/TR/2001/REC-SVG-20010904/DTD/svg10.dtd">
<svg version="1.0" xmlns="http://www.w3.org/2000/svg"
 width="303.000000pt" height="323.000000pt" viewBox="0 0 303.000000 323.000000"
 preserveAspectRatio="xMidYMid meet">

<g transform="translate(0.000000,323.000000) scale(0.100000,-0.100000)"
fill="#000000" stroke="none">
<path d="M2096 3179 c-34 -5 -68 -17 -80 -28 -16 -14 -43 -20 -110 -25 -49 -3
-152 -16 -229 -28 -126 -19 -149 -19 -223 -8 -116 18 -242 8 -297 -25 -33 -19
-66 -26 -157 -35 -170 -16 -190 -19 -249 -30 -76 -14 -168 -12 -226 5 -41 13
-66 14 -140 5 -137 -15 -178 -32 -247 -103 -33 -35 -85 -154 -113 -257 -22
-84 -25 -115 -25 -271 0 -164 2 -182 29 -275 44 -152 133 -344 159 -344 4 0 9
-44 10 -97 2 -53 7 -115 11 -138 9 -42 15 -293 16 -643 l0 -204 45 -38 c25
-22 61 -47 80 -57 19 -10 48 -30 65 -45 17 -15 98 -80 181 -144 82 -64 154
-121 159 -128 6 -7 41 -36 79 -65 62 -47 73 -52 110 -48 58 6 199 38 212 48 5
5 104 27 220 49 115 23 229 45 254 51 25 5 62 12 82 14 21 3 57 9 80 15 62 14
63 14 63 -29 1 -29 8 -46 32 -70 33 -32 49 -40 38 -18 -4 6 1 3 10 -8 14 -17
28 -20 110 -20 59 0 88 -3 78 -9 -24 -13 -123 -13 -173 1 -55 15 -62 10 -19
-16 54 -33 152 -39 236 -15 17 5 22 1 28 -25 11 -50 70 -76 175 -76 101 0 144
18 166 70 20 49 18 52 -13 23 -16 -14 -38 -29 -50 -32 -13 -4 -20 -13 -17 -20
3 -8 -4 -16 -15 -19 -21 -5 -30 8 -10 15 6 2 -13 4 -42 4 -69 1 -126 17 -163
47 -39 32 -31 67 21 93 55 27 183 31 234 9 21 -10 39 -21 39 -25 0 -15 96 -18
137 -4 35 12 47 12 65 2 13 -7 57 -12 103 -12 113 0 175 33 175 94 0 17 -2 17
-24 -3 -71 -63 -276 -42 -315 32 -15 28 10 64 53 79 55 18 56 7 1 -17 -37 -16
-46 -25 -43 -42 2 -12 14 -29 28 -38 l25 -15 -20 24 c-18 21 -18 23 -2 17 14
-5 16 -3 8 12 -11 19 -5 31 13 31 6 0 4 -5 -4 -10 -13 -8 -12 -10 3 -10 11 0
15 -4 11 -12 -4 -7 -3 -8 5 -4 6 4 9 16 6 26 -5 14 1 20 27 26 18 4 27 9 21
11 -7 3 -13 12 -13 22 0 23 -37 61 -58 60 -13 0 -12 -3 6 -11 12 -6 22 -14 22
-19 0 -9 -26 -6 -36 4 -4 4 -17 7 -28 7 -18 0 -17 -2 8 -15 15 -8 32 -13 36
-10 5 3 11 1 15 -5 3 -5 -1 -10 -10 -10 -9 0 -33 -9 -55 -20 -39 -20 -40 -20
-87 -2 -61 24 -135 70 -128 81 7 12 63 20 180 27 134 7 245 29 270 55 18 18
20 34 21 172 0 139 6 257 19 442 3 39 7 115 10 169 3 58 10 105 17 114 9 10
13 51 13 121 l0 105 -125 57 c-189 86 -196 89 -204 89 -4 0 -20 8 -34 18 -15
10 -64 35 -108 55 -60 28 -89 36 -108 31 -22 -5 -24 -9 -14 -21 7 -9 -5 -6
-33 8 -56 29 -61 33 -24 25 29 -7 29 -7 10 8 -23 18 -13 21 17 5 11 -6 21 -9
24 -7 2 3 -40 26 -94 53 -53 27 -99 50 -101 52 -2 1 7 17 21 35 43 59 67 108
62 126 -5 13 -4 14 4 3 7 -10 23 9 63 75 29 49 67 109 84 134 18 25 34 50 36
55 6 14 80 141 101 173 10 15 21 33 25 41 3 8 21 39 40 69 18 31 33 64 33 74
0 73 -169 263 -281 316 -60 29 -76 32 -150 31 -46 -1 -111 -5 -143 -10z m269
-29 c-3 -6 1 -7 9 -4 9 3 16 1 16 -6 0 -6 4 -9 9 -5 5 3 12 1 16 -5 4 -6 -5
-10 -19 -10 -14 0 -26 -4 -26 -10 0 -9 15 -14 33 -11 5 1 6 -3 2 -8 -3 -6 -13
-7 -21 -4 -9 3 -20 0 -24 -7 -9 -15 -30 -5 -30 16 0 8 -9 14 -22 14 -21 0 -21
-1 6 -29 15 -16 42 -32 59 -36 23 -6 27 -9 14 -12 -12 -3 -16 -10 -12 -21 5
-13 -25 12 -130 111 -5 5 0 4 13 -2 18 -10 25 -9 39 4 9 9 24 14 34 12 12 -3
16 0 12 9 -3 9 1 14 12 14 9 0 13 -4 10 -10z m155 -114 c0 -5 -12 1 -27 15
-16 13 -22 17 -15 9 6 -8 12 -20 12 -27 0 -28 -25 10 -27 39 l-1 30 29 -28
c16 -15 29 -32 29 -38z m-1207 23 c68 -35 126 -81 149 -117 30 -48 16 -50 -19
-2 -32 42 -85 85 -149 119 -21 11 -35 20 -31 21 4 0 27 -10 50 -21z m565 2
c11 -7 10 -10 -3 -15 -19 -7 -35 0 -35 15 0 11 20 12 38 0z m-201 -7 c-3 -3
-12 -4 -19 -1 -8 3 -5 6 6 6 11 1 17 -2 13 -5z m-132 -30 c17 -14 21 -21 10
-15 -30 14 -61 40 -50 41 6 0 24 -12 40 -26z m483 12 c-7 -8 -15 -12 -17 -11
-5 6 10 25 20 25 5 0 4 -6 -3 -14z m-543 -16 c-3 -5 -11 -10 -16 -10 -6 0 -7
5 -4 10 3 6 11 10 16 10 6 0 7 -4 4 -10z m262 4 c-3 -3 -12 -4 -19 -1 -8 3 -5
6 6 6 11 1 17 -2 13 -5z m718 -4 c-3 -5 -16 -10 -28 -10 -18 0 -19 2 -7 10 20
13 43 13 35 0z m-1015 -20 c0 -5 -4 -10 -9 -10 -6 0 -13 5 -16 10 -3 6 1 10 9
10 9 0 16 -4 16 -10z m530 0 c0 -5 -10 -10 -22 -9 -22 0 -22 1 -3 9 11 5 21 9
23 9 1 1 2 -3 2 -9z m597 -12 c25 -28 71 -98 75 -116 2 -10 -14 -15 -57 -18
-33 -2 -74 -6 -91 -9 -29 -5 -33 -1 -76 64 -46 71 -46 82 0 81 15 -1 15 -2 0
-11 -17 -9 -17 -12 2 -47 39 -73 40 -74 126 -67 81 6 96 11 78 23 -6 4 -18 21
-27 37 -28 56 -50 68 -109 61 -35 -5 -50 -4 -43 3 6 5 26 11 45 14 19 2 40 5
46 5 6 1 20 -8 31 -20z m-1052 3 c7 -12 -12 -24 -25 -16 -11 7 -4 25 10 25 5
0 11 -4 15 -9z m305 -7 c0 -2 -7 -4 -15 -4 -8 0 -15 4 -15 10 0 5 7 7 15 4 8
-4 15 -8 15 -10z m-40 -4 c0 -5 -16 -10 -35 -10 -19 0 -35 5 -35 10 0 6 16 10
35 10 19 0 35 -4 35 -10z m317 4 c-3 -3 -12 -4 -19 -1 -8 3 -5 6 6 6 11 1 17
-2 13 -5z m-1511 -32 c-4 -3 -14 2 -24 12 -16 18 -16 18 6 6 13 -6 21 -14 18
-18z m1036 -16 c10 -19 10 -20 -6 -7 -9 8 -22 24 -28 35 -10 19 -10 20 6 7 9
-8 22 -24 28 -35z m-1205 -4 c26 -21 54 -46 61 -54 7 -9 24 -15 39 -13 25 3
26 2 8 -11 -18 -14 -18 -15 4 -45 13 -17 20 -33 17 -37 -4 -3 -13 3 -21 15
-47 67 -101 126 -135 149 -22 15 -40 28 -40 30 0 12 24 -1 67 -34z m127 23
c11 -8 16 -15 10 -15 -5 0 -18 7 -28 15 -11 8 -16 15 -10 15 5 0 18 -7 28 -15z
m406 5 c0 -5 -3 -10 -7 -10 -5 0 -19 -3 -33 -6 l-25 -5 25 15 c30 18 40 20 40
6z m290 0 c0 -5 -2 -10 -4 -10 -3 0 -8 5 -11 10 -3 6 -1 10 4 10 6 0 11 -4 11
-10z m707 4 c-3 -3 -12 -4 -19 -1 -8 3 -5 6 6 6 11 1 17 -2 13 -5z m46 -1 c-7
-2 -19 -2 -25 0 -7 3 -2 5 12 5 14 0 19 -2 13 -5z m107 -3 c0 -5 -8 -10 -17
-10 -15 0 -16 2 -3 10 19 12 20 12 20 0z m384 -5 c-4 -8 -10 -15 -15 -15 -4 0
-6 7 -3 15 4 8 10 15 15 15 4 0 6 -7 3 -15z m-1959 -14 c3 -5 1 -12 -5 -16 -5
-3 -10 1 -10 9 0 18 6 21 15 7z m333 2 c-10 -2 -28 -2 -40 0 -13 2 -5 4 17 4
22 1 32 -1 23 -4z m939 1 c-3 -3 -12 -4 -19 -1 -8 3 -5 6 6 6 11 1 17 -2 13
-5z m507 -4 c-6 -6 -21 -6 -39 -1 -30 9 -30 9 10 10 25 1 36 -2 29 -9z m-95
-4 c-9 -9 -69 -14 -69 -5 0 5 17 9 37 9 20 0 34 -2 32 -4z m331 -6 c0 -5 -6
-10 -14 -10 -8 0 -18 5 -21 10 -3 6 3 10 14 10 12 0 21 -4 21 -10z m-1850 -78
c34 -51 40 -76 10 -41 -15 19 -19 21 -20 7 0 -9 6 -19 13 -21 6 -3 -1 -6 -18
-6 -20 0 -26 2 -17 8 10 6 7 10 -12 13 -14 3 -27 0 -30 -6 -3 -6 -3 2 -1 19 3
16 9 31 14 33 6 2 7 11 3 20 -5 15 -4 15 12 0 36 -37 31 -14 -8 32 l-21 25 23
-19 c12 -11 36 -40 52 -64z m263 71 c-7 -2 -19 -2 -25 0 -7 3 -2 5 12 5 14 0
19 -2 13 -5z m225 -4 c41 -14 48 -45 15 -66 -33 -22 -153 -31 -153 -13 0 7 9
21 20 30 17 15 18 19 5 24 -8 3 -15 10 -15 15 0 9 20 13 81 19 9 1 30 -3 47
-9z m-331 -5 c-3 -3 -12 -4 -19 -1 -8 3 -5 6 6 6 11 1 17 -2 13 -5z m1143 -5
c0 -5 5 -7 12 -3 7 4 8 3 4 -4 -4 -8 -18 -9 -34 -5 -25 6 -26 5 -10 -10 9 -9
30 -17 47 -17 26 0 31 4 31 25 0 18 5 25 20 25 11 0 20 -5 20 -11 0 -6 7 -9
14 -6 10 4 13 1 10 -7 -3 -8 7 -18 25 -26 34 -14 43 -35 11 -27 -14 4 -20 0
-21 -11 0 -13 -2 -13 -8 3 -8 19 -8 19 -20 -3 -10 -19 -19 -22 -51 -19 -21 2
-45 9 -53 16 -11 8 -17 9 -22 1 -5 -8 -11 -7 -22 1 -11 10 -16 10 -22 0 -9
-14 -42 -12 -48 4 -2 6 16 10 40 10 49 0 59 24 15 39 -22 8 -32 6 -48 -9 -13
-12 -20 -14 -20 -5 0 10 -16 11 -67 8 -77 -6 -56 7 28 17 30 4 72 11 94 15 58
11 75 11 75 -1z m-1115 -19 c-3 -5 -18 -9 -33 -9 l-27 1 30 8 c17 4 31 8 33 9
2 0 0 -3 -3 -9z m78 3 c-7 -2 -19 -2 -25 0 -7 3 -2 5 12 5 14 0 19 -2 13 -5z
m86 3 c-12 -10 -60 -16 -54 -6 3 5 18 10 32 10 15 0 24 -2 22 -4z m654 -18 c8
-13 33 -43 56 -68 22 -25 41 -48 41 -51 0 -7 -49 -15 -156 -25 -58 -5 -72 -4
-77 9 -5 12 -1 14 21 8 29 -8 178 2 188 12 4 3 -15 31 -42 63 l-48 56 -65 -4
c-52 -3 -67 -8 -79 -26 -18 -27 -32 -29 -25 -2 6 24 46 36 159 49 7 0 18 -9
27 -21z m-1486 -20 c-3 -7 -5 -2 -5 12 0 14 2 19 5 13 2 -7 2 -19 0 -25z m403
6 c0 -2 -9 -4 -21 -4 -11 0 -18 4 -14 10 5 8 35 3 35 -6z m157 10 c-3 -3 -12
-4 -19 -1 -8 3 -5 6 6 6 11 1 17 -2 13 -5z m593 -4 c0 -5 -5 -10 -11 -10 -5 0
-7 5 -4 10 3 6 8 10 11 10 2 0 4 -4 4 -10z m560 0 c0 -5 -2 -10 -4 -10 -3 0
-8 5 -11 10 -3 6 -1 10 4 10 6 0 11 -4 11 -10z m-990 -10 c11 -7 -1 -9 -40 -9
-50 2 -52 2 -20 9 19 4 37 8 40 9 3 0 12 -4 20 -9z m67 4 c-3 -3 -12 -4 -19
-1 -8 3 -5 6 6 6 11 1 17 -2 13 -5z m1233 -4 c0 -5 -2 -10 -4 -10 -3 0 -8 5
-11 10 -3 6 -1 10 4 10 6 0 11 -4 11 -10z m-855 -31 c-22 -4 -51 -8 -65 -8
-23 0 -23 1 -5 9 11 5 40 8 65 8 l45 0 -40 -9z m269 5 c17 -7 22 -34 6 -34 -5
0 -10 5 -10 10 0 6 -7 10 -16 10 -8 0 -12 5 -9 10 7 12 8 12 29 4z m756 -4
c-8 -4 -42 -10 -75 -14 -51 -5 -57 -4 -38 7 12 6 46 13 75 14 29 0 46 -2 38
-7z m-1137 -12 c3 -10 -13 -14 -60 -16 -36 -1 -99 -11 -141 -23 -97 -26 -136
-30 -122 -14 8 9 4 11 -16 7 -19 -3 -22 -7 -12 -13 9 -6 9 -9 1 -9 -6 0 -15 5
-18 10 -3 6 -18 11 -33 11 -42 2 219 41 384 58 7 0 14 -5 17 -11z m981 -8 c-5
-5 -32 -12 -59 -15 -28 -3 -79 -9 -115 -15 -36 -5 -76 -10 -90 -9 -21 0 -22 1
-9 9 10 6 75 16 145 24 71 7 131 14 134 15 2 0 0 -3 -6 -9z m-852 -20 c10 0
18 -5 18 -11 0 -6 7 -9 15 -5 20 7 19 -4 -2 -33 -9 -14 -11 -21 -5 -17 7 4 12
3 12 -2 0 -5 21 -8 48 -5 35 3 43 1 31 -6 -9 -6 -43 -13 -75 -15 -33 -2 -89
-9 -125 -15 -36 -6 -135 -20 -220 -31 -85 -11 -170 -22 -189 -25 -23 -4 -30
-2 -20 4 8 5 56 14 105 21 50 7 108 18 130 25 22 8 58 13 80 12 60 -2 178 14
193 25 6 6 12 16 12 22 0 6 -5 4 -10 -4 -8 -13 -10 -12 -10 3 0 10 -7 32 -16
50 -11 21 -12 28 -3 20 7 -7 21 -13 31 -13z m-752 0 c0 -5 -12 -10 -27 -9 -25
0 -26 1 -8 9 27 12 35 12 35 0z m530 -10 c-8 -5 -24 -10 -35 -10 -17 0 -17 2
-5 10 8 5 24 10 35 10 17 0 17 -2 5 -10z m575 0 c3 -5 2 -10 -4 -10 -5 0 -13
5 -16 10 -3 6 -2 10 4 10 5 0 13 -4 16 -10z m-945 -61 c42 -63 45 -69 33 -69
-5 0 -16 14 -25 31 -10 17 -22 28 -27 24 -5 -3 -13 0 -17 6 -4 8 -3 9 4 5 7
-4 12 -1 12 6 0 36 -99 51 -147 22 -18 -11 -22 -11 -27 1 -3 8 -4 15 -3 15 1
0 27 3 57 6 30 4 57 8 59 10 18 16 45 -3 81 -57z m405 40 c11 -16 1 -19 -13
-3 -7 8 -8 14 -3 14 5 0 13 -5 16 -11z m695 0 c-25 -4 -58 -7 -75 -7 -29 0
-29 0 -5 8 14 4 48 8 75 8 l50 -1 -45 -8z m-1320 -25 c15 -38 12 -42 -10 -14
-22 28 -25 40 -10 40 6 0 15 -12 20 -26z m595 16 c3 -5 2 -10 -4 -10 -5 0 -13
5 -16 10 -3 6 -2 10 4 10 5 0 13 -4 16 -10z m-85 -20 c0 -5 -7 -10 -16 -10 -8
0 -12 5 -9 10 3 6 10 10 16 10 5 0 9 -4 9 -10z m50 -32 c0 -13 -23 -5 -28 10
-2 7 2 10 12 6 9 -3 16 -11 16 -16z m70 12 c13 -9 13 -10 0 -9 -8 1 -26 5 -40
9 l-25 8 25 1 c14 0 32 -4 40 -9z m-485 -11 c10 -16 -3 -23 -18 -11 -8 7 -17
9 -20 5 -4 -3 -7 -1 -7 5 0 15 37 16 45 1z m-94 -62 c12 -16 26 -19 69 -18 68
1 58 -10 -12 -14 -29 -1 -54 -8 -56 -14 -2 -6 -9 -11 -15 -11 -8 0 -8 3 0 11
7 7 5 22 -8 49 -21 43 -25 65 -6 36 7 -10 19 -27 28 -39z m144 12 c-4 -5 -15
-9 -26 -9 -26 0 -17 15 10 17 12 1 19 -2 16 -8z m70 -19 c-3 -5 -25 -10 -48
-9 -36 1 -38 2 -17 9 36 12 72 12 65 0z m1565 -170 c-20 -13 -33 -13 -25 0 3
6 14 10 23 10 15 0 15 -2 2 -10z m-990 -430 c-8 -5 -22 -9 -30 -9 -10 0 -8 3
5 9 27 12 43 12 25 0z m67 4 c-3 -3 -12 -4 -19 -1 -8 3 -5 6 6 6 11 1 17 -2
13 -5z m470 -20 c-3 -3 -12 -4 -19 -1 -8 3 -5 6 6 6 11 1 17 -2 13 -5z m-303
-14 c-14 -13 -141 -25 -129 -12 9 10 38 15 109 19 16 1 25 -2 20 -7z m483 -46
c-3 -3 -12 -4 -19 -1 -8 3 -5 6 6 6 11 1 17 -2 13 -5z m-37 -25 c0 -5 14 -6
32 -2 22 4 29 3 24 -5 -4 -7 -16 -12 -26 -12 -30 0 -72 19 -65 30 7 11 35 2
35 -11z m-800 1 c0 -5 -11 -10 -24 -10 -13 0 -31 -3 -40 -6 -9 -3 -16 -1 -16
4 0 10 23 18 63 21 9 0 17 -3 17 -9z m915 -10 c9 -10 15 -26 12 -35 -9 -21
-82 -19 -132 4 l-40 19 51 -5 c33 -4 54 -1 58 6 5 8 12 7 22 -4 9 -8 21 -15
27 -15 7 0 6 4 -3 10 -8 5 -11 10 -6 10 6 0 1 7 -10 15 -10 8 -14 15 -8 15 6
0 19 -9 29 -20z m230 -8 c-3 -3 -11 0 -18 7 -9 10 -8 11 6 5 10 -3 15 -9 12
-12z m-1272 -3 c-14 -14 -103 -24 -103 -11 0 11 26 18 79 19 19 1 29 -3 24 -8z
m518 -27 c-26 -2 -50 -10 -56 -19 -14 -18 -28 -4 -16 16 12 19 72 30 96 17 17
-10 14 -11 -24 -14z m674 8 c9 -10 15 -26 12 -35 -5 -10 0 -15 16 -16 20 -1
20 -2 2 -6 -11 -3 -27 -10 -35 -17 -13 -9 -13 -9 -2 6 15 19 3 31 -18 17 -25
-15 -33 -10 -28 16 3 13 2 23 -1 20 -4 -2 -13 1 -21 6 -13 8 -13 10 0 19 24
16 55 12 75 -10z m80 0 c3 -6 -1 -7 -9 -4 -18 7 -21 14 -7 14 6 0 13 -4 16
-10z m-372 -11 c20 -5 37 -14 37 -18 0 -10 -80 7 -94 20 -13 12 10 11 57 -2z
m-283 -14 c10 -12 9 -15 -4 -15 -10 0 -14 -4 -11 -10 3 -5 15 -10 25 -10 10 0
22 -5 26 -12 5 -7 2 -10 -7 -6 -8 3 -27 -1 -44 -9 -29 -13 -29 -13 21 -9 45 4
54 2 75 -20 24 -25 24 -26 5 -40 -25 -18 -29 -18 -55 5 -13 11 -37 23 -54 27
-31 6 -107 41 -107 48 0 2 21 3 48 2 26 0 48 4 49 9 1 6 -12 9 -30 7 -84 -8
-103 29 -21 39 27 3 54 7 60 7 6 1 17 -5 24 -13z m166 3 c7 -10 -26 -9 -51 2
-16 7 -14 9 13 7 19 -1 36 -5 38 -9z m534 2 c8 -5 11 -10 5 -10 -5 0 -17 5
-25 10 -8 5 -10 10 -5 10 6 0 17 -5 25 -10z m-965 -10 c-11 -5 -27 -9 -35 -9
-13 -1 -13 0 0 9 8 5 24 9 35 9 l20 0 -20 -9z m-765 -10 c0 -5 -17 -9 -37 -9
-38 1 -38 1 -8 9 43 11 45 11 45 0z m500 0 c0 -5 -4 -10 -10 -10 -5 0 -10 5
-10 10 0 6 5 10 10 10 6 0 10 -4 10 -10z m745 0 c13 -6 15 -9 5 -9 -8 0 -22 4
-30 9 -18 12 -2 12 25 0z m584 -25 c25 -5 32 -4 26 5 -6 9 -3 9 14 1 11 -7 21
-14 21 -17 0 -3 -4 -2 -10 1 -5 3 -10 4 -10 1 0 -7 56 -36 67 -36 4 1 -3 7
-17 15 -33 19 -21 19 21 0 21 -8 27 -14 16 -15 -11 0 -15 -5 -11 -11 9 -15
-20 -5 -102 33 -35 16 -67 35 -71 41 -5 9 -3 9 8 1 8 -7 29 -15 48 -19z m-964
3 c4 4 6 0 3 -8 -3 -9 -19 -16 -44 -18 l-39 -2 24 20 c16 14 27 17 36 10 6 -5
15 -6 20 -2z m364 1 c20 -7 42 -13 50 -15 9 -3 6 -10 -10 -25 l-24 -20 23 6
c13 4 22 2 22 -4 0 -6 4 -11 9 -11 5 0 7 10 3 22 -4 15 -2 19 7 13 8 -5 11
-18 7 -36 -5 -27 -4 -29 20 -23 27 7 107 -12 141 -33 46 -30 35 -75 -24 -99
-31 -13 -38 -13 -59 0 -13 9 -31 16 -40 16 -24 0 -84 39 -84 55 0 7 -6 16 -12
18 -10 4 -10 8 -1 14 27 19 -38 63 -93 63 -22 0 -64 27 -53 33 2 1 18 9 34 19
37 20 41 21 84 7z m296 -10 c25 -12 55 -35 66 -51 19 -27 20 -31 6 -45 -22
-22 -84 -9 -147 33 -28 19 -58 34 -67 34 -8 0 -13 6 -10 13 4 13 48 15 112 5
40 -7 40 -7 13 8 -26 13 -36 24 -23 24 3 0 25 -10 50 -21z m-1045 0 c0 -6 -12
-9 -27 -7 -16 2 -33 -3 -40 -12 -9 -10 -12 -11 -13 -2 0 6 -6 12 -14 12 -8 0
-17 3 -19 8 -3 4 22 8 54 9 36 2 59 -2 59 -8z m1283 -25 c38 -30 45 -39 35
-51 -10 -12 -13 -12 -20 1 -5 9 -16 16 -24 16 -8 0 -12 -4 -9 -10 3 -6 -1 -7
-10 -3 -13 5 -14 7 -3 14 7 5 11 9 8 10 -3 0 -13 2 -23 4 -9 2 -15 -1 -11 -6
9 -15 -12 -10 -25 5 -7 8 -23 17 -37 20 -33 9 -22 25 13 19 22 -4 25 -2 13 6
-12 9 -9 11 16 11 20 0 47 -12 77 -36z m-1451 4 c-6 -6 -15 -8 -19 -4 -4 4 -1
11 7 16 8 5 17 7 19 4 3 -2 -1 -10 -7 -16z m-222 -3 c0 -2 -7 -5 -15 -9 -9 -3
-15 0 -15 9 0 9 6 12 15 9 8 -4 15 -7 15 -9z m670 3 c0 -11 -48 -10 -54 1 -3
4 8 8 24 7 17 -1 30 -4 30 -8z m-176 -30 l39 2 -19 -22 c-18 -20 -18 -21 -1
-15 10 4 26 7 35 7 12 0 13 3 5 8 -8 5 1 8 22 9 43 1 62 -18 40 -41 -9 -9 -12
-16 -6 -16 5 0 13 4 16 10 3 5 15 15 26 21 18 9 19 8 10 -9 -19 -35 -111 -68
-111 -39 -1 11 -73 62 -112 79 -10 4 -18 10 -18 14 0 3 8 3 18 -2 9 -4 35 -7
56 -6z m323 5 c-11 -10 -56 -12 -62 -2 -4 5 11 9 31 9 21 0 34 -3 31 -7z m952
-22 c12 -16 20 -42 20 -58 -2 -26 -2 -26 -6 -4 -4 19 -7 21 -15 10 -7 -11 -9
-8 -5 9 3 12 2 22 -2 22 -4 0 -13 11 -19 25 -16 34 2 32 27 -4z m-1463 -6
c-11 -8 -22 -12 -25 -9 -6 6 19 24 34 24 6 -1 1 -7 -9 -15z m789 5 c19 -8 19
-9 -2 -9 -12 -1 -25 4 -28 9 -7 12 2 12 30 0z m826 -11 c23 -11 39 -23 36 -25
-5 -6 -87 33 -87 41 0 9 10 6 51 -16z m43 6 c25 -19 9 -19 -24 0 -14 8 -19 14
-10 14 8 0 24 -6 34 -14z m-1518 -10 c23 -15 25 -38 7 -71 -19 -33 -151 -65
-197 -48 -32 12 -15 21 37 19 28 -2 40 0 25 2 -16 2 -28 8 -28 14 0 5 12 9 28
10 27 0 27 1 5 11 -25 12 -32 34 -8 24 18 -7 47 3 40 14 -2 4 -17 5 -32 2 -25
-5 -26 -3 -15 11 8 9 28 17 45 19 18 2 41 4 52 5 11 1 29 -4 41 -12z m467 0
c18 5 37 1 59 -13 24 -14 45 -18 75 -14 50 5 60 -8 43 -54 -9 -23 -9 -27 1
-16 16 14 39 16 39 2 0 -5 -7 -10 -16 -10 -8 0 -13 -3 -10 -8 8 -14 -22 -43
-55 -52 -78 -23 -124 -3 -124 52 0 15 3 28 8 28 4 0 7 4 7 8 0 5 -14 9 -32 10
-22 1 -41 11 -65 36 -18 20 -31 34 -28 32 4 -2 18 -1 33 3 15 4 30 4 33 -1 3
-5 18 -6 32 -3z m-703 0 c0 -3 -18 -18 -41 -35 -36 -26 -43 -28 -56 -15 -8 9
-20 12 -26 9 -8 -5 -8 -2 1 7 6 7 27 13 46 13 19 0 33 3 30 7 -2 4 6 10 18 12
13 2 24 5 26 6 1 0 2 -1 2 -4z m597 -30 c5 -17 -20 -45 -46 -50 -28 -5 -41
-15 -19 -15 25 0 65 -24 61 -37 -4 -12 9 -17 72 -28 52 -9 80 -24 68 -36 -6
-6 -52 -14 -102 -19 -51 -6 -97 -12 -101 -15 -4 -3 -10 2 -14 10 -3 8 -11 15
-19 15 -19 0 -94 38 -103 51 -4 8 -3 9 4 5 7 -4 12 -1 12 8 0 14 12 20 33 17
4 0 7 4 7 10 0 7 -9 9 -22 5 -13 -3 -29 -6 -35 -6 -7 0 -13 -12 -13 -27 0 -20
-3 -24 -11 -16 -15 15 6 51 37 63 14 6 43 10 65 10 37 0 39 1 29 20 -10 18 -7
22 22 35 36 16 70 16 75 0z m926 0 c-3 -9 -8 -14 -10 -11 -3 3 -2 9 2 15 9 16
15 13 8 -4z m-591 -7 c-9 -9 -15 -9 -24 0 -9 9 -7 12 12 12 19 0 21 -3 12 -12z
m522 -18 c29 -23 17 -28 -21 -9 -21 10 -48 19 -60 19 -13 0 -23 4 -23 8 0 13
86 -2 104 -18z m-1000 5 c-7 -16 -24 -21 -24 -6 0 8 7 13 27 20 1 1 0 -6 -3
-14z m1426 5 c0 -5 -2 -10 -4 -10 -3 0 -8 5 -11 10 -3 6 -1 10 4 10 6 0 11 -4
11 -10z m-1857 -7 c-7 -2 -13 -14 -14 -26 0 -12 -3 -16 -6 -9 -7 18 4 42 19
41 10 0 10 -2 1 -6z m1217 -8 c0 -8 -2 -15 -4 -15 -2 0 -6 7 -10 15 -3 8 -1
15 4 15 6 0 10 -7 10 -15z m-1360 -5 c0 -5 -2 -10 -4 -10 -3 0 -8 5 -11 10 -3
6 -1 10 4 10 6 0 11 -4 11 -10z m434 -11 c-10 -4 -28 -8 -39 -8 -18 0 -17 1 4
13 14 8 32 11 40 8 12 -4 11 -7 -5 -13z m990 6 c-7 -17 -54 -21 -54 -4 0 6 7
9 15 6 8 -4 17 -2 20 3 10 16 25 11 19 -5z m616 -18 c-1 -20 -2 -20 -11 -4 -6
9 -15 15 -20 11 -6 -3 -36 -8 -67 -11 -31 -2 -61 -8 -67 -13 -6 -5 -23 3 -40
18 -20 17 -23 23 -10 18 39 -16 51 -16 125 -3 41 7 78 11 83 9 4 -2 7 -13 7
-25z m-490 13 c12 -8 10 -10 -10 -10 -14 0 -32 5 -40 10 -12 8 -10 10 10 10
14 0 32 -5 40 -10z m247 -6 c-3 -3 -12 -4 -19 -1 -8 3 -5 6 6 6 11 1 17 -2 13
-5z m-60 -10 c-3 -3 -12 -4 -19 -1 -8 3 -5 6 6 6 11 1 17 -2 13 -5z m-57 -13
c-18 -10 -137 -24 -127 -15 9 10 67 22 107 23 24 0 30 -2 20 -8z m150 -1 c0
-5 -12 -11 -27 -12 -16 -1 -37 -2 -48 -3 -11 -1 -29 -6 -40 -12 -26 -14 -206
-27 -185 -14 8 6 42 13 75 16 33 4 85 13 115 20 68 16 110 18 110 5z m-1030
-32 c0 -6 -6 -5 -15 2 -8 7 -15 14 -15 16 0 2 7 1 15 -2 8 -4 15 -11 15 -16z
m-412 -4 c29 -20 28 -37 -5 -73 -33 -35 -116 -63 -150 -50 -23 9 -39 48 -29
74 7 18 65 55 86 54 13 0 13 -1 0 -6 -8 -3 -28 -15 -43 -26 -22 -15 -27 -26
-25 -51 3 -27 7 -31 33 -32 36 -1 57 5 50 15 -2 4 -18 6 -35 3 -26 -4 -29 -2
-23 13 4 13 3 16 -5 11 -7 -4 -12 -1 -12 7 0 15 43 40 73 43 20 2 36 14 19 14
-7 0 -12 5 -12 10 0 16 53 12 78 -6z m-453 -13 c-3 -6 -11 -11 -17 -11 -6 0
-6 6 2 15 14 17 26 13 15 -4z m110 -1 c-10 -11 -22 -20 -26 -20 -15 0 2 29 19
33 10 3 19 5 21 6 2 0 -4 -8 -14 -19z m412 -12 c-4 -12 6 -32 25 -54 l31 -35
-29 4 c-23 3 -32 12 -48 51 -16 40 -17 49 -6 56 20 12 33 1 27 -22z m-851 -19
c8 -13 -21 1 -51 26 -19 15 -18 15 12 1 17 -9 35 -21 39 -27z m482 21 c-14
-22 -24 -25 -33 -10 -5 8 17 23 43 29 1 1 -3 -8 -10 -19z m102 10 c12 -7 12
-13 4 -27 -15 -24 -82 -30 -90 -9 -13 34 48 60 86 36z m1158 -2 c-2 -9 9 -12
37 -10 26 3 36 0 30 -6 -10 -10 -147 -33 -188 -31 -21 0 -21 1 -2 9 18 8 17 9
-8 9 -39 1 -26 17 19 24 27 5 40 2 48 -8 8 -10 16 -12 26 -5 12 8 12 10 -5 11
l-20 0 20 9 c29 13 45 12 43 -2z m39 6 c-3 -3 -12 -4 -19 -1 -8 3 -5 6 6 6 11
1 17 -2 13 -5z m-1644 -11 c-7 -2 -19 -2 -25 0 -7 3 -2 5 12 5 14 0 19 -2 13
-5z m1737 3 c0 -9 -30 -14 -35 -6 -4 6 3 10 14 10 12 0 21 -2 21 -4z m490 -11
c0 -9 -6 -12 -15 -9 -8 4 -15 10 -15 15 0 5 7 9 15 9 8 0 15 -7 15 -15z m-796
-16 c15 -12 26 -30 25 -42 -1 -18 -2 -19 -6 -4 -4 15 -7 16 -20 6 -11 -10 -16
-10 -22 -1 -5 9 -23 9 -66 2 -33 -5 -64 -10 -69 -10 -10 0 1 15 12 16 146 15
166 24 99 43 -30 9 -30 9 -6 10 15 1 38 -8 53 -20z m-1242 -11 c-7 -7 -12 -8
-12 -2 0 14 12 26 19 19 2 -3 -1 -11 -7 -17z m602 7 c11 -8 16 -15 10 -15 -5
0 -18 7 -28 15 -11 8 -16 15 -10 15 5 0 18 -7 28 -15z m506 5 c-20 -13 -53
-13 -45 0 3 6 18 10 33 10 21 0 24 -2 12 -10z m-916 -41 c26 -17 46 -35 46
-40 0 -6 -20 -19 -44 -30 -38 -17 -51 -18 -95 -8 -28 6 -54 15 -57 21 -4 6 1
8 12 5 57 -17 73 -17 103 0 44 24 39 39 -9 35 -37 -3 -70 13 -70 34 0 4 3 5 6
2 4 -5 40 2 61 11 1 1 22 -13 47 -30z m1296 21 c0 -5 -9 -10 -21 -10 -11 0
-17 5 -14 10 3 6 13 10 21 10 8 0 14 -4 14 -10z m-801 -16 c10 -9 -35 -3 -49
6 -11 8 -7 9 15 4 17 -4 32 -8 34 -10z m661 2 c0 -3 -4 -8 -10 -11 -5 -3 -10
-1 -10 4 0 6 5 11 10 11 6 0 10 -2 10 -4z m98 -4 c13 -9 7 -42 -8 -42 -4 0
-13 6 -19 14 -10 12 -8 13 8 9 28 -7 27 5 -1 17 -13 5 -16 9 -8 9 8 0 21 -3
28 -7z m176 -7 c-4 -8 -10 -12 -15 -9 -11 6 -2 24 11 24 5 0 7 -7 4 -15z
m-564 1 c0 -2 -12 -11 -26 -21 -22 -14 -28 -15 -35 -4 -6 10 -2 16 14 21 27 7
47 9 47 4z m420 -33 c-11 -17 -11 -17 -6 0 3 10 6 24 7 30 0 9 2 9 5 0 3 -7 0
-20 -6 -30z m-680 11 c-24 -14 -24 -14 14 -8 27 5 37 3 32 -4 -4 -6 -23 -14
-44 -17 -20 -3 -44 -10 -53 -15 -9 -4 -31 -5 -50 0 l-34 8 30 1 30 2 -30 13
-30 13 50 7 c28 4 57 9 65 10 36 8 43 4 20 -10z m597 -26 c-42 -12 -46 -10
-34 16 11 22 12 23 33 7 l22 -16 -21 -7z m293 32 c0 -5 -4 -10 -10 -10 -5 0
-10 5 -10 10 0 6 5 10 10 10 6 0 10 -4 10 -10z m-1860 -10 c-9 -6 -1 -16 29
-34 51 -33 55 -46 4 -15 -21 13 -46 28 -55 33 -25 15 -22 21 9 23 17 1 21 -2
13 -7z m64 1 c3 -5 -1 -11 -9 -15 -8 -3 -15 -1 -15 5 0 6 -5 7 -12 3 -7 -4 -8
-3 -4 4 9 14 33 16 40 3z m1046 -1 c-8 -5 -31 -9 -50 -9 -29 0 -31 2 -15 9 11
5 34 9 50 9 23 1 26 -2 15 -9z m640 6 c0 -3 -4 -8 -10 -11 -5 -3 -10 -1 -10 4
0 6 5 11 10 11 6 0 10 -2 10 -4z m-1403 -12 c-3 -3 -12 -4 -19 -1 -8 3 -5 6 6
6 11 1 17 -2 13 -5z m1021 -11 c2 -9 -10 -13 -42 -13 -43 0 -55 7 -39 24 12
11 76 2 81 -11z m-123 -19 c-15 -14 -30 -22 -34 -19 -7 8 36 45 52 45 5 0 -2
-11 -18 -26z m-484 -3 c11 -10 17 -21 12 -24 -12 -8 -258 -47 -291 -47 -24 1
-62 20 -62 32 0 2 16 5 35 6 27 2 33 -1 29 -13 -7 -16 -7 -16 111 6 33 6 75
14 93 16 17 3 32 8 32 12 0 4 -15 6 -32 3 -36 -5 -30 12 7 21 37 9 46 7 66
-12z m64 -11 c3 -6 -4 -10 -17 -10 -18 0 -20 2 -8 10 19 12 18 12 25 0z m778
3 c-7 -2 -21 -2 -30 0 -10 3 -4 5 12 5 17 0 24 -2 18 -5z m297 -13 c0 -5 -10
-10 -22 -9 -22 0 -22 1 -3 9 11 5 21 9 23 9 1 1 2 -3 2 -9z m-365 -46 c9 -11
14 -39 13 -69 -1 -48 -1 -48 -7 -12 -3 21 -10 37 -16 37 -5 -1 -11 4 -14 11
-2 7 1 9 8 5 6 -4 11 -2 11 3 0 6 -5 11 -11 11 -5 0 -24 13 -42 30 l-31 29 37
-13 c20 -7 44 -21 52 -32z m-1324 -36 c4 -7 13 -7 25 0 11 5 50 12 88 15 74 7
89 13 66 27 -13 8 -13 10 -1 10 16 0 51 -28 51 -41 0 -5 -7 -6 -15 -3 -23 9
-195 -26 -195 -40 0 -6 -8 -1 -18 10 -9 12 -36 31 -59 43 -23 11 -45 26 -48
32 -4 5 17 -2 46 -17 30 -14 57 -31 60 -36z m114 52 c-3 -5 -18 -9 -33 -9
l-27 1 30 8 c17 4 31 8 33 9 2 0 0 -3 -3 -9z m490 0 c-4 -6 -15 -8 -25 -5 -14
5 -17 2 -13 -13 7 -26 -11 -36 -28 -15 -10 12 -10 14 -1 9 6 -4 12 -2 12 3 0
6 -6 11 -12 12 -21 1 25 18 50 18 14 1 21 -3 17 -9z m543 -15 c-12 -26 -38
-34 -38 -12 0 17 20 37 37 37 10 0 10 -5 1 -25z m237 15 c-3 -5 -10 -10 -16
-10 -5 0 -9 5 -9 10 0 6 7 10 16 10 8 0 12 -4 9 -10z m-302 -24 c3 -11 -30
-32 -38 -25 -3 4 -3 14 1 23 7 17 33 19 37 2z m907 4 c0 -5 -4 -10 -10 -10 -5
0 -10 5 -10 10 0 6 5 10 10 10 6 0 10 -4 10 -10z m33 -81 c-4 -4 -6 15 -3 44
l5 52 3 -44 c2 -24 0 -47 -5 -52z m-116 39 c-3 -7 -5 -2 -5 12 0 14 2 19 5 13
2 -7 2 -19 0 -25z m-1009 2 c-7 -11 -21 -20 -30 -20 -25 0 -22 13 5 26 33 17
38 16 25 -6z m39 -26 c-15 -14 -29 -35 -32 -45 -7 -20 -25 -26 -25 -9 0 14 72
92 78 85 3 -3 -7 -16 -21 -31z m-417 10 c0 -17 -22 -14 -28 4 -2 7 3 12 12 12
9 0 16 -7 16 -16z m1425 -43 c18 -11 17 -12 -10 -6 -29 6 -45 20 -45 39 0 5 8
2 18 -6 9 -8 26 -21 37 -27z m-1795 -16 c0 -17 -2 -18 -24 -9 -23 9 -20 24 4
24 11 0 20 -7 20 -15z m80 5 c0 -5 -5 -10 -11 -10 -5 0 -7 5 -4 10 3 6 8 10
11 10 2 0 4 -4 4 -10z m1770 -2 c0 -9 3 -8 10 2 12 20 23 6 15 -19 -6 -20 -7
-20 -30 -3 -28 20 -32 32 -10 32 8 0 15 -6 15 -12z m-842 -33 c-3 -3 -9 2 -12
12 -6 14 -5 15 5 6 7 -7 10 -15 7 -18z m757 15 c4 -6 1 -17 -5 -25 -6 -8 -10
-18 -7 -22 2 -4 1 -17 -4 -28 -5 -14 -8 -4 -8 33 -1 48 9 66 24 42z m-1335
-10 c-36 -11 -50 -11 -50 0 0 6 17 10 38 9 33 -1 34 -2 12 -9z m-350 -4 c0 -3
-4 -8 -10 -11 -5 -3 -10 -1 -10 4 0 6 5 11 10 11 6 0 10 -2 10 -4z m627 -56
c0 -22 -4 -40 -8 -40 -10 0 -12 41 -3 64 9 24 11 20 11 -24z m773 30 c0 -5 -2
-10 -4 -10 -3 0 -8 5 -11 10 -3 6 -1 10 4 10 6 0 11 -4 11 -10z m-310 -16 c0
-8 -4 -12 -10 -9 -5 3 -10 10 -10 16 0 5 5 9 10 9 6 0 10 -7 10 -16z m-379 -8
c-9 -11 -9 -15 1 -19 8 -4 7 -6 -4 -6 -12 -1 -18 6 -18 19 0 12 7 20 16 20 13
0 14 -3 5 -14z m-926 -33 c-5 -20 -3 -24 12 -20 55 16 66 16 34 1 -43 -20 -61
-12 -61 26 0 20 4 29 11 24 6 -3 8 -17 4 -31z m160 19 c-3 -3 -11 0 -18 7 -9
10 -8 11 6 5 10 -3 15 -9 12 -12z m961 -19 c-11 -11 -19 6 -11 24 8 17 8 17
12 0 3 -10 2 -21 -1 -24z m34 7 c0 -5 -4 -10 -10 -10 -5 0 -10 5 -10 10 0 6 5
10 10 10 6 0 10 -4 10 -10z m730 -20 c0 -5 -4 -10 -10 -10 -5 0 -10 5 -10 10
0 6 5 10 10 10 6 0 10 -4 10 -10z m117 -37 c-3 -10 -5 -4 -5 12 0 17 2 24 5
18 2 -7 2 -21 0 -30z m-717 8 c0 -6 -12 -23 -26 -38 l-25 -28 23 37 c24 40 28
44 28 29z m-402 -29 c15 -19 16 -32 2 -32 -5 0 -9 5 -7 12 1 7 -8 17 -20 23
-13 5 -23 13 -23 17 0 11 34 -3 48 -20z m1103 -26 c5 -6 8 -24 8 -40 -2 -31
-2 -31 -8 4 -4 19 -11 34 -17 33 -6 -1 -8 11 -5 30 5 29 6 30 9 7 2 -14 8 -29
13 -34z m-243 27 c-10 -2 -26 -2 -35 0 -10 3 -2 5 17 5 19 0 27 -2 18 -5z
m-1228 -23 c0 -5 -4 -10 -10 -10 -5 0 -10 5 -10 10 0 6 5 10 10 10 6 0 10 -4
10 -10z m990 0 c-8 -5 -35 -9 -60 -9 -41 1 -42 2 -15 9 17 4 44 8 60 9 23 0
26 -2 15 -9z m440 -10 c25 -25 25 -25 -5 -26 -14 -1 -25 2 -25 8 0 5 5 6 10 3
14 -9 13 8 -2 23 -7 7 -9 12 -5 12 4 0 16 -9 27 -20z m-1943 -27 c-3 -10 -5
-4 -5 12 0 17 2 24 5 18 2 -7 2 -21 0 -30z m1108 27 c-3 -5 -21 -9 -38 -9
l-32 1 30 8 c43 11 47 11 40 0z m278 -7 c-7 -2 -19 -2 -25 0 -7 3 -2 5 12 5
14 0 19 -2 13 -5z m-1290 -18 c7 -16 -8 -29 -23 -20 -10 6 -2 35 10 35 4 0 10
-7 13 -15z m427 -10 c0 -8 -7 -15 -15 -15 -8 0 -15 7 -15 15 0 8 7 15 15 15 8
0 15 -7 15 -15z m427 -5 c31 -24 17 -27 -17 -3 l-25 16 24 -26 c13 -15 40 -32
60 -38 20 -6 41 -16 46 -21 6 -5 -15 0 -45 11 -59 23 -96 53 -86 70 10 15 14
14 43 -9z m263 6 c0 -2 -8 -10 -17 -17 -16 -13 -17 -12 -4 4 13 16 21 21 21
13z m415 -44 c-3 -3 -5 0 -5 7 0 8 -7 10 -21 6 -20 -7 -20 -6 -2 12 18 18 18
18 26 -1 4 -10 5 -21 2 -24z m245 17 c-5 -18 -12 -34 -16 -38 -4 -3 -4 2 -1
12 4 10 7 27 7 38 0 10 4 19 9 19 6 0 6 -12 1 -31z m-1872 -29 c-1 -23 -5 -37
-10 -32 -8 8 0 72 8 72 2 0 3 -18 2 -40z m149 18 c-3 -8 -6 -5 -6 6 -1 11 2
17 5 13 3 -3 4 -12 1 -19z m1840 -60 c-2 -13 -4 -3 -4 22 0 25 2 35 4 23 2
-13 2 -33 0 -45z m-890 30 c-3 -8 -6 -5 -6 6 -1 11 2 17 5 13 3 -3 4 -12 1
-19z m38 12 c-3 -5 -11 -10 -16 -10 -6 0 -7 5 -4 10 3 6 11 10 16 10 6 0 7 -4
4 -10z m-992 -71 c-5 -5 -6 11 -3 34 4 41 5 41 8 8 2 -18 0 -37 -5 -42z m490
44 c-7 -2 -19 -2 -25 0 -7 3 -2 5 12 5 14 0 19 -2 13 -5z m658 -29 c-9 -28 -9
-29 -10 -3 -1 14 2 29 6 32 11 12 13 2 4 -29z m-444 -102 c9 2 18 -2 20 -9 3
-7 -4 -9 -19 -5 -21 5 -22 4 -9 -11 12 -15 11 -17 -3 -17 -13 0 -16 11 -14 68
1 56 2 59 5 19 3 -37 8 -47 20 -45z m-850 46 c-3 -8 -6 -5 -6 6 -1 11 2 17 5
13 3 -3 4 -12 1 -19z m150 -55 c-2 -16 -4 -5 -4 22 0 28 2 40 4 28 2 -13 2
-35 0 -50z m-136 10 c-12 -20 -14 -14 -5 12 4 9 9 14 11 11 3 -2 0 -13 -6 -23z
m304 17 c-27 -12 -43 -12 -25 0 8 5 22 9 30 9 10 0 8 -3 -5 -9z m-222 -25 c-3
-9 -8 -14 -10 -11 -3 3 -2 9 2 15 9 16 15 13 8 -4z m1492 -5 c3 -5 -1 -10 -9
-10 -9 0 -16 5 -16 10 0 6 4 10 9 10 6 0 13 -4 16 -10z m405 -19 c0 -9 -110
-34 -118 -27 -4 5 84 34 106 35 6 1 12 -3 12 -8z m-155 -33 c-11 -6 -23 -16
-27 -22 -4 -6 -10 -7 -14 -3 -11 11 17 37 40 37 21 -1 21 -1 1 -12z m-76 -23
c-3 -2 -25 -7 -49 -11 -54 -8 -47 6 7 16 37 6 51 5 42 -5z m-1759 -45 c-4 -3
-10 -16 -13 -30 -2 -14 -5 -3 -6 24 -1 45 0 48 13 30 8 -10 11 -21 6 -24z
m147 8 c-3 -7 -5 -2 -5 12 0 14 2 19 5 13 2 -7 2 -19 0 -25z m1453 6 c-36 -8
-72 -13 -80 -11 -21 5 67 25 110 25 26 0 18 -4 -30 -14z m307 -30 c-9 -9 -28
6 -21 18 4 6 10 6 17 -1 6 -6 8 -13 4 -17z m-418 12 c-3 -3 -28 -8 -57 -11
-28 -3 -71 -12 -93 -20 -23 -8 -54 -15 -70 -15 -16 0 -63 -9 -105 -21 -75 -21
-113 -20 -58 1 30 12 63 19 129 27 22 3 45 9 50 13 6 4 18 6 28 4 10 -1 33 4
50 11 29 13 137 22 126 11z m-1402 -58 c-3 -8 -6 -5 -6 6 -1 11 2 17 5 13 3
-3 4 -12 1 -19z m-31 -55 c-6 -14 -9 -15 -16 -4 -11 19 -1 46 13 32 5 -5 7
-18 3 -28z m974 27 c-8 -5 -19 -10 -25 -10 -5 0 -3 5 5 10 8 5 20 10 25 10 6
0 3 -5 -5 -10z m-65 -10 c3 -5 -4 -11 -17 -14 -134 -25 -219 -39 -246 -42 -18
-2 -37 -6 -42 -9 -6 -3 -10 -2 -10 3 0 21 34 34 97 38 38 2 97 10 133 18 36 7
68 14 72 15 4 0 10 -3 13 -9z m-455 -26 c0 -16 -16 -19 -25 -4 -8 13 4 32 16
25 5 -4 9 -13 9 -21z m-523 -16 c-3 -7 -5 -2 -5 12 0 14 2 19 5 13 2 -7 2 -19
0 -25z m0 -50 c-3 -8 -6 -5 -6 6 -1 11 2 17 5 13 3 -3 4 -12 1 -19z m611 17
c-3 -3 -38 -12 -79 -20 -164 -33 -201 -43 -210 -56 -7 -11 -9 -9 -9 8 0 18 7
23 38 29 20 3 75 14 122 24 85 18 148 25 138 15z m199 -29 c-10 -21 -13 -22
-23 -7 -9 12 -9 18 -1 23 25 16 36 9 24 -16z m658 -16 c4 -6 -19 -10 -62 -10
-48 0 -63 3 -53 10 20 13 107 13 115 0z m-1247 -22 c7 -7 12 -16 12 -22 0 -6
-5 -5 -12 2 -7 7 -23 12 -37 12 -21 0 -23 2 -11 10 20 13 34 12 48 -2z m-83
-8 c3 -6 -4 -10 -17 -10 -18 0 -20 2 -8 10 19 12 18 12 25 0z m-48 -17 c-4 -3
-24 -9 -44 -12 -32 -5 -39 -11 -43 -36 l-6 -30 -5 33 c-5 28 -2 35 15 42 25
10 92 13 83 3z m498 -3 c3 -5 2 -10 -4 -10 -5 0 -13 5 -16 10 -3 6 -2 10 4 10
5 0 13 -4 16 -10z m505 0 c-71 -11 -122 -34 -131 -58 -10 -27 13 -42 86 -57
49 -10 51 -10 50 11 0 11 -6 28 -13 37 -11 13 -10 17 10 28 22 12 22 12 3 21
-17 7 -17 8 4 4 13 -3 33 0 43 5 11 6 24 8 31 6 7 -2 -8 -14 -31 -26 -24 -12
-42 -25 -39 -27 3 -3 20 2 37 11 20 10 44 15 61 11 16 -3 29 -1 29 4 0 6 -5
10 -12 10 -6 0 -9 2 -6 5 3 3 12 3 21 -1 12 -4 14 -11 7 -29 -6 -16 -6 -27 1
-31 6 -4 4 -13 -7 -25 -15 -17 -15 -19 -1 -19 20 0 47 38 40 56 -3 8 0 14 6
14 14 0 14 -11 1 -44 -15 -40 -63 -59 -134 -53 -178 16 -244 58 -182 116 29
27 68 39 126 39 l45 -1 -45 -7z m437 -12 c-16 -11 -33 -30 -37 -42 -8 -18 -9
-17 -9 10 -1 23 5 34 22 42 39 19 54 13 24 -10z m-971 0 c4 -6 3 -8 -4 -4 -5
3 -12 0 -15 -6 -2 -7 -8 -10 -12 -6 -8 8 2 28 15 28 5 0 12 -5 16 -12z m857
-13 c-58 -25 -30 -32 31 -9 21 8 22 -33 0 -64 -21 -30 -58 -28 -83 4 -22 28
-28 50 -11 39 15 -9 12 6 -6 26 -14 16 -11 17 43 17 l58 1 -32 -14z m-1187
-21 c-4 -9 -9 -15 -11 -12 -3 3 -3 13 1 22 4 9 9 15 11 12 3 -3 3 -13 -1 -22z
m821 6 c-2 -11 -6 -23 -10 -26 -15 -16 -6 -24 14 -13 17 9 20 8 17 -3 -6 -17
-38 -21 -71 -9 -33 13 -27 34 16 55 40 19 37 20 34 -4z m640 6 c-14 -11 -15
-15 -5 -19 9 -4 6 -12 -12 -27 -21 -19 -33 -21 -79 -17 -31 3 -61 13 -70 22
-15 16 -13 17 19 11 26 -4 30 -4 15 3 -19 9 -19 10 4 17 23 7 24 8 5 15 -11 4
14 8 61 8 70 0 78 -1 62 -13z m-1564 -50 c8 -21 -3 -27 -19 -11 -18 17 -18 25
0 25 8 0 16 -6 19 -14z m-130 -26 c-3 -12 -8 -19 -11 -16 -5 6 5 36 12 36 2 0
2 -9 -1 -20z m510 3 c-7 -2 -19 -2 -25 0 -7 3 -2 5 12 5 14 0 19 -2 13 -5z
m-56 -9 c-3 -3 -12 -4 -19 -1 -8 3 -5 6 6 6 11 1 17 -2 13 -5z m1243 -30 c0
-17 -19 -22 -64 -18 -56 5 -67 21 -16 22 23 1 44 3 46 5 9 9 34 3 34 -9z m340
6 c0 -5 -13 -16 -30 -25 -17 -9 -30 -11 -30 -5 0 5 6 10 14 10 7 0 19 7 26 15
14 17 20 19 20 5z m-745 -20 c-10 -11 -22 -20 -28 -20 -5 0 1 9 14 20 31 25
37 25 14 0z m658 -7 c3 -5 -12 -8 -33 -8 -21 0 -42 3 -46 8 -4 4 11 7 34 7 22
0 43 -3 45 -7z m-475 -160 c-10 -2 -26 -2 -35 0 -10 3 -2 5 17 5 19 0 27 -2
18 -5z"/>
<path d="M1110 2890 c-12 -8 -9 -10 13 -10 15 0 27 5 27 10 0 13 -20 13 -40 0z"/>
<path d="M1069 2853 c-13 -15 -12 -15 9 -4 23 12 28 21 13 21 -5 0 -15 -7 -22
-17z"/>
<path d="M2070 2876 c0 -8 5 -18 10 -21 6 -3 10 3 10 14 0 12 -4 21 -10 21 -5
0 -10 -6 -10 -14z"/>
<path d="M970 2770 c0 -5 7 -7 15 -4 8 4 15 8 15 10 0 2 -7 4 -15 4 -8 0 -15
-4 -15 -10z"/>
<path d="M2055 1709 c-11 -17 1 -21 15 -4 8 9 8 15 2 15 -6 0 -14 -5 -17 -11z"/>
<path d="M2065 1670 c3 -5 11 -10 16 -10 6 0 7 5 4 10 -3 6 -11 10 -16 10 -6
0 -7 -4 -4 -10z"/>
<path d="M2246 1661 c-4 -7 -5 -15 -2 -18 9 -9 19 4 14 18 -4 11 -6 11 -12 0z"/>
<path d="M2190 1630 c-18 -12 -2 -12 25 0 13 6 15 9 5 9 -8 0 -22 -4 -30 -9z"/>
<path d="M2312 1786 c7 -8 15 -12 17 -11 5 6 -10 25 -20 25 -5 0 -4 -6 3 -14z"/>
<path d="M2320 1740 c0 -6 7 -10 15 -10 8 0 15 2 15 4 0 2 -7 6 -15 10 -8 3
-15 1 -15 -4z"/>
<path d="M1440 1740 c0 -5 7 -10 16 -10 8 0 12 5 9 10 -3 6 -10 10 -16 10 -5
0 -9 -4 -9 -10z"/>
<path d="M1380 1726 c0 -2 11 -6 25 -8 13 -3 22 -1 19 3 -5 9 -44 13 -44 5z"/>
<path d="M1260 1710 c0 -5 5 -10 11 -10 5 0 7 5 4 10 -3 6 -8 10 -11 10 -2 0
-4 -4 -4 -10z"/>
<path d="M1600 1691 c0 -5 9 -7 20 -4 11 3 20 7 20 9 0 2 -9 4 -20 4 -11 0
-20 -4 -20 -9z"/>
<path d="M1230 1520 c0 -5 7 -7 15 -4 8 4 15 8 15 10 0 2 -7 4 -15 4 -8 0 -15
-4 -15 -10z"/>
<path d="M2085 270 c-3 -5 1 -10 10 -10 9 0 13 5 10 10 -3 6 -8 10 -10 10 -2
0 -7 -4 -10 -10z"/>
<path d="M1925 330 c-3 -5 -2 -10 4 -10 5 0 13 5 16 10 3 6 2 10 -4 10 -5 0
-13 -4 -16 -10z"/>
<path d="M2530 350 c8 -5 20 -10 25 -10 6 0 3 5 -5 10 -8 5 -19 10 -25 10 -5
0 -3 -5 5 -10z"/>
<path d="M2545 320 c-3 -5 1 -10 10 -10 9 0 13 5 10 10 -3 6 -8 10 -10 10 -2
0 -7 -4 -10 -10z"/>
<path d="M2588 323 c7 -3 16 -2 19 1 4 3 -2 6 -13 5 -11 0 -14 -3 -6 -6z"/>
<path d="M2532 483 c-27 -3 -42 -9 -39 -16 4 -14 86 -57 107 -56 8 0 -4 9 -27
19 -24 11 -43 21 -43 23 0 2 19 1 42 -3 38 -7 41 -7 23 6 -18 13 -17 14 11 15
16 1 35 1 42 0 6 -1 12 3 12 9 0 10 -39 11 -128 3z"/>
<path d="M2848 393 c7 -3 16 -2 19 1 4 3 -2 6 -13 5 -11 0 -14 -3 -6 -6z"/>
<path d="M2890 380 c8 -5 22 -10 30 -10 13 0 13 1 0 10 -8 5 -22 10 -30 10
-13 0 -13 -1 0 -10z"/>
<path d="M2953 350 c6 -11 15 -20 19 -20 12 0 -3 28 -18 34 -11 4 -12 2 -1
-14z"/>
<path d="M2738 283 c7 -3 16 -2 19 1 4 3 -2 6 -13 5 -11 0 -14 -3 -6 -6z"/>
<path d="M2770 276 c0 -2 7 -6 15 -10 8 -3 15 -1 15 4 0 6 -7 10 -15 10 -8 0
-15 -2 -15 -4z"/>
<path d="M1666 251 c-4 -5 3 -7 14 -4 27 7 25 -5 -2 -18 l-23 -10 23 5 c15 3
27 -2 35 -15 6 -10 16 -19 21 -19 4 0 1 11 -8 24 l-16 25 47 -14 c25 -8 51
-19 57 -26 8 -9 8 -10 -2 -5 -6 4 -19 1 -27 -8 -20 -19 -19 -26 3 -26 15 0 15
-2 2 -11 -12 -9 -12 -10 3 -5 10 3 21 6 23 6 3 0 3 4 -1 9 -3 5 0 13 6 17 8 4
9 3 5 -4 -4 -7 -1 -12 8 -12 10 0 16 9 16 24 0 18 -9 28 -37 39 -21 9 -32 16
-25 16 7 1 26 -6 41 -14 115 -59 -57 -147 -198 -100 -28 9 -58 26 -66 38 -15
21 -15 21 -15 -6 0 -57 80 -94 181 -83 130 13 183 70 129 138 -23 30 -93 51
-109 35 -8 -8 -11 -8 -11 1 0 14 -66 17 -74 3z m123 -155 c-2 -2 -22 -7 -44
-10 l-40 -5 40 13 c36 12 55 13 44 2z"/>
<path d="M2300 233 c-58 -21 -80 -37 -79 -57 0 -20 1 -20 10 2 7 18 14 22 30
17 13 -5 19 -3 15 3 -3 5 8 12 26 16 23 4 35 1 45 -11 13 -17 14 -16 10 5 -4
18 -1 22 18 22 13 0 25 -4 27 -9 2 -5 16 -7 31 -4 21 4 25 8 15 14 -14 9 -124
11 -148 2z"/>
<path d="M1582 185 c-1 -27 0 -28 8 -8 5 12 17 26 26 31 16 9 15 10 -7 9 -21
-2 -25 -7 -27 -32z"/>
<path d="M2488 204 c12 -8 22 -23 23 -32 0 -11 2 -13 6 -4 6 14 -24 52 -41 52
-6 0 0 -7 12 -16z"/>
<path d="M1666 201 c-3 -5 1 -11 9 -14 9 -4 12 -1 8 9 -6 16 -10 17 -17 5z"/>
<path d="M1640 140 c0 -5 7 -10 16 -10 8 0 12 5 9 10 -3 6 -10 10 -16 10 -5 0
-9 -4 -9 -10z"/>
<path d="M1688 133 c7 -3 16 -2 19 1 4 3 -2 6 -13 5 -11 0 -14 -3 -6 -6z"/>
<path d="M2385 110 l-30 -8 30 -1 c17 0 37 4 45 9 13 9 13 10 0 9 -8 -1 -28
-5 -45 -9z"/>
</g>
</svg>
