<?xml version="1.0" encoding="UTF-8"?>
<svg version="1.1" xmlns="http://www.w3.org/2000/svg" width="109" height="102">
<path d="M0 0 C35.97 0 71.94 0 109 0 C109 33.66 109 67.32 109 102 C73.03 102 37.06 102 0 102 C0 68.34 0 34.68 0 0 Z " fill="#F7F6F6" transform="translate(0,0)"/>
<path d="M0 0 C0.99 0.495 0.99 0.495 2 1 C-0.97 4.63 -3.94 8.26 -7 12 C-4.89625 10.6078125 -4.89625 10.6078125 -2.75 9.1875 C-1.96109375 8.66542969 -1.1721875 8.14335937 -0.359375 7.60546875 C1.81092481 6.12865878 3.91413768 4.59310127 6 3 C4.29763764 6.75180831 1.99747453 9.39511164 -0.7578125 12.4140625 C-2.20554064 13.92666909 -2.20554064 13.92666909 -2 16 C-1.21625 15.484375 -0.4325 14.96875 0.375 14.4375 C1.24125 13.963125 2.1075 13.48875 3 13 C3.99 13.495 3.99 13.495 5 14 C4.32453125 14.66386719 3.6490625 15.32773437 2.953125 16.01171875 C1.61507812 17.33623047 1.61507812 17.33623047 0.25 18.6875 C-0.63171875 19.55761719 -1.5134375 20.42773438 -2.421875 21.32421875 C-4.9862583 23.90367557 -4.9862583 23.90367557 -7.015625 26.51953125 C-9.18149956 29.22687445 -11.51962613 31.57689306 -14 34 C-15.18494681 35.18223914 -16.3684423 36.36593403 -17.55078125 37.55078125 C-21.03385417 41.03385417 -24.51692708 44.51692708 -28 48 C-24.52084988 52.08002051 -21.02191092 56.13662148 -17.4375 60.125 C-16.71433594 60.93195312 -15.99117188 61.73890625 -15.24609375 62.5703125 C-12.89341488 65.1152973 -10.45433446 67.55315969 -8 70 C-7.12601562 70.93199219 -6.25203125 71.86398438 -5.3515625 72.82421875 C-4.45179687 73.76910156 -3.55203125 74.71398437 -2.625 75.6875 C-1.73039062 76.64011719 -0.83578125 77.59273438 0.0859375 78.57421875 C3.49927707 81.41561805 5.72087484 82.0921459 10 83 C10 83.66 10 84.32 10 85 C9.34 85 8.68 85 8 85 C8 85.66 8 86.32 8 87 C4.28111761 86.49287967 1.26545761 85.88391785 -2 84 C-2 84.66 -2 85.32 -2 86 C-1.38125 86.2475 -0.7625 86.495 -0.125 86.75 C2.35068687 88.20628639 2.95125002 89.37812506 4 92 C2.35 91.67 0.7 91.34 -1 91 C-0.835 91.61875 -0.67 92.2375 -0.5 92.875 C0 95 0 95 0 97 C-0.66 97 -1.32 97 -2 97 C-2 96.34 -2 95.68 -2 95 C-2.59004822 94.73526886 -3.18009644 94.47053772 -3.7880249 94.19778442 C-6.07589188 92.95890455 -7.56481646 91.67673262 -9.39160156 89.83544922 C-10.35214447 88.87467972 -10.35214447 88.87467972 -11.33209229 87.89450073 C-12.01140808 87.20486237 -12.69072388 86.515224 -13.390625 85.8046875 C-14.09523865 85.09724396 -14.79985229 84.38980042 -15.52581787 83.66091919 C-17.7719539 81.40360138 -20.01103009 79.13942367 -22.25 76.875 C-23.77297717 75.34199047 -25.29640939 73.80943285 -26.8203125 72.27734375 C-30.55216815 68.52345427 -34.27825351 64.76391086 -38 61 C-41.01164424 62.43960588 -43.04307807 63.82854316 -45.34765625 66.2578125 C-46.25547852 67.19560547 -46.25547852 67.19560547 -47.18164062 68.15234375 C-48.44131006 69.47349238 -49.69910809 70.79642773 -50.95507812 72.12109375 C-51.8609668 73.05501953 -51.8609668 73.05501953 -52.78515625 74.0078125 C-53.33051025 74.58160645 -53.87586426 75.15540039 -54.43774414 75.74658203 C-56 77 -56 77 -59 77 C-59.10183594 77.58265625 -59.20367187 78.1653125 -59.30859375 78.765625 C-61.42222358 85.59611236 -69.69426869 92.41389662 -75 97 C-75.66 97 -76.32 97 -77 97 C-76.505 95.824375 -76.505 95.824375 -76 94.625 C-74.88133489 92.15667503 -74.88133489 92.15667503 -75 90 C-75.99 90.495 -75.99 90.495 -77 91 C-77.33 90.34 -77.66 89.68 -78 89 C-79.65 90.32 -81.3 91.64 -83 93 C-81.47291037 89.56404834 -79.40072955 86.88087546 -77 84 C-79.97 84.99 -82.94 85.98 -86 87 C-85.09373216 85.7010161 -84.17450463 84.41106833 -83.25 83.125 C-82.48429687 82.04605469 -82.48429687 82.04605469 -81.703125 80.9453125 C-80 79 -80 79 -77.921875 77.9921875 C-75.85437615 77.16498489 -75.85437615 77.16498489 -75.08178711 75.14990234 C-73.90821234 72.81758472 -72.63722147 71.42221806 -70.76953125 69.609375 C-69.81639038 68.67411987 -69.81639038 68.67411987 -68.84399414 67.7199707 C-68.17360107 67.06988037 -67.50320801 66.41979004 -66.8125 65.75 C-65.45155618 64.4065353 -64.09216142 63.06149943 -62.734375 61.71484375 C-62.08662109 61.07272949 -61.43886719 60.43061523 -60.77148438 59.76904297 C-58.65607082 57.65654481 -56.58064782 55.51828553 -54.5625 53.3125 C-54.04816406 52.75175781 -53.53382812 52.19101562 -53.00390625 51.61328125 C-51.64777679 49.7506647 -51.64777679 49.7506647 -52 46 C-53.62407474 44.03828174 -55.20667923 42.35175455 -57.0390625 40.60546875 C-57.55753754 40.09502518 -58.07601257 39.5845816 -58.61019897 39.05867004 C-60.27262016 37.42524439 -61.94802864 35.80597236 -63.625 34.1875 C-65.80884235 32.06021898 -67.98760338 29.9278016 -70.1640625 27.79296875 C-70.68389709 27.28345673 -71.20373169 26.7739447 -71.73931885 26.24899292 C-75.38893702 22.65221345 -78.85390458 19.04576833 -82 15 C-82 14.34 -82 13.68 -82 13 C-79.525 13.99 -79.525 13.99 -77 15 C-76.67 14.01 -76.34 13.02 -76 12 C-75.67 11.34 -75.34 10.68 -75 10 C-74.34 10 -73.68 10 -73 10 C-74.32 8.02 -75.64 6.04 -77 4 C-76.01 4 -75.02 4 -74 4 C-73.67 3.34 -73.34 2.68 -73 2 C-71.39179588 3.41208167 -69.78859292 4.82986036 -68.1875 6.25 C-67.29417969 7.03890625 -66.40085937 7.8278125 -65.48046875 8.640625 C-63.32570984 10.69019096 -61.5302367 12.45807857 -60 15 C-60 16.32 -60 17.64 -60 19 C-58.68 19 -57.36 19 -56 19 C-56 19.99 -56 20.98 -56 22 C-55.41089844 22.08894531 -54.82179688 22.17789062 -54.21484375 22.26953125 C-51.42055625 23.19110402 -50.42404014 24.43043633 -48.5625 26.6875 C-47.96179687 27.40421875 -47.36109375 28.1209375 -46.7421875 28.859375 C-46.16726562 29.56578125 -45.59234375 30.2721875 -45 31 C-41.9674505 35.04495998 -41.9674505 35.04495998 -38 38 C-37.75636719 37.42765625 -37.51273438 36.8553125 -37.26171875 36.265625 C-35.77482702 33.59566462 -34.01916092 31.86170993 -31.8125 29.75 C-26.8215147 24.87135199 -22.20373882 19.78708145 -17.875 14.3125 C-15.72943778 11.66630659 -13.5367524 9.27657267 -11 7 C-10.01 7 -9.02 7 -8 7 C-8.66 8.32 -9.32 9.64 -10 11 C-6.7 7.37 -3.4 3.74 0 0 Z " fill="#644123" transform="translate(94,3)"/>
<path d="M0 0 C0.94875 0.33 1.8975 0.66 2.875 1 C5.77062452 2.10159191 5.77062452 2.10159191 8 2 C10.67061921 4.50199649 13.14551319 7.15517115 15.6484375 9.82421875 C16.54820313 10.76910156 17.44796875 11.71398437 18.375 12.6875 C19.26960938 13.64011719 20.16421875 14.59273437 21.0859375 15.57421875 C24.49927707 18.41561805 26.72087484 19.0921459 31 20 C31 20.66 31 21.32 31 22 C30.34 22 29.68 22 29 22 C29 22.66 29 23.32 29 24 C25.28111761 23.49287967 22.26545761 22.88391785 19 21 C19 21.66 19 22.32 19 23 C19.61875 23.2475 20.2375 23.495 20.875 23.75 C23.35068687 25.20628639 23.95125002 26.37812506 25 29 C23.35 28.67 21.7 28.34 20 28 C20.2475 28.928125 20.2475 28.928125 20.5 29.875 C21 32 21 32 21 34 C20.34 34 19.68 34 19 34 C19 33.34 19 32.68 19 32 C18.40977051 31.73429199 17.81954102 31.46858398 17.21142578 31.19482422 C14.94293957 29.96917049 13.43811768 28.69631248 11.6171875 26.8828125 C11.00746094 26.27566406 10.39773437 25.66851562 9.76953125 25.04296875 C9.14433594 24.41003906 8.51914063 23.77710937 7.875 23.125 C7.24207031 22.49980469 6.60914062 21.87460938 5.95703125 21.23046875 C5.34988281 20.62074219 4.74273437 20.01101562 4.1171875 19.3828125 C3.56659668 18.82996582 3.01600586 18.27711914 2.44873047 17.70751953 C0.91452418 15.8992555 0.00524901 14.13879312 -1 12 C-1.97581759 10.64886795 -2.97029741 9.31053056 -4 8 C0.75 6.875 0.75 6.875 3 8 C3 7.34 3 6.68 3 6 C2.01 5.67 1.02 5.34 0 5 C0.66 5 1.32 5 2 5 C2 4.34 2 3.68 2 3 C1.34 3 0.68 3 0 3 C0 2.01 0 1.02 0 0 Z " fill="#674525" transform="translate(73,66)"/>
<path d="M0 0 C0.33 0.99 0.66 1.98 1 3 C0.67 3.66 0.34 4.32 0 5 C1.32 5 2.64 5 4 5 C4 5.66 4 6.32 4 7 C2.68 6.67 1.36 6.34 0 6 C0.33 6.66 0.66 7.32 1 8 C2.32 8 3.64 8 5 8 C5.33 6.68 5.66 5.36 6 4 C6.66 4.33 7.32 4.66 8 5 C8.625 7.0625 8.625 7.0625 9 9 C7.68 9.33 6.36 9.66 5 10 C4.9175 10.515625 4.835 11.03125 4.75 11.5625 C2.65271829 18.37866555 -1.62702203 23.07897454 -6.625 27.9375 C-7.21023437 28.52595703 -7.79546875 29.11441406 -8.3984375 29.72070312 C-12.732406 34 -12.732406 34 -15 34 C-14.67 33.21625 -14.34 32.4325 -14 31.625 C-12.88133489 29.15667503 -12.88133489 29.15667503 -13 27 C-13.66 27.33 -14.32 27.66 -15 28 C-15.33 27.34 -15.66 26.68 -16 26 C-17.65 27.32 -19.3 28.64 -21 30 C-19.47291037 26.56404834 -17.40072955 23.88087546 -15 21 C-19.455 22.485 -19.455 22.485 -24 24 C-23.09373216 22.7010161 -22.17450463 21.41106833 -21.25 20.125 C-20.73953125 19.40570313 -20.2290625 18.68640625 -19.703125 17.9453125 C-18 16 -18 16 -15.921875 14.9921875 C-13.44498075 13.71346567 -13.17910266 12.48822045 -12 10 C-10.57341988 8.38934503 -9.08890858 6.82888291 -7.5625 5.3125 C-6.78003906 4.52488281 -5.99757813 3.73726563 -5.19140625 2.92578125 C-3 1 -3 1 0 0 Z " fill="#704C28" transform="translate(32,66)"/>
<path d="M0 0 C0.8971875 0.7425 0.8971875 0.7425 1.8125 1.5 C3.97029994 3.28276418 3.97029994 3.28276418 7 3 C6.34 5.31 5.68 7.62 5 10 C5.66 10 6.32 10 7 10 C7 9.34 7 8.68 7 8 C7.66 8 8.32 8 9 8 C9.33 12.62 9.66 17.24 10 22 C9.34 22 8.68 22 8 22 C8 22.66 8 23.32 8 24 C10.10633718 22.29171079 10.93801608 21.47851584 11.29296875 18.73828125 C11.25816406 17.93777344 11.22335938 17.13726562 11.1875 16.3125 C11.16042969 15.50425781 11.13335937 14.69601563 11.10546875 13.86328125 C11.07066406 13.24839844 11.03585938 12.63351563 11 12 C11.27714844 12.55816406 11.55429687 13.11632813 11.83984375 13.69140625 C12.63214452 15.26800475 13.43745523 16.83811517 14.25390625 18.40234375 C14.68574219 19.23894531 15.11757812 20.07554688 15.5625 20.9375 C16.21412109 22.18853516 16.21412109 22.18853516 16.87890625 23.46484375 C17.99575703 25.99040526 18.56711405 28.28108713 19 31 C19.66 31 20.32 31 21 31 C21.99 27.535 21.99 27.535 23 24 C26.465 26.97 26.465 26.97 30 30 C29.67 30.66 29.34 31.32 29 32 C27.35 31.34 25.7 30.68 24 30 C23.67 30.66 23.34 31.32 23 32 C23.66 32 24.32 32 25 32 C25.33 33.65 25.66 35.3 26 37 C23.03 37.495 23.03 37.495 20 38 C21.65 39.98 23.3 41.96 25 44 C21.8804428 42.61314777 19.74144201 40.99810509 17.328125 38.59375 C16.66425781 37.93246094 16.00039062 37.27117187 15.31640625 36.58984375 C14.63449219 35.90019531 13.95257813 35.21054688 13.25 34.5 C12.55261719 33.81035156 11.85523438 33.12070313 11.13671875 32.41015625 C10.47800781 31.74886719 9.81929687 31.08757812 9.140625 30.40625 C8.53766602 29.80103516 7.93470703 29.19582031 7.31347656 28.57226562 C6 27 6 27 6 25 C5.34 24.67 4.68 24.34 4 24 C4.66 22.68 5.32 21.36 6 20 C5.525625 19.525625 5.05125 19.05125 4.5625 18.5625 C3.70833333 17.70833333 2.85416667 16.85416667 2 16 C1.34 16 0.68 16 0 16 C0.99 17.98 1.98 19.96 3 22 C1.02 22.33 -0.96 22.66 -3 23 C-2.90460937 22.27554688 -2.80921875 21.55109375 -2.7109375 20.8046875 C-2.06710096 15.18983399 -1.96079591 11.35291075 -4 6 C-3.625 3.125 -3.625 3.125 -3 1 C-2.01 1.33 -1.02 1.66 0 2 C0 1.34 0 0.68 0 0 Z " fill="#58371B" transform="translate(50,37)"/>
<path d="M0 0 C-0.99 0.495 -0.99 0.495 -2 1 C-1.01 1.99 -0.02 2.98 1 4 C0.4740625 4.928125 0.4740625 4.928125 -0.0625 5.875 C-0.371875 6.57625 -0.68125 7.2775 -1 8 C-0.67 8.66 -0.34 9.32 0 10 C-0.46148437 10.38929687 -0.92296875 10.77859375 -1.3984375 11.1796875 C-7.22136647 16.1740574 -12.62707922 21.52798847 -18 27 C-18.66 26.67 -19.32 26.34 -20 26 C-19.6875 24.0625 -19.6875 24.0625 -19 22 C-18.01 21.67 -17.02 21.34 -16 21 C-16 20.01 -16 19.02 -16 18 C-16.66 18 -17.32 18 -18 18 C-18.33 18.99 -18.66 19.98 -19 21 C-20.98 21.33 -22.96 21.66 -25 22 C-24.67 21.01 -24.34 20.02 -24 19 C-22.68 19.33 -21.36 19.66 -20 20 C-20 19.34 -20 18.68 -20 18 C-21.32 18 -22.64 18 -24 18 C-24 16.68 -24 15.36 -24 14 C-24.99 14.495 -24.99 14.495 -26 15 C-23.44469502 9.2505638 -18.69750125 2.84875062 -13 0 C-12 3 -12 3 -13 6 C-12.01 5.01 -11.02 4.02 -10 3 C-8 4 -8 4 -7 5 C-6.01 5 -5.02 5 -4 5 C-4.66 4.34 -5.32 3.68 -6 3 C-6 2.01 -6 1.02 -6 0 C-3.50907189 -1.24546405 -2.58919267 -0.7767578 0 0 Z " fill="#614123" transform="translate(56,53)"/>
<path d="M0 0 C0.66 0.33 1.32 0.66 2 1 C-0.97 4.63 -3.94 8.26 -7 12 C-5.5975 11.071875 -4.195 10.14375 -2.75 9.1875 C-1.96109375 8.66542969 -1.1721875 8.14335937 -0.359375 7.60546875 C1.81092481 6.12865878 3.91413768 4.59310127 6 3 C4.29763764 6.75180831 1.99747453 9.39511164 -0.7578125 12.4140625 C-2.20554064 13.92666909 -2.20554064 13.92666909 -2 16 C-1.21625 15.484375 -0.4325 14.96875 0.375 14.4375 C1.674375 13.7259375 1.674375 13.7259375 3 13 C3.66 13.33 4.32 13.66 5 14 C3.98679687 14.99580078 3.98679687 14.99580078 2.953125 16.01171875 C2.06109375 16.89472656 1.1690625 17.77773438 0.25 18.6875 C-0.63171875 19.55761719 -1.5134375 20.42773438 -2.421875 21.32421875 C-4.78941249 23.78143569 -6.90195693 26.31303256 -9 29 C-9.98230498 30.0173873 -10.97469597 31.02596117 -12 32 C-12.99 31.67 -13.98 31.34 -15 31 C-14.67 30.34 -14.34 29.68 -14 29 C-13.855625 28.21625 -13.71125 27.4325 -13.5625 26.625 C-13.02394567 24.11174645 -12.24125594 22.23426069 -11 20 C-11.66 20 -12.32 20 -13 20 C-13.99 20 -14.98 20 -16 20 C-15.05944297 14.31953056 -14.13782924 10.27575688 -10 6 C-9.34 6.33 -8.68 6.66 -8 7 C-8.66 8.32 -9.32 9.64 -10 11 C-6.7 7.37 -3.4 3.74 0 0 Z " fill="#7A5A3C" transform="translate(94,3)"/>
<path d="M0 0 C4.62 0 9.24 0 14 0 C14 3.3 14 6.6 14 10 C10.2890625 10.29296875 10.2890625 10.29296875 6.578125 10.5859375 C4.00933618 10.99850055 2.24158985 11.71160957 0 13 C1.32 11.02 2.64 9.04 4 7 C3.48050781 7.48210938 2.96101563 7.96421875 2.42578125 8.4609375 C-4.50087873 14.73462214 -4.50087873 14.73462214 -9 16 C-6.43376246 12.10312077 -3.78447155 8.32302748 -0.953125 4.61328125 C0.25432954 2.88181586 0.25432954 2.88181586 0 0 Z " fill="#F3F2F2" transform="translate(95,0)"/>
<path d="M0 0 C2 1 2 1 3 2 C3.66 1.34 4.32 0.68 5 0 C5 0.66 5 1.32 5 2 C5.66 2.33 6.32 2.66 7 3 C6.525625 3.7425 6.05125 4.485 5.5625 5.25 C3.94099825 7.8032057 3.94099825 7.8032057 3.5 10.125 C2.87863263 12.45512762 1.79404563 13.43996032 0 15 C0 14.34 0 13.68 0 13 C-2.22399467 13.98023576 -2.22399467 13.98023576 -4.3125 16.3125 C-6.75694667 18.75694667 -9.26629983 20.89114559 -12 23 C-10.47291037 19.56404834 -8.40072955 16.88087546 -6 14 C-10.455 15.485 -10.455 15.485 -15 17 C-14.09373216 15.7010161 -13.17450463 14.41106833 -12.25 13.125 C-11.73953125 12.40570313 -11.2290625 11.68640625 -10.703125 10.9453125 C-8.91164689 8.89908291 -7.43406119 8.12773065 -5 7 C-3.90833725 5.06669397 -3.90833725 5.06669397 -3 3 C-1.375 1.25 -1.375 1.25 0 0 Z " fill="#654325" transform="translate(23,73)"/>
<path d="M0 0 C0.78375 0.04125 1.5675 0.0825 2.375 0.125 C2.705 1.445 3.035 2.765 3.375 4.125 C6.675 4.125 9.975 4.125 13.375 4.125 C11.36506295 8.14487409 9.43653611 10.27016995 6.25 13.375 C5.33992188 14.26703125 4.42984375 15.1590625 3.4921875 16.078125 C2.44417969 17.09132813 2.44417969 17.09132813 1.375 18.125 C0.715 17.795 0.055 17.465 -0.625 17.125 C-0.3125 15.1875 -0.3125 15.1875 0.375 13.125 C1.365 12.795 2.355 12.465 3.375 12.125 C3.375 11.135 3.375 10.145 3.375 9.125 C2.715 9.125 2.055 9.125 1.375 9.125 C1.045 10.115 0.715 11.105 0.375 12.125 C-1.605 12.455 -3.585 12.785 -5.625 13.125 C-5.295 12.135 -4.965 11.145 -4.625 10.125 C-3.305 10.455 -1.985 10.785 -0.625 11.125 C-0.625 10.465 -0.625 9.805 -0.625 9.125 C-1.945 9.125 -3.265 9.125 -4.625 9.125 C-4.625 7.805 -4.625 6.485 -4.625 5.125 C-5.615 5.62 -5.615 5.62 -6.625 6.125 C-3.85227273 0.18344156 -3.85227273 0.18344156 0 0 Z " fill="#58371A" transform="translate(36.625,61.875)"/>
<path d="M0 0 C0.36630156 3.93774177 0.30233203 5.56539771 -2 8.875 C-2.66 9.57625 -3.32 10.2775 -4 11 C-2.63629701 13.99220268 -1.05091917 16.29026529 1.125 18.75 C1.66382812 19.36359375 2.20265625 19.9771875 2.7578125 20.609375 C3.16773437 21.06828125 3.57765625 21.5271875 4 22 C3.01 24.31 2.02 26.62 1 29 C0.34 29 -0.32 29 -1 29 C-1.25394531 28.33613281 -1.50789063 27.67226562 -1.76953125 26.98828125 C-3.55677584 22.40302826 -5.37443631 18.17703314 -8 14 C-9.34971475 11.01642002 -10 9.29665696 -10 6 C-9.01 6 -8.02 6 -7 6 C-6.7525 5.195625 -6.505 4.39125 -6.25 3.5625 C-5 1 -5 1 -2.9375 0.1875 C-1.96090306 0.09299062 -0.98115932 0 0 0 Z " fill="#624125" transform="translate(70,39)"/>
<path d="M0 0 C0.94875 0.33 1.8975 0.66 2.875 1 C5.77062452 2.10159191 5.77062452 2.10159191 8 2 C8.66 3.32 9.32 4.64 10 6 C9.67 6.33 9.34 6.66 9 7 C9.66 7.66 10.32 8.32 11 9 C10.34 9 9.68 9 9 9 C9.99 11.31 10.98 13.62 12 16 C11.01 16 10.02 16 9 16 C8.34 16.99 7.68 17.98 7 19 C3.78336707 18.04370372 2.30082343 17.43966501 0.375 14.625 C-0.305625 13.325625 -0.305625 13.325625 -1 12 C-1.98244845 10.65368175 -2.97676564 9.31558703 -4 8 C0.75 6.875 0.75 6.875 3 8 C3 7.34 3 6.68 3 6 C2.01 5.67 1.02 5.34 0 5 C0.66 5 1.32 5 2 5 C2 4.34 2 3.68 2 3 C1.34 3 0.68 3 0 3 C0 2.01 0 1.02 0 0 Z " fill="#684523" transform="translate(73,66)"/>
<path d="M0 0 C0.66 1.32 1.32 2.64 2 4 C1.505 4.391875 1.01 4.78375 0.5 5.1875 C-1.48337856 7.58408242 -1.1486716 8.95223228 -1 12 C-1.52203609 15.31490848 -2.54961265 16.91224529 -4.94140625 19.234375 C-5.52470703 19.80800781 -6.10800781 20.38164063 -6.70898438 20.97265625 C-7.32064453 21.55917969 -7.93230469 22.14570312 -8.5625 22.75 C-9.17802734 23.35199219 -9.79355469 23.95398438 -10.42773438 24.57421875 C-11.94514813 26.05634381 -13.47170596 27.5290967 -15 29 C-15.66 28.67 -16.32 28.34 -17 28 C-16.38125 27.46375 -15.7625 26.9275 -15.125 26.375 C-12.75930744 23.73099066 -11 20.68713576 -11 17 C-11.66 16.67 -12.32 16.34 -13 16 C-12.67 15.34 -12.34 14.68 -12 14 C-11.34 14 -10.68 14 -10 14 C-10 13.01 -10 12.02 -10 11 C-9.01 11 -8.02 11 -7 11 C-6.67 11.33 -6.34 11.66 -6 12 C-5.90203125 11.38511719 -5.8040625 10.77023438 -5.703125 10.13671875 C-4.46655232 3.45283019 -4.46655232 3.45283019 -1.875 0.9375 C-1.25625 0.628125 -0.6375 0.31875 0 0 Z " fill="#603F1F" transform="translate(82,21)"/>
<path d="M0 0 C5.65561086 3.25197624 10.27200644 7.62563365 14 13 C14 14.32 14 15.64 14 17 C15.32 17 16.64 17 18 17 C18 17.99 18 18.98 18 20 C16 20 14 20 12 20 C11.67 20.99 11.34 21.98 11 23 C10.01 20.03 9.02 17.06 8 14 C8.99 14.33 9.98 14.66 11 15 C9.68 13.68 8.36 12.36 7 11 C6.67 11.66 6.34 12.32 6 13 C4 12 4 12 3 9 C1.3540349 7.31288577 -0.31237149 5.6454378 -2 4 C-2.33 3.34 -2.66 2.68 -3 2 C-2.01 2 -1.02 2 0 2 C0 1.34 0 0.68 0 0 Z " fill="#6D4E34" transform="translate(20,5)"/>
<path d="M0 0 C0.66 0.33 1.32 0.66 2 1 C1.43410156 1.44988281 0.86820313 1.89976563 0.28515625 2.36328125 C-4.19935768 6.29609751 -6.50414782 8.91597245 -7 15 C-7 16.65 -7 18.3 -7 20 C-10.96 20 -14.92 20 -19 20 C-14.84634738 14.99431608 -10.45385457 10.42027971 -5.7578125 5.91796875 C-3.77478112 4.18786715 -3.77478112 4.18786715 -4 2 C-2.125 0.9375 -2.125 0.9375 0 0 Z " fill="#F0EEED" transform="translate(86,30)"/>
<path d="M0 0 C0.66 0.99 1.32 1.98 2 3 C1.67 3.99 1.34 4.98 1 6 C1.99 5.01 2.98 4.02 4 3 C4.66 3.33 5.32 3.66 6 4 C5.52449439 5.48034764 5.04448784 6.95925021 4.5625 8.4375 C4.29566406 9.26121094 4.02882813 10.08492187 3.75390625 10.93359375 C3 13 3 13 2 14 C0.33382885 14.04063832 -1.33388095 14.042721 -3 14 C-3.103125 13.360625 -3.20625 12.72125 -3.3125 12.0625 C-3.539375 11.381875 -3.76625 10.70125 -4 10 C-4.99 9.67 -5.98 9.34 -7 9 C-5.76465298 5.29395893 -3.80264776 3.66251537 -1 1 C-0.67 0.67 -0.34 0.34 0 0 Z " fill="#6D4926" transform="translate(42,53)"/>
<path d="M0 0 C0.66 0.33 1.32 0.66 2 1 C1.31292969 1.67546875 0.62585938 2.3509375 -0.08203125 3.046875 C-1.43361328 4.38492187 -1.43361328 4.38492187 -2.8125 5.75 C-3.70582031 6.63171875 -4.59914063 7.5134375 -5.51953125 8.421875 C-7.55212152 10.53448851 -9.31773818 12.60794665 -11 15 C-12.32 14.67 -13.64 14.34 -15 14 C-14.69964844 13.46890625 -14.39929688 12.9378125 -14.08984375 12.390625 C-13.70957031 11.68421875 -13.32929687 10.9778125 -12.9375 10.25 C-12.55464844 9.55390625 -12.17179687 8.8578125 -11.77734375 8.140625 C-10.8687594 5.63859372 -11.11663163 4.4667645 -12 2 C-11.01 1.67 -10.02 1.34 -9 1 C-8.67 1.66 -8.34 2.32 -8 3 C-5.73806201 2.515299 -3.93034549 1.96312408 -1.875 0.875 C-1.25625 0.58625 -0.6375 0.2975 0 0 Z " fill="#6B4729" transform="translate(97,16)"/>
<path d="M0 0 C0.33 0.99 0.66 1.98 1 3 C0.67 3.66 0.34 4.32 0 5 C1.32 5 2.64 5 4 5 C4 5.66 4 6.32 4 7 C2.68 6.67 1.36 6.34 0 6 C-0.66 8.31 -1.32 10.62 -2 13 C-2.66 12.67 -3.32 12.34 -4 12 C-4 11.01 -4 10.02 -4 9 C-4.99 9.66 -5.98 10.32 -7 11 C-7.33 9.35 -7.66 7.7 -8 6 C-2.25 1.125 -2.25 1.125 0 0 Z " fill="#75502B" transform="translate(32,66)"/>
<path d="M0 0 C7.48291572 6.15034169 7.48291572 6.15034169 10 10 C6.64961743 10.83759564 4.2704774 11.24052591 1 10 C-1 8 -1 8 -1.0625 5.5 C-1.041875 4.675 -1.02125 3.85 -1 3 C-1.33 2.34 -1.66 1.68 -2 1 C-1.34 0.67 -0.68 0.34 0 0 Z " fill="#785632" transform="translate(83,71)"/>
<path d="M0 0 C0.3125 2.6875 0.3125 2.6875 0 6 C-2.5 8.875 -2.5 8.875 -5 11 C-7.475 10.01 -7.475 10.01 -10 9 C-10 8.01 -10 7.02 -10 6 C-9.01 6 -8.02 6 -7 6 C-6.7525 5.195625 -6.505 4.39125 -6.25 3.5625 C-5 1 -5 1 -2.9375 0.1875 C-1.96090306 0.09299062 -0.98115932 0 0 0 Z " fill="#744D28" transform="translate(70,39)"/>
<path d="M0 0 C4.95 0 9.9 0 15 0 C15 1.32 15 2.64 15 4 C10.05 4 5.1 4 0 4 C0 2.68 0 1.36 0 0 Z " fill="#FDFDFD" transform="translate(49,98)"/>
<path d="M0 0 C1.67542976 0.28604898 3.34385343 0.61781233 5 1 C4.67 1.66 4.34 2.32 4 3 C4.66 3.66 5.32 4.32 6 5 C5.34 5 4.68 5 4 5 C4.99 7.31 5.98 9.62 7 12 C6.01 12 5.02 12 4 12 C3.01 13.485 3.01 13.485 2 15 C1.01 14.67 0.02 14.34 -1 14 C-1 12.35 -1 10.7 -1 9 C-0.01 8.67 0.98 8.34 2 8 C1.67 7.01 1.34 6.02 1 5 C1.33 4.01 1.66 3.02 2 2 C1.01 1.67 0.02 1.34 -1 1 C-0.67 0.67 -0.34 0.34 0 0 Z " fill="#603D1D" transform="translate(78,70)"/>
<path d="M0 0 C3.91402949 1.26941497 5.79072873 2.51167694 8 6 C7.67 6.66 7.34 7.32 7 8 C3.9375 8.625 3.9375 8.625 1 9 C0.7525 8.4225 0.505 7.845 0.25 7.25 C-1.16683317 4.6997003 -2.87627537 2.98214299 -5 1 C-2.525 1.495 -2.525 1.495 0 2 C0 1.34 0 0.68 0 0 Z " fill="#714B27" transform="translate(43,31)"/>
<path d="M0 0 C0.66 0.33 1.32 0.66 2 1 C2.99 1.33 3.98 1.66 5 2 C3.68 4.31 2.36 6.62 1 9 C3.64 7.02 6.28 5.04 9 3 C8 7 8 7 4.9375 9.25 C3.968125 9.8275 2.99875 10.405 2 11 C0.62437146 9.71034824 -0.70766393 8.37310707 -2 7 C-2 6.34 -2 5.68 -2 5 C-2.66 4.67 -3.32 4.34 -4 4 C-2.68 2.68 -1.36 1.36 0 0 Z " fill="#E9E5E0" transform="translate(16,91)"/>
<path d="M0 0 C1.47919922 0.06960937 1.47919922 0.06960937 2.98828125 0.140625 C3.98214844 0.17671875 4.97601563 0.2128125 6 0.25 C7.13888672 0.31960937 7.13888672 0.31960937 8.30078125 0.390625 C8.30078125 1.710625 8.30078125 3.030625 8.30078125 4.390625 C3.68078125 4.390625 -0.93921875 4.390625 -5.69921875 4.390625 C-2.69921875 0.390625 -2.69921875 0.390625 0 0 Z " fill="#FDFDFC" transform="translate(24.69921875,97.609375)"/>
<path d="M0 0 C0.66 0.33 1.32 0.66 2 1 C-0.53751747 6.23362978 -4.60835339 9.36924132 -9 13 C-9.61230469 13.51433594 -10.22460938 14.02867188 -10.85546875 14.55859375 C-12.23146443 15.71233834 -13.61485527 16.8572556 -15 18 C-15.66 17.67 -16.32 17.34 -17 17 C-15.97163476 14.28885528 -15.29388267 13.17143156 -12.75 11.6875 C-9.57882882 9.74155405 -7.28057606 7.47472475 -4.6875 4.8125 C-3.36298828 3.46091797 -3.36298828 3.46091797 -2.01171875 2.08203125 C-1.01591797 1.05142578 -1.01591797 1.05142578 0 0 Z " fill="#E3DFDC" transform="translate(50,67)"/>
<path d="M0 0 C0.66 0.33 1.32 0.66 2 1 C0.73882275 4.88862987 -0.45264167 6.89375599 -4 9 C-4.66 9 -5.32 9 -6 9 C-6 9.66 -6 10.32 -6 11 C-6.66 11 -7.32 11 -8 11 C-7.67 8.36 -7.34 5.72 -7 3 C-5.35 2.34 -3.7 1.68 -2 1 C-1.67 1.33 -1.34 1.66 -1 2 C-0.67 1.34 -0.34 0.68 0 0 Z " fill="#704C2B" transform="translate(63,36)"/>
<path d="M0 0 C0.99 0.66 1.98 1.32 3 2 C3 3.32 3 4.64 3 6 C4.32 6 5.64 6 7 6 C7 6.99 7 7.98 7 9 C5 9 3 9 1 9 C0.67 9.99 0.34 10.98 0 12 C-0.99 9.03 -1.98 6.06 -3 3 C-2.01 3.33 -1.02 3.66 0 4 C0 2.68 0 1.36 0 0 Z " fill="#714D2D" transform="translate(31,16)"/>
<path d="M0 0 C0.66 0 1.32 0 2 0 C2.33 1.32 2.66 2.64 3 4 C-4.11389522 10.51936219 -4.11389522 10.51936219 -9 12 C-6.25453894 7.7292828 -3.41068986 3.76970985 0 0 Z " fill="#EFECE9" transform="translate(95,4)"/>
<path d="M0 0 C1.485 0.99 1.485 0.99 3 2 C3.556875 1.62875 4.11375 1.2575 4.6875 0.875 C7 0 7 0 9.75 0.875 C10.86375 1.431875 10.86375 1.431875 12 2 C12 2.66 12 3.32 12 4 C10.02 4.33 8.04 4.66 6 5 C7.65 6.98 9.3 8.96 11 11 C7.84164893 9.60249952 5.67727175 7.94801766 3.25 5.5 C2.63640625 4.8915625 2.0228125 4.283125 1.390625 3.65625 C0 2 0 2 0 0 Z " fill="#503217" transform="translate(64,70)"/>
<path d="M0 0 C0.99 0.33 1.98 0.66 3 1 C1.60249952 4.15835107 -0.05198234 6.32272825 -2.5 8.75 C-3.41265625 9.67039062 -3.41265625 9.67039062 -4.34375 10.609375 C-6 12 -6 12 -8 12 C-6.87548273 9.0280615 -5.77706209 6.66559313 -4 4 C-3.34 4 -2.68 4 -2 4 C-2 3.34 -2 2.68 -2 2 C-1.34 2 -0.68 2 0 2 C0 1.34 0 0.68 0 0 Z " fill="#67472B" transform="translate(25,88)"/>
<path d="M0 0 C0.598125 0.804375 1.19625 1.60875 1.8125 2.4375 C3.80947276 5.22327984 3.80947276 5.22327984 7 6 C6.67 5.01 6.34 4.02 6 3 C6.66 3 7.32 3 8 3 C10 6 10 6 9.8125 8.125 C9.544375 8.74375 9.27625 9.3625 9 10 C8.01 10.33 7.02 10.66 6 11 C4.62437146 9.71034824 3.29233607 8.37310707 2 7 C2 6.34 2 5.68 2 5 C1.01 5.33 0.02 5.66 -1 6 C-1 2 -1 2 0 0 Z " fill="#704D28" transform="translate(33,33)"/>
<path d="M0 0 C5.75 1.75 5.75 1.75 8 4 C7.69208308 5.671549 7.35613097 7.33805547 7 9 C7.36856864 11.23167185 7.36856864 11.23167185 8 13 C7.34 13 6.68 13 6 13 C5.73445313 12.31292969 5.46890625 11.62585938 5.1953125 10.91796875 C4.84210938 10.01691406 4.48890625 9.11585937 4.125 8.1875 C3.77695313 7.29417969 3.42890625 6.40085937 3.0703125 5.48046875 C2.01167845 2.82288409 2.01167845 2.82288409 0 0 Z " fill="#754E27" transform="translate(63,55)"/>
<path d="M0 0 C0.99 0.33 1.98 0.66 3 1 C2.34 1 1.68 1 1 1 C1 1.66 1 2.32 1 3 C1.66 3 2.32 3 3 3 C2.67 4.32 2.34 5.64 2 7 C-0.33333333 7 -2.66666667 7 -5 7 C-4.67 5.02 -4.34 3.04 -4 1 C-2.02 1.495 -2.02 1.495 0 2 C0 1.34 0 0.68 0 0 Z " fill="#6F4C2A" transform="translate(30,80)"/>
<path d="M0 0 C4.37934119 0.51958285 8.68803391 1.05675742 13 2 C13 2.66 13 3.32 13 4 C12.34 4 11.68 4 11 4 C11 4.66 11 5.32 11 6 C6.94047157 5.54894129 4.59773557 5.24716947 2 2 C1.34 1.34 0.68 0.68 0 0 Z " fill="#785535" transform="translate(91,84)"/>
<path d="M0 0 C1.65 0 3.3 0 5 0 C5 0.66 5 1.32 5 2 C6.65 2 8.3 2 10 2 C10 2.66 10 3.32 10 4 C10.66 4.33 11.32 4.66 12 5 C11.67 5.66 11.34 6.32 11 7 C10.401875 6.67 9.80375 6.34 9.1875 6 C6.94613529 4.79212012 6.94613529 4.79212012 4 5 C1.8125 2.5 1.8125 2.5 0 0 Z " fill="#5B3A1C" transform="translate(79,86)"/>
<path d="M0 0 C0.99 0.33 1.98 0.66 3 1 C4.1875 4.0625 4.1875 4.0625 5 7 C2.03 6.505 2.03 6.505 -1 6 C-1.625 4.125 -1.625 4.125 -2 2 C-1.34 1.34 -0.68 0.68 0 0 Z " fill="#563518" transform="translate(65,63)"/>
<path d="M0 0 C1.12894876 0.93274109 2.25300876 1.87140122 3.375 2.8125 C4.00148438 3.33457031 4.62796875 3.85664063 5.2734375 4.39453125 C7 6 7 6 9 9 C8.34 9.66 7.68 10.32 7 11 C3.62925682 8.79158206 1.80337439 6.60674878 0 3 C0 2.01 0 1.02 0 0 Z " fill="#7D5E41" transform="translate(23,7)"/>
<path d="M0 0 C6.64615385 3.2 6.64615385 3.2 8.4375 7.25 C8.623125 8.1575 8.80875 9.065 9 10 C8.34 10 7.68 10 7 10 C7 9.34 7 8.68 7 8 C6.401875 7.731875 5.80375 7.46375 5.1875 7.1875 C2.98180967 5.99012525 1.56416813 4.95521016 0 3 C0 2.01 0 1.02 0 0 Z " fill="#775B43" transform="translate(85,90)"/>
<path d="M0 0 C1.65 1.32 3.3 2.64 5 4 C4.67 4.66 4.34 5.32 4 6 C1 6 -2 6 -5 6 C-5 5.01 -5 4.02 -5 3 C-3.35 2.67 -1.7 2.34 0 2 C0 1.34 0 0.68 0 0 Z " fill="#5B391D" transform="translate(41,27)"/>
<path d="M0 0 C1.875 0.25 1.875 0.25 4 1 C5.25 3.0625 5.25 3.0625 6 5 C5.34 5 4.68 5 4 5 C3.34 6.32 2.68 7.64 2 9 C1.67 7.68 1.34 6.36 1 5 C0.01 5.33 -0.98 5.66 -2 6 C-2 5.34 -2 4.68 -2 4 C-0.68 3.67 0.64 3.34 2 3 C2 2.34 2 1.68 2 1 C1.34 0.67 0.68 0.34 0 0 Z " fill="#5A3A1D" transform="translate(25,15)"/>
<path d="M0 0 C0.66 0 1.32 0 2 0 C2.33 0.66 2.66 1.32 3 2 C3.99 2.66 4.98 3.32 6 4 C5.34 4.66 4.68 5.32 4 6 C1.375 5.625 1.375 5.625 -1 5 C-0.67 3.35 -0.34 1.7 0 0 Z " fill="#633E1F" transform="translate(86,17)"/>
<path d="M0 0 C0.66 0.33 1.32 0.66 2 1 C0.44499019 4.81684226 -2.03595495 7.19195732 -5 10 C-5.66 9.67 -6.32 9.34 -7 9 C-6.401875 8.443125 -5.80375 7.88625 -5.1875 7.3125 C-3.0136554 5.01443571 -1.53101917 2.75583451 0 0 Z " fill="#58381E" transform="translate(72,40)"/>
<path d="M0 0 C0.66 0.33 1.32 0.66 2 1 C2.625 3.5625 2.625 3.5625 3 6 C1.68 6 0.36 6 -1 6 C-1.33 4.68 -1.66 3.36 -2 2 C-1.34 2 -0.68 2 0 2 C0 1.34 0 0.68 0 0 Z " fill="#64411E" transform="translate(50,37)"/>
<path d="M0 0 C0 1.32 0 2.64 0 4 C-1.32 4 -2.64 4 -4 4 C-4 3.34 -4 2.68 -4 2 C-4.66 2 -5.32 2 -6 2 C-6 1.34 -6 0.68 -6 0 C-3.50907189 -1.24546405 -2.58919267 -0.7767578 0 0 Z " fill="#724F2F" transform="translate(42,26)"/>
<path d="M0 0 C0.6875 1.6875 0.6875 1.6875 1 4 C-0.4375 6.75 -0.4375 6.75 -2 9 C-2.6875 7.3125 -2.6875 7.3125 -3 5 C-1.5625 2.25 -1.5625 2.25 0 0 Z " fill="#623E1C" transform="translate(26,79)"/>
<path d="M0 0 C-0.66 1.65 -1.32 3.3 -2 5 C-3.32 4.67 -4.64 4.34 -6 4 C-6 3 -6 2 -6 1 C-4 0 -4 0 0 0 Z " fill="#5F3B1B" transform="translate(21,81)"/>
<path d="M0 0 C0.66 0.66 1.32 1.32 2 2 C0.35 3.32 -1.3 4.64 -3 6 C-2.42655063 3.13275314 -2.1385485 2.1385485 0 0 Z " fill="#EEEDEC" transform="translate(28,90)"/>
<path d="M0 0 C1.65 1.65 3.3 3.3 5 5 C4.01 5.495 4.01 5.495 3 6 C2.34 5.67 1.68 5.34 1 5 C1 4.34 1 3.68 1 3 C0.01 2.67 -0.98 2.34 -2 2 C-1.34 1.34 -0.68 0.68 0 0 Z " fill="#815F43" transform="translate(83,71)"/>
<path d="M0 0 C0.99 0.33 1.98 0.66 3 1 C3 1.99 3 2.98 3 4 C3.99 4 4.98 4 6 4 C5.67 4.99 5.34 5.98 5 7 C3.29115995 5.37660195 1.62553283 3.70680947 0 2 C0 1.34 0 0.68 0 0 Z " fill="#715032" transform="translate(21,25)"/>
</svg>
