<?xml version="1.0" standalone="no"?>
<!DOCTYPE svg PUBLIC "-//W3C//DTD SVG 20010904//EN"
 "http://www.w3.org/TR/2001/REC-SVG-20010904/DTD/svg10.dtd">
<svg version="1.0" xmlns="http://www.w3.org/2000/svg"
 width="197.000000pt" height="323.000000pt" viewBox="0 0 197.000000 323.000000"
 preserveAspectRatio="xMidYMid meet">

<g transform="translate(0.000000,323.000000) scale(0.100000,-0.100000)"
fill="#000000" stroke="none">
<path d="M635 3223 c-38 -9 -37 -21 1 -13 76 16 80 18 49 18 -16 0 -39 -2 -50
-5z"/>
<path d="M940 3220 c8 -5 26 -9 40 -9 l25 1 -25 8 c-14 4 -32 8 -40 9 -13 1
-13 0 0 -9z"/>
<path d="M695 3199 c-11 -4 -33 -8 -48 -8 -15 -1 -30 -8 -34 -17 -4 -11 -8
-12 -13 -4 -5 8 -13 9 -26 3 -130 -65 -222 -130 -245 -176 -7 -13 8 -4 37 23
44 42 46 42 16 7 -29 -34 -37 -47 -29 -47 2 0 23 21 47 46 25 26 39 44 33 40
-7 -4 -13 -3 -13 2 0 6 7 12 15 16 8 3 15 1 15 -4 0 -5 13 -2 29 8 16 9 28 20
25 23 -2 4 4 5 14 3 9 -3 26 3 37 13 11 10 29 19 40 20 11 1 47 9 80 18 73 21
235 16 304 -9 32 -12 47 -13 52 -5 5 8 8 8 13 0 4 -6 4 -11 -1 -11 -4 0 19
-15 53 -33 123 -66 210 -163 272 -300 43 -95 56 -170 49 -288 -15 -245 -169
-451 -397 -533 -77 -27 -97 -30 -210 -31 -149 0 -226 21 -332 91 -117 78 -189
171 -245 318 -25 65 -27 82 -27 211 0 134 2 143 32 213 17 40 45 93 61 117 21
31 26 46 18 54 -17 17 -24 14 -48 -25 -16 -26 -19 -38 -10 -43 9 -6 8 -11 -4
-21 -13 -11 -15 -10 -9 4 3 9 3 16 0 16 -15 0 -46 -93 -40 -118 4 -19 3 -23
-4 -14 -27 40 -53 -199 -33 -313 7 -37 10 -69 7 -72 -12 -12 -31 123 -29 212
4 256 142 472 376 587 35 16 49 27 33 23 -17 -3 -57 -22 -90 -42 -175 -102
-283 -248 -336 -454 -18 -69 -21 -104 -18 -194 4 -97 9 -121 41 -203 20 -51
53 -117 72 -147 139 -209 434 -340 665 -295 37 7 49 5 71 -11 15 -10 37 -19
49 -19 27 0 62 -74 58 -124 -1 -19 4 -41 11 -49 10 -13 9 -20 -4 -41 -27 -40
-16 -78 28 -99 20 -9 37 -22 37 -27 0 -6 22 -75 49 -153 27 -78 66 -203 86
-277 20 -74 53 -189 72 -255 19 -66 39 -136 45 -155 16 -61 31 -94 55 -128 20
-27 22 -36 12 -48 -18 -22 4 -62 38 -69 44 -10 99 -43 93 -57 -3 -7 -5 -36 -5
-65 0 -62 19 -86 105 -132 95 -51 141 -39 195 48 27 43 35 66 35 103 0 63 -15
91 -61 117 -45 26 -48 44 -19 98 27 51 26 89 -3 108 -16 10 -26 32 -35 75 -8
37 -43 119 -94 217 -44 87 -139 273 -210 413 -128 253 -129 255 -122 307 7 61
-4 83 -43 83 -16 0 -27 7 -30 20 -3 10 -15 26 -28 34 -12 8 -34 40 -49 71 -25
54 -26 59 -10 76 12 13 15 29 11 53 -5 31 -2 37 26 55 34 21 54 45 124 149 47
71 78 147 99 242 15 71 18 203 5 235 -5 11 -7 -17 -4 -65 6 -102 -12 -194 -57
-302 -34 -80 -107 -180 -150 -206 l-25 -14 26 24 c91 86 146 195 180 353 17
85 18 98 4 181 -36 221 -127 371 -295 483 -96 64 -202 95 -335 97 -60 1 -119
-2 -130 -7z m-464 -372 c-10 -9 -11 -8 -5 6 3 10 9 15 12 12 3 -3 0 -11 -7
-18z m-27 -517 c-7 -6 -24 22 -23 40 0 9 6 5 14 -10 7 -14 11 -27 9 -30z m146
-212 c30 -31 93 -80 139 -108 89 -53 98 -61 35 -32 -53 24 -89 48 -151 99 -50
42 -124 132 -122 149 0 5 10 -4 22 -21 12 -16 47 -55 77 -87z m865 -64 c-35
-30 -77 -54 -58 -34 6 7 9 18 7 25 -3 7 -1 16 5 20 7 3 8 0 5 -9 -9 -22 9 -20
31 4 10 11 23 20 29 20 6 -1 -2 -12 -19 -26z m-75 -34 c0 -20 -71 -65 -92 -58
-6 2 8 12 30 22 22 10 42 27 45 37 7 25 17 24 17 -1z m60 -60 c13 -8 12 -10
-4 -10 -10 0 -24 -6 -30 -14 -6 -8 -21 -17 -33 -20 -18 -6 -20 -3 -16 12 4 18
35 40 58 41 6 0 17 -4 25 -9z m-531 -22 c13 -5 22 -11 19 -13 -6 -6 -108 24
-108 31 0 6 54 -4 89 -18z m326 2 c-11 -5 -27 -9 -35 -9 -9 0 -8 4 5 9 11 5
27 9 35 9 9 0 8 -4 -5 -9z m-67 -16 c-12 -11 -154 -16 -188 -6 -29 8 -18 10
69 10 57 1 106 4 109 7 3 3 8 3 10 0 3 -3 3 -8 0 -11z m258 -62 c12 -9 27 -27
33 -39 9 -17 7 -22 -7 -29 -33 -14 -41 -12 -47 14 -17 81 -16 84 21 54z m67
-104 c-25 -25 -60 -31 -67 -12 -7 17 21 33 59 34 l29 0 -21 -22z m107 -49 c0
-4 -11 -10 -25 -13 -14 -4 -25 -13 -25 -21 0 -10 -11 -15 -35 -16 -34 -1 -53
-4 -57 -9 -2 -1 -16 -4 -31 -6 -27 -3 -26 -1 14 28 23 17 54 34 68 38 31 9 91
8 91 -1z m-8 -196 c-2 -7 2 -13 7 -13 5 0 20 -14 32 -32 19 -26 20 -30 6 -25
-19 7 -22 -4 -9 -31 5 -9 25 -51 44 -92 20 -41 42 -91 49 -110 14 -39 73 -103
85 -92 4 4 4 1 0 -6 -6 -11 -12 -10 -28 5 -20 18 -21 18 -13 -7 10 -35 33 -70
51 -77 7 -3 11 -9 8 -15 -3 -5 -14 -2 -25 8 -23 21 -33 14 -24 -16 5 -15 13
-20 26 -17 12 3 20 -2 25 -15 3 -11 12 -17 20 -14 7 3 13 2 12 -2 -1 -4 4 -18
11 -30 7 -13 10 -26 7 -29 -3 -4 -1 -12 5 -20 6 -7 9 -13 6 -13 -3 0 1 -16 9
-35 17 -41 18 -59 3 -49 -12 7 -9 -23 6 -59 5 -13 3 -16 -8 -11 -8 3 -17 15
-20 27 -3 12 -11 37 -18 55 -11 25 -11 37 -2 51 7 10 9 21 6 24 -9 9 -33 -4
-33 -19 0 -8 -5 -14 -11 -14 -5 0 -8 4 -5 8 3 5 -1 26 -8 47 -8 22 -16 32 -19
24 -2 -8 -8 9 -12 38 -5 34 -11 50 -20 47 -11 -5 -50 75 -41 84 10 9 26 -11
26 -33 0 -13 5 -27 10 -30 6 -3 10 2 10 12 0 20 -36 83 -47 83 -8 0 -33 69
-33 91 0 6 -9 24 -21 40 -15 22 -18 33 -10 42 7 9 5 21 -7 43 -10 16 -24 49
-31 74 -7 25 -21 59 -31 75 -9 17 -20 45 -24 64 l-6 34 22 -29 c13 -16 22 -34
20 -41z m-8 -71 c3 -5 -1 -9 -9 -9 -8 0 -12 4 -9 9 3 4 7 8 9 8 2 0 6 -4 9 -8z
m26 -147 c0 -5 -5 -3 -10 5 -5 8 -10 20 -10 25 0 6 5 3 10 -5 5 -8 10 -19 10
-25z m100 4 c0 -5 -4 -9 -10 -9 -5 0 -10 7 -10 16 0 8 5 12 10 9 6 -3 10 -10
10 -16z m-40 -114 c0 -5 -5 -3 -10 5 -5 8 -10 20 -10 25 0 6 5 3 10 -5 5 -8
10 -19 10 -25z m20 -95 c0 -5 -2 -10 -4 -10 -3 0 -8 5 -11 10 -3 6 -1 10 4 10
6 0 11 -4 11 -10z m241 -348 c12 -31 -3 -28 -18 4 -8 17 -8 24 -1 22 6 -2 15
-14 19 -26z m132 -124 c-4 -7 -8 -19 -8 -27 0 -17 -25 -28 -25 -11 0 6 5 8 11
4 7 -4 10 -1 7 6 -7 22 -28 23 -28 3 0 -12 -13 -26 -35 -36 -40 -19 -69 -22
-60 -7 4 7 -3 9 -22 5 l-28 -6 30 17 c29 17 142 62 158 63 5 1 5 -5 0 -11z
m-33 -123 c0 -2 -12 -11 -27 -20 -23 -13 -24 -15 -5 -10 25 7 31 -10 6 -19
-25 -10 -32 -7 -30 10 3 23 56 59 56 39z m65 -69 c19 -8 35 -20 35 -25 0 -8
-54 16 -79 36 -10 8 13 2 44 -11z m-65 -6 c-8 -5 -19 -10 -25 -10 -5 0 -3 5 5
10 8 5 20 10 25 10 6 0 3 -5 -5 -10z m58 -52 c6 -1 12 -5 12 -9 0 -4 -6 -10
-12 -13 -7 -3 -3 -3 10 0 12 3 22 2 22 -3 -1 -14 -50 -69 -50 -55 0 6 -11 12
-25 12 -14 0 -29 8 -35 20 -8 15 -8 20 1 20 7 0 9 3 6 7 -13 12 16 34 37 28
12 -4 27 -7 34 -7z m2 -138 c0 -5 -9 -10 -21 -10 -11 0 -17 5 -14 10 3 6 13
10 21 10 8 0 14 -4 14 -10z"/>
<path d="M1450 1186 c0 -10 32 -78 35 -74 6 6 -19 78 -27 78 -5 0 -8 -2 -8 -4z"/>
<path d="M1550 930 c0 -5 5 -10 11 -10 5 0 7 5 4 10 -3 6 -8 10 -11 10 -2 0
-4 -4 -4 -10z"/>
<path d="M1620 811 c0 -5 6 -14 14 -20 12 -10 13 -8 9 8 -5 21 -23 30 -23 12z"/>
<path d="M1061 3186 c10 -9 69 -36 69 -32 0 6 -55 36 -66 36 -4 0 -5 -2 -3 -4z"/>
<path d="M748 3158 c-258 -24 -465 -210 -520 -468 -44 -206 15 -403 167 -556
177 -180 443 -222 684 -108 56 26 93 53 151 112 114 114 168 238 174 394 4
136 -28 257 -96 356 -134 196 -331 291 -560 270z m95 -45 c-17 -2 -37 -11 -44
-19 -17 -21 -3 -30 16 -10 15 14 18 14 31 1 9 -8 24 -15 34 -15 10 0 21 -8 25
-18 3 -11 17 -24 30 -30 23 -11 24 -10 13 8 -7 11 -17 20 -23 20 -5 0 -3 5 5
10 8 5 20 10 25 10 6 0 4 -4 -3 -9 -11 -6 -7 -13 14 -30 14 -11 33 -21 41 -21
29 0 128 -83 118 -99 -3 -6 0 -9 8 -5 8 3 19 -5 25 -18 l12 -23 -1 25 c-1 14
-1 28 0 33 1 4 21 -13 45 -39 27 -28 47 -41 51 -34 3 6 3 10 -2 9 -20 -3 -27
2 -13 11 13 8 12 10 -3 10 -10 0 -15 5 -12 10 10 17 33 -7 61 -62 27 -54 31
-71 9 -42 -14 18 -15 17 -9 -11 4 -16 10 -34 14 -40 12 -15 15 -58 7 -72 -5
-8 -3 -13 4 -13 8 0 10 -14 6 -47 -3 -26 -1 -58 5 -72 9 -25 10 -25 24 -7 8
11 14 15 14 10 0 -6 -8 -19 -18 -30 -16 -17 -17 -22 -5 -32 7 -7 11 -17 8 -23
-4 -5 -8 -30 -9 -56 -5 -63 -85 -211 -107 -198 -5 4 -9 -3 -9 -13 0 -11 -11
-27 -25 -36 -14 -9 -25 -23 -25 -31 0 -8 -6 -12 -14 -9 -8 3 -17 0 -22 -7 -5
-8 -3 -10 6 -4 9 6 11 4 6 -4 -5 -7 -14 -10 -22 -7 -7 3 -27 -6 -43 -19 -30
-26 -46 -31 -54 -17 -2 4 -2 1 -1 -5 8 -30 -142 -68 -230 -58 -33 3 -77 6 -96
6 -67 -1 -193 50 -245 99 -125 118 -165 172 -165 225 0 14 -4 24 -9 21 -15 -9
-32 53 -37 137 -3 50 -1 77 6 77 5 0 10 8 10 18 0 14 -2 15 -10 2 -21 -32 -10
18 14 66 24 47 25 87 1 78 -9 -4 -7 9 8 40 11 25 23 44 25 41 6 -5 30 27 65
85 45 76 53 83 99 85 76 5 72 3 58 20 -10 13 -15 13 -21 3 -4 -7 -11 -9 -14
-6 -11 11 6 30 21 24 8 -3 17 0 20 8 3 8 20 12 49 11 28 -1 46 4 49 12 3 7 10
13 15 13 6 0 8 -6 5 -14 -5 -12 0 -12 30 -2 38 13 57 26 38 26 -7 0 -12 5 -12
10 0 6 7 10 16 10 9 0 12 5 8 12 -5 8 -2 9 10 5 23 -9 43 3 25 14 -9 5 9 8 46
7 33 -1 46 -3 28 -5z m143 -70 c-10 -10 -19 5 -10 18 6 11 8 11 12 0 2 -7 1
-15 -2 -18z m65 -15 c4 -6 33 -12 81 -17 3 -1 5 -13 3 -28 -2 -16 2 -34 7 -40
21 -26 -4 -12 -38 21 -20 19 -51 42 -70 51 -19 9 -34 18 -34 21 0 8 44 0 51
-8z m302 -438 c-3 -12 -8 -19 -11 -16 -5 6 5 36 12 36 2 0 2 -9 -1 -20z"/>
<path d="M815 3017 c-19 -15 -21 -14 38 -8 4 1 7 6 7 11 0 14 -23 12 -45 -3z"/>
<path d="M390 2880 c0 -6 7 -10 15 -10 8 0 15 2 15 4 0 2 -7 6 -15 10 -8 3
-15 1 -15 -4z"/>
<path d="M1236 2813 c-11 -12 -6 -19 14 -20 11 -1 20 2 20 7 0 10 -26 20 -34
13z"/>
<path d="M296 2755 c-9 -26 -7 -32 5 -12 6 10 9 21 6 23 -2 3 -7 -2 -11 -11z"/>
<path d="M301 2654 c0 -11 3 -14 6 -6 3 7 2 16 -1 19 -3 4 -6 -2 -5 -13z"/>
<path d="M1094 2991 c20 -22 26 -25 26 -13 0 4 -10 13 -22 21 -23 14 -23 14
-4 -8z"/>
<path d="M1140 3147 c0 -2 19 -17 43 -32 23 -16 37 -22 30 -14 -12 15 -73 53
-73 46z"/>
<path d="M1310 3003 c30 -35 56 -63 58 -63 8 0 -39 58 -74 90 -26 25 -21 16
16 -27z"/>
<path d="M1406 2855 c20 -44 39 -82 41 -85 11 -10 -10 47 -34 95 -42 83 -47
76 -7 -10z"/>
<path d="M1461 2704 c0 -11 3 -14 6 -6 3 7 2 16 -1 19 -3 4 -6 -2 -5 -13z"/>
</g>
</svg>
