<?xml version="1.0" standalone="no"?>
<!DOCTYPE svg PUBLIC "-//W3C//DTD SVG 20010904//EN"
 "http://www.w3.org/TR/2001/REC-SVG-20010904/DTD/svg10.dtd">
<svg version="1.0" xmlns="http://www.w3.org/2000/svg"
 width="1024.000000pt" height="1024.000000pt" viewBox="0 0 1024.000000 1024.000000"
 preserveAspectRatio="xMidYMid meet">

<g transform="translate(0.000000,1024.000000) scale(0.100000,-0.100000)"
fill="#000000" stroke="none">
<path d="M1425 9759 c-4 -5 -21 -9 -40 -9 -19 0 -37 -5 -41 -11 -4 -7 -21 -9
-41 -6 -28 5 -48 -1 -98 -28 -35 -19 -73 -35 -86 -35 -12 0 -52 -9 -88 -21
-115 -36 -109 -32 -104 -82 4 -36 1 -51 -17 -75 -21 -28 -22 -35 -13 -111 5
-45 5 -81 1 -81 -4 0 -8 -4 -8 -10 0 -5 7 -7 16 -3 12 4 15 2 12 -8 -3 -8 -11
-13 -17 -11 -6 1 -11 -2 -11 -8 0 -5 -15 -31 -34 -57 -36 -52 -52 -103 -31
-103 7 0 19 -7 26 -17 13 -15 12 -15 -7 -5 -18 9 -22 7 -32 -20 -9 -24 -8 -29
3 -24 9 3 12 0 8 -9 -3 -8 -9 -12 -14 -9 -5 3 -9 1 -9 -5 0 -10 67 -27 75 -19
3 3 6 17 7 31 2 26 24 34 39 13 4 -4 16 -3 28 3 17 10 21 9 21 -3 0 -8 -10
-16 -22 -18 -17 -2 -24 -11 -26 -30 -3 -29 3 -34 27 -19 7 5 10 14 7 20 -4 6
-12 9 -17 6 -5 -4 -9 -2 -9 3 0 5 14 12 31 14 25 4 32 1 40 -19 5 -12 11 -23
13 -23 3 0 3 6 0 14 -3 8 -1 17 5 21 6 3 9 18 6 33 -3 15 -2 21 1 15 3 -7 10
-13 15 -13 11 0 -8 52 -23 61 -6 4 -12 24 -14 45 -2 22 -7 59 -10 84 -9 78
-10 110 -2 110 5 0 8 -7 8 -16 0 -8 5 -12 11 -8 7 4 6 11 -4 21 -16 16 -37 10
-37 -10 0 -7 -9 -18 -20 -25 -17 -10 -20 -10 -20 3 0 22 4 30 12 27 5 -1 17 7
29 19 13 13 27 18 41 13 15 -4 18 -3 13 6 -6 9 -4 11 4 6 7 -5 10 -14 7 -21
-3 -8 5 -16 19 -19 15 -4 22 -11 19 -20 -3 -8 0 -17 7 -22 9 -5 10 -2 6 9 -9
23 12 32 27 11 7 -9 18 -14 24 -10 7 4 12 3 12 -3 0 -5 -6 -12 -12 -14 -8 -3
-6 -6 5 -6 12 -1 17 7 17 24 0 18 -5 25 -19 25 -23 0 -45 25 -36 40 4 6 -1 18
-11 26 -17 14 -17 15 -1 10 14 -4 16 -1 11 19 -8 33 1 32 21 -2 9 -16 14 -20
11 -10 -3 10 -2 15 3 12 6 -3 7 -21 4 -40 -5 -28 -1 -38 18 -55 30 -24 46 -26
28 -2 -11 14 -11 15 0 5 16 -13 23 -73 10 -73 -5 0 -9 7 -9 15 0 8 -4 15 -10
15 -5 0 -10 -9 -10 -20 0 -10 -9 -28 -21 -39 l-21 -19 24 2 c14 2 30 6 36 10
8 5 12 -4 12 -28 0 -29 4 -36 19 -36 21 0 37 17 27 27 -3 3 -12 0 -21 -7 -9
-8 -15 -8 -15 -2 0 6 5 14 10 17 6 4 8 11 5 16 -4 5 -2 9 3 9 6 0 9 6 8 14 0
8 4 16 9 18 6 2 10 -10 10 -26 1 -16 6 -31 13 -34 7 -2 12 -11 12 -20 0 -12 3
-13 12 -4 9 9 7 17 -8 33 -10 12 -18 30 -16 40 2 13 -5 22 -23 29 -20 7 -25
16 -22 35 5 37 17 42 17 7 0 -46 14 -39 18 8 2 30 -1 40 -13 40 -18 0 -19 11
-2 29 10 11 10 13 0 7 -8 -4 -13 -1 -13 8 0 9 6 16 13 16 8 0 19 11 25 25 15
33 15 35 -3 35 -8 0 -12 -6 -9 -13 3 -8 -2 -20 -11 -27 -9 -8 -15 -8 -15 -2 0
6 5 14 11 18 7 4 0 17 -18 37 -15 16 -22 27 -15 23 6 -4 12 -2 12 3 0 6 5 11
11 11 5 0 8 -4 5 -9 -10 -16 5 -43 18 -32 6 5 18 6 25 2 7 -5 22 -6 34 -3 15
4 18 2 12 -8 -5 -8 -4 -11 3 -6 6 4 8 14 5 23 -4 10 -2 14 5 9 6 -3 14 -2 17
4 5 8 11 8 20 0 9 -8 14 -6 19 5 3 9 2 14 -3 11 -5 -3 -15 2 -22 11 -12 15
-12 16 4 10 9 -3 17 -3 17 1 0 4 12 8 26 8 24 2 24 1 9 -16 -14 -15 -14 -18
-1 -23 10 -4 13 -1 9 9 -3 8 1 14 10 14 8 0 18 6 20 13 3 7 6 5 6 -5 1 -10 5
-18 9 -18 5 0 8 10 7 23 -2 16 -8 21 -24 20 -11 -2 -21 2 -21 7 0 6 4 10 9 10
5 0 9 6 8 13 0 6 1 26 3 42 2 26 4 24 14 -18 6 -26 16 -47 21 -47 6 1 9 8 7
16 -2 8 2 14 8 14 5 0 10 -4 10 -10 0 -5 6 -7 14 -4 8 3 16 0 19 -8 2 -7 3 -3
1 9 -3 18 0 20 19 15 30 -7 35 -17 30 -58 -3 -26 0 -34 12 -34 9 0 13 4 10 10
-3 6 1 7 9 4 9 -3 15 -9 14 -12 -2 -19 4 -45 9 -35 3 9 20 1 50 -22 36 -27 49
-32 59 -24 10 8 14 8 14 1 0 -6 -5 -14 -10 -17 -6 -4 -8 -12 -4 -18 3 -7 -1
-4 -9 5 -8 10 -17 15 -20 11 -4 -3 -7 -1 -7 5 0 7 -4 12 -10 12 -5 0 -7 -7 -4
-15 4 -8 2 -15 -4 -15 -5 0 -12 7 -16 15 -3 8 -1 15 4 15 24 0 7 19 -22 25
-18 4 -39 12 -45 17 -17 14 -16 7 4 -33 16 -31 18 -32 21 -11 2 12 8 22 14 22
6 0 8 -12 5 -30 -5 -24 -1 -35 21 -55 21 -20 23 -25 9 -25 -9 0 -17 5 -17 12
0 6 -2 9 -5 6 -3 -3 -2 -15 3 -27 7 -21 8 -21 40 9 18 16 31 23 30 15 -2 -7 2
-13 7 -12 6 1 9 10 8 20 -2 15 0 15 11 5 9 -8 11 -17 5 -22 -13 -14 -11 -26 4
-22 6 1 9 1 5 -1 -11 -7 -10 -43 2 -43 5 0 14 9 21 21 7 14 17 19 31 16 11 -3
17 -3 14 0 -3 4 -1 12 5 20 18 21 20 81 3 87 -8 3 -14 13 -14 21 0 9 -5 13
-10 10 -7 -4 -9 3 -6 19 3 15 1 24 -4 21 -5 -3 -11 -1 -14 4 -8 12 4 41 16 41
6 0 4 -8 -3 -17 -12 -15 -12 -16 4 -10 10 4 21 7 23 7 2 0 4 9 4 21 0 11 4 18
9 15 13 -8 42 4 35 15 -8 14 9 11 34 -7 13 -9 29 -13 37 -10 9 3 15 -1 15 -11
0 -13 3 -13 15 -3 12 10 15 10 15 -4 0 -9 5 -16 10 -16 6 0 10 5 10 10 0 6 9
10 20 10 11 0 20 -5 20 -11 0 -5 -5 -7 -12 -3 -7 4 -8 3 -4 -5 6 -9 14 -8 32
4 14 9 29 13 33 10 5 -3 7 4 4 15 -3 11 -1 20 5 20 6 0 12 -9 14 -20 3 -18 4
-18 14 4 10 21 9 23 -4 18 -10 -3 -13 -1 -8 6 4 7 -2 8 -24 2 -19 -5 -28 -5
-25 1 4 5 12 9 19 9 8 0 19 7 27 16 8 10 23 14 41 12 16 -3 31 -1 33 2 3 4
-12 10 -33 14 -20 3 -38 1 -40 -4 -2 -5 -10 -6 -18 -3 -8 3 -14 1 -14 -5 0 -6
-10 -8 -22 -5 -18 5 -21 3 -11 -7 12 -13 7 -40 -9 -40 -5 0 -6 5 -3 10 4 6 -7
10 -25 10 -17 0 -29 3 -27 8 3 4 -15 8 -39 9 -50 2 -90 21 -125 57 -25 27 -62
36 -54 14 9 -25 12 -98 4 -98 -4 0 -6 -11 -4 -25 1 -16 -2 -24 -9 -20 -6 3
-19 8 -28 11 -26 9 -31 34 -6 34 26 0 19 9 -11 15 -12 2 -38 18 -57 35 -19 16
-38 30 -43 30 -5 0 -11 13 -14 29 -5 24 -14 32 -55 45 -59 20 -159 29 -167 15z
m-51 -56 c17 -35 16 -75 -4 -81 -13 -4 -13 -3 -2 11 11 13 10 17 -5 27 -13 8
-14 13 -5 16 6 3 12 10 12 15 0 6 -4 7 -10 4 -5 -3 -10 3 -10 14 0 28 7 26 24
-6z m133 5 c-3 -8 -6 -5 -6 6 -1 11 2 17 5 13 3 -3 4 -12 1 -19z m-47 -19 c0
-5 -5 -9 -11 -9 -6 0 -9 -7 -6 -15 4 -8 2 -17 -3 -20 -5 -3 -7 -13 -4 -23 5
-14 4 -15 -5 -2 -14 20 -14 60 0 60 6 0 9 7 6 14 -4 10 -1 13 9 9 7 -3 14 -9
14 -14z m50 -32 c0 -5 -6 -7 -12 -4 -7 2 -12 10 -10 16 1 6 -2 11 -8 11 -5 0
-10 8 -10 18 0 14 4 12 20 -8 11 -14 20 -29 20 -33z m142 -39 c-6 -6 -7 0 -4
19 5 21 7 23 10 9 2 -10 0 -22 -6 -28z m-577 3 c-3 -6 -11 -11 -16 -11 -5 0
-4 6 3 14 14 16 24 13 13 -3z m475 15 c0 -2 -7 -7 -16 -10 -8 -3 -12 -2 -9 4
6 10 25 14 25 6z m148 -34 c-14 -3 -18 -14 -18 -49 0 -42 -8 -55 -14 -21 -1 7
-7 22 -13 32 -9 16 -7 23 10 37 12 9 28 14 37 11 13 -5 12 -7 -2 -10z m-670
-6 c-7 -8 -15 -12 -17 -11 -5 6 10 25 20 25 5 0 4 -6 -3 -14z m316 -11 c11 -8
15 -15 10 -15 -6 0 -19 7 -30 15 -10 8 -14 14 -9 14 6 0 19 -6 29 -14z m46 -1
c0 -8 -4 -12 -10 -9 -5 3 -10 10 -10 16 0 5 5 9 10 9 6 0 10 -7 10 -16z m320
-4 c0 -5 -2 -10 -4 -10 -3 0 -8 5 -11 10 -3 6 -1 10 4 10 6 0 11 -4 11 -10z
m-423 -32 c-3 -8 -6 -5 -6 6 -1 11 2 17 5 13 3 -3 4 -12 1 -19z m-20 -25 c-3
-10 -5 -4 -5 12 0 17 2 24 5 18 2 -7 2 -21 0 -30z m78 7 c3 -5 2 -10 -4 -10
-5 0 -13 5 -16 10 -3 6 -2 10 4 10 5 0 13 -4 16 -10z m-40 -28 c-3 -3 -11 0
-18 7 -9 10 -8 11 6 5 10 -3 15 -9 12 -12z m448 7 c-8 -8 -16 -8 -30 0 -16 9
-14 10 12 11 21 0 26 -3 18 -11z m-569 -55 c6 -10 16 -22 21 -26 6 -5 5 -8 -2
-8 -7 0 -18 10 -24 23 -7 12 -17 26 -23 30 -7 6 -6 7 3 5 8 -2 19 -13 25 -24z
m-241 -55 c18 -1 19 -2 4 -6 -27 -7 -47 15 -46 51 l1 31 10 -37 c7 -28 15 -38
31 -39z m274 49 c-3 -8 -6 -5 -6 6 -1 11 2 17 5 13 3 -3 4 -12 1 -19z m653
-51 c0 -23 -12 -57 -20 -57 -5 0 -6 10 -3 23 l4 22 -13 -23 c-8 -12 -17 -20
-21 -16 -4 4 -3 12 2 18 14 17 14 28 -1 38 -9 7 -6 8 10 5 20 -5 21 -3 10 10
-12 15 -11 15 10 4 12 -6 22 -17 22 -24z m-800 -7 c0 -5 -7 -10 -15 -10 -8 0
-15 5 -15 10 0 6 7 10 15 10 8 0 15 -4 15 -10z m139 -28 l-1 -27 -7 25 c-5 17
-9 21 -15 12 -10 -16 -23 -15 -29 2 -4 10 0 12 14 9 11 -3 19 0 19 6 0 7 5 9
10 6 6 -3 10 -18 9 -33z m526 17 c11 -16 1 -19 -13 -3 -7 8 -8 14 -3 14 5 0
13 -5 16 -11z m-768 -5 c-3 -3 -12 -4 -19 -1 -8 3 -5 6 6 6 11 1 17 -2 13 -5z
m129 -14 c0 -11 -4 -20 -8 -20 -4 0 -8 4 -8 10 0 5 -8 7 -17 3 -15 -5 -14 -3
2 10 26 21 31 21 31 -3z m-122 -109 c-2 -2 -10 1 -17 7 -8 7 -17 9 -20 5 -4
-3 -7 -1 -7 6 0 8 7 11 15 7 10 -3 15 1 16 12 1 11 4 8 8 -8 4 -14 6 -27 5
-29z m-58 -46 c1 -8 -4 -15 -12 -15 -9 0 -12 -5 -9 -10 4 -7 13 -6 27 1 20 11
37 0 38 -23 0 -14 -32 -38 -42 -32 -7 5 -8 2 -3 -6 5 -8 20 -10 41 -7 19 3 34
2 34 -4 0 -16 -82 -14 -88 2 -2 5 -8 9 -13 9 -6 0 -7 -4 -4 -10 3 -5 -3 -10
-14 -10 -24 0 -24 27 -2 54 8 9 14 27 14 40 0 18 4 23 15 19 11 -5 13 -3 7 8
-5 8 -4 11 0 6 5 -4 10 -14 11 -22z m63 -25 c0 -10 -3 -8 -9 5 -12 27 -12 43
0 25 5 -8 9 -22 9 -30z m-79 -100 c8 -5 11 -12 7 -16 -4 -4 -15 0 -24 9 -18
18 -8 23 17 7z"/>
<path d="M910 9160 c-12 -8 -9 -10 13 -10 15 0 27 5 27 10 0 13 -20 13 -40 0z"/>
<path d="M875 9140 c-3 -5 -1 -10 4 -10 6 0 11 5 11 10 0 6 -2 10 -4 10 -3 0
-8 -4 -11 -10z"/>
<path d="M8012 9742 c4 -14 2 -19 -7 -16 -6 3 -17 -2 -24 -10 -7 -9 -35 -19
-62 -22 -54 -7 -68 -27 -16 -23 18 2 38 0 45 -5 6 -4 17 -4 22 -1 6 3 10 -2
10 -12 1 -16 3 -15 20 6 l20 23 0 -25 c0 -14 5 -29 12 -33 7 -5 9 -2 5 8 -4
11 1 18 14 21 10 3 17 2 14 -3 -3 -4 3 -14 12 -21 15 -12 16 -12 10 4 -10 27
15 16 28 -11 14 -32 20 -27 21 19 2 43 17 62 46 55 9 -2 26 5 37 15 26 24 31
24 31 -1 0 -11 5 -20 10 -20 13 0 13 6 0 31 -13 23 -4 25 16 4 9 -8 24 -15 34
-15 10 0 22 -5 25 -10 4 -6 11 -8 16 -5 5 4 17 1 26 -4 17 -10 17 -10 1 -11
-16 0 -16 -2 2 -20 12 -12 25 -18 30 -15 5 3 10 -5 12 -17 2 -13 9 -22 15 -21
7 2 10 -3 7 -11 -3 -8 0 -17 7 -22 8 -5 10 -3 4 6 -6 9 -4 11 4 5 7 -4 11 -16
8 -26 -3 -12 -1 -17 6 -12 6 4 8 -2 5 -15 -7 -25 4 -29 22 -7 7 8 16 12 21 9
5 -3 9 0 9 6 0 6 5 8 10 5 6 -3 10 -1 10 5 0 6 4 9 9 5 15 -9 71 -13 66 -5 -3
4 2 10 10 14 9 3 19 -3 26 -16 6 -11 14 -17 18 -12 8 12 61 14 61 2 0 -5 -4
-7 -8 -4 -5 3 -9 -1 -9 -9 0 -21 12 -18 31 8 10 12 15 15 13 7 -6 -19 15 -40
39 -40 3 0 -3 -13 -13 -30 -9 -16 -20 -30 -24 -30 -10 0 -20 30 -13 41 3 5 -1
9 -8 9 -7 0 -13 -11 -13 -24 0 -13 4 -22 9 -18 5 3 7 -2 3 -11 -4 -12 0 -14
19 -11 13 2 24 0 24 -6 0 -5 5 -10 10 -10 7 0 8 6 2 17 -16 28 7 65 35 58 17
-4 21 -2 17 9 -3 8 -14 12 -27 9 -16 -3 -18 -2 -8 5 8 6 11 18 6 31 -3 12 -2
21 4 21 5 0 13 -9 16 -20 3 -11 11 -20 17 -20 6 0 6 6 -2 15 -11 13 -10 14 4
9 9 -3 16 -2 16 4 0 5 -7 12 -15 16 -18 6 -20 36 -3 36 6 0 8 -3 5 -7 -4 -3 0
-14 8 -23 12 -13 13 -23 6 -43 -7 -18 -7 -28 0 -33 6 -3 13 4 16 15 4 16 11
20 24 16 11 -4 19 -2 19 5 0 6 5 8 10 5 6 -4 8 -11 5 -16 -4 -5 -1 -9 4 -9 6
0 11 12 11 26 0 16 5 24 13 21 6 -2 10 -11 8 -18 -2 -8 -3 -24 -3 -36 0 -13
-4 -23 -9 -23 -5 0 -6 -7 -3 -15 4 -8 10 -15 15 -15 4 0 6 7 3 15 -5 12 -2 14
12 8 15 -5 17 -4 8 8 -18 23 -13 47 8 41 12 -3 18 1 18 12 0 9 -4 16 -10 16
-5 0 -19 18 -30 40 -29 57 -67 88 -122 100 -63 13 -68 13 -68 -3 0 -7 -15 -27
-33 -45 l-33 -32 -22 20 c-12 12 -22 25 -22 31 0 5 -9 19 -20 31 -17 19 -20
19 -26 4 -3 -9 -4 -25 -1 -36 4 -14 -2 -24 -16 -32 -12 -6 -25 -15 -28 -21 -4
-5 -5 10 -2 34 4 38 1 48 -22 72 -29 28 -37 32 -49 20 -12 -13 -81 -33 -113
-33 -17 0 -63 11 -100 25 -62 22 -120 25 -108 5 11 -18 -25 -17 -41 1 -15 17
-29 20 -79 18 -34 -1 -68 1 -75 6 -10 6 -12 3 -8 -13z m108 -27 c0 -8 -4 -15
-10 -15 -5 0 -7 7 -4 15 4 8 8 15 10 15 2 0 4 -7 4 -15z m421 -25 c13 0 17 -5
12 -16 -4 -11 -9 -12 -16 -5 -6 6 -21 11 -34 11 -13 0 -23 4 -23 9 0 12 34 19
38 9 2 -4 12 -8 23 -8z m-447 -5 c3 -8 1 -15 -4 -15 -6 0 -10 7 -10 15 0 8 2
15 4 15 2 0 6 -7 10 -15z m36 -17 c0 -18 -2 -20 -9 -8 -6 8 -7 18 -5 22 9 14
14 9 14 -14z m317 -20 c-3 -8 -6 -5 -6 6 -1 11 2 17 5 13 3 -3 4 -12 1 -19z
m240 -10 c-3 -8 -6 -5 -6 6 -1 11 2 17 5 13 3 -3 4 -12 1 -19z m120 0 c-3 -8
-6 -5 -6 6 -1 11 2 17 5 13 3 -3 4 -12 1 -19z m-20 -20 c-3 -8 -6 -5 -6 6 -1
11 2 17 5 13 3 -3 4 -12 1 -19z m47 -23 c-4 -8 -8 -15 -10 -15 -2 0 -4 7 -4
15 0 8 4 15 10 15 5 0 7 -7 4 -15z m-27 -42 c-4 -3 -2 -12 4 -19 7 -8 7 -14
-1 -19 -5 -3 -10 2 -10 12 0 15 -2 16 -10 3 -5 -8 -10 -10 -10 -4 0 10 20 34
29 34 2 0 1 -3 -2 -7z"/>
<path d="M8175 9740 c4 -6 11 -8 16 -5 14 9 11 15 -7 15 -8 0 -12 -5 -9 -10z"/>
<path d="M7812 9668 c-24 -8 -34 -19 -41 -42 -4 -17 -7 -33 -5 -35 6 -7 24 11
24 25 0 9 6 22 14 30 8 8 21 14 30 14 8 0 18 5 21 10 7 12 1 11 -43 -2z"/>
<path d="M8284 9668 c-5 -7 -3 -8 6 -3 8 5 18 1 27 -10 12 -17 13 -18 13 -1 0
9 5 14 10 11 6 -3 10 -1 10 4 0 15 -57 14 -66 -1z"/>
<path d="M8245 9640 c-3 -5 -1 -10 4 -10 6 0 11 5 11 10 0 6 -2 10 -4 10 -3 0
-8 -4 -11 -10z"/>
<path d="M8345 9640 c-3 -6 1 -7 9 -4 18 7 21 14 7 14 -6 0 -13 -4 -16 -10z"/>
<path d="M8051 9624 c0 -11 3 -14 6 -6 3 7 2 16 -1 19 -3 4 -6 -2 -5 -13z"/>
<path d="M7245 9613 c-46 -16 -68 -33 -42 -33 9 0 17 5 17 11 0 6 6 9 14 6 8
-3 17 -3 21 1 8 8 13 9 67 11 48 1 48 6 -2 13 -19 2 -53 -2 -75 -9z"/>
<path d="M2195 9597 c8 -13 12 -27 8 -30 -3 -4 -2 -7 4 -7 9 0 53 45 53 55 0
3 -9 1 -21 -6 -15 -8 -24 -8 -32 0 -20 20 -28 12 -12 -12z"/>
<path d="M2523 9613 c9 -2 23 -2 30 0 6 3 -1 5 -18 5 -16 0 -22 -2 -12 -5z"/>
<path d="M7581 9611 c-1 -8 -7 -11 -17 -7 -14 5 -15 4 -5 -8 7 -8 22 -13 33
-11 26 5 36 15 16 15 -9 0 -19 6 -21 13 -4 9 -6 9 -6 -2z"/>
<path d="M2427 9603 c-3 -5 5 -8 18 -8 13 0 21 3 18 8 -2 4 -10 7 -18 7 -8 0
-16 -3 -18 -7z"/>
<path d="M7458 9603 c6 -2 18 -2 25 0 6 3 1 5 -13 5 -14 0 -19 -2 -12 -5z"/>
<path d="M1576 9573 c-6 -14 -5 -15 5 -6 7 7 10 15 7 18 -3 3 -9 -2 -12 -12z"/>
<path d="M8400 9580 c0 -5 7 -7 15 -4 8 4 15 8 15 10 0 2 -7 4 -15 4 -8 0 -15
-4 -15 -10z"/>
<path d="M9071 9571 c-18 -16 -19 -20 -6 -25 9 -3 13 -2 10 4 -3 6 -1 10 4 10
18 0 12 -38 -6 -43 -14 -4 -12 -5 5 -6 12 0 22 -5 22 -10 0 -6 12 -6 30 -1 23
7 30 5 30 -5 0 -7 -10 -15 -22 -17 -21 -3 -21 -4 -3 -21 10 -11 26 -16 37 -14
12 4 18 1 15 -6 -2 -7 -12 -11 -21 -11 -16 2 -21 -8 -9 -19 10 -10 13 -58 3
-52 -12 8 -41 -6 -34 -16 3 -5 1 -9 -4 -9 -6 0 -13 -7 -16 -16 -5 -12 -1 -14
15 -9 21 7 52 -11 43 -26 -3 -5 0 -9 5 -9 6 0 11 7 11 15 0 8 4 15 9 15 4 0 6
-11 3 -25 -2 -15 -9 -22 -16 -18 -6 4 -5 -1 3 -10 13 -16 14 -16 26 0 9 12 10
22 4 29 -6 8 -4 17 6 27 21 22 20 23 -26 22 -46 -1 -61 10 -24 17 14 3 25 1
25 -4 0 -5 8 -4 18 1 13 7 22 7 30 -1 8 -8 13 -7 18 5 3 9 11 17 16 17 6 0 7
-7 4 -16 -3 -8 -2 -13 2 -10 4 2 9 -13 9 -35 1 -27 -3 -42 -15 -48 -9 -6 -12
-11 -6 -11 5 0 15 5 21 11 7 7 12 4 16 -11 3 -14 -1 -25 -13 -32 -10 -7 -16
-18 -12 -26 3 -10 1 -13 -6 -8 -6 4 -21 1 -32 -6 -18 -11 -23 -10 -35 5 -7 11
-12 24 -11 30 2 7 1 9 -1 5 -9 -15 -22 -8 -26 15 -4 19 -4 18 -6 -6 0 -15 -8
-30 -16 -33 -8 -4 -15 -10 -15 -15 0 -4 8 -5 18 -2 15 6 15 5 3 -10 -7 -9 -10
-17 -6 -17 4 0 1 -8 -6 -17 -13 -16 -12 -17 3 -4 10 7 15 17 12 22 -3 5 -1 9
5 9 5 0 12 -8 14 -17 4 -15 6 -15 12 5 4 12 12 22 17 22 5 0 7 -8 3 -19 -4
-13 0 -20 15 -24 11 -3 22 -1 25 4 3 4 12 6 20 3 11 -4 12 -12 4 -31 -9 -23
-8 -24 6 -13 14 12 16 9 14 -26 -2 -21 -9 -49 -17 -62 -13 -20 -13 -22 1 -16
9 3 19 19 22 35 8 38 -4 131 -16 123 -15 -9 -10 5 15 49 22 38 24 47 14 96 -5
30 -8 65 -5 78 4 20 1 22 -19 17 -15 -4 -24 -2 -24 6 0 16 -61 90 -71 85 -4
-3 -11 0 -15 6 -4 8 -3 9 4 5 31 -19 -13 54 -57 95 -25 23 -23 23 -50 0z m62
-39 c4 8 6 7 6 -4 1 -12 -6 -18 -19 -18 -12 0 -20 7 -20 16 0 13 3 14 14 5 11
-9 15 -9 19 1z m32 -72 c3 -5 1 -10 -4 -10 -6 0 -11 5 -11 10 0 6 2 10 4 10 3
0 8 -4 11 -10z m45 -50 c0 10 9 6 25 -13 13 -15 22 -34 19 -42 -9 -21 -32 4
-26 28 4 17 3 18 -16 6 -25 -15 -37 -7 -28 18 6 15 8 15 16 3 9 -13 10 -13 10
0z"/>
<path d="M8197 9557 c12 -13 19 -14 24 -5 4 7 9 0 11 -17 2 -21 9 -29 25 -30
12 -1 24 4 27 12 7 18 26 17 26 -1 0 -20 13 -27 30 -14 12 8 12 9 -2 4 -13 -4
-18 0 -18 16 0 17 2 18 15 8 23 -19 25 -8 4 14 -11 11 -19 14 -19 8 0 -7 -4
-12 -10 -12 -5 0 -10 6 -10 14 0 17 -23 27 -39 16 -10 -5 -10 -13 -3 -27 8
-15 8 -20 -3 -20 -7 0 -16 13 -19 28 -4 21 -10 27 -30 25 -23 -1 -23 -2 -9
-19z m88 -7 c3 -5 1 -10 -4 -10 -6 0 -11 5 -11 10 0 6 2 10 4 10 3 0 8 -4 11
-10z"/>
<path d="M2311 9548 c1 -16 3 -18 6 -6 2 9 12 19 21 21 12 3 10 5 -5 6 -18 1
-23 -4 -22 -21z"/>
<path d="M3210 9560 c33 -23 50 -30 50 -22 0 5 -11 14 -25 20 -32 15 -45 15
-25 2z"/>
<path d="M7145 9560 c-3 -5 -1 -10 4 -10 6 0 11 5 11 10 0 6 -2 10 -4 10 -3 0
-8 -4 -11 -10z"/>
<path d="M7760 9559 c0 -5 -3 -8 -7 -6 -5 2 -19 -7 -32 -20 -13 -13 -19 -23
-13 -23 6 0 17 7 26 15 16 17 30 20 21 5 -3 -6 1 -7 9 -4 10 4 16 1 16 -7 0
-11 3 -11 10 1 14 22 12 30 -5 24 -8 -4 -15 -2 -15 4 0 6 6 13 13 15 7 3 5 6
-5 6 -10 1 -18 -4 -18 -10z"/>
<path d="M8128 9563 c7 -3 16 -2 19 1 4 3 -2 6 -13 5 -11 0 -14 -3 -6 -6z"/>
<path d="M1500 9551 c0 -5 7 -12 16 -15 14 -5 15 -4 4 9 -14 17 -20 19 -20 6z"/>
<path d="M1540 9550 c0 -5 5 -10 11 -10 5 0 7 5 4 10 -3 6 -8 10 -11 10 -2 0
-4 -4 -4 -10z"/>
<path d="M7585 9550 c3 -5 8 -10 11 -10 2 0 4 5 4 10 0 6 -5 10 -11 10 -5 0
-7 -4 -4 -10z"/>
<path d="M8370 9550 c-9 -6 -10 -10 -3 -10 6 0 15 5 18 10 8 12 4 12 -15 0z"/>
<path d="M8420 9550 c-13 -8 -13 -10 2 -10 9 0 20 5 23 10 8 13 -5 13 -25 0z"/>
<path d="M1890 9537 c0 -21 27 -29 35 -9 3 9 3 13 -1 9 -4 -4 -13 -2 -21 4
-10 9 -13 8 -13 -4z"/>
<path d="M8110 9540 c0 -5 5 -10 11 -10 5 0 7 5 4 10 -3 6 -8 10 -11 10 -2 0
-4 -4 -4 -10z"/>
<path d="M3367 9533 c-4 -3 -7 -13 -7 -22 1 -13 3 -13 11 2 11 19 8 33 -4 20z"/>
<path d="M7655 9530 c3 -5 8 -10 11 -10 2 0 4 5 4 10 0 6 -5 10 -11 10 -5 0
-7 -4 -4 -10z"/>
<path d="M8187 9519 c7 -7 15 -10 18 -7 3 3 -2 9 -12 12 -14 6 -15 5 -6 -5z"/>
<path d="M8550 9520 c0 -5 5 -10 11 -10 5 0 7 5 4 10 -3 6 -8 10 -11 10 -2 0
-4 -4 -4 -10z"/>
<path d="M8690 9514 c0 -8 5 -12 10 -9 6 4 8 11 5 16 -9 14 -15 11 -15 -7z"/>
<path d="M1986 9503 c-6 -14 -5 -15 5 -6 7 7 10 15 7 18 -3 3 -9 -2 -12 -12z"/>
<path d="M3420 9510 c0 -5 5 -10 11 -10 5 0 7 5 4 10 -3 6 -8 10 -11 10 -2 0
-4 -4 -4 -10z"/>
<path d="M1401 9473 c0 -13 5 -23 12 -23 7 0 26 -13 42 -30 16 -16 31 -28 33
-25 7 6 -51 65 -65 65 -6 0 -14 8 -16 18 -4 13 -5 11 -6 -5z"/>
<path d="M1420 9479 c0 -5 5 -7 10 -4 6 3 10 8 10 11 0 2 -4 4 -10 4 -5 0 -10
-5 -10 -11z"/>
<path d="M7986 9473 c-7 -18 10 -41 21 -28 5 4 3 10 -4 12 -7 2 -9 11 -6 19 3
8 3 14 0 14 -3 0 -8 -8 -11 -17z"/>
<path d="M8245 9480 c-3 -5 -1 -10 4 -10 6 0 11 5 11 10 0 6 -2 10 -4 10 -3 0
-8 -4 -11 -10z"/>
<path d="M8475 9480 c-3 -5 -1 -10 4 -10 6 0 11 5 11 10 0 6 -2 10 -4 10 -3 0
-8 -4 -11 -10z"/>
<path d="M8878 9473 c7 -3 16 -2 19 1 4 3 -2 6 -13 5 -11 0 -14 -3 -6 -6z"/>
<path d="M9042 9448 c1 -21 5 -38 10 -38 11 0 10 41 -2 60 -7 11 -9 5 -8 -22z"/>
<path d="M8847 9463 c-4 -3 -7 -11 -7 -17 0 -6 5 -5 12 2 6 6 9 14 7 17 -3 3
-9 2 -12 -2z"/>
<path d="M8935 9460 c-3 -5 -1 -10 4 -10 6 0 11 5 11 10 0 6 -2 10 -4 10 -3 0
-8 -4 -11 -10z"/>
<path d="M9075 9460 c-4 -6 6 -10 22 -10 22 0 25 2 13 10 -19 12 -27 12 -35 0z"/>
<path d="M1870 9449 c0 -5 5 -7 10 -4 6 3 10 8 10 11 0 2 -4 4 -10 4 -5 0 -10
-5 -10 -11z"/>
<path d="M3558 9453 c7 -3 16 -2 19 1 4 3 -2 6 -13 5 -11 0 -14 -3 -6 -6z"/>
<path d="M8894 9449 c-3 -6 -1 -16 5 -22 8 -8 11 -5 11 11 0 24 -5 28 -16 11z"/>
<path d="M2315 9385 c6 -36 16 -69 20 -73 5 -4 5 1 2 10 -3 10 -9 40 -13 68
-4 28 -10 53 -14 55 -4 3 -2 -25 5 -60z"/>
<path d="M8235 9414 c-20 -48 -19 -55 3 -21 10 15 22 24 25 20 4 -3 7 1 7 10
0 32 -20 27 -35 -9z"/>
<path d="M8610 9438 c0 -9 5 -20 11 -23 17 -11 20 0 4 21 -13 17 -14 17 -15 2z"/>
<path d="M3322 9428 c-7 -7 -12 -17 -12 -22 0 -6 -7 -24 -16 -41 -8 -16 -10
-25 -3 -18 11 11 51 93 46 93 -2 0 -8 -5 -15 -12z"/>
<path d="M3375 9430 c-3 -5 -1 -10 4 -10 6 0 11 5 11 10 0 6 -2 10 -4 10 -3 0
-8 -4 -11 -10z"/>
<path d="M8926 9427 c3 -10 9 -15 12 -12 3 3 0 11 -7 18 -10 9 -11 8 -5 -6z"/>
<path d="M8992 9418 c-17 -17 -15 -33 1 -19 8 6 17 8 20 4 4 -3 7 -1 7 5 0 17
-16 22 -28 10z"/>
<path d="M1635 9400 c9 -10 15 -26 12 -34 -4 -10 -1 -13 8 -10 15 6 9 31 -11
52 -20 20 -29 14 -9 -8z"/>
<path d="M8500 9416 c0 -2 7 -9 15 -16 13 -11 14 -10 9 4 -5 14 -24 23 -24 12z"/>
<path d="M8737 9385 c-10 -14 -15 -25 -12 -25 6 0 45 38 45 45 0 12 -17 2 -33
-20z"/>
<path d="M8914 9395 c8 -8 18 -15 22 -15 3 0 1 7 -6 15 -7 8 -17 15 -22 15 -5
0 -3 -7 6 -15z"/>
<path d="M8845 9390 c-3 -5 1 -10 9 -10 9 0 16 5 16 10 0 6 -4 10 -9 10 -6 0
-13 -4 -16 -10z"/>
<path d="M9108 9390 c13 -5 20 -14 17 -20 -3 -5 -1 -10 5 -10 23 0 4 35 -20
37 l-25 3 23 -10z"/>
<path d="M8631 9380 c-13 -7 -13 -11 -1 -25 12 -15 14 -15 23 0 11 21 -3 37
-22 25z"/>
<path d="M9045 9379 c4 -6 13 -8 21 -5 8 3 14 0 13 -7 -3 -25 1 -37 15 -37 8
0 13 9 12 24 0 13 -3 24 -6 24 -3 0 -7 0 -10 2 -23 9 -50 8 -45 -1z"/>
<path d="M8520 9376 c0 -2 7 -7 16 -10 8 -3 12 -2 9 4 -6 10 -25 14 -25 6z"/>
<path d="M8960 9359 c-13 -9 -13 -10 0 -6 8 2 25 -8 37 -22 23 -26 23 -26 23
-3 0 13 -6 22 -15 22 -8 0 -15 5 -15 10 0 13 -11 12 -30 -1z"/>
<path d="M8490 9349 c0 -5 5 -7 10 -4 6 3 10 8 10 11 0 2 -4 4 -10 4 -5 0 -10
-5 -10 -11z"/>
<path d="M8890 9351 c0 -5 5 -13 10 -16 6 -3 10 -2 10 4 0 5 -4 13 -10 16 -5
3 -10 2 -10 -4z"/>
<path d="M1280 9319 c7 -11 10 -26 7 -32 -2 -7 2 -28 9 -47 12 -33 13 -34 13
-8 1 15 -4 30 -10 34 -8 4 -7 9 2 15 11 6 11 11 2 20 -6 6 -9 18 -6 25 3 8 -1
14 -11 14 -14 0 -15 -4 -6 -21z"/>
<path d="M1566 9326 c3 -8 13 -17 22 -21 13 -5 13 -2 -3 15 -21 24 -26 25 -19
6z"/>
<path d="M1620 9330 c0 -6 -5 -8 -11 -4 -7 4 -6 -3 2 -17 7 -13 12 -29 11 -35
-1 -6 16 -20 38 -33 l40 -22 -4 40 c-4 43 1 49 23 29 11 -11 12 -10 6 0 -6 12
-44 31 -70 36 -5 1 -16 5 -22 9 -8 5 -13 3 -13 -3z m44 -30 c6 -8 11 -25 12
-37 3 -22 2 -22 -21 -5 -20 15 -21 18 -7 23 14 5 13 7 -5 13 -13 4 -23 11 -23
16 0 13 34 6 44 -10z"/>
<path d="M8780 9336 c0 -2 7 -7 16 -10 8 -3 12 -2 9 4 -6 10 -25 14 -25 6z"/>
<path d="M1317 9323 c-8 -12 30 -49 40 -40 3 4 1 7 -6 7 -6 0 -15 10 -20 22
-4 12 -11 17 -14 11z"/>
<path d="M1730 9309 c0 -5 5 -7 10 -4 6 3 10 8 10 11 0 2 -4 4 -10 4 -5 0 -10
-5 -10 -11z"/>
<path d="M9070 9310 c0 -5 5 -10 11 -10 5 0 7 5 4 10 -3 6 -8 10 -11 10 -2 0
-4 -4 -4 -10z"/>
<path d="M9230 9296 c0 -2 11 -6 25 -8 13 -3 22 -1 19 3 -5 9 -44 13 -44 5z"/>
<path d="M1767 9271 c3 -12 10 -21 15 -21 13 0 6 32 -9 37 -7 3 -9 -3 -6 -16z"/>
<path d="M9135 9280 c-3 -5 -1 -10 4 -10 6 0 11 5 11 10 0 6 -2 10 -4 10 -3 0
-8 -4 -11 -10z"/>
<path d="M1095 9270 c3 -5 8 -10 11 -10 2 0 4 5 4 10 0 6 -5 10 -11 10 -5 0
-7 -4 -4 -10z"/>
<path d="M2330 9273 c0 -4 5 -15 10 -23 8 -13 10 -13 10 2 0 9 -4 20 -10 23
-5 3 -10 3 -10 -2z"/>
<path d="M1715 9260 c-3 -5 1 -10 9 -10 8 0 18 5 21 10 3 6 -1 10 -9 10 -8 0
-18 -4 -21 -10z"/>
<path d="M1377 9249 c7 -7 15 -10 18 -7 3 3 -2 9 -12 12 -14 6 -15 5 -6 -5z"/>
<path d="M8020 9249 c0 -5 5 -7 10 -4 6 3 10 8 10 11 0 2 -4 4 -10 4 -5 0 -10
-5 -10 -11z"/>
<path d="M2003 9236 c6 -14 3 -15 -13 -6 -11 6 -20 7 -20 2 0 -5 11 -14 25
-20 22 -10 25 -9 25 8 0 10 -5 22 -12 26 -8 5 -9 2 -5 -10z"/>
<path d="M9215 9240 c-3 -5 -2 -10 4 -10 5 0 13 5 16 10 3 6 2 10 -4 10 -5 0
-13 -4 -16 -10z"/>
<path d="M1355 9209 c2 -30 20 -42 20 -14 0 14 -5 27 -11 29 -6 2 -10 -5 -9
-15z"/>
<path d="M1397 9219 c7 -7 15 -10 18 -7 3 3 -2 9 -12 12 -14 6 -15 5 -6 -5z"/>
<path d="M8761 9214 c0 -11 3 -14 6 -6 3 7 2 16 -1 19 -3 4 -6 -2 -5 -13z"/>
<path d="M1606 9205 c4 -8 8 -15 10 -15 2 0 4 7 4 15 0 8 -4 15 -10 15 -5 0
-7 -7 -4 -15z"/>
<path d="M9224 9205 c10 -8 23 -12 28 -9 13 8 5 14 -23 19 -23 4 -23 4 -5 -10z"/>
<path d="M1680 9190 c0 -11 4 -20 9 -20 5 0 7 9 4 20 -3 11 -7 20 -9 20 -2 0
-4 -9 -4 -20z"/>
<path d="M1992 9180 c0 -14 2 -19 5 -12 2 6 2 18 0 25 -3 6 -5 1 -5 -13z"/>
<path d="M1328 9164 c-3 -5 -6 -21 -6 -36 0 -23 5 -28 24 -28 25 0 32 14 13
25 -6 4 -14 16 -18 28 -4 11 -10 16 -13 11z"/>
<path d="M8415 9159 c-4 -6 -5 -12 -2 -15 2 -3 7 2 10 11 7 17 1 20 -8 4z"/>
<path d="M9086 9128 c1 -18 3 -46 4 -63 2 -29 2 -29 9 -5 4 14 4 30 -1 36 -4
6 -5 14 -1 18 12 12 10 46 -3 46 -7 0 -11 -12 -8 -32z"/>
<path d="M1657 9133 c-4 -3 -7 -13 -7 -22 1 -13 3 -13 11 2 11 19 8 33 -4 20z"/>
<path d="M1480 9120 c0 -5 5 -10 10 -10 6 0 10 5 10 10 0 6 -4 10 -10 10 -5 0
-10 -4 -10 -10z"/>
<path d="M1520 9110 c-6 -11 -7 -20 -2 -20 6 0 12 9 15 20 3 11 3 20 1 20 -2
0 -8 -9 -14 -20z"/>
<path d="M1572 9110 c7 -11 17 -20 22 -20 5 0 1 9 -9 20 -10 11 -20 20 -22 20
-2 0 2 -9 9 -20z"/>
<path d="M1970 9123 c0 -5 6 -15 13 -22 10 -10 8 -15 -8 -28 -18 -14 -18 -15
-2 -9 10 3 21 6 23 6 11 0 2 39 -11 50 -8 7 -15 8 -15 3z"/>
<path d="M1170 9110 c0 -5 -3 -9 -7 -9 -20 3 -33 -2 -33 -12 0 -8 5 -8 15 1
20 17 19 1 -2 -22 -9 -10 -13 -21 -8 -26 4 -4 10 -1 12 6 3 6 9 12 14 12 6 0
7 -5 3 -12 -4 -7 -3 -8 4 -4 6 4 9 13 5 21 -3 9 1 15 11 15 9 0 16 4 16 10 0
5 -7 7 -15 4 -11 -5 -13 -2 -9 10 3 9 3 16 0 16 -3 0 -6 -4 -6 -10z"/>
<path d="M9213 9093 c-3 -10 -8 -22 -10 -28 -3 -5 3 -1 11 9 16 20 21 36 11
36 -3 0 -8 -8 -12 -17z"/>
<path d="M9236 9088 c-11 -35 4 -63 19 -38 3 6 1 10 -5 10 -7 0 -9 8 -5 20 3
11 4 20 0 20 -3 0 -7 -6 -9 -12z"/>
<path d="M1667 9070 c3 -11 7 -20 9 -20 2 0 4 9 4 20 0 11 -4 20 -9 20 -5 0
-7 -9 -4 -20z"/>
<path d="M1550 9058 c-12 -22 -12 -22 6 -6 10 10 15 20 12 24 -4 3 -12 -5 -18
-18z"/>
<path d="M1060 9060 c0 -5 5 -10 10 -10 6 0 10 5 10 10 0 6 -4 10 -10 10 -5 0
-10 -4 -10 -10z"/>
<path d="M1107 9053 c-4 -3 -7 -11 -7 -17 0 -6 5 -5 12 2 6 6 9 14 7 17 -3 3
-9 2 -12 -2z"/>
<path d="M9078 9004 c2 -19 8 -32 12 -29 5 3 11 -1 13 -7 4 -9 6 -10 6 -1 1 6
-3 14 -8 17 -5 3 -7 14 -4 25 2 10 -1 21 -9 23 -10 4 -13 -3 -10 -28z"/>
<path d="M1140 9021 c0 -5 7 -11 14 -14 10 -4 13 -1 9 9 -6 15 -23 19 -23 5z"/>
<path d="M1596 9021 c-3 -5 1 -11 9 -15 8 -3 15 -1 15 4 0 13 -18 22 -24 11z"/>
<path d="M980 8983 c0 -13 5 -23 10 -23 13 0 13 11 0 30 -8 12 -10 11 -10 -7z"/>
<path d="M9139 8991 c8 -5 16 -17 17 -26 4 -29 11 -26 12 5 1 24 -3 30 -21 30
-17 0 -19 -2 -8 -9z"/>
<path d="M796 8958 c-3 -13 -1 -27 4 -32 6 -6 4 -16 -7 -28 -14 -16 -14 -18 0
-18 8 0 18 6 21 13 3 6 3 2 1 -10 -3 -12 -1 -24 5 -28 5 -3 10 -14 10 -25 0
-10 7 -20 15 -24 8 -3 15 -1 15 4 0 6 -4 10 -9 10 -5 0 -12 25 -16 55 -3 30
-11 57 -16 60 -16 10 -10 25 14 35 21 9 21 9 -4 9 -19 1 -28 -5 -33 -21z"/>
<path d="M9050 8970 c0 -5 5 -10 11 -10 5 0 7 5 4 10 -3 6 -8 10 -11 10 -2 0
-4 -4 -4 -10z"/>
<path d="M860 8962 c0 -4 9 -8 20 -9 11 -1 18 2 15 8 -7 11 -35 12 -35 1z"/>
<path d="M9252 8935 c0 -16 2 -22 5 -12 2 9 2 23 0 30 -3 6 -5 -1 -5 -18z"/>
<path d="M930 8940 c-8 -5 -26 -7 -40 -4 -22 5 -23 4 -6 -6 13 -9 25 -9 42 -1
26 11 57 5 48 -10 -8 -13 15 -39 33 -39 13 0 13 2 2 17 -8 9 -13 24 -11 33 2
12 -5 17 -26 18 -15 0 -35 -3 -42 -8z"/>
<path d="M1401 8933 c-1 -13 -6 -23 -12 -23 -5 0 -7 -4 -4 -10 3 -5 11 -10 16
-10 6 0 8 4 5 9 -4 5 -2 11 3 13 4 1 5 12 0 23 -7 19 -8 19 -8 -2z"/>
<path d="M9082 8943 c2 -4 -1 -9 -7 -11 -12 -4 -38 -52 -32 -59 3 -2 10 5 16
16 7 12 17 18 26 15 17 -7 22 31 5 41 -6 4 -9 3 -8 -2z"/>
<path d="M9120 8939 c0 -5 5 -7 10 -4 6 3 10 8 10 11 0 2 -4 4 -10 4 -5 0 -10
-5 -10 -11z"/>
<path d="M9121 8915 c1 -19 18 -51 18 -35 0 8 -4 22 -9 30 -5 8 -9 11 -9 5z"/>
<path d="M925 8890 c-3 -5 -1 -10 4 -10 6 0 11 5 11 10 0 6 -2 10 -4 10 -3 0
-8 -4 -11 -10z"/>
<path d="M9188 8882 c9 -10 19 -17 21 -16 6 5 -20 34 -30 34 -5 0 -1 -8 9 -18z"/>
<path d="M1705 8880 c-3 -5 -1 -10 4 -10 6 0 11 5 11 10 0 6 -2 10 -4 10 -3 0
-8 -4 -11 -10z"/>
<path d="M9086 8881 c-3 -5 1 -14 9 -21 10 -9 15 -9 15 -1 0 6 -6 11 -12 11
-9 0 -8 4 2 10 9 6 10 10 3 10 -6 0 -14 -4 -17 -9z"/>
<path d="M1020 8838 c0 -17 3 -28 7 -25 3 4 12 2 20 -4 17 -15 17 -5 -2 31
-20 38 -25 38 -25 -2z"/>
<path d="M9045 8850 c4 -6 11 -8 16 -5 14 9 11 15 -7 15 -8 0 -12 -5 -9 -10z"/>
<path d="M9006 8834 c-5 -14 -4 -15 9 -4 17 14 19 20 6 20 -5 0 -12 -7 -15
-16z"/>
<path d="M978 8833 c6 -2 18 -2 25 0 6 3 1 5 -13 5 -14 0 -19 -2 -12 -5z"/>
<path d="M9070 8820 c0 -14 -6 -20 -17 -18 -10 2 -18 -4 -19 -15 -1 -11 0 -12
3 -3 2 8 10 13 18 10 13 -5 28 10 31 34 1 6 -2 12 -7 12 -5 0 -9 -9 -9 -20z"/>
<path d="M9107 8820 c-3 -11 -1 -20 4 -20 5 0 9 9 9 20 0 11 -2 20 -4 20 -2 0
-6 -9 -9 -20z"/>
<path d="M9160 8836 c0 -4 7 -14 15 -22 8 -9 15 -11 15 -6 0 5 -7 15 -15 22
-8 7 -15 9 -15 6z"/>
<path d="M9213 8803 c9 -2 23 -2 30 0 6 3 -1 5 -18 5 -16 0 -22 -2 -12 -5z"/>
<path d="M9103 8793 c-31 -6 -29 -23 2 -23 18 0 23 -4 19 -15 -4 -8 -12 -15
-19 -15 -7 0 -15 -7 -19 -15 -3 -9 0 -15 9 -15 8 0 15 6 15 13 0 9 2 9 8 0 5
-8 13 -9 22 -3 10 7 11 10 3 10 -7 0 -13 5 -13 11 0 8 12 10 35 6 21 -3 33 -2
30 4 -4 5 -13 9 -20 9 -8 0 -19 9 -25 20 -6 11 -14 19 -18 19 -4 -1 -17 -4
-29 -6z"/>
<path d="M1045 8770 c-3 -5 -1 -10 4 -10 6 0 11 5 11 10 0 6 -2 10 -4 10 -3 0
-8 -4 -11 -10z"/>
<path d="M1085 8749 c-4 -6 -5 -12 -2 -15 2 -3 7 2 10 11 7 17 1 20 -8 4z"/>
<path d="M9016 8747 c3 -10 9 -15 12 -12 3 3 0 11 -7 18 -10 9 -11 8 -5 -6z"/>
<path d="M9154 8694 c9 -8 14 -20 11 -25 -3 -4 1 -22 10 -38 19 -38 19 -52 0
-45 -8 4 -15 1 -15 -6 0 -6 5 -8 10 -5 6 3 10 1 10 -4 0 -6 -6 -11 -12 -11 -9
0 -8 -4 2 -10 12 -8 12 -10 -5 -10 -18 -1 -18 -2 -4 -13 9 -7 15 -18 13 -25
-1 -7 0 -8 3 -2 2 5 10 7 16 3 7 -4 8 0 4 11 -4 9 -3 15 2 12 5 -3 11 1 15 9
3 8 10 15 15 15 5 0 5 -12 -2 -30 -9 -23 -8 -32 2 -42 12 -11 13 -10 8 4 -3
10 -2 20 4 23 5 4 7 11 4 16 -4 5 -2 9 3 9 5 0 9 -20 8 -45 -1 -25 1 -45 4
-45 25 0 52 131 30 145 -7 4 -16 2 -21 -6 -5 -8 -3 -16 4 -21 16 -10 3 -20
-17 -12 -9 3 -13 10 -10 15 3 5 -2 6 -10 3 -22 -8 -20 13 2 25 16 10 16 10 -2
11 -18 0 -18 1 3 23 21 23 21 25 4 38 -17 13 -17 13 -3 -5 13 -17 13 -19 0
-14 -8 2 -17 20 -20 39 l-6 34 -7 -34 c-4 -18 -4 -38 0 -45 4 -6 -1 -5 -10 3
-9 7 -17 21 -17 30 0 18 -18 41 -33 41 -5 0 -1 -7 7 -16z m52 -123 c-4 -5 -1
-11 6 -13 8 -3 6 -6 -4 -10 -11 -5 -15 -2 -13 10 5 23 4 22 11 22 3 0 3 -4 0
-9z"/>
<path d="M9091 8691 c-6 -4 -6 -12 -1 -21 5 -9 5 -19 -2 -27 -8 -10 -6 -13 6
-13 17 0 22 -15 7 -24 -12 -8 -21 -46 -10 -46 5 0 9 7 9 15 0 8 5 15 11 15 7
0 9 -10 7 -25 -3 -13 -1 -22 3 -19 5 3 9 14 9 24 0 10 8 24 18 29 15 9 15 10
-4 11 -25 0 -38 34 -23 61 5 10 9 19 9 22 0 6 -28 4 -39 -2z"/>
<path d="M9055 8660 c-16 -7 -17 -9 -3 -9 9 -1 20 4 23 9 7 11 7 11 -20 0z"/>
<path d="M1311 8634 c0 -11 3 -14 6 -6 3 7 2 16 -1 19 -3 4 -6 -2 -5 -13z"/>
<path d="M9140 8641 c0 -6 4 -13 10 -16 6 -3 7 1 4 9 -7 18 -14 21 -14 7z"/>
<path d="M9255 8621 c-3 -5 -1 -12 5 -16 5 -3 10 1 10 9 0 18 -6 21 -15 7z"/>
<path d="M950 8610 c0 -5 7 -7 15 -4 8 4 15 8 15 10 0 2 -7 4 -15 4 -8 0 -15
-4 -15 -10z"/>
<path d="M8965 8610 c-3 -6 1 -7 9 -4 18 7 21 14 7 14 -6 0 -13 -4 -16 -10z"/>
<path d="M8754 8595 c-16 -12 -17 -14 -3 -15 9 0 19 7 23 15 7 19 5 19 -20 0z"/>
<path d="M9030 8590 c0 -6 5 -8 11 -4 6 3 16 0 21 -7 8 -12 9 -11 5 1 -4 18
-37 27 -37 10z"/>
<path d="M9000 8580 c-9 -6 -10 -10 -3 -10 6 0 15 5 18 10 8 12 4 12 -15 0z"/>
<path d="M860 8565 c-7 -9 -11 -18 -8 -20 3 -3 11 1 18 10 7 9 11 18 8 20 -3
3 -11 -1 -18 -10z"/>
<path d="M9050 8545 c-7 -9 -10 -18 -7 -21 3 -3 10 4 17 15 13 25 8 27 -10 6z"/>
<path d="M8965 8520 c-3 -5 -1 -10 4 -10 6 0 11 5 11 10 0 6 -2 10 -4 10 -3 0
-8 -4 -11 -10z"/>
<path d="M9076 8494 c-5 -14 -4 -15 9 -4 17 14 19 20 6 20 -5 0 -12 -7 -15
-16z"/>
<path d="M9015 8490 c3 -5 11 -10 16 -10 6 0 7 5 4 10 -3 6 -11 10 -16 10 -6
0 -7 -4 -4 -10z"/>
<path d="M8948 8483 c6 -2 18 -2 25 0 6 3 1 5 -13 5 -14 0 -19 -2 -12 -5z"/>
<path d="M9143 8483 c-7 -3 -13 -9 -13 -14 0 -4 6 -6 13 -3 8 3 20 -2 27 -11
7 -8 20 -15 29 -15 13 1 13 3 -3 15 -18 13 -15 20 7 16 4 0 7 4 7 9 0 13 -17
13 -25 0 -4 -7 -11 -7 -18 -2 -7 5 -18 7 -24 5z"/>
<path d="M1680 8465 c-11 -13 -10 -14 4 -9 9 3 16 10 16 15 0 13 -6 11 -20 -6z"/>
<path d="M850 8461 c0 -6 4 -13 10 -16 6 -3 7 1 4 9 -7 18 -14 21 -14 7z"/>
<path d="M895 8460 c-3 -5 -1 -10 4 -10 6 0 11 5 11 10 0 6 -2 10 -4 10 -3 0
-8 -4 -11 -10z"/>
<path d="M9005 8460 c3 -5 8 -10 11 -10 2 0 4 5 4 10 0 6 -5 10 -11 10 -5 0
-7 -4 -4 -10z"/>
<path d="M890 8430 c-13 -8 -12 -10 3 -10 9 0 17 5 17 10 0 12 -1 12 -20 0z"/>
<path d="M9122 8410 c0 -14 2 -19 5 -12 2 6 2 18 0 25 -3 6 -5 1 -5 -13z"/>
<path d="M9185 8420 c3 -5 10 -10 16 -10 5 0 9 5 9 10 0 6 -7 10 -16 10 -8 0
-12 -4 -9 -10z"/>
<path d="M2170 8409 c0 -5 5 -7 10 -4 6 3 10 8 10 11 0 2 -4 4 -10 4 -5 0 -10
-5 -10 -11z"/>
<path d="M897 8378 c4 -19 3 -20 -6 -8 -9 12 -11 10 -11 -12 0 -15 7 -33 15
-42 8 -8 15 -19 15 -25 0 -6 5 -11 10 -11 7 0 7 6 0 20 -6 11 -7 20 -3 20 4 0
1 5 -7 10 -10 6 -11 10 -2 10 7 0 12 13 12 30 0 19 -5 30 -14 30 -9 0 -12 -7
-9 -22z"/>
<path d="M9226 8355 c4 -8 10 -15 15 -15 4 0 6 7 3 15 -4 8 -10 15 -15 15 -4
0 -6 -7 -3 -15z"/>
<path d="M7240 8309 c0 -5 5 -7 10 -4 6 3 10 8 10 11 0 2 -4 4 -10 4 -5 0 -10
-5 -10 -11z"/>
<path d="M1465 8299 c-4 -6 -5 -12 -2 -15 2 -3 7 2 10 11 7 17 1 20 -8 4z"/>
<path d="M1345 8270 c3 -5 10 -10 16 -10 5 0 9 5 9 10 0 6 -7 10 -16 10 -8 0
-12 -4 -9 -10z"/>
<path d="M936 8237 c6 -16 63 -51 71 -43 3 3 -3 9 -13 13 -10 3 -25 15 -32 25
-15 21 -34 24 -26 5z"/>
<path d="M1207 8210 c6 -7 23 -12 37 -12 23 0 25 -3 14 -16 -11 -13 -11 -14 1
-8 8 5 17 3 23 -5 7 -11 8 -9 4 5 -4 11 -1 23 6 28 8 5 2 8 -17 8 -16 0 -41 3
-55 6 -20 5 -23 4 -13 -6z"/>
<path d="M1030 8190 c0 -6 7 -10 15 -10 8 0 15 2 15 4 0 2 -7 6 -15 10 -8 3
-15 1 -15 -4z"/>
<path d="M1174 8183 c10 -11 36 -12 36 -2 0 5 -10 9 -22 9 -12 0 -18 -3 -14
-7z"/>
<path d="M1216 8175 c-3 -8 -9 -15 -13 -14 -4 1 -25 1 -46 0 -35 -1 -37 -2
-23 -17 19 -18 21 -34 5 -34 -19 0 -49 -44 -36 -52 9 -6 9 -12 -1 -28 -13 -22
-8 -26 11 -10 49 41 67 61 67 72 0 9 -3 9 -10 -2 -5 -8 -10 -10 -10 -4 0 21
23 34 38 21 13 -10 14 -8 8 11 -6 17 -3 24 16 31 13 6 17 10 9 10 -11 1 -11 4
-1 16 7 9 8 15 2 15 -5 0 -12 -7 -16 -15z m-36 -35 c0 -5 -4 -10 -10 -10 -5 0
-10 5 -10 10 0 6 5 10 10 10 6 0 10 -4 10 -10z m-44 -87 c-10 -10 -19 5 -10
18 6 11 8 11 12 0 2 -7 1 -15 -2 -18z"/>
<path d="M8650 8171 c0 -5 5 -13 10 -16 6 -3 10 -2 10 4 0 5 -4 13 -10 16 -5
3 -10 2 -10 -4z"/>
<path d="M9257 8113 c-2 -5 -1 -19 4 -33 7 -23 7 -23 8 8 1 31 -3 40 -12 25z"/>
<path d="M1050 8079 c0 -5 5 -7 10 -4 6 3 10 8 10 11 0 2 -4 4 -10 4 -5 0 -10
-5 -10 -11z"/>
<path d="M1446 8063 c4 -10 8 -28 8 -40 1 -13 6 -25 12 -27 14 -5 10 33 -5 63
-14 25 -26 28 -15 4z"/>
<path d="M8960 8070 c0 -4 9 -10 20 -13 11 -3 20 -2 20 3 0 4 -9 10 -20 13
-11 3 -20 2 -20 -3z"/>
<path d="M929 8048 c-12 -23 -12 -23 10 -4 23 21 26 26 11 26 -5 0 -15 -10
-21 -22z"/>
<path d="M8895 8060 c3 -5 14 -10 23 -10 15 0 15 2 2 10 -20 13 -33 13 -25 0z"/>
<path d="M1028 8051 c11 -7 10 -9 -2 -14 -18 -7 -22 -37 -5 -37 5 0 7 5 4 10
-4 6 5 10 21 10 21 0 24 3 15 13 -6 8 -9 16 -6 18 2 3 -6 6 -18 6 -15 2 -18 0
-9 -6z"/>
<path d="M9193 8044 c-3 -8 0 -21 7 -27 10 -9 11 -9 6 1 -10 17 4 38 15 21 4
-7 11 -10 16 -6 4 5 1 12 -7 17 -21 14 -30 12 -37 -6z"/>
<path d="M953 8032 c-3 -7 -3 -16 1 -19 3 -4 6 -1 6 5 0 7 9 12 19 12 11 0 22
4 25 9 3 5 -6 8 -20 7 -15 0 -29 -7 -31 -14z"/>
<path d="M9243 8024 c-7 -7 -13 -19 -13 -26 0 -9 3 -9 10 2 10 16 13 9 11 -25
-1 -17 0 -18 8 -4 6 9 7 27 3 41 -6 21 -9 23 -19 12z"/>
<path d="M7988 8003 c-3 -4 3 -16 14 -25 21 -21 24 -11 4 15 -8 10 -16 15 -18
10z"/>
<path d="M8978 7986 c-24 -17 -23 -25 2 -19 11 3 17 10 13 16 -4 6 0 8 10 4
10 -3 17 -2 17 3 0 14 -22 12 -42 -4z"/>
<path d="M9203 7988 c-14 -16 -11 -44 5 -58 9 -7 9 -7 2 2 -6 7 -5 18 1 30 13
25 7 45 -8 26z"/>
<path d="M905 7980 c3 -5 8 -10 11 -10 2 0 4 5 4 10 0 6 -5 10 -11 10 -5 0 -7
-4 -4 -10z"/>
<path d="M1284 7952 c0 -10 8 -18 18 -18 22 0 22 3 4 22 -19 18 -22 18 -22 -4z"/>
<path d="M8975 7941 c-3 -5 -2 -12 3 -15 5 -3 9 1 9 9 0 17 -3 19 -12 6z"/>
<path d="M9035 7940 c-3 -5 1 -10 10 -10 9 0 13 5 10 10 -3 6 -8 10 -10 10 -2
0 -7 -4 -10 -10z"/>
<path d="M9166 7935 c-3 -8 -1 -15 4 -15 6 0 10 7 10 15 0 8 -2 15 -4 15 -2 0
-6 -7 -10 -15z"/>
<path d="M1811 7924 c0 -11 3 -14 6 -6 3 7 2 16 -1 19 -3 4 -6 -2 -5 -13z"/>
<path d="M1133 7910 c1 -11 5 -20 9 -20 11 0 10 28 -1 35 -6 3 -9 -4 -8 -15z"/>
<path d="M1470 7915 c0 -8 4 -15 10 -15 5 0 7 7 4 15 -4 8 -8 15 -10 15 -2 0
-4 -7 -4 -15z"/>
<path d="M8964 7887 c-2 -7 7 -35 21 -62 14 -28 25 -44 25 -36 0 10 6 10 26
-4 22 -14 28 -15 35 -4 14 22 10 32 -10 26 -15 -4 -19 0 -16 14 3 16 1 17 -14
10 -20 -11 -51 18 -54 50 -1 22 -6 24 -13 6z"/>
<path d="M9111 7886 c-9 -10 -8 -15 3 -19 10 -4 14 0 13 14 -2 23 -1 23 -16 5z"/>
<path d="M9170 7878 c0 -19 2 -20 10 -8 13 19 13 30 0 30 -5 0 -10 -10 -10
-22z"/>
<path d="M1320 7884 c0 -2 9 -8 20 -14 11 -6 20 -7 20 -2 0 6 -9 12 -20 15
-11 3 -20 3 -20 1z"/>
<path d="M9067 7869 c-3 -13 -1 -19 6 -16 15 5 22 37 9 37 -5 0 -12 -9 -15
-21z"/>
<path d="M940 7868 c0 -8 9 -23 20 -33 11 -10 20 -14 20 -8 0 5 -9 20 -20 33
-14 16 -20 19 -20 8z"/>
<path d="M1130 7862 c6 -13 14 -21 18 -18 3 4 -2 14 -12 24 -18 16 -18 16 -6
-6z"/>
<path d="M1163 7825 c0 -8 4 -12 9 -9 4 3 8 9 8 15 0 5 -4 9 -8 9 -5 0 -9 -7
-9 -15z"/>
<path d="M9135 7830 c3 -5 8 -10 11 -10 2 0 4 5 4 10 0 6 -5 10 -11 10 -5 0
-7 -4 -4 -10z"/>
<path d="M995 7821 c-3 -5 -2 -12 3 -15 5 -3 9 1 9 9 0 17 -3 19 -12 6z"/>
<path d="M1123 7808 c-2 -16 1 -17 13 -8 17 15 17 17 1 23 -8 3 -14 -3 -14
-15z"/>
<path d="M9016 7743 c-6 -14 -5 -15 5 -6 7 7 10 15 7 18 -3 3 -9 -2 -12 -12z"/>
<path d="M9080 7744 c0 -8 5 -12 10 -9 6 3 10 10 10 16 0 5 -4 9 -10 9 -5 0
-10 -7 -10 -16z"/>
<path d="M1093 7730 c-18 -28 -16 -39 3 -12 17 24 39 30 31 8 -3 -8 0 -20 8
-26 11 -9 12 -6 6 17 -9 34 -32 40 -48 13z"/>
<path d="M2411 7734 c0 -11 3 -14 6 -6 3 7 2 16 -1 19 -3 4 -6 -2 -5 -13z"/>
<path d="M9115 7740 c-3 -5 -1 -10 4 -10 6 0 11 5 11 10 0 6 -2 10 -4 10 -3 0
-8 -4 -11 -10z"/>
<path d="M1653 7705 c-6 -14 -9 -25 -6 -25 7 0 32 33 33 43 0 16 -16 5 -27
-18z"/>
<path d="M9080 7701 c0 -6 4 -12 8 -15 5 -3 9 1 9 9 0 8 -4 15 -9 15 -4 0 -8
-4 -8 -9z"/>
<path d="M1671 7654 c0 -11 3 -14 6 -6 3 7 2 16 -1 19 -3 4 -6 -2 -5 -13z"/>
<path d="M8413 7650 c-13 -5 -23 -14 -23 -20 0 -8 28 5 59 27 9 6 -15 1 -36
-7z"/>
<path d="M8980 7640 c20 -13 33 -13 25 0 -3 6 -14 10 -23 10 -15 0 -15 -2 -2
-10z"/>
<path d="M8337 7629 c7 -7 15 -10 18 -7 3 3 -2 9 -12 12 -14 6 -15 5 -6 -5z"/>
<path d="M8775 7630 c-3 -5 1 -10 10 -10 9 0 13 5 10 10 -3 6 -8 10 -10 10 -2
0 -7 -4 -10 -10z"/>
<path d="M8831 7617 c-26 -13 -40 -37 -21 -37 6 0 9 4 5 9 -3 5 0 13 6 17 6 3
15 0 20 -7 7 -11 9 -10 9 5 0 15 3 16 15 6 13 -11 14 -10 9 4 -7 19 -12 19
-43 3z"/>
<path d="M8980 7603 c0 -11 4 -11 23 -2 31 16 31 17 2 17 -15 0 -25 -6 -25
-15z"/>
<path d="M8860 7565 c-8 -9 -8 -15 -2 -15 12 0 26 19 19 26 -2 2 -10 -2 -17
-11z"/>
<path d="M8904 7564 c-18 -14 -18 -15 4 -4 12 6 22 13 22 15 0 8 -5 6 -26 -11z"/>
<path d="M8880 7496 c0 -9 5 -16 10 -16 6 0 10 4 10 9 0 6 -4 13 -10 16 -5 3
-10 -1 -10 -9z"/>
<path d="M8910 7472 c0 -9 44 -32 58 -32 9 1 -41 39 -50 40 -5 0 -8 -4 -8 -8z"/>
<path d="M8986 7437 c3 -10 9 -15 12 -12 3 3 0 11 -7 18 -10 9 -11 8 -5 -6z"/>
<path d="M1500 7425 c7 -9 15 -13 17 -11 7 7 -7 26 -19 26 -6 0 -6 -6 2 -15z"/>
<path d="M9036 7416 c10 -8 21 -12 24 -10 5 6 -21 24 -34 24 -6 0 -1 -6 10
-14z"/>
<path d="M9077 7383 c-4 -3 -7 -11 -7 -17 0 -6 5 -5 12 2 6 6 9 14 7 17 -3 3
-9 2 -12 -2z"/>
<path d="M9111 7342 c6 -18 9 -39 5 -47 -3 -8 0 -17 6 -21 15 -9 4 74 -11 89
-8 8 -8 2 0 -21z"/>
<path d="M1410 7305 c0 -8 2 -15 4 -15 2 0 6 7 10 15 3 8 1 15 -4 15 -6 0 -10
-7 -10 -15z"/>
<path d="M8675 7310 c3 -5 8 -10 11 -10 2 0 4 5 4 10 0 6 -5 10 -11 10 -5 0
-7 -4 -4 -10z"/>
<path d="M9116 7235 c-9 -26 -7 -32 5 -12 6 10 9 21 6 23 -2 3 -7 -2 -11 -11z"/>
<path d="M8995 7230 c3 -5 11 -10 16 -10 6 0 7 5 4 10 -3 6 -11 10 -16 10 -6
0 -7 -4 -4 -10z"/>
<path d="M8830 7201 c0 -6 4 -13 10 -16 6 -3 7 1 4 9 -7 18 -14 21 -14 7z"/>
<path d="M9107 7193 c-4 -3 -7 -11 -7 -17 0 -6 5 -5 12 2 6 6 9 14 7 17 -3 3
-9 2 -12 -2z"/>
<path d="M9035 7178 c8 -19 -9 -25 -20 -8 -3 6 -11 10 -17 10 -5 0 0 -9 13
-19 21 -17 25 -17 33 -4 5 9 4 19 -4 26 -8 9 -10 8 -5 -5z"/>
<path d="M9006 7117 c3 -10 9 -15 12 -12 3 3 0 11 -7 18 -10 9 -11 8 -5 -6z"/>
<path d="M8195 7103 c11 -2 34 -11 52 -19 45 -20 54 -17 13 6 -19 11 -46 19
-60 18 -20 0 -21 -1 -5 -5z"/>
<path d="M9050 7085 c-7 -9 -8 -15 -2 -15 5 0 12 7 16 15 3 8 4 15 2 15 -2 0
-9 -7 -16 -15z"/>
<path d="M8385 7030 c3 -5 8 -10 11 -10 2 0 4 5 4 10 0 6 -5 10 -11 10 -5 0
-7 -4 -4 -10z"/>
<path d="M9030 7018 c0 -29 15 -45 23 -25 3 7 -1 21 -9 32 -13 18 -14 17 -14
-7z"/>
<path d="M8954 6922 c-18 -12 -36 -74 -24 -86 7 -7 10 -2 10 15 0 13 7 35 16
47 17 24 16 36 -2 24z"/>
<path d="M8981 6854 c0 -11 3 -14 6 -6 3 7 2 16 -1 19 -3 4 -6 -2 -5 -13z"/>
<path d="M9131 6759 c6 -24 13 -46 16 -49 9 -8 -8 74 -17 84 -5 4 -4 -11 1
-35z"/>
<path d="M2040 6727 c0 -9 40 -35 44 -28 3 4 -6 13 -19 19 -14 7 -25 10 -25 9z"/>
<path d="M8982 6675 c0 -16 2 -22 5 -12 2 9 2 23 0 30 -3 6 -5 -1 -5 -18z"/>
<path d="M8902 6670 c0 -14 2 -19 5 -12 2 6 2 18 0 25 -3 6 -5 1 -5 -13z"/>
<path d="M8951 6633 c0 -4 4 -17 9 -28 8 -19 9 -19 9 2 1 12 -3 25 -9 28 -5 3
-10 3 -9 -2z"/>
<path d="M8900 6625 c0 -5 5 -17 10 -25 5 -8 10 -10 10 -5 0 6 -5 17 -10 25
-5 8 -10 11 -10 5z"/>
<path d="M1345 6580 c3 -5 8 -10 11 -10 2 0 4 5 4 10 0 6 -5 10 -11 10 -5 0
-7 -4 -4 -10z"/>
<path d="M1090 6563 c-13 -15 -12 -16 4 -10 10 4 20 7 22 7 2 0 4 5 4 10 0 15
-13 12 -30 -7z"/>
<path d="M9113 6553 c-3 -10 -8 -22 -10 -28 -3 -5 3 -1 11 9 16 20 21 36 11
36 -3 0 -8 -8 -12 -17z"/>
<path d="M1107 6543 c-4 -6 -4 -19 0 -30 9 -21 44 -28 36 -7 -3 8 -9 12 -13 9
-5 -3 -10 5 -12 17 -2 15 -6 19 -11 11z"/>
<path d="M1186 6543 c-11 -11 -6 -23 9 -23 8 0 15 4 15 9 0 13 -16 22 -24 14z"/>
<path d="M9051 6500 c0 -8 4 -22 9 -30 12 -18 12 -2 0 25 -6 13 -9 15 -9 5z"/>
<path d="M8986 6455 c-3 -9 3 -20 14 -27 11 -7 20 -20 20 -30 0 -20 16 -32 24
-19 4 5 2 12 -3 15 -5 3 -7 19 -6 36 1 16 -1 27 -6 25 -4 -3 -10 -1 -14 5 -9
15 -22 12 -29 -5z m39 -24 c-6 -5 -25 10 -25 20 0 5 6 4 14 -3 8 -7 12 -15 11
-17z"/>
<path d="M8902 6422 c-11 -25 -11 -25 4 -10 9 9 15 21 13 27 -2 6 -10 -2 -17
-17z"/>
<path d="M8960 6372 c0 -5 7 -15 15 -22 8 -7 15 -8 15 -2 0 5 -7 15 -15 22 -8
7 -15 8 -15 2z"/>
<path d="M8760 6309 c-22 -18 -22 -19 -3 -10 12 6 25 16 28 21 9 15 3 12 -25
-11z"/>
<path d="M9056 6197 c3 -10 9 -15 12 -12 3 3 0 11 -7 18 -10 9 -11 8 -5 -6z"/>
<path d="M1127 6019 c4 -13 8 -18 11 -10 2 7 -1 18 -6 23 -8 8 -9 4 -5 -13z"/>
<path d="M1408 5873 c7 -3 16 -2 19 1 4 3 -2 6 -13 5 -11 0 -14 -3 -6 -6z"/>
<path d="M1087 5746 c-4 -10 -5 -21 -2 -24 9 -9 17 6 13 25 -3 17 -4 17 -11
-1z"/>
<path d="M1100 5660 c0 -5 5 -10 11 -10 5 0 7 5 4 10 -3 6 -8 10 -11 10 -2 0
-4 -4 -4 -10z"/>
<path d="M9059 5562 c-17 -15 -19 -21 -9 -27 9 -6 11 -4 6 4 -5 8 0 14 13 18
12 3 21 9 21 14 0 13 -5 11 -31 -9z"/>
<path d="M9106 5522 c6 -4 21 -25 32 -47 12 -22 21 -36 22 -32 1 17 -41 87
-53 87 -8 0 -9 -2 -1 -8z"/>
<path d="M9047 5371 c-4 -17 -3 -21 5 -13 5 5 8 16 6 23 -3 8 -7 3 -11 -10z"/>
<path d="M9155 5160 c10 -11 20 -20 22 -20 2 0 -1 9 -7 20 -6 11 -16 20 -22
20 -6 0 -3 -9 7 -20z"/>
<path d="M8537 5079 c7 -7 15 -10 18 -7 3 3 -2 9 -12 12 -14 6 -15 5 -6 -5z"/>
<path d="M8020 5038 c0 -21 2 -38 4 -38 9 0 12 50 5 62 -6 8 -9 -1 -9 -24z"/>
<path d="M9176 4985 c-9 -26 -7 -32 5 -12 6 10 9 21 6 23 -2 3 -7 -2 -11 -11z"/>
<path d="M9131 4652 c-1 -8 -6 -10 -13 -6 -8 5 -7 1 2 -10 15 -19 26 -7 17 17
-4 9 -6 9 -6 -1z"/>
<path d="M1281 4574 c0 -11 3 -14 6 -6 3 7 2 16 -1 19 -3 4 -6 -2 -5 -13z"/>
<path d="M1140 4536 c0 -2 8 -10 18 -17 15 -13 16 -12 3 4 -13 16 -21 21 -21
13z"/>
<path d="M9121 4524 c0 -11 3 -14 6 -6 3 7 2 16 -1 19 -3 4 -6 -2 -5 -13z"/>
<path d="M1180 4480 c0 -5 5 -10 11 -10 5 0 7 5 4 10 -3 6 -8 10 -11 10 -2 0
-4 -4 -4 -10z"/>
<path d="M1200 4403 c0 -4 5 -15 10 -23 8 -13 10 -13 10 2 0 9 -4 20 -10 23
-5 3 -10 3 -10 -2z"/>
<path d="M1080 4389 c0 -5 5 -7 10 -4 6 3 10 8 10 11 0 2 -4 4 -10 4 -5 0 -10
-5 -10 -11z"/>
<path d="M8780 4355 c0 -2 9 -9 20 -15 16 -9 18 -8 14 5 -5 13 -34 22 -34 10z"/>
<path d="M8131 4334 c0 -11 3 -14 6 -6 3 7 2 16 -1 19 -3 4 -6 -2 -5 -13z"/>
<path d="M1070 4285 c7 -9 15 -13 17 -11 7 7 -7 26 -19 26 -6 0 -6 -6 2 -15z"/>
<path d="M8883 4268 c1 -20 4 -24 14 -17 7 6 17 8 23 4 5 -3 10 -1 10 4 0 6
-9 11 -19 11 -11 0 -22 6 -24 13 -3 6 -5 0 -4 -15z"/>
<path d="M7950 4270 c0 -5 5 -10 11 -10 5 0 7 5 4 10 -3 6 -8 10 -11 10 -2 0
-4 -4 -4 -10z"/>
<path d="M9023 4264 c0 -7 6 -10 14 -7 7 3 21 -1 31 -8 16 -13 16 -12 -1 7
-19 23 -44 28 -44 8z"/>
<path d="M1317 4239 c4 -13 8 -18 11 -10 2 7 -1 18 -6 23 -8 8 -9 4 -5 -13z"/>
<path d="M8900 4240 c0 -5 10 -10 23 -10 18 0 19 2 7 10 -19 13 -30 13 -30 0z"/>
<path d="M8855 4220 c-3 -5 -1 -10 4 -10 6 0 11 5 11 10 0 6 -2 10 -4 10 -3 0
-8 -4 -11 -10z"/>
<path d="M8885 4209 c-4 -6 -5 -12 -2 -15 2 -3 7 2 10 11 7 17 1 20 -8 4z"/>
<path d="M1093 4180 c6 -16 13 -28 15 -26 6 6 -10 56 -18 56 -5 0 -3 -13 3
-30z"/>
<path d="M7431 4194 c0 -11 3 -14 6 -6 3 7 2 16 -1 19 -3 4 -6 -2 -5 -13z"/>
<path d="M8101 4194 c0 -11 3 -14 6 -6 3 7 2 16 -1 19 -3 4 -6 -2 -5 -13z"/>
<path d="M8822 4143 c-6 -2 -10 -9 -7 -13 3 -5 -11 -25 -31 -45 -20 -20 -34
-38 -31 -41 2 -2 10 2 17 11 8 9 30 15 59 15 62 0 121 11 121 21 0 5 -23 9
-51 8 -34 -2 -54 2 -60 12 -14 23 -10 32 9 18 15 -13 16 -12 3 4 -7 9 -14 17
-15 16 0 0 -7 -3 -14 -6z m8 -47 c0 -2 -7 -6 -15 -10 -8 -3 -15 -1 -15 4 0 6
7 10 15 10 8 0 15 -2 15 -4z"/>
<path d="M8892 4134 c-7 -8 -8 -14 -3 -14 10 0 25 19 20 25 -2 1 -10 -3 -17
-11z"/>
<path d="M1040 4126 c0 -8 4 -17 9 -20 5 -4 7 3 4 14 -6 23 -13 26 -13 6z"/>
<path d="M8966 4113 c-11 -11 -7 -20 9 -20 8 0 15 4 15 8 0 11 -16 20 -24 12z"/>
<path d="M9000 4110 c0 -5 5 -10 11 -10 5 0 7 5 4 10 -3 6 -8 10 -11 10 -2 0
-4 -4 -4 -10z"/>
<path d="M8740 4000 c0 -5 7 -10 16 -10 8 0 12 5 9 10 -3 6 -10 10 -16 10 -5
0 -9 -4 -9 -10z"/>
<path d="M8900 3990 c0 -5 10 -10 23 -10 18 0 19 2 7 10 -19 13 -30 13 -30 0z"/>
<path d="M8725 3970 c3 -5 8 -10 11 -10 2 0 4 5 4 10 0 6 -5 10 -11 10 -5 0
-7 -4 -4 -10z"/>
<path d="M8955 3969 c-4 -6 -5 -12 -2 -15 2 -3 7 2 10 11 7 17 1 20 -8 4z"/>
<path d="M8997 3959 c7 -7 15 -10 18 -7 3 3 -2 9 -12 12 -14 6 -15 5 -6 -5z"/>
<path d="M1200 3946 c0 -8 5 -18 10 -21 6 -3 10 1 10 9 0 8 -4 18 -10 21 -5 3
-10 -1 -10 -9z"/>
<path d="M8736 3935 c-3 -8 -1 -15 4 -15 6 0 10 7 10 15 0 8 -2 15 -4 15 -2 0
-6 -7 -10 -15z"/>
<path d="M8910 3930 c0 -5 5 -10 11 -10 5 0 7 5 4 10 -3 6 -8 10 -11 10 -2 0
-4 -4 -4 -10z"/>
<path d="M9030 3930 c-13 -8 -12 -10 3 -10 9 0 17 5 17 10 0 12 -1 12 -20 0z"/>
<path d="M9087 3900 c3 -11 9 -17 15 -14 5 3 4 12 -3 20 -16 19 -18 18 -12 -6z"/>
<path d="M8756 3895 c4 -8 8 -15 10 -15 2 0 4 7 4 15 0 8 -4 15 -10 15 -5 0
-7 -7 -4 -15z"/>
<path d="M9033 3883 c-23 -24 -30 -43 -15 -43 8 0 46 60 40 64 -1 1 -13 -9
-25 -21z"/>
<path d="M9120 3893 c0 -5 7 -16 14 -26 8 -10 12 -28 9 -40 -4 -19 -3 -20 7
-5 8 13 7 25 -5 48 -15 29 -25 38 -25 23z"/>
<path d="M8772 3867 c-8 -9 -5 -19 10 -37 16 -20 18 -21 13 -5 -4 11 -7 28 -7
38 1 20 -2 21 -16 4z"/>
<path d="M1032 3844 c-7 -8 -8 -14 -3 -14 10 0 25 19 20 25 -2 1 -10 -3 -17
-11z"/>
<path d="M8755 3790 c21 -24 26 -25 19 -6 -3 8 -13 17 -22 21 -13 5 -13 2 3
-15z"/>
<path d="M8976 3794 c-5 -14 -4 -15 9 -4 17 14 19 20 6 20 -5 0 -12 -7 -15
-16z"/>
<path d="M8579 3759 c13 -11 26 -17 29 -14 7 6 -29 34 -43 34 -5 0 1 -9 14
-20z"/>
<path d="M9157 3763 c-4 -3 -7 -15 -7 -25 0 -10 -4 -18 -9 -18 -15 0 -21 -28
-7 -33 8 -3 13 1 12 11 0 9 5 16 12 15 7 -2 12 8 12 27 0 31 -2 35 -13 23z"/>
<path d="M8946 3735 c-11 -8 -17 -17 -14 -20 2 -3 13 4 23 15 21 23 18 25 -9
5z"/>
<path d="M1440 3715 c-7 -9 -11 -17 -9 -20 3 -2 10 5 17 15 14 24 10 26 -8 5z"/>
<path d="M8840 3690 c0 -5 5 -10 11 -10 5 0 7 5 4 10 -3 6 -8 10 -11 10 -2 0
-4 -4 -4 -10z"/>
<path d="M9170 3695 c0 -5 5 -17 10 -25 5 -8 10 -10 10 -5 0 6 -5 17 -10 25
-5 8 -10 11 -10 5z"/>
<path d="M9185 3600 c0 -37 3 -46 12 -38 8 6 11 23 7 42 -9 51 -19 49 -19 -4z"/>
<path d="M8910 3622 c0 -12 19 -26 26 -19 2 2 -2 10 -11 17 -9 8 -15 8 -15 2z"/>
<path d="M8935 3550 c3 -5 8 -10 11 -10 2 0 4 5 4 10 0 6 -5 10 -11 10 -5 0
-7 -4 -4 -10z"/>
<path d="M986 3513 c9 -38 14 -42 14 -10 0 14 -5 29 -10 32 -7 4 -8 -3 -4 -22z"/>
<path d="M8940 3521 c0 -6 4 -13 10 -16 6 -3 7 1 4 9 -7 18 -14 21 -14 7z"/>
<path d="M9155 3500 c3 -5 8 -10 11 -10 2 0 4 5 4 10 0 6 -5 10 -11 10 -5 0
-7 -4 -4 -10z"/>
<path d="M1254 3473 c3 -3 -2 -12 -12 -19 -22 -17 -4 -17 27 0 l23 13 -22 6
c-12 3 -19 3 -16 0z"/>
<path d="M1000 3460 c0 -5 5 -10 11 -10 5 0 7 5 4 10 -3 6 -8 10 -11 10 -2 0
-4 -4 -4 -10z"/>
<path d="M1185 3399 c-5 -22 -3 -34 6 -41 11 -7 11 -11 2 -15 -19 -7 -15 -22
5 -18 9 2 25 4 35 4 24 1 21 14 -5 26 -15 7 -23 20 -25 39 -3 40 -10 43 -18 5z"/>
<path d="M8400 3409 c0 -5 5 -7 10 -4 6 3 10 8 10 11 0 2 -4 4 -10 4 -5 0 -10
-5 -10 -11z"/>
<path d="M1070 3400 c0 -5 5 -10 11 -10 5 0 7 5 4 10 -3 6 -8 10 -11 10 -2 0
-4 -4 -4 -10z"/>
<path d="M1085 3370 c-15 -16 -15 -22 -5 -35 7 -8 17 -15 23 -15 6 0 4 7 -5
16 -15 16 -15 18 5 35 12 10 17 18 11 19 -6 0 -19 -9 -29 -20z"/>
<path d="M8930 3360 c0 -5 5 -10 11 -10 5 0 7 5 4 10 -3 6 -8 10 -11 10 -2 0
-4 -4 -4 -10z"/>
<path d="M9028 3363 c7 -3 16 -2 19 1 4 3 -2 6 -13 5 -11 0 -14 -3 -6 -6z"/>
<path d="M8656 3317 c3 -10 9 -15 12 -12 3 3 0 11 -7 18 -10 9 -11 8 -5 -6z"/>
<path d="M1233 3310 c2 -8 12 -16 23 -17 13 -2 15 -1 4 4 -8 3 -19 11 -23 17
-6 7 -7 6 -4 -4z"/>
<path d="M1157 3283 c-7 -33 -2 -39 41 -48 26 -5 32 -4 32 11 0 19 15 10 15
-9 0 -14 51 -11 75 4 11 7 7 7 -12 3 -22 -5 -28 -2 -28 10 0 9 -3 15 -7 14 -5
0 -16 2 -26 7 -12 5 -23 2 -33 -11 -14 -18 -15 -18 -5 2 7 15 7 24 -1 32 -21
21 -45 14 -51 -15z"/>
<path d="M8596 3285 c-3 -9 -6 -26 -5 -38 1 -14 4 -9 9 13 9 37 7 52 -4 25z"/>
<path d="M1098 3273 c7 -3 16 -2 19 1 4 3 -2 6 -13 5 -11 0 -14 -3 -6 -6z"/>
<path d="M1350 3276 c0 -4 7 -14 15 -22 8 -9 15 -11 15 -6 0 5 -7 15 -15 22
-8 7 -15 9 -15 6z"/>
<path d="M8620 3268 c0 -11 22 -10 39 1 10 7 7 9 -12 8 -15 -1 -27 -5 -27 -9z"/>
<path d="M8560 3245 c0 -8 4 -15 10 -15 5 0 7 7 4 15 -4 8 -8 15 -10 15 -2 0
-4 -7 -4 -15z"/>
<path d="M1070 3238 c0 -10 9 -9 35 2 17 8 16 8 -7 7 -16 -1 -28 -5 -28 -9z"/>
<path d="M9024 3239 c-5 -8 -3 -10 6 -4 9 5 10 2 5 -14 -3 -11 -2 -29 4 -38 8
-14 9 -10 8 19 -3 41 -11 55 -23 37z"/>
<path d="M9005 3210 c-3 -5 -1 -10 4 -10 6 0 11 5 11 10 0 6 -2 10 -4 10 -3 0
-8 -4 -11 -10z"/>
<path d="M1347 3193 c-3 -5 -2 -15 2 -22 7 -10 10 -10 16 -1 4 6 3 16 -3 22
-5 5 -12 6 -15 1z"/>
<path d="M8967 3186 c4 -5 -1 -7 -11 -3 -14 6 -16 3 -12 -16 3 -12 3 -16 0 -9
-8 16 -24 15 -24 -2 0 -8 -4 -16 -9 -18 -6 -1 12 -30 40 -63 27 -33 44 -62 38
-64 -6 -2 -16 3 -21 10 -8 11 -9 10 -5 -3 3 -9 1 -19 -6 -22 -7 -3 2 -4 18 -3
l30 2 0 73 c0 39 4 72 9 72 5 0 7 3 3 6 -3 3 -12 2 -19 -2 -20 -13 -38 -13
-38 -2 0 6 7 7 15 4 11 -4 15 0 13 12 -2 12 3 16 20 15 34 -4 18 14 -17 19
-18 3 -28 0 -24 -6z m27 -77 c-7 -13 -44 -17 -44 -6 0 7 11 12 24 12 13 0 22
-3 20 -6z"/>
<path d="M1260 3155 c-23 -9 -28 -14 -15 -14 30 -1 65 10 65 20 0 11 -7 11
-50 -6z"/>
<path d="M1138 3123 c7 -3 16 -2 19 1 4 3 -2 6 -13 5 -11 0 -14 -3 -6 -6z"/>
<path d="M1488 3123 c6 -2 18 -2 25 0 6 3 1 5 -13 5 -14 0 -19 -2 -12 -5z"/>
<path d="M1225 3100 c-3 -6 1 -7 9 -4 18 7 21 14 7 14 -6 0 -13 -4 -16 -10z"/>
<path d="M8630 3098 c0 -10 7 -18 15 -18 9 0 12 -6 9 -15 -4 -8 -1 -15 6 -15
6 0 8 5 5 10 -3 6 0 10 7 10 7 0 4 6 -7 12 -11 6 -23 16 -27 22 -5 7 -8 4 -8
-6z"/>
<path d="M8626 3035 c4 -8 8 -15 10 -15 2 0 4 7 4 15 0 8 -4 15 -10 15 -5 0
-7 -7 -4 -15z"/>
<path d="M1155 3030 c-3 -5 -15 -10 -25 -10 -17 0 -18 -3 -9 -23 8 -18 17 -23
34 -19 15 2 22 9 18 18 -3 8 0 14 6 14 6 0 8 7 5 15 -7 17 -20 20 -29 5z m7
-17 c-6 -2 -10 -9 -6 -14 3 -5 1 -9 -5 -9 -5 0 -12 4 -15 9 -6 9 10 19 29 19
6 0 4 -2 -3 -5z"/>
<path d="M1056 2993 c-6 -14 -5 -15 5 -6 7 7 10 15 7 18 -3 3 -9 -2 -12 -12z"/>
<path d="M9041 2983 c22 -24 22 -26 4 -20 -19 7 -19 6 -2 -7 9 -7 17 -18 17
-25 0 -6 4 -11 9 -11 5 0 9 6 8 13 -1 31 4 51 11 42 4 -5 17 -19 30 -29 16
-14 22 -16 22 -5 0 16 -58 52 -71 43 -5 -3 -9 -1 -9 4 0 5 -10 12 -21 15 -21
6 -21 5 2 -20z"/>
<path d="M8685 2990 c-3 -5 -1 -10 4 -10 6 0 11 5 11 10 0 6 -2 10 -4 10 -3 0
-8 -4 -11 -10z"/>
<path d="M8750 2955 c0 -8 2 -15 4 -15 2 0 6 7 10 15 3 8 1 15 -4 15 -6 0 -10
-7 -10 -15z"/>
<path d="M1081 2934 c0 -11 3 -14 6 -6 3 7 2 16 -1 19 -3 4 -6 -2 -5 -13z"/>
<path d="M8875 2930 c-3 -6 1 -7 9 -4 18 7 21 14 7 14 -6 0 -13 -4 -16 -10z"/>
<path d="M9096 2921 c-3 -5 3 -11 15 -14 16 -4 18 -3 8 9 -13 16 -16 17 -23 5z"/>
<path d="M8906 2903 c-6 -14 -5 -15 5 -6 7 7 10 15 7 18 -3 3 -9 -2 -12 -12z"/>
<path d="M8993 2894 c-4 -12 -7 -13 -14 -3 -4 8 -11 10 -16 6 -4 -5 -1 -12 7
-17 21 -13 24 -13 38 10 7 13 8 20 2 20 -6 0 -13 -7 -17 -16z"/>
<path d="M9142 2885 c0 -16 2 -22 5 -12 2 9 2 23 0 30 -3 6 -5 -1 -5 -18z"/>
<path d="M9050 2881 c0 -6 4 -13 10 -16 6 -3 7 1 4 9 -7 18 -14 21 -14 7z"/>
<path d="M1356 2865 c-9 -26 -7 -32 5 -12 6 10 9 21 6 23 -2 3 -7 -2 -11 -11z"/>
<path d="M8850 2869 c0 -5 5 -7 10 -4 6 3 10 8 10 11 0 2 -4 4 -10 4 -5 0 -10
-5 -10 -11z"/>
<path d="M1235 2820 c3 -5 8 -10 11 -10 2 0 4 5 4 10 0 6 -5 10 -11 10 -5 0
-7 -4 -4 -10z"/>
<path d="M9181 2798 c7 -16 16 -28 21 -28 13 0 10 9 -13 33 l-21 22 13 -27z"/>
<path d="M1342 2790 c0 -14 2 -19 5 -12 2 6 2 18 0 25 -3 6 -5 1 -5 -13z"/>
<path d="M1041 2784 c0 -11 3 -14 6 -6 3 7 2 16 -1 19 -3 4 -6 -2 -5 -13z"/>
<path d="M972 2720 c-7 -11 -12 -30 -12 -42 1 -22 1 -22 14 -5 14 18 14 18 19
0 3 -12 5 -9 6 9 1 22 -2 26 -16 21 -16 -6 -16 -5 -4 10 8 10 12 19 10 22 -3
2 -10 -5 -17 -15z"/>
<path d="M8670 2732 c0 -5 7 -9 15 -9 8 0 12 4 9 9 -3 4 -9 8 -15 8 -5 0 -9
-4 -9 -8z"/>
<path d="M1737 2689 c7 -7 15 -10 18 -7 3 3 -2 9 -12 12 -14 6 -15 5 -6 -5z"/>
<path d="M1330 2685 c0 -5 5 -17 10 -25 5 -8 10 -10 10 -5 0 6 -5 17 -10 25
-5 8 -10 11 -10 5z"/>
<path d="M957 2621 c-11 -54 -8 -69 8 -39 10 17 12 34 7 49 -8 21 -9 20 -15
-10z"/>
<path d="M9270 2595 c-1 -5 -3 -23 -6 -40 -3 -29 -3 -29 7 -6 5 14 8 32 6 40
-3 9 -6 12 -7 6z"/>
<path d="M1240 2560 c-8 -5 -10 -10 -5 -10 6 0 17 5 25 10 8 5 11 10 5 10 -5
0 -17 -5 -25 -10z"/>
<path d="M1187 2543 c-4 -3 -7 -11 -7 -17 0 -6 5 -5 12 2 6 6 9 14 7 17 -3 3
-9 2 -12 -2z"/>
<path d="M1311 2514 c0 -11 3 -14 6 -6 3 7 2 16 -1 19 -3 4 -6 -2 -5 -13z"/>
<path d="M925 2510 c-3 -6 1 -7 9 -4 18 7 21 14 7 14 -6 0 -13 -4 -16 -10z"/>
<path d="M1156 2475 c-17 -13 -18 -15 -3 -15 9 0 17 4 17 9 0 5 8 12 18 14 12
3 13 5 2 6 -8 0 -24 -6 -34 -14z"/>
<path d="M9071 2454 c0 -11 3 -14 6 -6 3 7 2 16 -1 19 -3 4 -6 -2 -5 -13z"/>
<path d="M1287 2453 c-10 -9 -9 -33 1 -33 4 0 8 9 8 20 0 23 0 22 -9 13z"/>
<path d="M8410 2446 c0 -2 8 -10 18 -17 15 -13 16 -12 3 4 -13 16 -21 21 -21
13z"/>
<path d="M1226 2425 c4 -8 10 -15 15 -15 4 0 6 -6 3 -14 -3 -8 -1 -16 3 -19
15 -9 13 35 -2 49 -18 18 -26 18 -19 -1z"/>
<path d="M9280 2386 c0 -8 4 -17 9 -20 5 -4 7 3 4 14 -6 23 -13 26 -13 6z"/>
<path d="M9116 2357 c3 -10 9 -15 12 -12 3 3 0 11 -7 18 -10 9 -11 8 -5 -6z"/>
<path d="M957 2349 c7 -7 15 -10 18 -7 3 3 -2 9 -12 12 -14 6 -15 5 -6 -5z"/>
<path d="M1329 2335 c6 -13 6 -27 -1 -39 -18 -31 -3 -26 25 9 15 19 24 35 18
35 -5 0 -11 -6 -14 -12 -3 -9 -10 -7 -21 7 -17 20 -17 20 -7 0z"/>
<path d="M9257 2285 c-10 -14 -14 -25 -9 -25 10 0 42 33 42 43 0 14 -16 5 -33
-18z"/>
<path d="M1261 2244 c-20 -25 -20 -44 -1 -44 4 0 6 9 3 20 -3 11 -1 20 5 20 5
0 12 7 16 15 8 22 0 18 -23 -11z"/>
<path d="M9020 2250 c0 -5 5 -10 11 -10 5 0 7 5 4 10 -3 6 -8 10 -11 10 -2 0
-4 -4 -4 -10z"/>
<path d="M938 2243 c7 -3 16 -2 19 1 4 3 -2 6 -13 5 -11 0 -14 -3 -6 -6z"/>
<path d="M1135 2228 c11 -7 26 -18 33 -25 15 -14 32 -17 32 -5 0 9 -58 42 -73
42 -7 0 -3 -6 8 -12z"/>
<path d="M9081 2204 c0 -11 3 -14 6 -6 3 7 2 16 -1 19 -3 4 -6 -2 -5 -13z"/>
<path d="M1280 2203 c0 -4 12 -19 27 -33 21 -19 25 -21 20 -7 -4 10 -7 20 -7
22 0 3 -9 9 -20 15 -11 6 -20 7 -20 3z"/>
<path d="M1250 2171 c0 -5 7 -12 16 -15 14 -5 15 -4 4 9 -14 17 -20 19 -20 6z"/>
<path d="M885 2150 c3 -5 8 -10 11 -10 2 0 4 5 4 10 0 6 -5 10 -11 10 -5 0 -7
-4 -4 -10z"/>
<path d="M1051 2144 c0 -11 3 -14 6 -6 3 7 2 16 -1 19 -3 4 -6 -2 -5 -13z"/>
<path d="M8944 2130 c0 -11 4 -20 9 -20 4 0 5 -4 2 -10 -3 -5 -2 -10 3 -10 15
0 23 43 9 52 -19 12 -23 10 -23 -12z"/>
<path d="M9170 2142 c0 -12 19 -26 26 -19 2 2 -2 10 -11 17 -9 8 -15 8 -15 2z"/>
<path d="M1290 2111 c0 -5 9 -15 21 -22 26 -18 36 -83 21 -141 -6 -24 -16 -70
-22 -103 -7 -33 -16 -71 -21 -84 -10 -23 -5 -40 7 -28 4 3 10 25 15 49 5 24
17 81 28 127 10 47 16 99 13 115 -3 17 -5 39 -6 48 0 9 -4 14 -8 12 -4 -3 -8
0 -8 5 0 6 5 11 10 11 6 0 10 5 10 11 0 8 -6 7 -17 -2 -13 -11 -17 -11 -20 -1
-5 14 -23 17 -23 3z"/>
<path d="M940 2100 c0 -5 5 -10 11 -10 5 0 7 5 4 10 -3 6 -8 10 -11 10 -2 0
-4 -4 -4 -10z"/>
<path d="M9202 2080 c0 -14 2 -19 5 -12 2 6 2 18 0 25 -3 6 -5 1 -5 -13z"/>
<path d="M1040 2070 c0 -5 5 -10 11 -10 5 0 7 5 4 10 -3 6 -8 10 -11 10 -2 0
-4 -4 -4 -10z"/>
<path d="M8955 2070 c3 -5 8 -10 11 -10 2 0 4 5 4 10 0 6 -5 10 -11 10 -5 0
-7 -4 -4 -10z"/>
<path d="M860 2055 c0 -24 15 -33 33 -20 10 7 14 16 8 19 -5 3 -12 0 -14 -6
-4 -10 -8 -9 -16 2 -6 8 -11 11 -11 5z"/>
<path d="M1010 2040 c0 -6 7 -10 15 -10 8 0 15 2 15 4 0 2 -7 6 -15 10 -8 3
-15 1 -15 -4z"/>
<path d="M1066 2014 c-9 -24 -7 -27 9 -10 17 17 19 26 6 26 -5 0 -12 -7 -15
-16z"/>
<path d="M1126 2014 c-3 -8 -10 -13 -15 -10 -5 3 -7 -3 -4 -14 7 -26 10 -25
28 10 9 17 11 30 6 30 -5 0 -12 -7 -15 -16z"/>
<path d="M851 1906 c8 -17 17 -22 28 -18 14 6 14 7 -1 10 -10 2 -18 10 -18 18
0 8 -4 14 -10 14 -6 0 -5 -9 1 -24z"/>
<path d="M977 1835 c-8 -8 -17 -11 -21 -8 -3 4 -6 -6 -6 -20 0 -37 12 -33 32
8 19 38 18 43 -5 20z"/>
<path d="M9194 1826 c-1 -19 2 -22 18 -18 18 4 18 6 2 23 -21 23 -19 24 -20
-5z"/>
<path d="M1030 1819 c0 -6 -6 -9 -13 -6 -8 3 -14 -1 -14 -8 0 -10 5 -11 19 -4
16 9 25 29 13 29 -3 0 -5 -5 -5 -11z"/>
<path d="M1250 1799 c0 -5 5 -7 10 -4 6 3 10 8 10 11 0 2 -4 4 -10 4 -5 0 -10
-5 -10 -11z"/>
<path d="M9135 1789 c-4 -6 -5 -12 -2 -15 2 -3 7 2 10 11 7 17 1 20 -8 4z"/>
<path d="M9259 1771 c29 -26 40 -27 37 -3 -2 11 -13 18 -32 20 l-29 4 24 -21z"/>
<path d="M1019 1775 c-1 -3 -2 -8 -3 -12 -1 -5 -5 -13 -9 -19 -4 -7 0 -14 8
-18 11 -4 15 2 15 24 0 25 -7 41 -11 25z"/>
<path d="M9080 1770 c0 -5 5 -10 11 -10 5 0 7 5 4 10 -3 6 -8 10 -11 10 -2 0
-4 -4 -4 -10z"/>
<path d="M1715 1750 c-3 -5 -1 -10 4 -10 6 0 11 5 11 10 0 6 -2 10 -4 10 -3 0
-8 -4 -11 -10z"/>
<path d="M9301 1730 c0 -8 4 -22 9 -30 12 -18 12 -2 0 25 -6 13 -9 15 -9 5z"/>
<path d="M1269 1718 c0 -2 -2 -19 -4 -38 -2 -19 -5 -49 -8 -67 -2 -19 0 -30 6
-26 6 4 7 -5 3 -23 -4 -19 -3 -24 2 -15 8 11 11 11 16 0 3 -8 3 -3 0 10 -5 20
-3 23 12 17 14 -4 12 -1 -5 13 -18 14 -22 23 -16 37 14 31 17 82 6 89 -6 3
-11 5 -12 3z"/>
<path d="M889 1708 c0 -2 -2 -11 -4 -21 -5 -26 -15 -34 -15 -13 0 9 -4 14 -10
11 -5 -3 -10 -20 -10 -37 0 -17 -10 -46 -21 -65 -19 -31 -20 -39 -9 -72 7 -21
9 -47 6 -59 -8 -24 7 -36 48 -38 50 -3 116 -44 116 -74 0 -15 -61 -66 -118
-98 l-22 -13 25 -37 c14 -20 25 -42 25 -48 0 -6 9 -19 20 -29 11 -10 20 -30
20 -45 0 -48 26 -94 69 -120 23 -14 41 -30 41 -38 0 -7 16 -20 35 -29 33 -16
37 -16 64 0 22 13 28 13 28 3 0 -8 -6 -12 -13 -9 -15 5 -13 -10 8 -57 11 -25
30 -43 68 -64 54 -29 63 -32 135 -42 30 -4 36 -3 25 5 -8 6 -10 11 -4 11 6 0
14 -3 18 -7 4 -4 30 -7 58 -8 30 -1 53 -6 56 -13 6 -19 18 -14 29 11 10 22 4
50 -11 48 -18 -3 -20 0 -6 9 11 7 11 10 2 10 -7 0 -10 5 -7 10 3 6 17 10 30
10 18 0 23 -4 18 -16 -5 -13 -7 -13 -14 -2 -6 8 -9 9 -9 1 0 -23 12 -43 27
-43 11 0 14 -8 11 -29 -3 -23 0 -31 16 -35 35 -9 61 -7 82 8 19 15 15 15 -60
3 -6 -1 -11 6 -14 15 -3 14 4 16 42 13 46 -4 65 12 27 22 -11 3 -22 11 -25 19
-8 22 -29 17 -23 -6 5 -21 -16 -29 -28 -10 -3 6 -2 10 3 10 6 0 12 10 16 23 3
13 17 29 31 35 26 12 30 6 28 -45 -1 -7 3 -10 8 -7 5 3 6 23 3 44 -5 31 -3 41
10 46 11 4 14 13 10 30 -4 13 -1 31 6 39 6 8 9 18 6 24 -9 14 5 42 17 34 6 -4
8 2 5 15 -4 15 -2 22 8 22 8 0 14 5 14 11 0 5 -4 7 -10 4 -5 -3 -10 -2 -10 3
0 6 -6 12 -14 15 -9 4 -12 -2 -10 -19 4 -37 -11 -37 -32 1 -10 19 -22 35 -25
35 -4 0 -9 10 -13 23 -5 20 -54 53 -64 42 -12 -11 10 -35 33 -35 14 0 25 -4
25 -10 0 -5 -7 -7 -15 -4 -8 4 -15 2 -15 -4 0 -5 7 -12 15 -16 23 -8 20 -76
-2 -75 -11 0 -13 3 -5 6 27 11 6 63 -26 63 -9 0 -6 -7 9 -18 15 -13 19 -21 11
-26 -7 -4 -12 -1 -12 9 0 9 -4 13 -10 10 -15 -10 -12 -21 16 -54 14 -17 22
-31 17 -31 -5 0 -7 -19 -5 -42 4 -40 3 -42 -11 -23 -8 11 -13 23 -10 28 2 4
-1 14 -7 22 -9 11 -9 15 -1 15 6 0 11 5 11 10 0 6 -6 10 -14 10 -8 0 -17 6
-20 13 -3 6 -4 -1 0 -18 3 -16 13 -46 23 -65 17 -35 18 -70 1 -70 -5 0 -12 5
-15 10 -3 6 -2 10 4 10 6 0 7 8 4 17 -5 14 -8 12 -16 -10 -7 -22 -12 -25 -23
-17 -7 7 -18 9 -23 5 -7 -3 -8 0 -5 9 4 11 0 16 -10 16 -9 0 -16 5 -16 11 0 6
9 8 23 4 15 -4 18 -4 8 3 -13 10 -8 32 8 32 13 0 20 -37 9 -48 -6 -6 -6 -12 0
-16 19 -11 30 38 17 76 -7 20 -11 55 -10 78 2 31 -1 38 -10 30 -8 -6 -10 -27
-7 -56 3 -33 0 -50 -13 -64 -15 -17 -19 -17 -32 -5 -8 8 -21 15 -28 15 -8 0
-16 8 -20 19 -4 13 -12 17 -29 14 -13 -3 -27 0 -30 6 -4 6 -2 11 3 11 6 0 11
5 11 10 0 6 -7 10 -15 10 -8 0 -15 -5 -15 -11 0 -5 -5 -7 -11 -3 -6 3 -9 15
-6 25 3 11 1 19 -4 19 -5 0 -10 10 -11 23 0 12 -4 2 -8 -23 -4 -27 -8 -35 -8
-19 -1 15 -10 30 -22 35 -14 7 -17 13 -10 24 8 13 10 12 10 -3 0 -10 4 -16 9
-13 5 3 7 21 4 40 -2 19 0 37 6 41 20 12 12 26 -8 15 -32 -16 -36 -12 -10 11
l24 22 -23 -6 c-15 -3 -22 -1 -19 6 2 7 16 12 30 11 15 -1 27 3 27 7 0 5 4 9
10 9 5 0 7 -6 4 -14 -8 -21 31 -26 47 -5 7 10 16 16 20 13 4 -2 5 5 2 16 -3
11 -10 20 -15 20 -6 0 -28 15 -48 34 -28 25 -35 37 -27 45 13 13 28 15 25 4 0
-5 3 -19 9 -32 7 -17 12 -21 17 -12 5 7 0 19 -10 27 -17 14 -17 15 -1 10 9 -3
17 -3 17 1 0 3 -8 12 -17 20 -17 14 -17 14 0 9 13 -4 17 1 17 24 0 17 -5 30
-12 30 -9 0 -9 3 0 12 15 15 15 28 1 28 -5 0 -7 -4 -4 -10 3 -5 -1 -10 -9 -10
-8 0 -18 5 -21 10 -3 6 -1 10 6 10 7 0 10 2 7 5 -3 3 -13 3 -22 -1 -12 -5 -14
-10 -6 -19 8 -9 6 -14 -4 -18 -10 -4 -13 -1 -9 9 3 8 -1 14 -8 14 -9 1 -7 6 5
15 16 12 17 15 4 15 -9 0 -23 17 -32 40 -9 22 -18 40 -20 40 -10 0 0 -100 11
-104 15 -6 10 -71 -7 -91 -17 -20 -25 -19 -27 5 -1 11 2 20 8 20 5 0 9 -5 9
-12 0 -6 2 -9 5 -6 3 3 3 12 0 20 -7 17 -35 20 -32 4 1 -6 -5 -11 -13 -11 -8
0 -15 7 -16 15 -3 47 -5 54 -12 44 -8 -11 -88 -12 -99 0 -4 4 -1 11 7 16 8 6
10 10 4 10 -6 0 -17 -7 -25 -16 -10 -13 -10 -17 2 -25 8 -5 21 -8 29 -6 18 5
44 -40 29 -49 -5 -3 -9 1 -9 8 0 7 -12 18 -27 25 -58 24 -71 25 -92 4 -16 -16
-20 -17 -25 -4 -8 19 -8 24 2 20 11 -3 13 10 6 39 -5 19 -2 29 10 36 16 9 23
39 9 37 -19 -3 -33 2 -33 11 0 6 11 8 25 4 16 -4 25 -2 25 6 0 6 -4 9 -9 5 -5
-3 -17 2 -25 11 -15 14 -16 14 -16 0 0 -9 -5 -16 -11 -16 -5 0 -7 -4 -4 -10 3
-5 1 -10 -5 -10 -7 0 -9 7 -6 16 4 9 1 23 -6 31 -9 11 -9 16 3 24 8 5 9 9 4 9
-23 0 -33 -22 -24 -53 13 -44 11 -60 -3 -51 -9 5 -8 2 1 -10 8 -10 17 -13 20
-7 14 21 34 -6 26 -35 -6 -25 -8 -27 -14 -10 -5 14 -10 16 -15 8 -4 -7 -5 -16
-2 -21 3 -4 -16 -1 -42 8 l-47 16 45 6 c52 7 51 10 -5 13 -52 4 -51 3 -32 24
9 10 14 27 11 39 -5 18 -2 20 23 16 l28 -5 -29 24 c-31 26 -28 53 5 43 15 -5
19 -1 19 20 0 15 4 24 10 20 6 -3 10 4 10 17 0 18 -2 20 -10 8 -5 -8 -10 -10
-10 -5 0 6 -5 2 -11 -9 -15 -25 -30 -2 -22 36 3 15 3 28 -1 28 -3 0 -6 -1 -7
-2z m-25 -204 c13 -5 13 -8 1 -20 -19 -19 -25 -18 -25 6 0 22 1 23 24 14z
m130 -20 c3 -8 2 -12 -4 -9 -6 3 -10 10 -10 16 0 14 7 11 14 -7z m-134 -31 c0
-5 -5 -15 -10 -23 -8 -12 -10 -11 -10 8 0 12 5 22 10 22 6 0 10 -3 10 -7z
m330 -73 c13 -9 13 -10 0 -10 -8 0 -22 5 -30 10 -13 9 -13 10 0 10 8 0 22 -5
30 -10z m-145 -31 c11 -17 -1 -21 -15 -4 -8 9 -8 15 -2 15 6 0 14 -5 17 -11z
m298 -6 c-7 -2 -13 -11 -13 -19 0 -8 -4 -14 -10 -14 -5 0 -10 4 -10 8 0 12 22
32 35 31 5 0 4 -3 -2 -6z m-112 -30 c-7 -12 -10 -13 -11 -4 0 9 -4 10 -13 5
-7 -5 -4 -1 6 9 24 21 33 16 18 -10z m60 -12 c-6 -10 -7 -35 -4 -56 4 -28 3
-36 -5 -31 -7 4 -12 20 -12 36 0 23 -4 28 -16 23 -12 -4 -15 -2 -12 8 3 8 13
13 22 11 9 -2 16 1 15 5 -3 15 1 23 11 23 7 0 7 -6 1 -19z m-103 -36 c-3 -3
-9 2 -12 12 -6 14 -5 15 5 6 7 -7 10 -15 7 -18z m62 -15 c6 0 10 -5 10 -12 0
-9 -3 -9 -11 -1 -6 6 -17 9 -24 7 -7 -3 -14 5 -17 21 l-5 26 19 -21 c10 -11
23 -20 28 -20z m118 -16 c35 -41 39 -54 17 -54 -8 0 -14 5 -12 12 1 7 -8 17
-20 23 -14 6 -23 19 -23 32 0 17 -6 23 -21 23 -11 0 -17 5 -14 10 9 15 36 -2
73 -46z m-34 -26 c6 -5 1 -8 -13 -8 -17 0 -22 4 -17 16 3 9 7 23 7 32 1 9 4 6
6 -8 3 -14 10 -28 17 -32z m-289 2 c-6 -9 -9 -9 -16 1 -10 17 0 34 13 21 6 -6
7 -16 3 -22z m232 -39 c2 -18 -24 -37 -35 -26 -3 3 0 5 7 5 7 0 11 6 8 14 -6
14 0 26 13 26 3 0 6 -9 7 -19z m-320 -38 c-3 -3 -10 -2 -16 2 -7 4 -7 10 2 20
10 11 13 11 15 -2 2 -8 1 -17 -1 -20z m47 2 c3 -8 1 -15 -4 -15 -6 0 -10 7
-10 15 0 8 2 15 4 15 2 0 6 -7 10 -15z m184 -20 c-3 -3 -9 2 -12 12 -6 14 -5
15 5 6 7 -7 10 -15 7 -18z m102 5 c8 -5 11 -10 5 -10 -5 0 -17 5 -25 10 -8 5
-10 10 -5 10 6 0 17 -5 25 -10z m-190 -14 c0 -2 -8 -10 -17 -17 -16 -13 -17
-12 -4 4 13 16 21 21 21 13z m157 -28 c-3 -7 -5 -2 -5 12 0 14 2 19 5 13 2 -7
2 -19 0 -25z m-100 -34 c-3 -3 -12 -4 -19 -1 -8 3 -5 6 6 6 11 1 17 -2 13 -5z
m157 -40 c3 -8 2 -12 -4 -9 -6 3 -10 10 -10 16 0 14 7 11 14 -7z m391 -45 c19
-35 16 -41 -20 -45 -28 -3 -42 13 -26 29 6 6 11 19 11 29 0 28 18 21 35 -13z
m-399 -4 c-10 -8 -23 -12 -27 -9 -12 7 -11 -3 3 -26 10 -15 9 -22 -6 -38 -9
-11 -16 -28 -14 -38 2 -11 -6 -20 -24 -24 -25 -8 -26 -7 -16 21 5 16 14 29 19
29 5 0 9 5 9 10 0 6 -7 10 -15 10 -8 0 -15 6 -15 13 0 8 -3 7 -10 -3 -12 -19
-23 -7 -25 28 -1 23 3 28 22 30 16 1 26 -5 32 -20 l8 -22 11 21 c7 12 22 24
34 26 13 2 25 5 28 5 3 1 -4 -5 -14 -13z m70 -24 c-1 -31 -16 -33 -16 -2 0 15
8 31 15 31 1 0 2 -13 1 -29z m-255 -14 c-10 -9 -11 -8 -5 6 3 10 9 15 12 12 3
-3 0 -11 -7 -18z m219 13 c0 -5 -4 -10 -9 -10 -6 0 -13 5 -16 10 -3 6 1 10 9
10 9 0 16 -4 16 -10z m84 0 c18 -7 24 -15 21 -31 -2 -12 -1 -19 2 -15 12 12
30 -48 22 -71 -6 -16 -5 -23 4 -23 6 0 4 -5 -5 -11 -10 -5 -15 -17 -12 -27 5
-15 4 -15 -6 1 -6 10 -9 26 -6 35 5 15 5 15 -8 0 -16 -22 -30 -23 -22 -3 3 8
0 14 -7 12 -7 -1 -11 7 -9 23 8 64 8 91 0 96 -8 5 -11 24 -4 24 3 0 16 -4 30
-10z m-68 -38 c6 -4 3 -14 -10 -26 -16 -16 -18 -17 -13 -3 3 9 2 17 -4 17 -6
0 -7 5 -4 10 7 12 16 12 31 2z m149 -2 c3 -5 -1 -10 -9 -10 -9 0 -16 5 -16 10
0 6 4 10 9 10 6 0 13 -4 16 -10z m165 -16 c0 -14 1 -14 16 0 21 22 24 20 11
-7 -10 -23 -55 -62 -62 -55 -2 2 2 20 8 41 12 38 27 50 27 21z m-287 -19 c-3
-9 -8 -14 -10 -11 -3 3 -2 9 2 15 9 16 15 13 8 -4z m-52 -35 c9 13 10 12 5 -4
-5 -14 -3 -17 11 -12 12 5 15 4 8 -3 -12 -12 -55 -3 -55 12 0 5 -9 2 -20 -8
-11 -10 -23 -16 -26 -12 -9 9 5 27 22 27 8 0 14 5 14 12 0 6 7 3 15 -8 13 -17
16 -17 26 -4z m299 -24 c0 -3 -4 -8 -10 -11 -5 -3 -10 -1 -10 4 0 6 5 11 10
11 6 0 10 -2 10 -4z m-237 -25 c3 -13 1 -18 -9 -14 -7 2 -10 11 -7 19 7 19 10
18 16 -5z m-58 -1 c-28 -12 -37 -12 -30 0 3 6 16 10 28 9 21 0 21 -1 2 -9z"/>
<path d="M1680 945 c0 -8 4 -15 10 -15 5 0 7 7 4 15 -4 8 -8 15 -10 15 -2 0
-4 -7 -4 -15z"/>
<path d="M1235 850 c-3 -5 -1 -10 4 -10 6 0 11 5 11 10 0 6 -2 10 -4 10 -3 0
-8 -4 -11 -10z"/>
<path d="M1415 901 c-3 -5 -1 -12 5 -16 5 -3 10 1 10 9 0 18 -6 21 -15 7z"/>
<path d="M1420 858 c0 -4 7 -8 15 -8 8 0 15 -5 15 -12 0 -6 2 -9 5 -6 10 9 -5
35 -20 35 -8 0 -15 -4 -15 -9z"/>
<path d="M1415 820 c-3 -5 -1 -10 4 -10 6 0 11 5 11 10 0 6 -2 10 -4 10 -3 0
-8 -4 -11 -10z"/>
<path d="M1029 1663 c-13 -16 -12 -17 4 -4 9 7 17 15 17 17 0 8 -8 3 -21 -13z"/>
<path d="M1308 1673 c7 -3 16 -2 19 1 4 3 -2 6 -13 5 -11 0 -14 -3 -6 -6z"/>
<path d="M9043 1619 c14 -8 22 -8 30 0 8 8 3 11 -18 11 -26 -1 -28 -2 -12 -11z"/>
<path d="M9290 1623 c0 -16 34 -103 41 -103 27 0 43 80 20 103 -8 8 -11 8 -11
0 0 -12 -18 -12 -37 0 -7 5 -13 5 -13 0z"/>
<path d="M950 1617 c0 -3 13 -12 29 -20 22 -11 31 -12 34 -3 3 6 -3 12 -12 12
-9 1 -24 4 -33 9 -10 4 -18 5 -18 2z"/>
<path d="M895 1580 c-3 -5 -1 -10 4 -10 6 0 11 5 11 10 0 6 -2 10 -4 10 -3 0
-8 -4 -11 -10z"/>
<path d="M9191 1579 c18 -11 46 -12 53 -1 2 4 -11 8 -31 9 -24 0 -31 -2 -22
-8z"/>
<path d="M1020 1570 c0 -5 5 -10 11 -10 5 0 7 5 4 10 -3 6 -8 10 -11 10 -2 0
-4 -4 -4 -10z"/>
<path d="M1700 1570 c-9 -6 -10 -10 -3 -10 6 0 15 5 18 10 8 12 4 12 -15 0z"/>
<path d="M9252 1568 c-16 -16 -15 -25 4 -32 13 -5 15 -2 11 13 -3 11 0 22 7
25 6 3 7 5 1 5 -6 1 -16 -4 -23 -11z"/>
<path d="M8680 1560 c0 -5 5 -10 11 -10 5 0 7 5 4 10 -3 6 -8 10 -11 10 -2 0
-4 -4 -4 -10z"/>
<path d="M9081 1554 c0 -11 3 -14 6 -6 3 7 2 16 -1 19 -3 4 -6 -2 -5 -13z"/>
<path d="M1690 1546 c0 -2 9 -6 20 -9 11 -3 20 -1 20 4 0 5 -9 9 -20 9 -11 0
-20 -2 -20 -4z"/>
<path d="M7975 1530 c3 -5 11 -10 16 -10 6 0 7 5 4 10 -3 6 -11 10 -16 10 -6
0 -7 -4 -4 -10z"/>
<path d="M9200 1525 c0 -5 5 -17 10 -25 5 -8 10 -10 10 -5 0 6 -5 17 -10 25
-5 8 -10 11 -10 5z"/>
<path d="M1351 1504 c0 -11 3 -14 6 -6 3 7 2 16 -1 19 -3 4 -6 -2 -5 -13z"/>
<path d="M1696 1505 c3 -7 -2 -15 -13 -18 -14 -4 -15 -5 -2 -6 24 -2 44 25 25
32 -10 4 -13 1 -10 -8z"/>
<path d="M9265 1497 c-9 -33 -25 -36 -26 -4 -1 15 -3 17 -6 5 -2 -9 5 -33 16
-54 12 -21 21 -48 22 -59 0 -11 3 -15 5 -9 3 6 1 30 -5 53 -7 31 -6 45 4 55 8
8 10 18 5 26 -6 10 -10 7 -15 -13z"/>
<path d="M1741 1501 c-11 -7 -9 -12 10 -22 21 -11 22 -10 12 3 -7 8 -10 18 -6
21 9 10 1 8 -16 -2z"/>
<path d="M1314 1485 c11 -8 24 -15 30 -15 5 0 1 7 -10 15 -10 8 -23 14 -29 14
-5 0 -1 -6 9 -14z"/>
<path d="M8005 1490 c-3 -6 1 -7 9 -4 18 7 21 14 7 14 -6 0 -13 -4 -16 -10z"/>
<path d="M9107 1484 c2 -7 11 -15 19 -18 8 -3 12 -2 9 3 -3 5 3 11 12 13 11 3
6 6 -13 9 -23 4 -31 2 -27 -7z"/>
<path d="M1910 1480 c0 -5 5 -10 11 -10 5 0 7 5 4 10 -3 6 -8 10 -11 10 -2 0
-4 -4 -4 -10z"/>
<path d="M8970 1473 c0 -10 4 -14 8 -8 4 6 11 13 16 18 5 4 2 7 -7 7 -10 0
-17 -8 -17 -17z"/>
<path d="M9056 1477 c3 -10 9 -15 12 -12 3 3 0 11 -7 18 -10 9 -11 8 -5 -6z"/>
<path d="M1470 1461 c-7 -14 -6 -21 3 -24 6 -3 0 -6 -15 -6 -16 -1 -28 -5 -28
-10 0 -6 8 -9 18 -9 9 0 26 -3 36 -7 17 -7 18 -6 11 11 -4 10 -8 29 -8 42 1
27 -3 28 -17 3z"/>
<path d="M9178 1453 c-4 -14 2 -18 23 -19 l29 -1 -22 18 c-26 23 -25 23 -30 2z"/>
<path d="M1620 1445 c0 -8 2 -15 4 -15 2 0 6 7 10 15 3 8 1 15 -4 15 -6 0 -10
-7 -10 -15z"/>
<path d="M8012 1444 c-7 -8 -8 -14 -3 -14 10 0 25 19 20 25 -2 1 -10 -3 -17
-11z"/>
<path d="M9090 1449 c0 -5 5 -7 10 -4 6 3 10 8 10 11 0 2 -4 4 -10 4 -5 0 -10
-5 -10 -11z"/>
<path d="M1932 1436 c7 -8 15 -12 17 -11 5 6 -10 25 -20 25 -5 0 -4 -6 3 -14z"/>
<path d="M1968 1443 c7 -3 16 -2 19 1 4 3 -2 6 -13 5 -11 0 -14 -3 -6 -6z"/>
<path d="M1790 1431 c0 -5 5 -13 10 -16 6 -3 10 -2 10 4 0 5 -4 13 -10 16 -5
3 -10 2 -10 -4z"/>
<path d="M1020 1420 c0 -5 5 -10 10 -10 6 0 10 5 10 10 0 6 -4 10 -10 10 -5 0
-10 -4 -10 -10z"/>
<path d="M1632 1388 c-1 -26 1 -30 9 -15 6 10 6 23 1 33 -7 12 -9 8 -10 -18z"/>
<path d="M1680 1405 c10 -12 10 -15 -4 -15 -17 0 -17 -3 -21 -84 -3 -42 1 -53
24 -73 14 -14 26 -29 26 -33 0 -5 4 -12 9 -17 5 -5 6 -2 1 6 -6 11 -3 13 13 9
19 -5 20 -3 11 13 -5 10 -17 19 -26 19 -13 0 -14 3 -5 12 19 19 14 33 -6 15
-10 -10 -22 -14 -25 -10 -11 10 -8 55 3 48 6 -3 10 -1 10 4 0 6 -7 11 -15 11
-8 0 -15 7 -15 16 0 14 1 14 16 0 8 -9 23 -16 32 -17 11 0 12 -2 5 -6 -20 -8
-15 -23 7 -23 24 0 26 20 5 60 -11 21 -20 28 -33 24 -14 -5 -14 -3 2 10 11 9
25 16 30 16 16 1 -26 30 -42 30 -12 0 -12 -3 -2 -15z"/>
<path d="M7735 1410 c-3 -5 -1 -10 4 -10 6 0 11 5 11 10 0 6 -2 10 -4 10 -3 0
-8 -4 -11 -10z"/>
<path d="M9210 1411 c0 -5 7 -14 15 -21 13 -10 15 -9 15 9 0 12 -6 21 -15 21
-8 0 -15 -4 -15 -9z"/>
<path d="M1420 1383 c0 -8 4 -11 10 -8 5 3 21 -2 35 -11 15 -10 25 -12 25 -5
0 6 4 11 8 11 9 0 35 -60 33 -77 -1 -6 3 -14 9 -18 5 -3 10 1 10 10 0 12 6 15
23 10 16 -5 14 -1 -10 15 -22 15 -34 32 -39 56 -5 26 -9 32 -19 24 -6 -5 -15
-7 -18 -3 -4 3 -20 7 -37 8 -21 2 -30 -2 -30 -12z"/>
<path d="M1980 1391 c0 -5 7 -11 14 -14 10 -4 13 -1 9 9 -6 15 -23 19 -23 5z"/>
<path d="M8717 1381 c-4 -17 -3 -21 5 -13 5 5 8 16 6 23 -3 8 -7 3 -11 -10z"/>
<path d="M8635 1370 c3 -5 8 -10 11 -10 2 0 4 5 4 10 0 6 -5 10 -11 10 -5 0
-7 -4 -4 -10z"/>
<path d="M1955 1360 c-3 -6 1 -7 9 -4 18 7 21 14 7 14 -6 0 -13 -4 -16 -10z"/>
<path d="M2031 1354 c0 -11 3 -14 6 -6 3 7 2 16 -1 19 -3 4 -6 -2 -5 -13z"/>
<path d="M8552 1333 c-24 -31 -28 -42 -19 -54 8 -11 18 -14 32 -8 19 7 19 8
-2 8 -34 1 -31 15 16 67 7 8 11 17 8 20 -2 3 -18 -12 -35 -33z"/>
<path d="M1440 1344 c33 -15 34 -16 16 -30 -19 -13 -19 -14 5 -14 30 0 50 -17
42 -36 -8 -21 -20 -17 -26 8 -4 12 -9 19 -13 15 -4 -3 1 -18 10 -32 9 -14 12
-25 6 -25 -18 0 -11 -18 10 -23 23 -6 27 -27 5 -27 -8 0 -15 -3 -15 -6 0 -9
41 -44 51 -44 13 0 20 18 9 25 -5 3 -11 0 -11 -7 -1 -7 -5 5 -9 27 -4 22 -10
48 -15 58 -4 10 -3 17 4 17 6 0 11 -7 11 -16 0 -8 5 -12 10 -9 6 3 18 -7 28
-24 9 -17 20 -31 25 -31 4 0 7 -4 7 -10 0 -14 -27 -12 -33 3 -3 6 -5 3 -5 -8
1 -11 0 -24 -2 -30 -1 -5 -2 -21 -1 -34 1 -20 3 -21 16 -11 18 15 19 37 3 43
-7 3 -3 6 9 6 12 1 24 5 27 10 6 10 -22 71 -33 71 -3 0 -15 15 -25 33 -11 17
-28 42 -38 54 -12 12 -17 27 -13 34 5 7 4 10 -2 6 -6 -4 -16 0 -23 8 -7 8 -24
15 -39 15 -24 -1 -24 -2 9 -16z"/>
<path d="M2100 1349 c0 -5 5 -7 10 -4 6 3 10 8 10 11 0 2 -4 4 -10 4 -5 0 -10
-5 -10 -11z"/>
<path d="M9238 1353 c8 -3 10 -9 4 -16 -6 -7 -12 -32 -15 -57 -3 -25 -4 -37
-1 -28 3 10 12 15 22 12 13 -5 14 -4 3 4 -17 12 -6 33 14 26 8 -4 12 -11 8
-18 -4 -7 -1 -7 9 1 8 7 18 10 21 6 9 -8 8 7 -3 32 -7 18 -9 18 -15 3 -10 -26
-36 -10 -29 18 5 19 2 24 -12 23 -12 0 -14 -3 -6 -6z"/>
<path d="M2056 1334 c-4 -12 -14 -14 -36 -9 -24 5 -30 3 -30 -10 0 -9 -3 -14
-8 -11 -4 2 -16 -3 -27 -11 -16 -13 -17 -15 -2 -10 9 4 17 2 17 -4 0 -6 4 -8
9 -4 5 3 12 1 16 -5 3 -5 14 -10 23 -10 14 0 14 2 3 9 -8 5 -16 19 -18 32 l-3
22 23 -24 c36 -39 109 -99 118 -99 5 0 4 9 -3 20 -7 11 -16 20 -21 20 -4 0 -5
5 -1 12 5 7 2 9 -8 5 -11 -4 -18 1 -21 14 -3 11 -15 23 -26 26 -16 4 -17 8 -8
18 7 7 15 11 18 9 4 -2 9 3 13 11 3 9 0 15 -8 15 -8 0 -17 -7 -20 -16z"/>
<path d="M6955 1340 c3 -5 8 -10 11 -10 2 0 4 5 4 10 0 6 -5 10 -11 10 -5 0
-7 -4 -4 -10z"/>
<path d="M8700 1338 c0 -8 11 -29 25 -48 14 -19 25 -29 25 -22 0 6 -11 28 -25
48 -14 20 -25 30 -25 22z"/>
<path d="M2210 1329 c0 -5 5 -7 10 -4 6 3 10 8 10 11 0 2 -4 4 -10 4 -5 0 -10
-5 -10 -11z"/>
<path d="M1783 1323 c4 -3 2 -12 -4 -20 -16 -18 3 -16 27 3 10 8 13 13 7 9 -7
-3 -13 -1 -13 4 0 6 -5 11 -12 11 -6 0 -8 -3 -5 -7z"/>
<path d="M2500 1320 c0 -5 5 -10 11 -10 5 0 7 5 4 10 -3 6 -8 10 -11 10 -2 0
-4 -4 -4 -10z"/>
<path d="M8412 1321 c-10 -6 -7 -10 12 -13 21 -4 24 -3 15 8 -13 16 -11 16
-27 5z"/>
<path d="M8967 1316 c-4 -10 1 -12 14 -9 23 6 24 9 5 16 -8 3 -17 0 -19 -7z"/>
<path d="M1410 1292 c0 -12 4 -22 9 -22 10 0 9 26 -2 36 -4 4 -7 -2 -7 -14z"/>
<path d="M1600 1294 c0 -8 5 -12 10 -9 6 4 8 11 5 16 -9 14 -15 11 -15 -7z"/>
<path d="M2215 1299 c-12 -19 5 -23 22 -6 16 16 16 17 1 17 -9 0 -20 -5 -23
-11z"/>
<path d="M7893 1295 c0 -8 4 -12 9 -9 4 3 8 9 8 15 0 5 -4 9 -8 9 -5 0 -9 -7
-9 -15z"/>
<path d="M7920 1296 c0 -8 4 -17 9 -20 5 -4 7 3 4 14 -6 23 -13 26 -13 6z"/>
<path d="M9071 1294 c0 -11 3 -14 6 -6 3 7 2 16 -1 19 -3 4 -6 -2 -5 -13z"/>
<path d="M6990 1281 c0 -5 5 -13 10 -16 6 -3 10 -2 10 4 0 5 -4 13 -10 16 -5
3 -10 2 -10 -4z"/>
<path d="M8996 1282 c-3 -6 -1 -14 5 -17 14 -9 20 -2 10 14 -6 8 -11 9 -15 3z"/>
<path d="M1566 1263 c-4 -9 -2 -21 4 -27 8 -8 9 -5 4 9 -7 18 -6 18 9 6 18
-14 20 -12 11 13 -8 21 -20 20 -28 -1z"/>
<path d="M1737 1251 c3 -12 9 -18 14 -15 5 3 12 -2 15 -10 5 -14 8 -14 30 1
13 8 24 20 24 25 0 7 -5 6 -13 -1 -8 -6 -17 -7 -23 -2 -5 5 -19 12 -31 15 -18
6 -20 4 -16 -13z"/>
<path d="M7056 1253 c-6 -14 -5 -15 5 -6 7 7 10 15 7 18 -3 3 -9 -2 -12 -12z"/>
<path d="M7890 1260 c0 -5 7 -7 15 -4 8 4 15 8 15 10 0 2 -7 4 -15 4 -8 0 -15
-4 -15 -10z"/>
<path d="M7985 1260 c-19 -8 -19 -9 3 -9 12 -1 22 4 22 9 0 6 -1 10 -2 9 -2 0
-12 -4 -23 -9z"/>
<path d="M9020 1250 c-17 -17 -20 -17 -20 -4 0 11 -5 14 -16 10 -9 -3 -19 -6
-24 -6 -4 0 -10 -9 -13 -20 -3 -11 0 -20 6 -20 16 0 -84 -49 -101 -50 -7 0
-10 5 -7 10 3 6 2 10 -4 10 -5 0 -12 -4 -15 -9 -7 -10 -32 -9 -41 2 -3 4 -2 5
2 2 3 -3 13 4 21 16 8 11 20 18 28 15 8 -3 14 -1 14 5 0 20 -52 -1 -74 -29
-12 -15 -21 -31 -21 -37 0 -5 -9 -10 -20 -10 -11 0 -19 -5 -18 -11 1 -7 -6
-10 -17 -7 -18 5 -53 -25 -56 -47 -1 -6 -2 -14 -3 -20 0 -5 -10 -10 -22 -10
-11 0 -18 -4 -15 -9 5 -8 -23 -39 -31 -33 -1 1 -2 1 -1 0 2 -2 -10 -17 -26
-35 -23 -26 -32 -30 -47 -22 -13 6 -19 6 -19 -1 0 -5 5 -10 10 -10 7 0 7 -6 0
-19 -17 -32 -12 -48 18 -54 32 -6 50 7 69 50 19 47 39 32 63 -46 11 -36 25
-74 32 -84 13 -17 16 -17 53 -1 23 9 52 14 72 11 48 -8 90 7 144 53 48 41 94
56 119 40 17 -10 55 6 102 45 69 57 96 75 110 75 11 0 14 23 13 110 0 66 -4
110 -10 110 -5 0 -11 -9 -11 -20 -2 -25 -14 -40 -14 -17 0 10 -5 17 -10 17 -6
0 -10 -8 -8 -17 2 -10 -3 -17 -9 -15 -7 1 -13 -5 -13 -13 0 -14 -3 -14 -23 -1
-22 15 -22 15 -25 -35 -1 -28 -7 -58 -12 -67 -8 -13 -10 -9 -8 20 1 20 -1 40
-5 44 -4 4 -7 -9 -7 -30 0 -29 -5 -39 -25 -48 -20 -9 -28 -9 -38 2 -10 10 -9
12 4 7 19 -6 47 9 36 20 -5 4 -12 1 -17 -7 -8 -12 -10 -12 -10 -1 0 11 -3 11
-15 1 -11 -9 -12 -16 -5 -25 13 -15 4 -41 -17 -49 -21 -8 -21 -8 -24 47 -2 26
-5 47 -8 47 -10 0 -71 -45 -71 -53 0 -5 12 1 27 12 14 12 29 19 32 15 3 -3 -5
-13 -18 -23 -13 -10 -21 -23 -17 -29 3 -6 0 -13 -6 -15 -7 -3 -2 -6 11 -6 23
-1 23 -2 8 -19 -10 -10 -17 -26 -17 -35 0 -9 -5 -17 -11 -17 -5 0 -8 4 -5 9 4
5 0 12 -6 15 -10 5 -10 7 -1 12 9 4 10 11 4 22 -5 9 -10 22 -11 27 -3 15 -10
20 -10 7 0 -6 -13 -13 -30 -17 -26 -6 -43 -25 -22 -25 5 0 16 -19 26 -41 14
-32 16 -43 6 -49 -7 -4 -9 -13 -5 -20 5 -9 4 -11 -3 -6 -7 4 -12 16 -12 27 0
11 5 17 10 14 6 -3 10 -1 10 4 0 14 -6 14 -30 1 -16 -8 -18 -8 -14 5 4 8 1 15
-5 15 -9 0 -9 5 0 21 8 17 8 20 -1 14 -9 -5 -10 -1 -5 14 6 19 3 20 -27 17
-29 -3 -30 -2 -14 9 10 8 15 18 12 24 -4 5 -2 12 4 16 5 3 10 16 9 28 0 12 -3
16 -6 9 -2 -6 -10 -9 -16 -5 -6 4 -8 0 -4 -10 5 -14 2 -16 -18 -11 -19 5 -25
2 -25 -10 0 -9 8 -16 18 -16 12 0 14 -2 4 -8 -7 -5 -10 -17 -7 -28 6 -18 6
-18 -9 0 -8 10 -19 15 -24 12 -6 -3 -8 4 -6 16 2 13 2 17 -2 11 -9 -19 -21
-16 -27 8 -3 13 2 28 14 40 19 19 19 19 0 19 -11 0 -22 -6 -24 -12 -4 -8 -6
-9 -6 -2 -1 6 6 17 14 24 8 7 15 9 15 5 0 -4 8 -1 17 6 10 8 14 9 10 2 -4 -6
-3 -14 3 -18 5 -3 10 -2 10 4 0 6 7 8 15 5 8 -4 17 1 21 10 7 19 35 21 52 4 9
-9 12 -9 12 1 0 10 7 9 26 -4 15 -9 24 -13 21 -8 -4 6 0 19 8 29 13 18 14 17
8 -6 -6 -22 -4 -23 9 -12 16 13 48 7 48 -9 0 -5 4 -9 10 -9 5 0 8 6 6 13 -1 6
-1 9 1 5 3 -5 10 -8 16 -8 16 1 57 36 57 49 0 6 5 11 11 11 5 0 8 -4 5 -8 -2
-4 -1 -14 4 -22 7 -10 9 1 8 33 -2 30 -7 47 -15 47 -7 0 -13 5 -13 11 0 5 5 7
10 4 12 -7 12 2 0 30 -6 13 -9 15 -9 5 -1 -17 -39 -45 -49 -36 -3 3 0 6 6 6 6
0 16 9 22 20 7 14 7 20 0 20 -5 0 -19 -9 -30 -20z m-30 -20 c0 -5 -7 -10 -15
-10 -8 0 -15 5 -15 10 0 6 7 10 15 10 8 0 15 -4 15 -10z m-21 -70 c-1 -17 -3
-19 -6 -7 -6 21 -20 22 -39 2 -22 -22 -37 -19 -24 5 6 11 15 18 21 15 5 -4 9
-2 9 2 0 5 9 9 20 9 15 0 20 -7 19 -26z m-109 -31 c0 -5 -4 -9 -10 -9 -5 0
-10 5 -10 11 0 5 -5 7 -12 3 -7 -4 -8 -3 -4 4 7 12 36 5 36 -9z m-70 -4 c0 -8
-2 -15 -4 -15 -2 0 -6 7 -10 15 -3 8 -1 15 4 15 6 0 10 -7 10 -15z m-90 -19
c0 -3 -4 -8 -10 -11 -5 -3 -10 -1 -10 4 0 6 5 11 10 11 6 0 10 -2 10 -4z m510
-31 c0 -8 -2 -15 -4 -15 -2 0 -6 7 -10 15 -3 8 -1 15 4 15 6 0 10 -7 10 -15z
m-84 -67 c-10 -6 -20 -7 -24 -3 -9 8 20 25 31 18 5 -3 2 -10 -7 -15z m-386
-53 c12 7 12 3 4 -19 -3 -9 -10 -16 -16 -16 -5 0 -6 5 -3 10 3 6 -1 17 -9 26
-9 9 -13 21 -9 27 4 6 10 1 15 -12 4 -12 12 -19 18 -16z m374 18 c-9 -6 -22
-9 -30 -6 -24 9 -15 20 16 19 26 -1 28 -3 14 -13z m-201 -24 c-6 -21 -7 -21
-20 -4 -10 15 -10 21 -1 26 18 11 27 2 21 -22z m-113 -3 c0 -2 -7 -7 -16 -10
-8 -3 -12 -2 -9 4 6 10 25 14 25 6z m35 -46 c3 -5 2 -10 -4 -10 -5 0 -13 5
-16 10 -3 6 -2 10 4 10 5 0 13 -4 16 -10z m105 -11 c0 -8 5 -7 15 1 27 22 22
6 -7 -25 -23 -24 -28 -26 -28 -12 0 10 5 15 10 12 6 -3 10 -1 10 4 0 6 -4 11
-10 11 -5 0 -10 5 -10 10 0 6 5 10 10 10 6 0 10 -5 10 -11z m-165 -19 c3 -5 1
-10 -4 -10 -6 0 -11 5 -11 10 0 6 2 10 4 10 3 0 8 -4 11 -10z m-70 -90 c-3 -5
-11 -10 -16 -10 -6 0 -7 5 -4 10 3 6 11 10 16 10 6 0 7 -4 4 -10z"/>
<path d="M9192 1250 c0 -14 2 -19 5 -12 2 6 2 18 0 25 -3 6 -5 1 -5 -13z"/>
<path d="M1405 1249 c8 -11 55 -12 55 -1 0 5 -14 9 -30 10 -17 0 -28 -4 -25
-9z"/>
<path d="M1615 1250 c3 -5 8 -10 11 -10 2 0 4 5 4 10 0 6 -5 10 -11 10 -5 0
-7 -4 -4 -10z"/>
<path d="M3356 1251 c-4 -6 0 -11 11 -11 17 -1 17 -1 1 -14 -10 -7 -18 -18
-18 -25 0 -6 -4 -11 -10 -11 -5 0 -10 -7 -10 -16 0 -14 2 -14 15 0 8 8 15 20
15 26 0 6 4 9 9 6 5 -3 12 2 15 11 8 20 -18 51 -28 34z"/>
<path d="M8558 1243 c7 -3 16 -2 19 1 4 3 -2 6 -13 5 -11 0 -14 -3 -6 -6z"/>
<path d="M9250 1235 c-7 -9 -11 -18 -8 -20 3 -3 11 1 18 10 7 9 11 18 8 20 -3
3 -11 -1 -18 -10z"/>
<path d="M1850 1235 c0 -13 31 -36 41 -33 7 2 0 12 -15 21 -14 10 -26 15 -26
12z"/>
<path d="M8575 1219 c-4 -6 -5 -12 -2 -15 2 -3 7 2 10 11 7 17 1 20 -8 4z"/>
<path d="M8911 1214 c0 -11 3 -14 6 -6 3 7 2 16 -1 19 -3 4 -6 -2 -5 -13z"/>
<path d="M1812 1208 c-7 -7 -12 -26 -12 -42 1 -30 1 -30 15 9 15 43 15 51 -3
33z"/>
<path d="M3303 1205 c-9 -24 1 -27 20 -5 14 17 15 20 2 20 -9 0 -18 -7 -22
-15z"/>
<path d="M3540 1208 c0 -9 5 -20 10 -23 13 -8 13 5 0 25 -8 13 -10 13 -10 -2z"/>
<path d="M7416 1211 c-4 -5 3 -7 14 -4 23 6 26 13 6 13 -8 0 -17 -4 -20 -9z"/>
<path d="M8877 1199 c4 -13 8 -18 11 -10 2 7 -1 18 -6 23 -8 8 -9 4 -5 -13z"/>
<path d="M8330 1195 c0 -8 -7 -15 -15 -15 -8 0 -15 -5 -15 -11 0 -5 4 -8 9 -4
5 3 15 0 23 -7 15 -15 48 -20 48 -7 0 5 -11 11 -25 15 -21 5 -23 9 -14 25 6
13 6 19 -1 19 -5 0 -10 -7 -10 -15z"/>
<path d="M1910 1197 c0 -2 16 -22 35 -43 19 -21 35 -32 35 -25 0 7 4 10 9 6
11 -6 26 33 17 43 -4 3 -12 0 -18 -6 -9 -9 -20 -6 -45 9 -18 11 -33 19 -33 16z"/>
<path d="M3100 1196 c0 -2 7 -7 16 -10 8 -3 12 -2 9 4 -6 10 -25 14 -25 6z"/>
<path d="M6521 1182 c-15 -28 -14 -32 10 -32 11 0 17 5 14 10 -4 6 -12 7 -18
3 -7 -4 -6 1 2 10 8 10 11 20 8 23 -3 3 -10 -3 -16 -14z"/>
<path d="M8861 1184 c0 -11 3 -14 6 -6 3 7 2 16 -1 19 -3 4 -6 -2 -5 -13z"/>
<path d="M6560 1165 c0 -8 2 -15 4 -15 2 0 6 7 10 15 3 8 1 15 -4 15 -6 0 -10
-7 -10 -15z"/>
<path d="M6590 1171 c0 -5 7 -12 16 -15 14 -5 15 -4 4 9 -14 17 -20 19 -20 6z"/>
<path d="M1410 1160 c0 -5 4 -10 9 -10 6 0 13 5 16 10 3 6 -1 10 -9 10 -9 0
-16 -4 -16 -10z"/>
<path d="M3061 1154 c0 -11 3 -14 6 -6 3 7 2 16 -1 19 -3 4 -6 -2 -5 -13z"/>
<path d="M3540 1155 c0 -8 4 -15 10 -15 5 0 7 7 4 15 -4 8 -8 15 -10 15 -2 0
-4 -7 -4 -15z"/>
<path d="M7833 1158 c-23 -30 -24 -41 -2 -21 12 12 20 25 17 28 -3 3 -10 0
-15 -7z"/>
<path d="M3265 1150 c-3 -5 -1 -10 4 -10 6 0 11 5 11 10 0 6 -2 10 -4 10 -3 0
-8 -4 -11 -10z"/>
<path d="M2021 1129 c-7 -12 -14 -36 -16 -53 -1 -17 -5 -56 -9 -86 l-6 -55 15
55 c8 30 14 72 15 94 0 28 4 37 14 33 10 -4 12 0 9 14 -6 23 -5 23 -22 -2z"/>
<path d="M2286 1135 c-11 -8 -15 -15 -9 -15 6 0 16 7 23 15 16 19 11 19 -14 0z"/>
<path d="M6650 1141 c0 -6 4 -13 10 -16 6 -3 7 1 4 9 -7 18 -14 21 -14 7z"/>
<path d="M1476 1125 c4 -8 10 -15 15 -15 4 0 6 7 3 15 -4 8 -10 15 -15 15 -4
0 -6 -7 -3 -15z"/>
<path d="M2675 1116 c0 -18 5 -21 23 -18 13 3 22 5 20 6 -2 1 -12 9 -23 18
-19 16 -20 15 -20 -6z"/>
<path d="M3197 1129 c7 -7 15 -10 18 -7 3 3 -2 9 -12 12 -14 6 -15 5 -6 -5z"/>
<path d="M8565 1130 c-3 -5 -1 -10 4 -10 6 0 11 5 11 10 0 6 -2 10 -4 10 -3 0
-8 -4 -11 -10z"/>
<path d="M8640 1130 c0 -5 5 -10 11 -10 5 0 7 5 4 10 -3 6 -8 10 -11 10 -2 0
-4 -4 -4 -10z"/>
<path d="M2357 1110 c3 -11 9 -20 15 -20 5 0 4 9 -2 20 -6 11 -12 20 -14 20
-2 0 -2 -9 1 -20z"/>
<path d="M3567 1109 c-4 -16 -3 -18 9 -8 16 13 19 29 5 29 -5 0 -11 -9 -14
-21z"/>
<path d="M8305 1120 c-3 -5 -1 -10 4 -10 6 0 11 5 11 10 0 6 -2 10 -4 10 -3 0
-8 -4 -11 -10z"/>
<path d="M8488 1123 c7 -3 16 -2 19 1 4 3 -2 6 -13 5 -11 0 -14 -3 -6 -6z"/>
<path d="M8531 1114 c0 -11 3 -14 6 -6 3 7 2 16 -1 19 -3 4 -6 -2 -5 -13z"/>
<path d="M9063 1123 c-7 -2 -13 -11 -13 -18 0 -7 -6 -15 -12 -18 -7 -2 -10 -8
-6 -12 8 -9 31 12 41 38 3 9 5 17 4 16 -1 0 -8 -3 -14 -6z"/>
<path d="M1340 1109 c0 -5 5 -7 10 -4 6 3 10 8 10 11 0 2 -4 4 -10 4 -5 0 -10
-5 -10 -11z"/>
<path d="M1685 1111 c-3 -6 6 -16 22 -21 15 -6 34 -19 42 -28 9 -11 12 -12 9
-3 -7 22 -65 64 -73 52z"/>
<path d="M2075 1110 c3 -5 8 -10 11 -10 2 0 4 5 4 10 0 6 -5 10 -11 10 -5 0
-7 -4 -4 -10z"/>
<path d="M1371 1098 c0 -9 -4 -23 -7 -31 -3 -8 2 -17 10 -20 9 -4 15 -3 15 1
-4 23 5 20 36 -14 19 -20 35 -39 35 -41 0 -2 6 -11 14 -18 10 -10 16 -11 25
-2 8 8 11 6 11 -9 0 -16 2 -17 10 -4 16 25 11 46 -15 58 -15 7 -25 8 -25 2 0
-16 -14 -12 -38 11 -12 11 -20 24 -17 29 3 5 -5 12 -19 16 -14 3 -27 13 -29
22 -4 16 -5 16 -6 0z m139 -98 c0 -5 -7 -10 -15 -10 -8 0 -15 5 -15 10 0 6 7
10 15 10 8 0 15 -4 15 -10z"/>
<path d="M1764 1102 c-9 -5 -8 -11 2 -20 12 -11 14 -9 14 8 0 22 0 23 -16 12z"/>
<path d="M7795 1100 c-3 -5 -1 -10 4 -10 6 0 11 5 11 10 0 6 -2 10 -4 10 -3 0
-8 -4 -11 -10z"/>
<path d="M8630 1100 c0 -5 5 -10 11 -10 5 0 7 5 4 10 -3 6 -8 10 -11 10 -2 0
-4 -4 -4 -10z"/>
<path d="M2316 1084 c-4 -10 -13 -13 -26 -9 -25 8 -27 -13 -2 -22 31 -11 52
-39 39 -53 -9 -10 -7 -11 9 -6 22 7 54 -15 54 -35 0 -5 6 -9 14 -9 9 0 13 -8
10 -22 -2 -13 -1 -16 2 -8 4 8 11 18 17 21 6 4 1 19 -12 38 -12 17 -19 36 -15
42 5 8 -2 10 -23 7 -23 -3 -29 0 -30 15 -2 15 1 16 13 7 10 -9 14 -9 14 -1 0
6 -4 11 -8 11 -5 0 -18 9 -29 20 -18 16 -22 17 -27 4z"/>
<path d="M3235 1091 c-3 -5 -1 -12 5 -16 5 -3 10 1 10 9 0 18 -6 21 -15 7z"/>
<path d="M8320 1093 c0 -3 8 -15 17 -25 15 -16 15 -21 3 -28 -8 -5 -11 -12 -8
-15 10 -11 28 4 28 23 0 10 -9 25 -20 35 -11 9 -20 14 -20 10z"/>
<path d="M9100 1090 c0 -5 5 -10 10 -10 6 0 10 5 10 10 0 6 -4 10 -10 10 -5 0
-10 -4 -10 -10z"/>
<path d="M2125 1080 c-3 -4 8 -10 25 -12 16 -2 27 -1 25 3 -7 11 -44 18 -50 9z"/>
<path d="M4400 1080 c0 -5 5 -10 10 -10 6 0 10 5 10 10 0 6 -4 10 -10 10 -5 0
-10 -4 -10 -10z"/>
<path d="M6690 1086 c0 -2 7 -6 15 -10 8 -3 15 -1 15 4 0 6 -7 10 -15 10 -8 0
-15 -2 -15 -4z"/>
<path d="M1487 1066 c-4 -10 -1 -13 8 -9 8 3 12 9 9 14 -7 12 -11 11 -17 -5z"/>
<path d="M7780 1067 c0 -10 8 -17 18 -17 9 0 13 4 7 8 -5 4 -13 11 -17 16 -5
5 -8 2 -8 -7z"/>
<path d="M7880 1065 c-8 -9 -8 -15 -2 -15 12 0 26 19 19 26 -2 2 -10 -2 -17
-11z"/>
<path d="M8888 1069 c-4 -9 -1 -22 5 -28 8 -8 8 -11 -2 -11 -7 0 -10 -4 -6
-10 3 -5 12 -7 21 -3 9 3 11 9 5 17 -5 6 -11 20 -13 31 -3 17 -5 17 -10 4z"/>
<path d="M2395 1057 c3 -7 15 -13 26 -14 24 -2 23 0 -8 16 -18 9 -22 9 -18 -2z"/>
<path d="M3330 1060 c0 -6 7 -10 15 -10 8 0 15 2 15 4 0 2 -7 6 -15 10 -8 3
-15 1 -15 -4z"/>
<path d="M3865 1060 c3 -5 11 -10 16 -10 6 0 7 5 4 10 -3 6 -11 10 -16 10 -6
0 -7 -4 -4 -10z"/>
<path d="M3290 1050 c0 -5 5 -10 11 -10 5 0 7 5 4 10 -3 6 -8 10 -11 10 -2 0
-4 -4 -4 -10z"/>
<path d="M4395 1050 c3 -5 10 -10 16 -10 5 0 9 5 9 10 0 6 -7 10 -16 10 -8 0
-12 -4 -9 -10z"/>
<path d="M8376 1043 c-19 -53 -24 -73 -18 -73 19 1 28 19 29 53 1 41 -2 46
-11 20z"/>
<path d="M8463 1042 c0 -12 5 -22 9 -22 11 0 10 12 -2 30 -7 12 -9 10 -7 -8z"/>
<path d="M2466 1035 c5 -11 2 -14 -12 -8 -16 6 -16 5 1 -19 13 -16 27 -23 40
-21 18 4 18 3 4 -9 -14 -11 -8 -13 38 -15 59 -3 73 15 28 35 -33 15 -35 15
-35 -4 0 -11 6 -14 20 -9 11 4 20 2 20 -4 0 -16 -36 -13 -50 4 -7 8 -19 15
-26 15 -8 0 -14 9 -14 19 0 11 -4 23 -10 26 -6 3 -7 -1 -4 -10z"/>
<path d="M2703 1017 c-1 -30 -1 -31 8 -8 5 14 6 28 2 32 -4 4 -9 -6 -10 -24z"/>
<path d="M3220 1046 c0 -2 7 -7 16 -10 8 -3 12 -2 9 4 -6 10 -25 14 -25 6z"/>
<path d="M3822 1030 c0 -14 2 -19 5 -12 2 6 2 18 0 25 -3 6 -5 1 -5 -13z"/>
<path d="M7644 1025 c-12 -29 -42 -37 -76 -21 -39 20 -49 13 -14 -9 14 -10 24
-20 22 -24 -3 -4 17 0 44 8 27 9 45 17 40 19 -4 2 -6 12 -3 22 6 23 -5 27 -13
5z"/>
<path d="M7783 1015 c0 -14 3 -22 8 -19 5 3 9 11 9 19 0 8 -4 16 -9 19 -5 3
-8 -5 -8 -19z"/>
<path d="M7735 1020 c3 -5 11 -10 16 -10 6 0 7 5 4 10 -3 6 -11 10 -16 10 -6
0 -7 -4 -4 -10z"/>
<path d="M8836 1015 c-9 -26 -7 -32 5 -12 6 10 9 21 6 23 -2 3 -7 -2 -11 -11z"/>
<path d="M3130 1010 c-12 -8 -10 -10 8 -10 13 0 20 4 17 10 -7 12 -6 12 -25 0z"/>
<path d="M7724 998 c19 -33 20 -42 4 -32 -9 6 -9 3 1 -9 8 -10 12 -31 9 -52
-3 -23 0 -35 8 -35 7 0 26 -12 43 -26 18 -15 31 -20 31 -13 0 13 11 7 13 -8 2
-14 31 -43 42 -43 5 0 4 4 -3 9 -10 6 -10 10 3 21 13 11 15 10 10 -2 -9 -22
39 -64 88 -78 24 -6 72 -13 106 -14 41 -2 69 -9 82 -19 10 -9 19 -14 19 -11 0
4 7 1 15 -6 24 -20 34 -3 20 37 -7 21 -11 40 -8 43 3 3 8 -1 10 -7 3 -7 12
-13 20 -13 13 0 13 -3 3 -15 -7 -8 -9 -22 -6 -31 6 -16 8 -16 19 0 13 17 15
17 48 0 19 -11 48 -28 64 -40 44 -31 57 -33 84 -13 27 22 56 24 67 7 6 -9 10
-5 15 12 6 27 -23 70 -48 70 -11 0 -11 4 -2 21 9 17 8 23 -2 30 -8 5 -10 9 -5
9 5 0 3 7 -4 15 -7 9 -9 26 -5 45 4 19 3 30 -4 30 -11 0 -15 -19 -12 -52 2
-13 -2 -16 -15 -11 -11 4 -15 3 -10 -5 8 -13 -13 -28 -23 -16 -3 5 -17 10 -30
12 -20 2 -22 -1 -17 -23 5 -20 2 -27 -16 -34 -13 -5 -25 -5 -28 -2 -3 4 -21 8
-40 9 -19 1 -40 9 -46 17 -8 11 -13 12 -23 2 -10 -9 -11 -8 -6 5 9 22 36 32
47 16 6 -10 8 -9 8 4 0 9 -5 20 -12 24 -20 12 -82 5 -94 -11 -19 -26 -36 -17
-32 17 2 20 -2 33 -11 36 -10 3 -13 -2 -9 -21 7 -34 -8 -58 -22 -37 -10 13
-11 13 -9 0 1 -8 -3 -27 -10 -42 -12 -23 -16 -25 -42 -16 -33 11 -40 29 -9 21
12 -3 20 0 20 6 0 7 -4 10 -8 7 -4 -2 -14 -1 -22 5 -12 7 -12 9 3 9 10 0 15 5
12 10 -4 6 -10 8 -14 5 -5 -2 -12 10 -16 28 -7 28 -9 29 -12 9 -3 -12 -9 -20
-14 -17 -5 4 -9 1 -9 -4 0 -6 4 -11 10 -11 5 0 8 -10 6 -22 -3 -13 -5 -29 -5
-35 -1 -8 -10 -5 -26 9 -14 12 -22 24 -19 27 3 3 9 -1 14 -9 5 -8 12 -12 15
-8 4 3 -2 15 -14 27 -13 13 -16 21 -8 25 7 2 4 5 -6 5 -10 1 -15 6 -12 11 3 6
1 10 -4 10 -6 0 -11 -7 -11 -15 0 -20 -16 -19 -32 3 -13 18 -46 37 -60 34 -4
-1 -6 10 -5 25 1 19 -4 30 -19 38 -11 5 -19 15 -18 20 2 6 -6 21 -17 35 l-21
25 16 -27z m496 -178 c0 -5 -5 -10 -11 -10 -5 0 -7 5 -4 10 3 6 8 10 11 10 2
0 4 -4 4 -10z m160 -61 c-12 -39 -16 -44 -23 -24 -4 8 -2 15 3 15 6 0 10 9 10
20 0 11 4 20 9 20 6 0 6 -12 1 -31z m20 -54 c0 -8 -4 -15 -10 -15 -5 0 -10 7
-10 15 0 8 5 15 10 15 6 0 10 -7 10 -15z m-36 -11 c3 -8 2 -12 -4 -9 -6 3 -10
10 -10 16 0 14 7 11 14 -7z"/>
<path d="M3204 995 c35 -19 37 -19 30 0 -4 8 -18 15 -33 15 l-26 0 29 -15z"/>
<path d="M3270 1000 c-9 -6 -10 -10 -3 -10 6 0 15 5 18 10 8 12 4 12 -15 0z"/>
<path d="M4431 993 c-1 -12 4 -25 9 -28 12 -7 12 2 0 30 -8 19 -9 19 -9 -2z"/>
<path d="M5575 999 c-4 -6 -5 -12 -2 -15 2 -3 7 2 10 11 7 17 1 20 -8 4z"/>
<path d="M5630 1000 c0 -5 5 -10 11 -10 5 0 7 5 4 10 -3 6 -8 10 -11 10 -2 0
-4 -4 -4 -10z"/>
<path d="M5700 1001 c-8 -6 -18 -7 -24 -4 -5 3 -6 1 -2 -5 5 -9 13 -9 27 -2
10 6 19 13 19 15 0 7 -3 6 -20 -4z"/>
<path d="M6785 1001 c-3 -5 -1 -12 5 -16 5 -3 10 1 10 9 0 18 -6 21 -15 7z"/>
<path d="M7835 1000 c-3 -5 -1 -10 4 -10 6 0 11 5 11 10 0 6 -2 10 -4 10 -3 0
-8 -4 -11 -10z"/>
<path d="M2630 990 c0 -5 5 -10 11 -10 5 0 7 5 4 10 -3 6 -8 10 -11 10 -2 0
-4 -4 -4 -10z"/>
<path d="M7130 989 c0 -5 14 -12 30 -15 17 -4 30 -10 30 -13 0 -9 72 -7 88 2
14 10 16 27 2 27 -5 0 -9 -6 -7 -12 3 -16 -65 -12 -110 7 -19 8 -33 10 -33 4z"/>
<path d="M1790 980 c0 -5 7 -7 15 -4 8 4 15 8 15 10 0 2 -7 4 -15 4 -8 0 -15
-4 -15 -10z"/>
<path d="M2980 980 c-13 -8 -12 -10 3 -10 9 0 17 5 17 10 0 12 -1 12 -20 0z"/>
<path d="M3675 980 c3 -5 8 -10 11 -10 2 0 4 5 4 10 0 6 -5 10 -11 10 -5 0 -7
-4 -4 -10z"/>
<path d="M4360 981 c0 -6 4 -13 10 -16 6 -3 7 1 4 9 -7 18 -14 21 -14 7z"/>
<path d="M5955 980 c-3 -5 -1 -10 4 -10 6 0 11 5 11 10 0 6 -2 10 -4 10 -3 0
-8 -4 -11 -10z"/>
<path d="M6005 975 l-30 -14 30 6 c17 3 34 10 40 14 14 13 -5 10 -40 -6z"/>
<path d="M7425 980 c-3 -5 -1 -10 4 -10 6 0 11 5 11 10 0 6 -2 10 -4 10 -3 0
-8 -4 -11 -10z"/>
<path d="M1420 969 c0 -5 5 -7 10 -4 6 3 10 8 10 11 0 2 -4 4 -10 4 -5 0 -10
-5 -10 -11z"/>
<path d="M7465 969 l-20 -9 20 1 c34 2 35 0 18 -21 -14 -16 -20 -17 -32 -7
-14 10 -14 10 -3 -5 8 -9 11 -22 7 -28 -4 -7 2 -6 14 2 12 7 21 19 21 26 0 7
4 11 9 7 13 -7 62 16 55 26 -3 5 -10 9 -15 9 -6 0 -7 -4 -4 -10 3 -5 -1 -10
-9 -10 -9 0 -16 7 -16 15 0 17 -15 18 -45 4z"/>
<path d="M5574 950 c0 -13 4 -16 10 -10 7 7 7 13 0 20 -6 6 -10 3 -10 -10z"/>
<path d="M1751 919 c1 -24 3 -36 6 -26 2 9 9 17 15 17 6 0 5 7 -3 17 -8 9 -12
18 -11 20 2 3 1 7 -2 11 -3 3 -5 -15 -5 -39z"/>
<path d="M7795 947 c3 -10 5 -27 5 -37 0 -10 7 -20 15 -24 11 -4 13 -1 6 12
-5 9 -14 28 -20 42 -7 14 -9 17 -6 7z"/>
<path d="M2545 940 c4 -6 11 -8 16 -5 14 9 11 15 -7 15 -8 0 -12 -5 -9 -10z"/>
<path d="M4035 939 c4 -5 4 -21 1 -34 -5 -18 -11 -23 -24 -18 -22 8 -14 -1 15
-16 20 -10 22 -9 16 6 -5 15 -3 16 8 6 7 -7 16 -13 20 -13 12 0 4 31 -10 39
-7 5 -12 11 -12 15 3 19 0 26 -10 26 -5 0 -7 -5 -4 -11z"/>
<path d="M6352 934 c-7 -8 -8 -14 -3 -14 10 0 25 19 20 25 -2 1 -10 -3 -17
-11z"/>
<path d="M2706 925 c4 -8 8 -15 10 -15 2 0 4 7 4 15 0 8 -4 15 -10 15 -5 0 -7
-7 -4 -15z"/>
<path d="M2730 930 c0 -5 5 -10 10 -10 6 0 10 5 10 10 0 6 -4 10 -10 10 -5 0
-10 -4 -10 -10z"/>
<path d="M5280 936 c0 -2 8 -10 18 -17 15 -13 16 -12 3 4 -13 16 -21 21 -21
13z"/>
<path d="M7417 933 c-11 -10 -8 -20 7 -26 10 -4 12 0 9 14 -6 21 -7 22 -16 12z"/>
<path d="M2120 918 c0 -9 5 -20 10 -23 13 -8 13 5 0 25 -8 13 -10 13 -10 -2z"/>
<path d="M2970 926 c0 -2 7 -9 15 -16 9 -7 15 -8 15 -2 0 5 -7 12 -15 16 -8 3
-15 4 -15 2z"/>
<path d="M6380 919 c0 -5 11 -9 25 -9 33 0 33 15 0 16 -14 1 -25 -2 -25 -7z"/>
<path d="M8389 900 c-19 -20 -25 -36 -22 -54 7 -33 19 -34 25 -2 4 19 1 23
-11 18 -14 -5 -14 -4 -1 10 8 9 17 12 18 7 2 -5 9 -6 15 -2 6 4 8 0 4 -10 -3
-10 -2 -17 2 -17 17 0 18 25 2 38 -12 10 -13 15 -3 18 13 6 17 24 5 23 -5 0
-20 -13 -34 -29z"/>
<path d="M8865 920 c-3 -5 -1 -10 4 -10 6 0 11 5 11 10 0 6 -2 10 -4 10 -3 0
-8 -4 -11 -10z"/>
<path d="M1949 893 l0 -28 -10 24 c-5 13 -12 22 -15 19 -9 -10 8 -58 20 -58
17 0 44 -35 52 -66 5 -19 4 -25 -5 -20 -6 4 -11 16 -11 26 0 14 -5 18 -16 13
-10 -4 -14 -13 -10 -26 6 -24 -10 -57 -27 -57 -8 0 -8 3 2 9 9 6 10 11 2 15
-15 9 -14 56 1 56 6 0 8 3 5 7 -4 3 -2 12 4 20 9 9 8 13 0 13 -6 0 -11 -5 -11
-11 0 -6 -6 -9 -12 -6 -8 3 -14 -6 -15 -24 -6 -75 -7 -77 -28 -55 -11 10 -11
16 -2 26 10 10 7 11 -14 6 -21 -4 -28 -1 -39 19 -13 25 -30 33 -30 15 0 -21
70 -78 116 -94 27 -10 75 -27 106 -38 l58 -20 52 38 c29 22 48 32 43 25 -5
-10 -4 -12 4 -7 6 4 9 11 6 16 -3 5 -1 11 4 15 6 3 8 11 5 19 -3 7 5 18 18 24
21 10 21 11 3 10 -50 -3 -55 1 -55 42 0 34 -3 40 -21 40 -18 0 -19 -2 -9 -15
11 -13 10 -14 -4 -9 -10 4 -34 7 -54 8 -28 1 -39 7 -49 26 -11 22 -13 23 -13
5 0 -12 4 -25 9 -30 5 -6 6 -18 2 -28 -6 -16 -8 -16 -26 -1 -16 13 -17 15 -3
10 10 -3 20 -1 23 4 4 6 -1 10 -9 10 -18 0 -35 29 -29 48 3 6 0 12 -6 12 -6 0
-11 -12 -12 -27z m141 -63 c-6 -4 -15 -20 -20 -36 -8 -27 -8 -26 -8 12 1 36 4
41 20 36 13 -3 16 -7 8 -12z m-60 -23 c0 -1 4 -16 9 -34 7 -25 6 -31 -4 -27
-7 3 -11 14 -8 25 3 10 0 19 -6 19 -6 0 -11 5 -11 10 0 6 5 10 10 10 6 0 10
-1 10 -3z m75 -7 c-3 -5 -11 -10 -16 -10 -6 0 -7 5 -4 10 3 6 11 10 16 10 6 0
7 -4 4 -10z m42 -16 c-3 -3 -12 -4 -19 -1 -8 3 -5 6 6 6 11 1 17 -2 13 -5z
m-130 -18 c-3 -7 -1 -18 5 -24 6 -6 -1 -11 -21 -14 -21 -3 -31 0 -31 9 0 7 7
13 15 13 9 0 18 7 21 15 4 8 8 15 11 15 3 0 3 -6 0 -14z m133 -12 c0 -2 -7 -4
-15 -4 -8 0 -15 4 -15 10 0 5 7 7 15 4 8 -4 15 -8 15 -10z m-66 0 c9 -3 14
-10 11 -15 -7 -10 -35 0 -35 12 0 11 3 11 24 3z m-61 -41 c-7 -2 -19 -2 -25 0
-7 3 -2 5 12 5 14 0 19 -2 13 -5z"/>
<path d="M2245 910 c3 -5 8 -10 11 -10 2 0 4 5 4 10 0 6 -5 10 -11 10 -5 0 -7
-4 -4 -10z"/>
<path d="M2552 908 c-14 -14 -16 -42 -3 -34 7 5 23 46 17 46 -1 0 -7 -5 -14
-12z"/>
<path d="M2800 910 c-12 -7 -10 -9 8 -7 12 0 22 5 22 9 0 11 -12 10 -30 -2z"/>
<path d="M3743 908 c1 -8 -7 -12 -23 -10 l-25 2 25 -14 c18 -11 27 -11 32 -3
11 17 10 37 -2 37 -5 0 -9 -6 -7 -12z"/>
<path d="M7960 914 c0 -3 7 -12 15 -20 16 -17 18 -14 9 10 -6 15 -24 23 -24
10z"/>
<path d="M8350 910 c0 -5 5 -10 11 -10 5 0 7 5 4 10 -3 6 -8 10 -11 10 -2 0
-4 -4 -4 -10z"/>
<path d="M2575 900 c-3 -5 -1 -10 4 -10 6 0 11 5 11 10 0 6 -2 10 -4 10 -3 0
-8 -4 -11 -10z"/>
<path d="M6538 903 c7 -3 16 -2 19 1 4 3 -2 6 -13 5 -11 0 -14 -3 -6 -6z"/>
<path d="M2370 892 c0 -10 68 -32 98 -32 11 0 24 -4 27 -10 3 -5 14 -10 23
-10 14 0 12 4 -7 19 -13 10 -33 16 -47 13 -13 -2 -24 0 -24 6 0 6 -8 8 -19 5
-10 -3 -22 0 -25 6 -8 13 -26 15 -26 3z"/>
<path d="M2865 890 c-3 -5 -1 -10 4 -10 6 0 11 5 11 10 0 6 -2 10 -4 10 -3 0
-8 -4 -11 -10z"/>
<path d="M3784 889 c-3 -5 7 -9 22 -9 15 0 24 3 20 7 -11 11 -35 12 -42 2z"/>
<path d="M8072 884 c-7 -8 -8 -14 -3 -14 10 0 25 19 20 25 -2 1 -10 -3 -17
-11z"/>
<path d="M1774 876 c-3 -8 -1 -22 4 -32 7 -13 9 -10 8 15 -1 34 -4 38 -12 17z"/>
<path d="M2505 880 c-3 -5 -2 -10 4 -10 5 0 13 5 16 10 3 6 2 10 -4 10 -5 0
-13 -4 -16 -10z"/>
<path d="M2260 869 c-11 -8 -12 -12 -2 -16 17 -7 15 -24 -3 -17 -22 9 -18 -9
5 -23 16 -11 18 -10 13 4 -4 10 -2 14 5 9 6 -3 13 -2 17 4 3 5 2 10 -4 10 -5
0 -11 9 -13 20 -2 15 -6 17 -18 9z"/>
<path d="M2300 869 c0 -5 5 -7 10 -4 6 3 10 8 10 11 0 2 -4 4 -10 4 -5 0 -10
-5 -10 -11z"/>
<path d="M8200 865 c0 -8 8 -15 18 -14 10 0 12 3 4 6 -6 2 -10 9 -6 14 3 5 0
9 -5 9 -6 0 -11 -7 -11 -15z"/>
<path d="M4545 860 c-3 -5 -1 -10 4 -10 6 0 11 5 11 10 0 6 -2 10 -4 10 -3 0
-8 -4 -11 -10z"/>
<path d="M2160 825 c0 -8 7 -15 15 -15 8 0 15 4 15 9 0 5 -7 11 -15 15 -9 3
-15 0 -15 -9z"/>
<path d="M2550 830 c20 -13 33 -13 25 0 -3 6 -14 10 -23 10 -15 0 -15 -2 -2
-10z"/>
<path d="M3715 831 c-3 -5 -1 -12 5 -16 5 -3 10 1 10 9 0 18 -6 21 -15 7z"/>
<path d="M2640 821 c0 -5 7 -11 15 -15 8 -3 15 -1 15 3 0 5 -7 11 -15 15 -8 3
-15 1 -15 -3z"/>
<path d="M3741 814 c0 -11 3 -14 6 -6 3 7 2 16 -1 19 -3 4 -6 -2 -5 -13z"/>
<path d="M4704 819 c1 -6 5 -10 9 -10 4 1 17 1 30 1 17 0 19 2 7 10 -9 5 -19
5 -26 -1 -8 -7 -14 -6 -17 1 -4 7 -5 7 -3 -1z"/>
<path d="M2688 802 c2 -7 11 -11 19 -8 8 3 12 2 9 -3 -3 -5 4 -11 17 -15 31
-8 37 -7 37 5 0 5 -5 7 -11 4 -6 -4 -9 0 -7 10 2 14 -5 18 -33 19 -26 1 -35
-3 -31 -12z"/>
<path d="M3045 810 c-3 -5 1 -10 10 -10 9 0 13 5 10 10 -3 6 -8 10 -10 10 -2
0 -7 -4 -10 -10z"/>
<path d="M3775 810 c-13 -5 -14 -9 -5 -9 8 0 24 4 35 9 13 5 14 9 5 9 -8 0
-24 -4 -35 -9z"/>
<path d="M4780 810 c0 -5 5 -10 10 -10 6 0 10 5 10 10 0 6 -4 10 -10 10 -5 0
-10 -4 -10 -10z"/>
<path d="M8300 800 c-8 -11 -21 -20 -30 -20 -13 0 -13 -1 0 -10 11 -7 19 -5
32 10 9 11 21 20 28 20 6 0 8 5 5 10 -9 15 -19 12 -35 -10z"/>
<path d="M1840 799 c0 -5 5 -7 10 -4 6 3 10 8 10 11 0 2 -4 4 -10 4 -5 0 -10
-5 -10 -11z"/>
<path d="M1650 786 c0 -2 7 -9 15 -16 12 -10 15 -10 15 4 0 9 -7 16 -15 16 -8
0 -15 -2 -15 -4z"/>
<path d="M4828 773 c6 -2 18 -2 25 0 6 3 1 5 -13 5 -14 0 -19 -2 -12 -5z"/>
<path d="M1930 760 c0 -5 5 -10 10 -10 6 0 10 5 10 10 0 6 -4 10 -10 10 -5 0
-10 -4 -10 -10z"/>
<path d="M2286 751 c-4 -5 -15 -8 -26 -6 -11 2 -22 0 -25 -6 -4 -5 7 -9 24 -9
28 0 49 15 38 26 -3 3 -8 1 -11 -5z"/>
<path d="M2204 734 c4 -9 1 -23 -5 -30 -8 -10 -8 -14 0 -14 6 0 12 3 12 8 6
34 5 52 -3 52 -6 0 -7 -7 -4 -16z"/>
<path d="M2145 690 c3 -5 12 -7 20 -3 21 7 19 13 -6 13 -11 0 -18 -4 -14 -10z"/>
</g>
</svg>
