<?xml version="1.0" standalone="no"?>
<!DOCTYPE svg PUBLIC "-//W3C//DTD SVG 20010904//EN"
 "http://www.w3.org/TR/2001/REC-SVG-20010904/DTD/svg10.dtd">
<svg version="1.0" xmlns="http://www.w3.org/2000/svg"
 width="148.000000pt" height="139.000000pt" viewBox="0 0 148.000000 139.000000"
 preserveAspectRatio="xMidYMid meet">

<g transform="translate(0.000000,139.000000) scale(0.100000,-0.100000)"
fill="#000000" stroke="none">
<path d="M643 1252 c-32 -3 -33 -5 -33 -47 0 -29 5 -45 15 -49 8 -3 16 0 16 7
1 7 2 18 3 25 0 7 8 17 16 22 8 5 11 10 5 10 -5 0 -3 4 5 9 27 18 31 0 8 -40
-12 -21 -18 -42 -14 -46 4 -4 9 3 13 15 3 12 9 20 13 17 5 -3 11 -1 15 5 3 5
11 10 16 10 6 0 8 -4 5 -9 -3 -4 7 -6 22 -3 26 5 26 4 9 -15 -9 -11 -14 -23
-10 -28 5 -4 3 -5 -4 -1 -6 3 -15 1 -18 -5 -4 -5 -13 -8 -21 -5 -8 3 -14 0
-14 -6 0 -13 77 -5 92 10 20 20 -38 112 -72 112 -9 0 -20 3 -25 8 -6 4 -25 6
-42 4z"/>
<path d="M545 1221 c-8 -14 16 -61 28 -54 6 4 8 0 4 -10 -3 -10 -2 -17 3 -17
11 0 13 33 4 68 -6 22 -28 30 -39 13z"/>
<path d="M490 1185 c-9 -11 -7 -20 11 -44 36 -49 60 -36 33 18 -19 39 -29 44
-44 26z"/>
<path d="M436 1131 c-17 -19 -17 -20 6 -32 13 -7 28 -19 34 -27 8 -11 12 -12
21 0 9 10 5 21 -16 46 -26 33 -27 33 -45 13z"/>
<path d="M590 1094 c0 -10 -6 -14 -15 -10 -8 3 -15 1 -15 -5 0 -16 31 -23 40
-8 5 7 6 17 4 21 -3 4 2 5 10 2 9 -3 16 -1 16 5 0 6 -9 11 -20 11 -12 0 -20
-7 -20 -16z"/>
<path d="M392 1078 c-19 -19 -14 -36 17 -52 26 -14 30 -14 42 0 10 13 8 19
-16 40 -33 28 -28 27 -43 12z"/>
<path d="M630 1071 c-14 -28 -12 -51 4 -51 22 0 30 19 11 27 -16 5 -16 7 -1
15 18 10 22 28 6 28 -5 0 -14 -9 -20 -19z"/>
<path d="M718 1082 c-32 -6 -19 -29 19 -35 37 -6 53 3 53 31 0 12 -28 13 -72
4z"/>
<path d="M510 1040 c-8 -16 -6 -21 11 -31 17 -9 25 -8 37 5 15 14 14 17 -3 31
-26 19 -32 19 -45 -5z"/>
<path d="M686 1023 c-15 -15 -3 -34 31 -48 41 -17 38 -18 47 13 6 16 3 22 -8
22 -24 0 -30 1 -47 11 -9 4 -19 5 -23 2z"/>
<path d="M354 1005 c-8 -20 3 -32 39 -40 38 -10 36 15 -3 38 -28 17 -31 17
-36 2z"/>
<path d="M1232 1008 c-12 -6 -21 -14 -20 -17 2 -3 10 -23 18 -43 8 -23 21 -38
31 -38 24 0 34 32 13 47 -11 8 -14 20 -10 37 7 28 3 30 -32 14z"/>
<path d="M1289 993 c-15 -41 4 -51 35 -18 28 30 26 45 -5 45 -12 0 -23 -10
-30 -27z"/>
<path d="M585 1001 c-3 -6 -1 -11 4 -11 6 0 11 -4 11 -10 0 -5 -9 -10 -19 -10
-11 0 -22 -4 -25 -9 -3 -4 11 -8 32 -7 37 1 40 6 17 39 -8 12 -15 15 -20 8z"/>
<path d="M464 989 c-8 -13 13 -29 38 -29 26 0 31 18 9 29 -25 14 -38 14 -47 0z"/>
<path d="M1354 962 c-13 -35 2 -53 34 -41 27 10 28 30 4 52 -24 22 -26 22 -38
-11z"/>
<path d="M1151 966 c-9 -10 -7 -21 6 -45 31 -54 67 -29 43 29 -13 32 -31 38
-49 16z"/>
<path d="M665 952 c-9 -9 -5 -22 7 -22 6 0 20 -8 30 -17 21 -19 45 -5 35 20
-5 14 -62 29 -72 19z"/>
<path d="M323 934 c-7 -19 4 -29 38 -38 20 -4 29 -1 33 11 4 9 5 17 4 17 -10
6 -60 26 -64 26 -2 0 -7 -7 -11 -16z"/>
<path d="M572 929 c2 -6 8 -10 13 -10 5 0 11 4 13 10 2 6 -4 11 -13 11 -9 0
-15 -5 -13 -11z"/>
<path d="M1301 917 c-18 -27 1 -44 28 -25 19 14 19 15 2 30 -16 14 -19 13 -30
-5z"/>
<path d="M530 916 c0 -16 28 -42 36 -33 7 6 -18 47 -28 47 -5 0 -8 -6 -8 -14z"/>
<path d="M1084 916 c-18 -14 -18 -15 11 -45 25 -27 31 -29 43 -17 12 12 12 18
-4 45 -21 35 -23 36 -50 17z"/>
<path d="M435 912 c-13 -14 -3 -32 19 -32 33 0 42 27 11 33 -14 2 -27 2 -30
-1z"/>
<path d="M635 909 c-8 -12 -9 -12 32 -32 21 -9 35 -12 39 -6 3 6 4 11 3 13
-24 15 -59 36 -63 36 -3 0 -8 -5 -11 -11z"/>
<path d="M1368 886 c-27 -12 -48 -25 -48 -29 0 -7 89 1 98 8 2 2 2 12 0 23 -3
19 -4 19 -50 -2z"/>
<path d="M502 877 c-10 -11 -9 -17 3 -27 24 -20 45 4 24 26 -14 13 -17 13 -27
1z"/>
<path d="M306 872 c-3 -3 -6 -15 -6 -27 0 -17 8 -24 32 -29 35 -7 33 -8 42 20
5 17 0 22 -28 31 -19 6 -37 8 -40 5z"/>
<path d="M1222 866 c-20 -11 -21 -14 -8 -25 12 -10 17 -9 26 9 15 28 11 31
-18 16z"/>
<path d="M605 861 c-3 -5 7 -19 21 -30 20 -16 30 -18 40 -10 16 13 9 29 -12
29 -8 0 -14 5 -14 10 0 13 -27 13 -35 1z"/>
<path d="M1031 852 c-8 -15 -5 -23 17 -39 48 -35 72 -5 29 35 -28 27 -34 27
-46 4z"/>
<path d="M408 825 c-9 -45 19 -39 35 8 5 12 1 17 -12 17 -12 0 -20 -9 -23 -25z"/>
<path d="M1256 834 c-10 -25 -7 -34 9 -34 9 0 15 9 15 25 0 28 -15 34 -24 9z"/>
<path d="M460 815 c-17 -32 -11 -38 17 -15 18 14 20 20 9 29 -10 8 -16 5 -26
-14z"/>
<path d="M1162 828 c-14 -14 -16 -38 -3 -38 5 0 16 -3 24 -6 22 -8 28 22 8 40
-13 12 -20 13 -29 4z"/>
<path d="M562 818 c-8 -8 -6 -19 10 -40 19 -28 21 -28 39 -12 15 13 16 20 7
31 -20 24 -44 33 -56 21z"/>
<path d="M1322 807 c2 -13 12 -21 28 -23 14 -1 32 -4 40 -6 10 -2 16 6 18 23
3 25 1 26 -43 25 -40 0 -45 -3 -43 -19z"/>
<path d="M988 792 c-7 -26 59 -63 72 -42 7 11 1 21 -18 37 -33 27 -48 29 -54
5z"/>
<path d="M490 764 c-11 -13 -10 -19 11 -39 21 -21 26 -22 43 -10 18 13 18 16
2 40 -19 29 -38 32 -56 9z"/>
<path d="M1111 767 c-16 -16 -13 -44 6 -51 10 -4 24 1 35 12 19 18 19 19 -5
35 -18 12 -27 13 -36 4z"/>
<path d="M1217 773 c-13 -12 -7 -32 13 -43 16 -8 21 -6 31 11 9 17 8 23 -2 30
-17 10 -33 11 -42 2z"/>
<path d="M1310 759 c0 -15 49 -41 66 -35 9 4 14 9 10 13 -12 12 -76 31 -76 22z"/>
<path d="M957 720 c-4 -15 2 -24 23 -35 37 -19 37 -19 50 4 8 17 5 22 -22 35
-40 21 -45 20 -51 -4z"/>
<path d="M1291 717 c-8 -10 -4 -19 19 -35 16 -12 33 -22 39 -22 8 0 26 31 19
34 -2 1 -13 7 -25 14 -15 8 -23 8 -23 1 0 -5 -5 -7 -10 -4 -6 4 -8 11 -5 16 9
14 -1 11 -14 -4z"/>
<path d="M1170 704 c-11 -13 -10 -19 8 -37 21 -21 22 -21 37 -2 19 26 19 35 0
35 -8 0 -15 5 -15 10 0 15 -16 12 -30 -6z"/>
<path d="M1066 684 c-4 -10 -1 -21 6 -26 20 -12 31 -9 24 7 -3 8 -1 14 3 12 5
-1 11 3 13 8 6 18 -39 17 -46 -1z"/>
<path d="M230 671 c0 -5 -2 -16 -5 -23 -9 -22 40 -41 55 -22 10 11 8 18 -11
34 -26 21 -39 25 -39 11z"/>
<path d="M1261 667 c-17 -17 -14 -26 17 -52 19 -17 30 -20 40 -13 19 16 14 32
-17 55 -21 16 -31 19 -40 10z"/>
<path d="M932 636 c-12 -28 -3 -39 39 -50 23 -5 28 -2 33 21 8 30 2 38 -35 47
-21 4 -28 1 -37 -18z"/>
<path d="M1132 651 c-9 -5 -11 -17 -6 -35 7 -29 21 -30 38 -3 13 21 -12 51
-32 38z"/>
<path d="M196 613 c-13 -13 -5 -30 19 -41 25 -12 42 -1 30 18 -9 15 -41 30
-49 23z"/>
<path d="M305 609 c-4 -6 -5 -13 -2 -16 7 -7 27 6 27 18 0 12 -17 12 -25 -2z"/>
<path d="M1040 602 c0 -10 -5 -23 -12 -30 -9 -9 -9 -12 0 -12 6 0 18 14 27 30
14 27 14 30 0 30 -8 0 -15 -8 -15 -18z"/>
<path d="M1216 605 c-3 -8 6 -27 19 -42 23 -27 25 -27 41 -11 17 17 17 18 -1
33 -40 31 -53 35 -59 20z"/>
<path d="M337 589 c-3 -13 -1 -19 6 -16 15 5 22 37 9 37 -5 0 -12 -9 -15 -21z"/>
<path d="M1076 571 c-25 -47 -18 -54 21 -23 19 15 20 19 8 35 -13 18 -14 17
-29 -12z"/>
<path d="M380 571 c0 -28 47 -52 61 -30 13 20 11 39 -3 39 -7 0 -23 3 -35 6
-19 5 -23 2 -23 -15z"/>
<path d="M274 559 c-3 -5 0 -9 7 -9 7 0 21 -7 31 -17 14 -13 18 -13 18 -2 0
17 -48 41 -56 28z"/>
<path d="M1172 558 c-8 -8 -6 -18 9 -40 17 -23 24 -26 40 -17 19 10 19 11 -3
39 -26 33 -30 34 -46 18z"/>
<path d="M176 553 c-3 -4 -6 -15 -6 -25 0 -13 8 -18 31 -18 23 0 30 4 27 16
-3 18 -42 37 -52 27z"/>
<path d="M255 521 c-6 -11 40 -43 49 -34 11 11 6 20 -19 31 -13 6 -27 7 -30 3z"/>
<path d="M357 517 c-5 -15 40 -50 53 -42 19 12 10 33 -19 43 -22 8 -31 7 -34
-1z"/>
<path d="M1106 515 c-18 -14 -18 -16 -2 -40 22 -33 44 -42 62 -24 12 13 11 19
-9 47 -25 36 -25 36 -51 17z"/>
<path d="M188 483 c-11 -3 -18 -14 -18 -28 0 -28 54 -85 81 -85 16 0 19 7 19
44 0 51 -11 64 -35 40 -9 -9 -19 -14 -22 -10 -4 3 -1 12 5 18 24 24 13 32 -30
21z m66 -55 c-8 -27 -12 -33 -19 -27 -7 8 7 49 17 49 5 0 6 -10 2 -22z"/>
<path d="M330 473 c1 -5 10 -19 20 -32 17 -19 23 -21 35 -11 14 11 12 15 -15
31 -34 21 -40 23 -40 12z"/>
<path d="M807 452 c-16 -17 -15 -20 8 -42 23 -22 27 -22 41 -8 15 14 14 18 -1
42 -20 31 -27 32 -48 8z"/>
<path d="M288 410 c-4 -43 11 -52 46 -27 16 12 16 14 -4 40 -29 37 -37 34 -42
-13z"/>
<path d="M747 395 c-17 -24 -17 -24 14 -41 26 -13 33 -14 40 -2 12 19 11 22
-13 45 l-23 21 -18 -23z"/>
<path d="M871 386 c-7 -8 -8 -17 -3 -20 6 -3 15 1 21 8 7 8 8 17 3 20 -6 3
-15 -1 -21 -8z"/>
<path d="M901 356 c-9 -10 -9 -16 -1 -21 17 -10 37 12 24 25 -8 8 -15 6 -23
-4z"/>
<path d="M840 334 c0 -8 5 -12 10 -9 6 4 8 11 5 16 -9 14 -15 11 -15 -7z"/>
<path d="M706 314 c-9 -34 -4 -37 33 -29 35 7 39 21 14 41 -27 20 -40 17 -47
-12z"/>
<path d="M943 321 c-10 -16 -8 -22 13 -41 23 -23 24 -23 45 -4 l21 19 -29 22
c-34 28 -35 28 -50 4z"/>
<path d="M862 309 c2 -7 10 -15 17 -17 8 -3 12 1 9 9 -2 7 -10 15 -17 17 -8 3
-12 -1 -9 -9z"/>
<path d="M800 299 c0 -14 25 -39 39 -39 17 0 13 14 -9 33 -23 20 -30 21 -30 6z"/>
<path d="M907 274 c-7 -7 36 -51 46 -47 4 2 7 8 7 12 0 11 -46 41 -53 35z"/>
<path d="M732 263 c-30 -6 -38 -28 -21 -60 12 -23 56 -53 77 -53 6 0 12 17 15
38 3 28 -1 43 -16 60 -11 12 -23 21 -26 21 -3 -1 -16 -4 -29 -6z"/>
<path d="M870 243 c0 -5 8 -20 18 -35 14 -21 21 -25 30 -16 9 9 7 17 -10 35
-21 23 -38 30 -38 16z"/>
<path d="M820 190 c0 -41 8 -47 40 -30 17 9 17 12 4 40 -22 44 -44 39 -44 -10z"/>
</g>
</svg>
