<?xml version="1.0" standalone="no"?>
<!DOCTYPE svg PUBLIC "-//W3C//DTD SVG 20010904//EN"
 "http://www.w3.org/TR/2001/REC-SVG-20010904/DTD/svg10.dtd">
<svg version="1.0" xmlns="http://www.w3.org/2000/svg"
 width="303.000000pt" height="327.000000pt" viewBox="0 0 303.000000 327.000000"
 preserveAspectRatio="xMidYMid meet">

<g transform="translate(0.000000,327.000000) scale(0.100000,-0.100000)"
fill="#000000" stroke="none">
<path d="M348 3163 c6 -2 18 -2 25 0 6 3 1 5 -13 5 -14 0 -19 -2 -12 -5z"/>
<path d="M2640 3152 c28 -9 42 -52 16 -52 -8 0 -18 -5 -22 -11 -4 -8 0 -9 15
-4 17 5 21 2 22 -19 1 -14 2 -32 3 -38 1 -7 -2 -21 -7 -31 -5 -11 -5 -23 1
-30 12 -14 4 -69 -8 -62 -4 3 -10 -5 -14 -18 l-6 -22 -16 23 c-9 13 -22 21
-30 18 -8 -3 -14 -1 -14 3 0 13 -53 8 -67 -5 -7 -7 -10 -14 -7 -17 3 -3 1 -13
-4 -23 -9 -16 -11 -15 -21 4 -7 12 -21 22 -33 22 -17 0 -18 -2 -8 -15 10 -12
10 -15 0 -15 -7 0 -18 8 -25 17 -11 15 -14 15 -34 -4 -23 -21 -52 -21 -79 0
-16 12 -35 -10 -27 -30 2 -7 1 -12 -3 -11 -15 3 -42 -15 -42 -27 0 -8 -4 -17
-10 -20 -7 -4 -7 3 0 20 6 15 10 28 10 30 0 2 -20 2 -45 -1 -41 -4 -46 -2 -57
21 -12 27 -31 35 -22 10 5 -11 2 -13 -9 -9 -9 3 -22 2 -28 -2 -9 -5 -7 -10 7
-15 18 -7 18 -8 -2 -8 -11 -1 -26 -7 -33 -13 -10 -11 -11 -10 -6 5 4 10 2 17
-4 17 -6 0 -11 -4 -11 -10 0 -5 -7 -10 -15 -10 -8 0 -15 4 -15 8 0 5 -14 8
-30 7 -17 -1 -35 4 -41 11 -7 9 -17 11 -28 5 -9 -5 -26 -7 -38 -5 -13 2 -23 0
-23 -5 0 -5 -12 -6 -27 -2 -16 4 -28 14 -27 22 1 9 -10 14 -28 15 -21 1 -26
-2 -19 -9 20 -20 11 -28 -11 -13 -12 9 -32 16 -43 17 -19 0 -19 1 -1 8 13 5
16 10 9 14 -6 4 -18 1 -25 -7 -12 -12 -18 -12 -39 0 -27 15 -52 19 -29 4 18
-11 8 -23 -13 -14 -9 3 -14 13 -11 22 4 13 2 12 -10 -3 -9 -11 -24 -26 -34
-34 -15 -12 -14 -12 8 -6 14 4 21 4 17 -1 -11 -11 -67 -14 -67 -3 0 6 -8 5
-19 -1 -26 -13 -121 -13 -121 1 0 5 4 8 9 5 5 -4 7 3 4 14 -6 22 -18 26 -28 9
-5 -7 -16 -2 -33 13 -14 13 -22 17 -18 10 4 -6 1 -19 -8 -27 -19 -20 -26 -19
-26 3 -1 15 -2 15 -15 -2 -13 -17 -20 -18 -60 -9 -24 5 -42 7 -40 3 3 -4 -14
-4 -37 2 -43 9 -90 3 -120 -16 -13 -8 -23 -8 -38 2 -11 6 -31 12 -44 12 -13 0
-27 6 -29 13 -3 7 -6 6 -6 -5 -1 -26 -16 -29 -50 -12 -35 17 -41 29 -11 21 11
-3 20 -2 20 3 0 12 -43 20 -55 10 -6 -5 -22 -6 -36 -3 -21 6 -22 4 -11 -9 10
-13 10 -18 1 -24 -7 -4 -9 -3 -5 4 3 6 1 14 -5 18 -19 11 -69 13 -69 2 0 -6
-6 -5 -15 2 -11 10 -17 9 -29 -3 -8 -8 -12 -17 -9 -21 4 -3 -5 -6 -18 -6 -16
0 -20 3 -11 8 19 13 -25 29 -71 27 -25 -1 -41 3 -44 12 -8 20 -20 16 -26 -9
-5 -18 -8 -19 -21 -8 -11 8 -16 9 -16 1 0 -16 -23 -9 -38 11 -11 15 -10 22 5
43 10 13 21 25 26 25 4 0 7 5 7 10 0 7 -7 7 -17 2 -18 -8 -82 -7 -91 3 -2 2 1
24 7 49 6 25 11 61 11 80 0 48 -33 51 -49 5 -16 -46 -14 -70 4 -39 l14 25 1
-31 c0 -66 -12 -124 -28 -124 -12 0 -14 10 -10 50 4 38 2 50 -8 50 -8 0 -14 3
-14 8 0 4 -9 13 -21 20 -26 16 -44 4 -64 -44 -7 -18 -25 -40 -39 -49 -40 -26
-36 -76 8 -110 19 -15 36 -36 38 -47 5 -36 32 -44 64 -19 31 25 37 20 48 -42
7 -37 41 -71 67 -65 9 2 13 -18 14 -77 2 -103 16 -267 23 -261 2 3 6 20 8 38
6 46 18 53 39 22 20 -31 26 -82 11 -88 -6 -2 -4 -5 4 -5 8 -1 21 8 28 19 7 12
17 18 22 15 4 -3 18 7 29 21 l21 27 0 -27 c0 -15 -4 -25 -10 -21 -6 3 -7 -1
-4 -9 3 -9 10 -13 15 -10 5 3 9 1 9 -5 0 -17 -18 -22 -24 -6 -5 14 -10 13 -43
-4 -21 -10 -42 -19 -48 -20 -5 -1 -10 -15 -10 -31 0 -17 -4 -29 -10 -27 -18 6
-35 51 -30 77 4 19 3 21 -4 10 -13 -19 -11 -191 2 -207 6 -9 5 -23 -3 -42 -6
-16 -11 -47 -9 -68 1 -21 -1 -51 -5 -66 -6 -19 -4 -32 3 -40 10 -9 11 -6 6 14
-4 16 -2 30 4 33 6 4 11 15 11 26 0 10 7 21 16 24 9 3 14 11 12 18 -2 6 6 22
19 36 13 14 23 29 23 33 0 17 -19 9 -39 -17 -16 -21 -20 -22 -20 -7 0 10 -2
52 -5 93 -5 66 -4 72 8 51 10 -18 15 -20 19 -10 3 9 8 10 14 4 18 -23 55 -37
66 -26 8 8 2 14 -20 23 -25 9 -32 19 -35 45 -3 23 0 32 8 29 6 -2 19 5 28 16
16 19 19 19 36 3 19 -17 54 -18 48 -1 -2 5 8 13 22 18 20 7 22 11 10 18 -8 5
-15 14 -15 19 0 6 -9 17 -20 25 -19 15 -19 15 -1 16 11 0 16 3 13 7 -4 3 -1
16 7 28 13 20 13 22 -2 21 -12 -1 -16 5 -14 19 6 29 22 35 53 20 26 -14 27
-13 21 7 -4 17 -2 20 11 15 22 -8 22 1 0 25 -9 10 -11 18 -6 18 6 0 13 -7 17
-15 3 -8 12 -12 21 -9 11 4 14 2 9 -9 -4 -12 -1 -14 15 -10 23 6 28 19 9 25
-7 3 -6 7 5 11 11 4 17 1 17 -7 0 -7 7 -19 15 -26 13 -11 14 -10 10 2 -5 12 0
14 22 10 15 -3 22 -7 16 -9 -20 -7 -15 -22 5 -18 9 2 20 4 23 4 4 1 9 10 12
21 3 13 13 20 29 20 17 0 19 -3 9 -9 -19 -12 0 -20 24 -10 11 4 14 8 7 8 -7 1
-10 6 -7 12 4 6 9 8 12 5 3 -2 17 0 32 5 23 8 24 8 9 -5 -25 -19 -22 -26 11
-26 17 0 33 -4 36 -10 3 -5 11 -10 16 -10 6 0 7 5 4 10 -3 6 -2 10 4 10 5 0
13 -4 16 -10 3 -5 10 -10 16 -10 15 0 10 22 -8 36 -17 12 -17 13 2 10 11 -2
23 4 27 13 6 14 7 14 7 -1 1 -27 20 -21 27 8 5 18 9 22 14 13 5 -7 6 -19 3
-28 -4 -14 -3 -14 5 -1 6 8 8 18 5 23 -3 5 5 4 17 -3 15 -8 20 -8 16 -1 -4 6
-3 11 3 11 5 0 12 -4 15 -9 9 -14 56 -20 56 -7 1 6 10 0 20 -13 13 -15 20 -18
20 -9 0 8 -5 19 -10 24 -7 7 -6 11 5 11 8 0 15 -4 15 -9 0 -11 38 -10 45 2 3
6 11 10 18 10 6 0 0 -8 -13 -17 -14 -10 -28 -17 -32 -15 -5 1 -8 -5 -8 -14 0
-14 3 -14 15 -4 8 7 15 9 15 6 0 -4 11 5 25 20 14 15 25 22 25 15 0 -6 5 -11
11 -11 5 0 8 4 5 8 -2 4 4 9 15 9 17 2 18 -1 8 -13 -10 -12 -9 -17 1 -27 9 -8
11 -8 7 -1 -4 7 0 15 9 18 8 3 12 2 9 -4 -8 -13 -2 -13 29 3 14 8 23 17 19 20
-3 4 8 7 27 7 29 0 31 -2 19 -17 -13 -15 -12 -16 6 -8 31 13 87 12 118 -3 16
-7 35 -11 43 -8 7 3 16 1 20 -5 3 -6 13 -8 21 -5 9 4 21 1 29 -5 9 -7 18 -7
33 1 12 6 21 7 21 3 0 -4 5 -1 10 7 5 8 10 11 10 5 0 -5 20 -11 44 -12 38 -1
44 1 39 15 -4 13 -3 14 5 3 6 -8 18 -11 30 -7 12 4 30 2 41 -3 11 -6 22 -7 25
-3 5 9 60 8 111 -2 30 -6 30 -6 6 8 -22 12 -20 13 32 13 31 0 54 -3 52 -7 -3
-4 5 -16 18 -26 12 -10 16 -12 10 -4 -18 19 -16 31 3 23 9 -3 19 -1 23 4 3 5
20 13 38 16 26 5 31 3 26 -8 -5 -15 10 -20 55 -16 25 2 30 -14 6 -23 -8 -3
-12 -10 -9 -16 3 -5 1 -10 -5 -10 -7 0 -14 9 -17 20 -7 25 -8 25 -32 1 -14
-14 -16 -22 -8 -30 8 -8 8 -11 -1 -11 -7 0 -12 -4 -12 -10 0 -14 27 -12 33 3
4 10 7 10 18 0 16 -15 33 -17 24 -3 -3 6 -4 10 0 10 3 0 11 -12 17 -27 l12
-28 4 28 c2 15 8 27 13 27 5 0 9 5 9 11 0 6 -9 9 -20 6 -11 -3 -20 -1 -20 4 0
5 12 9 26 9 24 0 25 2 13 18 -13 16 -13 16 6 2 11 -8 26 -20 33 -27 7 -7 19
-10 27 -7 8 4 15 2 16 -2 0 -5 2 -25 4 -44 2 -19 -1 -40 -6 -46 -6 -8 -6 -14
0 -18 5 -3 12 0 15 6 4 7 4 3 2 -9 -2 -12 -1 -22 3 -21 25 3 33 -3 22 -16 -10
-11 -8 -16 9 -21 15 -5 19 -10 12 -17 -6 -6 -8 -17 -5 -24 3 -8 -1 -14 -8 -14
-10 -1 -8 -4 3 -11 13 -7 16 -18 12 -38 -8 -38 19 -49 35 -15 8 19 8 24 -3 24
-9 0 -12 12 -9 43 2 23 5 53 6 67 1 14 -2 28 -7 31 -10 8 0 29 14 29 5 0 9 -8
9 -17 0 -34 18 -89 24 -73 12 32 18 92 12 123 -6 30 -10 33 -35 29 -15 -2 -30
1 -34 6 -4 6 3 8 16 5 19 -5 21 -3 11 8 -15 15 -18 63 -3 54 5 -3 7 0 4 8 -3
9 3 16 16 20 17 4 20 2 15 -11 -13 -34 -17 -72 -8 -72 10 0 31 102 36 170 2
30 6 35 30 38 32 4 57 52 57 109 0 46 26 56 52 20 29 -40 63 -36 78 9 7 20 22
40 35 46 56 25 53 83 -4 113 -19 9 -32 26 -36 45 -7 32 -34 53 -52 42 -5 -4
-15 -17 -22 -29 -18 -35 -48 -29 -56 10 -13 65 -16 69 -40 63 -19 -5 -24 -2
-27 16 -2 18 -10 23 -33 25 -28 2 -28 1 -5 -5z m100 -204 c-8 -35 -19 -25 -24
24 -1 13 -6 30 -10 37 -5 7 -3 18 3 24 6 6 11 20 12 32 1 11 7 -3 14 -32 7
-31 10 -66 5 -85z m-2591 85 c-2 -36 -16 -94 -18 -70 0 9 -5 17 -11 17 -13 0
-13 21 0 54 13 34 30 33 29 -1z m2717 -8 c7 -19 14 -51 13 -72 0 -21 -3 -31
-6 -23 -15 45 -15 46 -23 25 -5 -14 -9 0 -11 43 -4 69 5 79 27 27z m-2776 -66
c0 -5 -10 -9 -21 -9 -18 0 -19 2 -9 15 12 15 30 12 30 -6z m190 -10 c0 -11 -4
-17 -10 -14 -5 3 -10 13 -10 21 0 8 5 14 10 14 6 0 10 -9 10 -21z m2648 9 c17
-17 15 -25 -7 -31 -14 -3 -20 2 -24 19 -5 26 11 32 31 12z m-2616 -75 c-6 -3
-9 -10 -6 -15 4 -7 2 -8 -5 -4 -9 6 -9 11 0 22 6 8 15 12 18 8 3 -4 0 -9 -7
-11z m323 -23 c3 -5 -1 -10 -10 -10 -9 0 -13 5 -10 10 3 6 8 10 10 10 2 0 7
-4 10 -10z m-123 -32 c-7 -7 -12 -8 -12 -2 0 14 12 26 19 19 2 -3 -1 -11 -7
-17z m58 18 c0 -3 -4 -8 -10 -11 -5 -3 -10 -1 -10 4 0 6 5 11 10 11 6 0 10 -2
10 -4z m1600 -32 c0 -8 -19 -13 -24 -6 -3 5 1 9 9 9 8 0 15 -2 15 -3z m215
-14 c3 -5 1 -10 -4 -10 -6 0 -11 5 -11 10 0 6 2 10 4 10 3 0 8 -4 11 -10z
m-1622 -47 c-13 -2 -33 -2 -45 0 -13 2 -3 4 22 4 25 0 35 -2 23 -4z m930 0
c-7 -2 -21 -2 -30 0 -10 3 -4 5 12 5 17 0 24 -2 18 -5z m-623 -133 c0 -5 -5
-10 -11 -10 -5 0 -7 5 -4 10 3 6 8 10 11 10 2 0 4 -4 4 -10z m51 -3 c-7 -7
-14 -8 -21 -1 -6 6 -2 10 12 11 16 2 18 -1 9 -10z m77 -19 c-6 -18 -25 -21
-31 -5 -3 8 3 13 15 14 10 1 18 -3 16 -9z m777 2 c11 -17 -5 -32 -21 -19 -7 6
-11 15 -8 20 7 12 21 11 29 -1z m115 -4 c0 -2 -7 -7 -16 -10 -8 -3 -12 -2 -9
4 6 10 25 14 25 6z m-1240 -26 c0 -5 -2 -10 -4 -10 -3 0 -8 5 -11 10 -3 6 -1
10 4 10 6 0 11 -4 11 -10z m-422 -67 c-6 -7 -14 -13 -18 -13 -4 0 -10 6 -13
13 -3 7 4 12 18 12 18 0 21 -3 13 -12z m69 -48 c6 -20 7 -35 2 -35 -5 0 -9 6
-9 14 0 17 -32 11 -67 -12 -21 -13 -23 -13 -23 2 0 9 7 16 15 16 8 0 15 5 15
11 0 5 4 8 9 5 5 -4 17 -3 27 1 16 6 16 7 -2 20 -17 12 -17 13 2 13 15 0 24
-10 31 -35z"/>
<path d="M1530 2930 c-9 -6 -10 -10 -3 -10 6 0 15 5 18 10 8 12 4 12 -15 0z"/>
<path d="M1600 2922 c0 -5 6 -15 14 -21 12 -10 14 -9 12 5 -3 19 -26 33 -26
16z"/>
<path d="M2420 2920 c-13 -8 -12 -10 3 -10 9 0 17 5 17 10 0 12 -1 12 -20 0z"/>
<path d="M2136 2907 c3 -10 9 -15 12 -12 3 3 0 11 -7 18 -10 9 -11 8 -5 -6z"/>
<path d="M2026 2885 c4 -8 12 -15 20 -15 20 0 17 7 -6 20 -16 9 -18 8 -14 -5z"/>
<path d="M1960 2886 c0 -2 7 -7 16 -10 8 -3 12 -2 9 4 -6 10 -25 14 -25 6z"/>
<path d="M2136 2865 c4 -8 8 -15 10 -15 2 0 4 7 4 15 0 8 -4 15 -10 15 -5 0
-7 -7 -4 -15z"/>
<path d="M1465 2561 c-3 -5 -1 -12 5 -16 5 -3 10 1 10 9 0 18 -6 21 -15 7z"/>
<path d="M2244 2529 c-3 -6 1 -18 10 -27 15 -15 16 -14 16 11 0 27 -13 36 -26
16z"/>
<path d="M1790 2480 c15 -14 26 -18 28 -10 5 14 3 16 -28 24 l-25 7 25 -21z"/>
<path d="M1845 2490 c3 -5 8 -10 11 -10 2 0 4 5 4 10 0 6 -5 10 -11 10 -5 0
-7 -4 -4 -10z"/>
<path d="M801 2436 c-14 -14 -29 -22 -38 -19 -12 5 -14 1 -8 -18 4 -13 11 -31
16 -39 7 -12 8 -10 9 8 0 12 5 22 10 22 6 0 10 8 10 17 0 9 7 25 17 35 24 27
10 22 -16 -6z"/>
<path d="M2475 2450 c3 -5 8 -10 11 -10 2 0 4 5 4 10 0 6 -5 10 -11 10 -5 0
-7 -4 -4 -10z"/>
<path d="M2427 2415 c-7 -18 9 -30 16 -13 4 10 8 9 16 -2 5 -8 13 -12 16 -8 7
6 -22 38 -35 38 -4 0 -10 -7 -13 -15z"/>
<path d="M560 2400 c0 -5 5 -10 11 -10 5 0 7 5 4 10 -3 6 -8 10 -11 10 -2 0
-4 -4 -4 -10z"/>
<path d="M2493 2313 c4 -3 -1 -12 -11 -19 -18 -14 -5 -18 22 -8 16 6 11 34 -7
34 -6 0 -7 -3 -4 -7z"/>
<path d="M700 2302 c0 -5 7 -9 15 -9 8 0 12 4 9 9 -3 4 -9 8 -15 8 -5 0 -9 -4
-9 -8z"/>
<path d="M680 2271 c0 -6 4 -13 10 -16 6 -3 7 1 4 9 -7 18 -14 21 -14 7z"/>
<path d="M2480 2251 c0 -6 5 -13 10 -16 6 -3 10 1 10 9 0 9 -4 16 -10 16 -5 0
-10 -4 -10 -9z"/>
<path d="M495 2190 c3 -5 17 -10 31 -10 14 0 22 4 19 10 -3 6 -17 10 -31 10
-14 0 -22 -4 -19 -10z"/>
<path d="M2615 2190 c-3 -5 -1 -10 4 -10 6 0 11 5 11 10 0 6 -2 10 -4 10 -3 0
-8 -4 -11 -10z"/>
<path d="M2455 2170 c-3 -5 -1 -10 4 -10 6 0 11 5 11 10 0 6 -2 10 -4 10 -3 0
-8 -4 -11 -10z"/>
<path d="M550 2160 c-9 -6 -10 -10 -3 -10 6 0 15 5 18 10 8 12 4 12 -15 0z"/>
<path d="M2615 2150 c5 -16 2 -20 -14 -20 -14 0 -19 -5 -15 -15 4 -9 0 -15
-10 -15 -9 0 -16 -8 -16 -19 0 -11 -4 -23 -10 -26 -5 -3 -10 -16 -10 -28 0
-16 3 -18 9 -8 5 8 11 9 15 3 9 -15 44 -11 50 5 4 10 -1 12 -18 7 -13 -3 -27
-1 -30 4 -3 6 7 13 23 17 17 3 32 14 34 23 3 9 5 -6 6 -35 0 -28 -3 -54 -9
-58 -5 -3 -7 -11 -4 -18 3 -8 0 -24 -5 -38 l-10 -24 -2 25 c-1 14 -5 0 -9 -30
-8 -62 -6 -70 15 -49 13 13 30 90 42 195 5 46 -12 124 -28 124 -6 0 -8 -9 -4
-20z m-5 -70 c0 -5 -4 -10 -10 -10 -5 0 -10 5 -10 10 0 6 5 10 10 10 6 0 10
-4 10 -10z"/>
<path d="M473 2121 c1 -15 4 -17 14 -9 7 5 20 8 28 4 8 -3 15 -2 15 3 0 8 -32
20 -52 21 -4 0 -6 -9 -5 -19z"/>
<path d="M2493 1996 c-13 -12 -23 -26 -23 -31 0 -4 10 1 23 13 13 12 27 19 30
15 4 -3 7 -1 7 5 0 20 -15 20 -37 -2z"/>
<path d="M2560 1991 c0 -6 4 -13 10 -16 6 -3 7 1 4 9 -7 18 -14 21 -14 7z"/>
<path d="M2357 1944 c-12 -12 -8 -26 7 -21 7 3 19 0 26 -6 9 -9 11 -8 8 8 -3
20 -28 31 -41 19z"/>
<path d="M2285 1930 c11 -5 27 -9 35 -9 9 0 8 4 -5 9 -11 5 -27 9 -35 9 -9 0
-8 -4 5 -9z"/>
<path d="M410 1910 c0 -5 5 -10 10 -10 6 0 10 5 10 10 0 6 -4 10 -10 10 -5 0
-10 -4 -10 -10z"/>
<path d="M325 1835 c0 -38 3 -58 8 -49 11 20 12 93 1 104 -5 5 -9 -19 -9 -55z"/>
<path d="M490 1890 c0 -5 5 -10 11 -10 5 0 7 5 4 10 -3 6 -8 10 -11 10 -2 0
-4 -4 -4 -10z"/>
<path d="M2552 1871 c-11 -7 -11 -9 2 -14 10 -4 16 -1 16 8 0 17 -1 17 -18 6z"/>
<path d="M380 1860 c0 -5 5 -10 10 -10 6 0 10 5 10 10 0 6 -4 10 -10 10 -5 0
-10 -4 -10 -10z"/>
<path d="M2520 1832 c0 -5 7 -9 15 -9 8 0 12 4 9 9 -3 4 -9 8 -15 8 -5 0 -9
-4 -9 -8z"/>
<path d="M2490 1810 c0 -5 5 -10 10 -10 6 0 10 5 10 10 0 6 -4 10 -10 10 -5 0
-10 -4 -10 -10z"/>
<path d="M2608 1809 c6 -7 12 -23 12 -35 0 -13 5 -26 12 -30 8 -5 9 -2 5 10
-4 10 -7 26 -7 36 0 10 -8 21 -17 25 -15 5 -16 4 -5 -6z"/>
<path d="M2530 1805 c0 -18 15 -33 37 -36 12 -2 22 -1 23 4 1 27 -1 29 -15 17
-13 -11 -18 -10 -30 6 -8 10 -14 15 -15 9z"/>
<path d="M2440 1740 c0 -5 5 -10 11 -10 5 0 7 5 4 10 -3 6 -8 10 -11 10 -2 0
-4 -4 -4 -10z"/>
<path d="M365 1720 c-3 -5 -1 -10 4 -10 6 0 11 5 11 10 0 6 -2 10 -4 10 -3 0
-8 -4 -11 -10z"/>
<path d="M2544 1715 c21 -16 32 -13 21 4 -3 6 -14 11 -23 11 -15 -1 -15 -2 2
-15z"/>
<path d="M325 1643 c1 -77 14 -113 16 -47 1 21 3 31 6 22 5 -22 20 -24 20 -3
0 8 -8 17 -18 20 -12 4 -19 19 -22 43 -2 20 -3 5 -2 -35z"/>
<path d="M2619 1698 c0 -13 -2 -63 -4 -111 -2 -49 -9 -95 -15 -102 -16 -20 -3
-40 16 -24 12 10 14 2 14 -47 0 -34 4 -54 9 -49 5 6 5 42 -1 85 -11 91 -12
199 -3 240 4 19 3 30 -4 30 -6 0 -11 -10 -12 -22z"/>
<path d="M2543 1693 c-7 -3 -13 -12 -13 -21 0 -15 2 -15 17 1 18 18 16 27 -4
20z"/>
<path d="M2570 1690 c0 -5 5 -10 10 -10 6 0 10 5 10 10 0 6 -4 10 -10 10 -5 0
-10 -4 -10 -10z"/>
<path d="M2526 1624 c-9 -24 -7 -28 9 -14 17 14 20 30 6 30 -5 0 -12 -7 -15
-16z"/>
<path d="M322 1508 c1 -38 2 -39 5 -10 3 25 8 32 20 28 9 -4 13 -1 11 6 -3 7
-12 14 -21 16 -14 3 -17 -4 -15 -40z"/>
<path d="M2510 1451 c0 -6 -9 -20 -21 -32 -11 -11 -18 -24 -14 -27 4 -4 11 1
16 10 5 9 16 24 24 32 10 9 11 17 5 21 -5 3 -10 1 -10 -4z"/>
<path d="M327 1430 c-4 -16 1 -40 15 -68 18 -38 19 -47 8 -70 -7 -15 -16 -36
-21 -47 -11 -28 -18 -244 -9 -250 5 -3 5 -19 0 -36 -5 -17 -5 -51 -1 -76 6
-28 5 -57 -1 -75 -6 -15 -7 -47 -4 -71 7 -47 7 -62 1 -127 -2 -25 -4 -55 -4
-67 -1 -14 -7 -23 -16 -23 -8 0 -15 -5 -15 -11 0 -5 -4 -8 -9 -5 -12 8 -31
-39 -31 -77 0 -24 3 -28 10 -17 9 13 10 13 11 0 2 -31 -3 -76 -12 -90 -6 -10
-8 -4 -9 23 0 24 -5 37 -13 37 -8 0 -22 9 -32 20 -10 11 -24 20 -31 20 -16 0
-37 -37 -30 -53 3 -9 5 -9 5 1 1 6 7 12 15 12 9 0 13 -13 13 -40 0 -35 -3 -40
-22 -40 -19 0 -21 4 -17 27 l5 27 -41 -33 c-25 -19 -42 -41 -42 -53 0 -11 18
-37 39 -57 21 -20 42 -46 46 -58 8 -29 40 -30 57 -3 22 35 45 25 52 -25 9 -58
47 -88 103 -80 34 4 99 8 383 19 47 2 200 9 340 15 140 7 335 13 433 14 97 1
177 5 177 9 0 4 -22 8 -50 8 -27 0 -50 3 -50 8 0 4 34 6 75 5 41 -1 77 2 80 7
4 6 18 7 32 4 18 -5 24 -3 19 5 -5 7 2 11 18 11 14 0 26 6 26 13 0 7 3 8 8 2
4 -5 17 -11 29 -12 20 -2 21 0 11 23 -7 15 -17 23 -26 19 -12 -4 -13 -3 -2 10
10 12 10 15 -4 15 -9 0 -16 -4 -16 -10 0 -5 -5 -10 -11 -10 -5 0 -7 5 -4 10 3
6 1 10 -4 10 -6 0 -11 8 -12 18 0 13 -2 13 -9 -4 -11 -28 -26 -37 -28 -19 -1
8 -3 22 -4 30 -1 8 -6 15 -11 15 -5 0 -7 -9 -4 -20 4 -16 0 -20 -21 -20 -22 0
-24 -2 -12 -11 11 -7 6 -8 -20 -4 -19 4 -44 16 -56 26 -11 10 -30 19 -43 19
-12 0 -31 5 -42 10 -15 9 -21 7 -25 -5 -4 -9 -13 -14 -20 -11 -18 7 -45 -4
-38 -15 3 -5 -7 -4 -21 1 -34 13 -48 13 -39 -1 4 -8 -1 -9 -15 -4 -12 4 -28 2
-36 -5 -10 -9 -19 -9 -35 0 -18 9 -25 8 -41 -6 -12 -11 -19 -13 -19 -5 0 7 -4
9 -10 6 -6 -3 -7 1 -4 9 4 11 0 16 -11 16 -9 0 -13 -4 -10 -10 11 -17 -10 -11
-33 10 -12 12 -23 16 -27 10 -4 -6 4 -14 17 -19 23 -10 23 -10 -4 -10 -15 -1
-30 3 -33 9 -3 5 -13 10 -22 10 -9 0 -25 7 -35 17 -19 17 -24 8 -8 -17 18 -29
-18 -31 -83 -5 -13 5 -16 3 -12 -8 4 -9 -1 -16 -14 -20 -23 -6 -29 8 -8 16 8
4 9 6 0 6 -6 1 -19 -6 -27 -15 -9 -8 -16 -13 -16 -11 0 2 -18 1 -40 -3 -35 -6
-41 -4 -61 21 -17 23 -25 26 -44 19 -25 -9 -44 -8 -63 3 -21 14 -3 28 19 16
23 -12 38 -4 22 12 -6 6 -21 9 -34 7 -20 -2 -24 -8 -23 -35 2 -41 -6 -42 -28
-3 -15 26 -20 28 -47 20 -45 -13 -56 -21 -40 -31 12 -7 12 -10 0 -21 -11 -10
-14 -10 -18 0 -6 14 -33 16 -33 2 0 -5 -5 -10 -11 -10 -5 0 -8 4 -4 9 11 19
-17 23 -31 5 -14 -18 -15 -18 -32 2 -9 11 -33 24 -52 27 -21 4 -30 4 -21 -2
16 -10 -3 -26 -20 -16 -18 11 -31 57 -19 65 6 4 -3 7 -19 8 -44 1 -52 9 -46
45 3 18 7 44 9 60 1 15 6 30 9 34 4 3 7 15 7 25 0 12 5 17 13 13 6 -4 3 1 -8
10 -16 13 -17 17 -6 24 8 5 28 7 45 5 105 -14 446 -30 435 -20 -2 2 -32 6 -65
9 -93 7 -101 17 -58 74 30 40 23 44 -11 6 -19 -23 -26 -26 -36 -16 -20 20 -34
15 -16 -5 20 -22 22 -38 4 -45 -16 -6 -39 6 -38 19 0 5 -8 9 -19 9 -11 0 -20
3 -20 8 0 4 0 11 0 17 0 5 6 7 14 4 8 -3 17 -1 20 4 6 10 -21 23 -96 43 -27 7
-48 17 -48 21 0 4 6 5 14 2 18 -7 28 9 20 30 -5 14 -10 12 -36 -9 -33 -28 -43
-30 -55 -12 -10 16 -10 87 0 80 11 -7 8 5 -9 40 -16 30 -16 32 6 46 12 8 29
16 36 17 27 4 74 29 79 42 3 10 0 12 -10 9 -8 -4 -18 1 -23 9 -8 14 -12 14
-30 3 -19 -12 -24 -10 -47 11 -31 29 -34 70 -4 70 l20 0 -21 27 c-28 36 -27
148 2 176 10 10 23 15 28 12 6 -3 10 1 10 9 0 21 21 31 30 16 6 -10 15 -6 33
16 27 31 28 45 1 23 -23 -19 -50 -21 -64 -4 -7 8 -19 15 -26 15 -12 0 -13 4
-1 28 8 15 12 32 10 39 -2 7 1 22 7 33 11 20 10 21 -9 15 -16 -5 -22 -1 -27
22 -3 15 -7 32 -8 38 -1 5 -5 -2 -9 -15z m33 -590 c0 -5 -4 -10 -10 -10 -5 0
-10 5 -10 10 0 6 5 10 10 10 6 0 10 -4 10 -10z m-33 -72 c-3 -8 -6 -5 -6 6 -1
11 2 17 5 13 3 -3 4 -12 1 -19z m133 -166 c0 -1 -12 -15 -27 -30 -16 -16 -28
-22 -30 -15 -3 7 -11 9 -20 6 -11 -4 -14 -2 -11 8 3 8 14 14 26 13 12 0 18 4
15 13 -4 9 3 12 21 11 14 -1 26 -4 26 -6z m50 -74 c0 -4 -4 -8 -10 -8 -5 0
-10 7 -10 16 0 8 -4 12 -10 9 -11 -7 -14 8 -3 19 7 7 33 -21 33 -36z m-420
-238 c-8 -5 -17 -7 -19 -4 -3 3 1 9 9 14 8 5 17 7 19 4 3 -3 -1 -9 -9 -14z
m157 -37 c-3 -10 -5 -4 -5 12 0 17 2 24 5 18 2 -7 2 -21 0 -30z m403 -24 c0
-14 -17 -10 -23 5 -4 10 -1 13 9 9 7 -3 14 -9 14 -14z m904 -15 c3 -8 2 -12
-4 -9 -6 3 -10 10 -10 16 0 14 7 11 14 -7z m61 6 c3 -5 -3 -10 -15 -10 -12 0
-18 5 -15 10 3 6 10 10 15 10 5 0 12 -4 15 -10z m-945 -9 c0 -10 -24 -21 -43
-21 -7 0 -3 7 7 15 22 17 36 19 36 6z m75 -1 c3 -5 -1 -10 -10 -10 -9 0 -13 5
-10 10 3 6 8 10 10 10 2 0 7 -4 10 -10z m40 -10 c3 -6 -1 -7 -9 -4 -18 7 -21
14 -7 14 6 0 13 -4 16 -10z m483 -39 c3 -8 0 -11 -6 -7 -13 8 -72 -20 -72 -34
0 -5 12 -11 28 -13 15 -2 3 -5 -26 -6 -29 0 -51 3 -48 8 10 15 -21 20 -40 6
-24 -17 -51 0 -33 21 6 8 18 14 25 14 8 0 14 4 14 10 0 5 12 13 28 16 15 4 35
13 46 20 15 10 23 9 49 -5 17 -9 33 -23 35 -30z m87 18 c-4 -5 2 -9 12 -9 15
0 16 -2 3 -10 -8 -5 -23 -10 -32 -10 -23 0 -19 36 4 37 10 1 16 -2 13 -8z
m-485 -9 c0 -5 -8 -10 -17 -10 -15 0 -16 2 -3 10 19 12 20 12 20 0z m143 1
c46 -11 56 -19 37 -31 -8 -5 -22 -4 -34 3 -25 13 -40 17 -83 21 -18 1 -36 5
-39 9 -10 10 74 8 119 -2z m297 -12 c0 -5 -7 -9 -15 -9 -8 0 -15 7 -15 15 0 9
6 12 15 9 8 -4 15 -10 15 -15z m155 2 c-10 -9 -75 -10 -75 0 0 9 49 17 68 11
7 -3 10 -7 7 -11z m-595 -25 c0 -6 4 -4 10 4 8 12 10 12 16 -3 3 -9 11 -17 18
-17 6 0 20 -7 30 -15 18 -14 17 -15 -25 -15 -28 0 -39 3 -30 9 10 6 10 10 1
16 -7 4 -13 -1 -17 -14 -4 -14 -11 -20 -22 -17 -49 15 -69 17 -75 7 -4 -6 -22
-11 -39 -10 -18 0 -26 3 -19 6 6 2 10 9 6 14 -3 5 -1 9 5 9 5 0 11 -5 13 -11
3 -8 9 -7 19 3 8 8 24 14 36 13 12 -1 25 5 27 12 3 8 1 11 -4 8 -6 -3 -10 -2
-10 4 0 5 14 9 30 9 17 -1 30 -6 30 -12z m684 -11 c4 -12 -3 -15 -31 -15 -38
0 -36 14 2 23 11 3 21 5 21 6 1 0 4 -6 8 -14z m-986 -24 c-2 -18 3 -25 10 -14
6 10 12 10 28 -2 18 -14 17 -14 -13 -15 -18 0 -33 5 -33 10 0 6 -6 10 -14 10
-8 0 -17 4 -20 9 -3 5 5 9 19 9 13 0 24 -3 23 -7z m99 -23 c-35 -7 -42 -5 -32
12 4 6 13 9 21 6 8 -3 14 -1 14 5 0 5 6 4 14 -3 12 -11 9 -14 -17 -20z m-159
-11 c-12 -4 -29 -6 -37 -3 -12 3 -10 6 6 11 13 4 20 12 17 17 -3 5 3 4 15 -4
l21 -13 -22 -8z"/>
<path d="M1150 148 c-13 -8 -12 -9 2 -5 9 3 19 1 21 -6 2 -7 7 -9 11 -6 13 12
-19 28 -34 17z"/>
<path d="M2550 1400 c0 -5 5 -10 10 -10 6 0 10 5 10 10 0 6 -4 10 -10 10 -5 0
-10 -4 -10 -10z"/>
<path d="M405 1380 c3 -5 8 -10 11 -10 2 0 4 5 4 10 0 6 -5 10 -11 10 -5 0 -7
-4 -4 -10z"/>
<path d="M2564 1350 c-1 -17 2 -30 6 -30 4 0 8 -15 9 -32 2 -18 3 -41 4 -50 1
-10 5 -18 10 -18 4 0 6 -4 2 -10 -3 -5 -13 -6 -22 -3 -14 5 -15 1 -10 -25 4
-21 2 -34 -7 -39 -20 -12 -25 -49 -10 -71 12 -17 10 -20 -11 -30 -15 -7 -25
-8 -25 -2 0 6 -4 10 -10 10 -13 0 -13 -37 -1 -45 5 -3 13 0 16 6 4 5 13 8 21
5 9 -3 14 1 15 12 0 12 3 9 10 -8 l10 -25 25 30 c23 29 35 17 15 -14 -7 -10
-5 -18 5 -25 10 -8 12 -22 8 -48 -7 -39 -26 -50 -42 -23 -7 13 -10 12 -20 -9
-7 -17 -17 -24 -27 -20 -8 3 -15 1 -15 -4 0 -6 9 -9 20 -7 14 3 20 -2 20 -16
0 -10 -5 -19 -11 -19 -6 0 -3 -7 6 -16 11 -11 14 -25 10 -45 -6 -26 -4 -29 17
-28 17 1 18 3 6 6 -26 7 -22 18 7 18 17 0 24 -4 20 -14 -4 -10 -2 -11 7 -3 10
8 13 3 13 -21 0 -18 -4 -35 -10 -39 -15 -11 -35 -10 -35 2 0 6 7 10 16 10 8 0
13 4 10 9 -3 4 -17 6 -31 3 -19 -3 -23 -8 -15 -17 5 -6 7 -15 3 -18 -3 -4 -1
-7 5 -7 7 0 12 -5 12 -11 0 -6 -9 -8 -20 -4 -23 7 -28 -13 -5 -21 8 -4 15 -11
15 -17 0 -6 -3 -8 -6 -4 -8 8 -33 -16 -27 -25 2 -5 -3 -8 -11 -8 -9 0 -16 -4
-16 -9 0 -6 -8 -9 -19 -8 -10 0 -18 8 -17 15 1 8 -5 17 -12 19 -8 3 -10 -2 -6
-14 5 -14 4 -15 -4 -4 -14 19 2 49 31 61 l22 9 -22 0 c-13 1 -27 -8 -34 -20
-8 -15 -14 -18 -22 -10 -6 6 -16 11 -21 11 -6 0 -5 -5 2 -12 9 -9 7 -15 -6
-25 -9 -8 -11 -11 -4 -8 8 4 27 -2 43 -14 15 -11 36 -21 46 -22 11 0 13 -3 5
-6 -6 -2 -9 -10 -5 -15 6 -11 -7 -9 -52 7 -15 5 -16 4 -6 -3 11 -8 9 -11 -10
-14 -13 -2 -23 -9 -22 -16 2 -6 -7 -12 -20 -13 -12 0 -44 -1 -71 -2 -30 -2
-54 2 -62 10 -11 11 -22 10 -66 -7 -60 -23 -99 -25 -131 -9 -16 9 -22 9 -25 0
-5 -15 -35 -14 -50 1 -10 10 -15 10 -22 -2 -5 -8 -11 -12 -13 -10 -2 3 -12 16
-22 30 -13 18 -15 20 -10 5 4 -11 8 -26 8 -34 0 -12 35 -13 216 -7 119 3 270
11 335 16 107 9 121 8 138 -7 10 -9 16 -23 13 -30 -3 -9 -1 -11 8 -6 6 4 19 6
28 5 9 -2 19 4 23 13 4 13 1 15 -13 10 -11 -3 -23 0 -27 6 -4 8 -3 9 4 5 7 -4
12 -3 12 2 0 5 11 7 24 5 21 -4 23 -8 15 -40 -4 -20 -3 -47 2 -60 8 -22 7 -24
-13 -18 -14 4 -18 3 -11 -2 19 -13 33 -61 33 -110 0 -39 -2 -44 -15 -33 -8 7
-15 18 -15 24 0 6 5 4 10 -4 8 -13 10 -12 10 3 0 10 -7 20 -15 23 -8 4 -15 10
-15 16 0 5 5 6 11 2 7 -4 7 1 -1 16 l-12 22 -13 -26 c-8 -15 -12 -33 -9 -41 4
-10 -3 -18 -20 -25 -14 -5 -26 -12 -26 -16 0 -3 6 -4 13 -1 8 3 13 -3 13 -15
0 -15 -5 -18 -23 -13 -15 3 -23 1 -23 -7 0 -9 -3 -10 -8 -2 -4 6 -18 10 -32 9
-14 -2 -34 3 -46 10 -14 9 -26 10 -38 3 -22 -12 -31 -5 -22 19 6 15 9 15 17 3
9 -13 10 -13 6 0 -2 8 -10 14 -17 12 -7 -1 -18 5 -25 15 -8 10 -17 14 -22 9
-4 -5 -2 -11 5 -13 6 -3 12 -9 12 -15 0 -6 -7 -7 -16 -4 -8 3 -12 2 -9 -4 3
-6 2 -10 -4 -10 -5 0 -12 5 -14 10 -3 6 -4 5 -3 -2 1 -7 13 -15 27 -18 15 -4
19 -9 12 -13 -12 -8 -40 0 -61 16 -9 7 -9 13 -1 23 7 9 8 14 1 14 -10 0 -26
-29 -24 -42 1 -5 -3 -8 -9 -8 -5 0 -15 13 -20 29 -8 22 -15 28 -31 23 -20 -5
-20 -5 -1 -16 29 -17 23 -41 -10 -39 -30 2 -34 -5 -14 -27 6 -8 2 -7 -9 3 -21
17 -22 17 -27 -1 -6 -26 4 -41 28 -39 14 1 20 -4 18 -18 -1 -20 -1 -20 15 0
15 17 24 19 64 14 26 -4 51 -10 57 -13 5 -4 13 -1 17 6 5 8 10 4 15 -10 5 -12
13 -22 18 -22 6 0 8 7 5 15 -7 17 9 19 37 5 41 -23 21 -35 -53 -33 l-73 1 70
-8 c39 -4 116 -10 173 -13 86 -5 104 -4 109 9 3 8 11 13 19 10 18 -7 36 19 43
62 8 48 38 54 75 17 32 -32 48 -29 60 11 5 16 23 38 40 49 45 29 49 78 7 99
-38 20 -41 20 -41 -4 0 -27 -14 -25 -34 5 -31 47 -13 108 18 63 18 -25 21 -17
6 13 -14 26 -34 24 -66 -6 -17 -16 -34 -23 -46 -19 -13 4 -18 0 -18 -13 -1
-17 -1 -17 -14 -1 -7 10 -16 15 -19 11 -13 -12 -6 12 7 30 11 14 15 15 19 5 3
-7 6 -2 6 12 2 43 -31 95 -59 95 -16 0 -24 5 -22 14 2 7 -3 39 -9 70 -7 31
-11 64 -10 75 1 10 -3 31 -9 47 -10 23 -10 32 0 44 9 10 9 23 2 47 -6 18 -10
47 -10 63 2 128 -5 336 -13 341 -8 5 -6 26 8 77 2 9 0 17 -6 17 -6 0 -11 -10
-11 -22 0 -17 -3 -19 -12 -10 -9 9 -9 18 0 37 10 21 8 28 -12 50 -13 14 -25
25 -27 25 -2 0 -4 -14 -5 -30z m35 -19 c8 -5 9 -11 3 -15 -5 -3 -15 1 -22 9
-14 16 -3 20 19 6z m41 -681 c0 -5 -7 -10 -15 -10 -8 0 -15 5 -15 10 0 6 7 10
15 10 8 0 15 -4 15 -10z m309 -370 c-16 -11 -29 -4 -29 16 0 12 4 13 21 3 17
-9 19 -13 8 -19z m-239 -90 c0 -5 -5 -10 -11 -10 -5 0 -7 5 -4 10 3 6 8 10 11
10 2 0 4 -4 4 -10z"/>
<path d="M2517 1338 c8 -44 18 -54 17 -17 -2 45 -3 49 -14 49 -5 0 -7 -14 -3
-32z"/>
<path d="M2460 1291 c0 -5 7 -15 17 -22 15 -13 15 -12 4 9 -12 23 -21 28 -21
13z"/>
<path d="M2477 1163 c-4 -6 0 -14 8 -17 9 -3 20 -16 25 -28 6 -16 9 -18 9 -7
1 23 -34 65 -42 52z"/>
<path d="M411 1087 c-13 -17 4 -27 42 -27 22 1 22 1 2 12 -11 6 -23 15 -26 20
-3 5 -11 3 -18 -5z"/>
<path d="M365 1069 c-11 -17 1 -21 15 -4 8 9 8 15 2 15 -6 0 -14 -5 -17 -11z"/>
<path d="M2508 1073 c7 -3 16 -2 19 1 4 3 -2 6 -13 5 -11 0 -14 -3 -6 -6z"/>
<path d="M729 993 c-13 -16 -12 -17 4 -4 9 7 17 15 17 17 0 8 -8 3 -21 -13z"/>
<path d="M2469 978 c-3 -31 4 -64 14 -70 13 -8 27 9 27 32 0 13 -1 13 -10 0
-7 -11 -9 -8 -7 14 1 16 -4 31 -10 33 -7 3 -13 -1 -14 -9z"/>
<path d="M2568 983 c7 -3 16 -2 19 1 4 3 -2 6 -13 5 -11 0 -14 -3 -6 -6z"/>
<path d="M361 954 c0 -11 3 -14 6 -6 3 7 2 16 -1 19 -3 4 -6 -2 -5 -13z"/>
<path d="M2596 955 c-3 -8 -1 -15 4 -15 6 0 10 7 10 15 0 8 -2 15 -4 15 -2 0
-6 -7 -10 -15z"/>
<path d="M490 949 c0 -5 5 -7 10 -4 6 3 10 8 10 11 0 2 -4 4 -10 4 -5 0 -10
-5 -10 -11z"/>
<path d="M2342 904 c-8 -9 -11 -23 -7 -32 6 -15 8 -13 16 7 12 31 8 43 -9 25z"/>
<path d="M820 890 c0 -5 5 -10 10 -10 6 0 10 5 10 10 0 6 -4 10 -10 10 -5 0
-10 -4 -10 -10z"/>
<path d="M760 881 c0 -6 9 -15 20 -21 13 -7 20 -7 20 -1 0 6 -9 15 -20 21 -13
7 -20 7 -20 1z"/>
<path d="M816 855 c-11 -31 14 -59 30 -33 5 7 3 8 -6 3 -9 -5 -10 -2 -6 13 8
23 -9 39 -18 17z"/>
<path d="M2525 810 c10 -11 20 -20 22 -20 2 0 -1 9 -7 20 -6 11 -16 20 -22 20
-6 0 -3 -9 7 -20z"/>
<path d="M2365 810 c-3 -5 -2 -10 4 -10 5 0 13 5 16 10 3 6 2 10 -4 10 -5 0
-13 -4 -16 -10z"/>
<path d="M965 780 c-3 -5 -1 -10 4 -10 6 0 11 5 11 10 0 6 -2 10 -4 10 -3 0
-8 -4 -11 -10z"/>
<path d="M915 770 c-3 -5 -1 -10 4 -10 6 0 11 5 11 10 0 6 -2 10 -4 10 -3 0
-8 -4 -11 -10z"/>
<path d="M2495 769 c-10 -15 3 -25 16 -12 7 7 7 13 1 17 -6 3 -14 1 -17 -5z"/>
<path d="M2527 760 c-3 -13 0 -20 9 -20 15 0 19 26 5 34 -5 3 -11 -3 -14 -14z"/>
<path d="M2360 750 c0 -5 5 -10 10 -10 6 0 10 5 10 10 0 6 -4 10 -10 10 -5 0
-10 -4 -10 -10z"/>
<path d="M490 721 c0 -6 4 -13 10 -16 6 -3 7 1 4 9 -7 18 -14 21 -14 7z"/>
<path d="M2220 716 c0 -2 7 -7 16 -10 8 -3 12 -2 9 4 -6 10 -25 14 -25 6z"/>
<path d="M2410 716 c0 -5 60 -36 69 -36 12 1 -42 40 -55 40 -8 0 -14 -2 -14
-4z"/>
<path d="M2540 701 c0 -6 4 -13 10 -16 6 -3 7 1 4 9 -7 18 -14 21 -14 7z"/>
<path d="M2426 675 c-3 -8 -1 -15 4 -15 6 0 10 7 10 15 0 8 -2 15 -4 15 -2 0
-6 -7 -10 -15z"/>
<path d="M700 623 c0 -4 5 -15 10 -23 8 -13 10 -13 10 2 0 9 -4 20 -10 23 -5
3 -10 3 -10 -2z"/>
<path d="M660 566 c0 -2 9 -6 20 -9 11 -3 18 -1 14 4 -5 9 -34 13 -34 5z"/>
<path d="M2300 562 c0 -12 19 -26 26 -19 2 2 -2 10 -11 17 -9 8 -15 8 -15 2z"/>
<path d="M2350 552 c0 -4 9 -8 19 -8 11 0 17 4 15 8 -3 4 -12 8 -20 8 -8 0
-14 -4 -14 -8z"/>
<path d="M2257 528 c9 -10 21 -18 27 -17 6 0 5 3 -2 6 -9 4 -10 8 -2 18 8 10
5 13 -14 11 -23 -1 -23 -2 -9 -18z"/>
<path d="M640 530 c0 -5 5 -10 11 -10 5 0 7 5 4 10 -3 6 -8 10 -11 10 -2 0 -4
-4 -4 -10z"/>
<path d="M760 530 c0 -5 5 -10 11 -10 5 0 7 5 4 10 -3 6 -8 10 -11 10 -2 0 -4
-4 -4 -10z"/>
<path d="M843 483 c15 -2 39 -2 55 0 15 2 2 4 -28 4 -30 0 -43 -2 -27 -4z"/>
<path d="M950 486 c0 -8 71 -12 76 -4 3 4 -13 8 -35 8 -23 0 -41 -2 -41 -4z"/>
<path d="M1050 480 c0 -5 5 -10 11 -10 5 0 7 5 4 10 -3 6 -8 10 -11 10 -2 0
-4 -4 -4 -10z"/>
<path d="M1168 473 c7 -3 16 -2 19 1 4 3 -2 6 -13 5 -11 0 -14 -3 -6 -6z"/>
<path d="M1575 470 c-8 -13 5 -13 25 0 13 8 13 10 -2 10 -9 0 -20 -4 -23 -10z"/>
<path d="M1668 469 c-8 -5 12 -9 50 -9 34 0 62 3 62 8 0 10 -96 11 -112 1z"/>
<path d="M1828 473 c6 -2 18 -2 25 0 6 3 1 5 -13 5 -14 0 -19 -2 -12 -5z"/>
<path d="M2585 469 c-4 -6 -5 -13 -2 -16 7 -7 27 6 27 18 0 12 -17 12 -25 -2z"/>
<path d="M665 270 c3 -5 8 -10 11 -10 2 0 4 5 4 10 0 6 -5 10 -11 10 -5 0 -7
-4 -4 -10z"/>
<path d="M2543 245 c0 -8 4 -12 9 -9 5 3 6 10 3 15 -9 13 -12 11 -12 -6z"/>
<path d="M834 231 c20 -22 26 -25 26 -13 0 4 -10 13 -22 21 -23 14 -23 14 -4
-8z"/>
<path d="M1914 194 c5 -14 4 -15 -9 -4 -21 17 -31 5 -12 -14 8 -9 18 -21 20
-28 4 -10 7 -10 14 -1 7 9 12 8 23 -7 17 -24 33 -25 51 -4 7 8 20 13 30 11 12
-3 18 3 21 23 2 14 -1 27 -6 28 -110 12 -138 11 -132 -4z m36 -15 c0 -6 -4 -7
-10 -4 -5 3 -10 11 -10 16 0 6 5 7 10 4 6 -3 10 -11 10 -16z m40 -39 c0 -5 -4
-10 -10 -10 -5 0 -10 5 -10 10 0 6 5 10 10 10 6 0 10 -4 10 -10z"/>
<path d="M2155 200 c-8 -13 5 -13 25 0 13 8 13 10 -2 10 -9 0 -20 -4 -23 -10z"/>
<path d="M2076 187 c-13 -10 -16 -20 -12 -35 4 -12 12 -20 17 -16 6 3 8 13 4
22 -5 14 -4 14 12 0 27 -25 31 -25 47 -3 8 11 18 17 22 12 4 -4 2 -7 -4 -7 -7
0 -12 -5 -12 -11 0 -8 5 -8 15 1 25 21 17 33 -16 26 -25 -5 -30 -3 -25 9 3 8
1 15 -4 15 -6 0 -10 -6 -10 -12 0 -10 -2 -10 -8 -1 -7 10 -12 10 -26 0z"/>
<path d="M1840 101 c0 -5 26 -9 58 -9 55 1 56 1 17 9 -54 11 -75 11 -75 0z"/>
<path d="M2023 93 c9 -2 25 -2 35 0 9 3 1 5 -18 5 -19 0 -27 -2 -17 -5z"/>
<path d="M2090 88 c0 -4 21 -8 48 -7 52 1 48 6 -10 11 -21 2 -38 0 -38 -4z"/>
<path d="M2201 86 c2 -2 33 -6 69 -9 38 -3 57 -1 45 3 -19 8 -123 14 -114 6z"/>
</g>
</svg>
