<?xml version="1.0" standalone="no"?>
<!DOCTYPE svg PUBLIC "-//W3C//DTD SVG 20010904//EN"
 "http://www.w3.org/TR/2001/REC-SVG-20010904/DTD/svg10.dtd">
<svg version="1.0" xmlns="http://www.w3.org/2000/svg"
 width="294.000000pt" height="291.000000pt" viewBox="0 0 294.000000 291.000000"
 preserveAspectRatio="xMidYMid meet">

<g transform="translate(0.000000,291.000000) scale(0.100000,-0.100000)"
fill="#000000" stroke="none">
<path d="M1240 2899 c0 -7 25 -8 78 -4 42 4 79 9 81 11 2 2 -32 4 -77 4 -52 0
-82 -4 -82 -11z"/>
<path d="M1695 2890 c244 -48 425 -123 569 -235 28 -23 71 -55 96 -72 115 -80
277 -280 354 -438 64 -131 58 -117 90 -220 15 -49 31 -99 36 -110 31 -71 48
-455 20 -455 -14 0 -21 32 -14 65 7 38 -6 51 -36 35 -21 -11 -28 -32 -9 -28
21 5 20 -21 0 -32 -12 -6 -21 -21 -21 -33 0 -13 -4 -27 -9 -32 -18 -19 7 -54
43 -60 19 -4 37 -13 39 -19 9 -22 -14 -107 -26 -103 -7 3 -10 11 -9 18 16 62
14 76 -9 82 -41 11 -49 8 -49 -22 0 -36 -19 -91 -32 -91 -11 0 -1 59 14 77 5
6 10 104 11 217 1 113 5 206 8 206 4 0 12 -7 19 -15 7 -8 16 -13 20 -10 5 3
11 1 15 -4 3 -5 -3 -14 -12 -20 -14 -8 -16 -12 -5 -22 7 -8 15 -9 21 -3 14 13
19 104 9 139 -5 17 -12 58 -17 92 -9 61 -35 112 -57 113 -7 0 -14 7 -18 15
-12 31 -27 15 -21 -22 l6 -38 -20 30 c-32 48 -92 185 -80 185 5 0 18 -13 27
-30 9 -16 20 -30 25 -30 4 0 7 -7 7 -16 0 -9 7 -14 17 -12 9 2 15 6 12 10 -2
4 5 13 15 21 19 14 19 15 -1 59 -29 61 -42 70 -84 58 -44 -13 -49 -13 -49 3 0
6 -15 31 -33 54 -17 23 -43 60 -57 83 -53 87 -278 284 -398 347 -26 14 -51 29
-56 34 -6 5 -16 9 -23 9 -7 0 -36 11 -65 24 -138 61 -271 85 -523 95 -28 2
-29 2 -11 16 10 8 22 12 27 10 4 -3 19 -1 33 5 31 12 35 46 6 55 -21 7 -128
-3 -145 -13 -5 -4 -17 -7 -25 -7 -8 0 -14 -6 -12 -12 1 -7 -3 -13 -8 -13 -5 0
-10 4 -10 9 0 6 -12 6 -31 1 -18 -5 -35 -7 -40 -5 -7 5 -80 -10 -119 -23 -8
-3 -24 -7 -34 -9 -30 -5 -44 -22 -39 -43 6 -21 23 -21 73 -2 14 5 44 12 68 16
77 12 45 -13 -60 -45 -57 -18 -110 -36 -118 -40 -42 -22 -85 -39 -97 -39 -7 0
-13 -4 -13 -10 0 -5 -7 -10 -15 -10 -8 0 -15 -4 -15 -10 0 -5 -5 -10 -11 -10
-6 0 -33 -16 -59 -35 -26 -19 -52 -35 -57 -35 -4 0 -50 -40 -100 -90 -87 -85
-201 -234 -237 -310 -30 -62 -42 -73 -66 -60 -31 17 -19 39 30 53 21 6 66 97
61 124 -4 23 32 64 100 114 38 28 71 60 74 70 4 10 9 18 13 16 4 -1 21 12 38
28 58 59 149 135 161 135 6 0 20 10 30 23 10 12 26 21 36 19 10 -2 25 2 33 8
8 7 29 20 46 30 36 19 56 45 45 57 -9 8 -43 -11 -40 -24 1 -4 -15 -9 -34 -10
-19 -1 -43 -5 -52 -9 -9 -4 -25 -8 -36 -8 -14 -1 -21 -10 -25 -30 -5 -31 -18
-41 -63 -51 -25 -5 -28 -9 -23 -31 9 -33 -32 -54 -68 -35 -36 20 -64 1 -64
-45 0 -44 -15 -62 -36 -45 -22 18 -56 -2 -49 -29 3 -11 9 -23 14 -25 15 -10
-3 -35 -24 -35 -53 0 -225 -258 -252 -379 -3 -17 -11 -33 -16 -36 -5 -4 -9
-19 -9 -36 0 -16 -4 -29 -10 -29 -17 0 -6 75 19 135 79 185 142 304 157 298 8
-3 14 1 14 10 0 25 58 105 125 171 70 69 162 146 176 146 6 0 18 8 29 18 20
18 122 72 235 122 62 28 155 58 238 76 30 7 37 24 10 24 -33 -1 -138 -27 -173
-42 -19 -9 -46 -20 -60 -24 -98 -28 -347 -181 -443 -272 -72 -69 -198 -215
-225 -263 -11 -19 -40 -68 -64 -110 -24 -41 -51 -95 -62 -120 -10 -24 -21 -51
-25 -59 -4 -8 -14 -40 -23 -70 -9 -30 -25 -80 -34 -110 -30 -97 -37 -161 -38
-340 0 -160 5 -221 33 -350 46 -220 161 -448 315 -629 118 -138 271 -256 441
-341 116 -58 257 -110 297 -110 11 0 27 -4 36 -9 43 -22 352 -34 492 -19 224
25 447 115 644 262 182 136 260 221 386 417 57 91 81 140 120 257 44 128 47
140 60 222 7 41 16 95 21 120 14 72 4 355 -15 430 -45 176 -75 263 -123 363
-18 37 -33 70 -33 72 0 9 -115 182 -143 215 -137 161 -338 328 -447 370 -19 7
-47 21 -61 31 -72 50 -288 111 -404 115 l-80 3 100 -19z m-295 -88 c0 -10
-104 -32 -150 -32 -73 0 20 37 98 39 28 0 52 -3 52 -7z m186 -87 c10 -8 27
-15 37 -15 25 0 21 -32 -7 -59 -23 -21 -24 -21 -54 -4 -31 18 -50 61 -37 83 9
14 38 12 61 -5z m-171 -25 c3 -5 1 -10 -4 -10 -6 0 -11 5 -11 10 0 6 2 10 4
10 3 0 8 -4 11 -10z m-235 -40 c0 -5 -4 -10 -10 -10 -5 0 -10 5 -10 10 0 6 5
10 10 10 6 0 10 -4 10 -10z m665 2 c5 -4 17 -7 25 -9 56 -8 80 -15 80 -25 0
-5 7 -8 15 -4 9 3 15 0 15 -9 0 -8 -7 -15 -15 -15 -8 0 -15 -7 -15 -16 0 -11
4 -14 13 -8 16 12 37 11 65 -4 26 -15 29 -39 5 -59 -16 -13 -16 -14 8 -9 20 4
34 -1 58 -24 17 -17 30 -33 28 -38 -1 -4 3 -7 8 -7 6 0 9 5 7 12 -2 7 2 13 9
13 7 0 9 10 5 28 -4 18 -4 22 3 13 5 -7 13 -11 19 -7 19 11 23 -13 7 -38 -9
-13 -18 -37 -21 -52 -3 -16 -10 -34 -15 -40 -7 -8 -6 -14 1 -19 16 -10 13 -45
-4 -39 -22 9 -36 -27 -26 -69 9 -44 5 -46 -22 -12 -16 20 -23 23 -34 14 -8 -6
-14 -16 -14 -22 0 -7 4 -7 12 1 7 7 16 12 20 12 13 0 9 -38 -4 -43 -8 -4 -7
-6 4 -6 9 -1 36 -19 59 -41 46 -43 59 -48 59 -25 0 8 -5 15 -12 15 -6 0 -9 2
-7 5 12 11 49 -9 49 -26 0 -11 7 -22 15 -25 8 -4 15 -12 15 -19 0 -7 9 -24 20
-38 24 -30 25 -43 6 -63 -19 -18 -27 -18 -20 1 4 8 2 15 -3 15 -15 0 -33 -23
-33 -43 0 -13 -5 -17 -15 -13 -9 3 -18 -1 -22 -10 -5 -13 -7 -13 -15 -2 -7 10
-11 9 -23 -6 -15 -19 -15 -19 -35 2 l-21 22 21 0 c11 0 20 5 20 10 0 6 -7 10
-15 10 -8 0 -15 5 -15 11 0 6 -9 24 -21 41 -25 35 -15 53 11 21 18 -23 40 -31
40 -14 0 5 -4 11 -8 13 -5 2 -12 16 -16 31 l-7 28 28 -18 c28 -19 73 -25 73
-11 0 5 -11 13 -24 18 -13 5 -35 20 -48 35 -13 14 -44 36 -68 49 -34 17 -58
43 -96 100 -28 43 -70 97 -93 120 -39 39 -53 80 -31 88 7 2 7 14 1 36 -9 28
-7 32 10 32 11 0 17 -4 14 -10 -9 -15 4 -32 18 -23 6 4 28 6 47 4 l35 -2 -34
28 c-30 25 -32 32 -22 50 14 27 14 33 1 33 -5 0 -9 -4 -7 -9 1 -5 -2 -10 -8
-10 -5 -1 -11 8 -11 19 -2 29 -11 35 -19 11 -9 -29 -34 -30 -81 -5 -31 16 -45
19 -53 11 -8 -8 -14 -8 -23 1 -9 9 -8 15 8 26 19 14 100 20 119 8z m-625 -36
c0 -8 -10 -22 -21 -30 -13 -8 -19 -21 -16 -30 3 -8 -1 -20 -9 -27 -18 -15 -32
-3 -16 13 20 20 14 38 -13 38 -16 0 -25 6 -25 15 0 18 26 20 34 3 4 -9 10 -6
22 10 19 25 44 29 44 8z m45 4 c3 -5 1 -10 -4 -10 -6 0 -11 5 -11 10 0 6 2 10
4 10 3 0 8 -4 11 -10z m501 -37 c-10 -10 -19 5 -10 18 6 11 8 11 12 0 2 -7 1
-15 -2 -18z m-505 -5 c10 -18 9 -20 -5 -15 -9 4 -16 2 -16 -3 0 -6 -4 -10 -10
-10 -14 0 -13 23 2 38 16 16 15 16 29 -10z m439 -4 c0 -8 -5 -14 -10 -14 -17
0 -33 -52 -19 -60 19 -12 -3 -17 -53 -12 -27 2 -48 8 -48 13 0 5 11 7 25 3 14
-3 32 -3 41 0 13 5 14 9 4 21 -16 19 -66 19 -74 0 -8 -22 -25 -18 -19 5 5 20
36 35 52 25 6 -3 13 0 18 7 9 15 64 37 76 31 4 -2 7 -11 7 -19z m398 -3 c3 -8
-1 -12 -9 -9 -7 2 -15 10 -17 17 -3 8 1 12 9 9 7 -2 15 -10 17 -17z m-218 -16
c0 -11 -13 -14 -50 -14 -27 1 -50 5 -50 10 0 12 38 21 60 14 12 -4 20 -2 20 5
0 6 5 8 10 5 6 -3 10 -13 10 -20z m-119 5 c5 0 9 -6 9 -14 0 -11 -9 -13 -35
-9 -28 4 -35 2 -35 -11 0 -9 -4 -16 -10 -16 -17 0 -11 21 13 41 12 10 28 16
35 14 8 -3 18 -5 23 -5z m38 -89 c-15 -5 -22 6 -14 19 6 9 10 9 16 -1 5 -8 4
-15 -2 -18z m-559 -1 c0 -5 -18 -18 -40 -29 -22 -10 -40 -17 -40 -13 0 11 34
42 47 42 7 0 13 5 13 11 0 5 5 7 10 4 6 -3 10 -10 10 -15z m-75 0 c-3 -5 -11
-10 -16 -10 -6 0 -7 5 -4 10 3 6 11 10 16 10 6 0 7 -4 4 -10z m510 -25 c38
-14 80 -33 93 -41 l24 -16 -36 -32 c-34 -32 -35 -34 -24 -72 11 -37 34 -74 47
-74 3 0 7 11 7 25 1 14 -2 25 -7 25 -5 0 -9 6 -9 14 0 8 -5 16 -12 18 -7 3 -9
11 -3 24 8 18 8 18 12 1 3 -12 10 -16 20 -13 8 3 19 6 24 6 5 0 9 7 9 16 0 13
-3 14 -14 5 -8 -7 -17 -8 -20 -3 -3 6 6 17 20 27 26 17 27 17 71 -27 61 -59
100 -137 76 -151 -5 -2 -2 -2 5 -1 11 3 32 -33 32 -56 0 -5 -17 -14 -37 -19
-29 -8 -40 -7 -53 4 -23 21 -27 19 -34 -19 -4 -19 -17 -42 -31 -52 -34 -25
-31 -39 10 -58 39 -19 46 -36 15 -36 -27 0 -25 -23 2 -35 24 -11 56 -60 46
-70 -4 -4 -28 4 -55 17 -32 16 -49 32 -51 46 -4 26 -17 27 -54 8 -22 -12 -27
-12 -32 0 -8 20 -47 27 -81 14 -23 -9 -26 -13 -15 -21 10 -6 5 -7 -16 -3 -24
5 -37 0 -60 -20 -16 -14 -23 -26 -16 -26 6 0 12 -5 12 -10 0 -6 -8 -5 -20 2
-15 10 -19 19 -15 37 4 15 1 28 -7 33 -9 7 -8 8 5 4 21 -7 67 2 67 13 0 3 -16
15 -35 26 -21 11 -34 24 -31 32 3 7 -1 13 -10 13 -13 0 -13 -4 1 -30 16 -30
14 -34 -16 -31 -12 1 -19 -9 -23 -34 -6 -31 -10 -35 -28 -29 -12 3 -31 15 -42
25 -11 11 -28 19 -38 19 -19 0 -24 -15 -8 -23 6 -3 5 -4 -2 -3 -7 2 -13 10
-13 19 0 25 -11 30 -37 16 -12 -7 -36 -12 -51 -11 -38 3 -56 -9 -31 -20 16 -7
15 -8 -5 -4 -24 5 -31 0 -88 -56 -18 -18 -35 -30 -38 -26 -12 12 8 80 31 108
25 29 31 50 14 50 -12 0 -35 36 -45 69 -7 23 -6 24 34 18 47 -6 56 11 17 33
-17 9 -26 23 -28 44 l-3 31 -20 -22 c-11 -13 -22 -23 -26 -23 -3 0 -11 18 -18
40 -8 29 -9 45 -1 60 14 26 23 26 15 -1 -6 -18 -4 -20 14 -14 12 4 21 2 21 -4
0 -6 5 -11 11 -11 7 0 8 11 4 30 -5 21 -2 39 9 55 9 13 16 32 16 42 0 23 53
69 107 93 42 19 62 13 46 -12 -12 -20 -14 -48 -3 -48 6 0 10 4 10 9 0 5 12 16
26 26 20 13 28 14 40 4 11 -9 14 -8 14 9 0 11 -7 22 -15 26 -8 3 -15 10 -15
15 0 16 73 29 175 30 84 1 112 -3 170 -24z m-615 -9 c0 -17 -34 -31 -51 -21
-6 5 -4 12 8 21 24 18 43 18 43 0z m-70 -16 c0 -5 -4 -10 -10 -10 -5 0 -10 5
-10 10 0 6 5 10 10 10 6 0 10 -4 10 -10z m1240 -20 c0 -5 -4 -10 -10 -10 -5 0
-10 5 -10 10 0 6 5 10 10 10 6 0 10 -4 10 -10z m-1395 -52 c-1 -13 -3 -29 -4
-35 -1 -17 -18 -16 -24 1 -6 16 14 67 24 60 3 -2 5 -14 4 -26z m1355 -8 c0 -5
-5 -10 -11 -10 -5 0 -7 5 -4 10 3 6 8 10 11 10 2 0 4 -4 4 -10z m-1247 -15 c7
-16 -8 -29 -23 -20 -15 9 -12 35 4 35 8 0 16 -7 19 -15z m-313 -20 c0 -8 -2
-15 -4 -15 -2 0 -6 7 -10 15 -3 8 -1 15 4 15 6 0 10 -7 10 -15z m-33 -17 c-3
-8 -6 -5 -6 6 -1 11 2 17 5 13 3 -3 4 -12 1 -19z m381 1 c-10 -17 -10 -23 0
-26 14 -6 16 -43 2 -43 -5 0 -10 3 -10 8 0 4 -5 14 -10 22 -8 13 -14 10 -34
-15 -30 -37 -53 -25 -37 19 9 22 15 25 35 20 18 -4 27 -1 36 15 6 12 15 21 20
21 6 0 5 -9 -2 -21z m-328 -30 c0 -18 -2 -20 -15 -9 -13 11 -13 15 -3 21 18
12 18 12 18 -12z m1600 7 c0 -3 -4 -8 -10 -11 -5 -3 -10 -1 -10 4 0 6 5 11 10
11 6 0 10 -2 10 -4z m-1650 -30 c0 -18 -26 -39 -39 -31 -6 3 -4 13 7 25 21 22
32 25 32 6z m48 -58 c4 -35 -20 -53 -47 -36 -29 18 -21 34 15 30 25 -2 26 -1
11 8 -9 6 -15 16 -11 21 10 17 29 4 32 -23z m1769 -23 c8 -9 13 -19 10 -22 -6
-5 -37 21 -37 31 0 10 11 6 27 -9z m-1746 -18 c-1 -12 -15 -9 -19 4 -3 6 1 10
8 8 6 -3 11 -8 11 -12z m1687 -28 c-2 -6 -8 -10 -13 -10 -5 0 -11 4 -13 10 -2
6 4 11 13 11 9 0 15 -5 13 -11z m-1658 -13 c0 -8 -4 -17 -10 -21 -5 -3 -7 -12
-3 -20 3 -8 0 -15 -5 -15 -16 0 -24 18 -12 25 6 4 8 11 5 16 -7 11 3 29 16 29
5 0 9 -6 9 -14z m1710 -7 c0 -5 -7 -9 -15 -9 -15 0 -20 12 -9 23 8 8 24 -1 24
-14z m-420 -5 c0 -8 -5 -12 -10 -9 -6 4 -8 11 -5 16 9 14 15 11 15 -7z m74 0
c11 -28 6 -38 -9 -18 -8 10 -15 22 -15 27 0 13 18 7 24 -9z m446 -14 c0 -4 -9
-10 -19 -13 -13 -3 -21 1 -24 13 -3 13 1 16 19 12 13 -2 24 -8 24 -12z m-1480
-5 c0 -8 -4 -15 -10 -15 -5 0 -10 7 -10 15 0 8 5 15 10 15 6 0 10 -7 10 -15z
m-40 -4 c0 -12 -20 -25 -27 -18 -7 7 6 27 18 27 5 0 9 -4 9 -9z m1330 -6 c7 4
13 -1 17 -14 7 -29 29 -26 50 5 l17 26 18 -24 c24 -31 23 -34 -12 -55 -29 -17
-41 -43 -20 -43 6 0 10 -7 10 -15 0 -8 5 -15 10 -15 6 0 10 -4 10 -10 0 -5 -7
-10 -15 -10 -8 0 -15 5 -15 11 0 6 -11 25 -25 43 -14 18 -25 36 -25 39 0 3
-11 17 -25 31 -14 14 -25 31 -25 38 0 10 2 10 9 -1 5 -7 14 -10 21 -6z m-453
-37 c-3 -8 -6 -5 -6 6 -1 11 2 17 5 13 3 -3 4 -12 1 -19z m98 -72 c-9 -31 -21
-56 -26 -56 -16 0 4 112 25 139 19 24 19 -20 1 -83z m-1420 64 c3 -5 -3 -10
-14 -10 -11 0 -23 5 -26 10 -3 6 3 10 14 10 11 0 23 -4 26 -10z m509 -43 c-5
-13 -9 -12 -25 4 -16 16 -18 23 -8 35 10 12 14 12 25 -5 8 -11 11 -26 8 -34z
m-394 33 c0 -5 -4 -10 -10 -10 -5 0 -10 5 -10 10 0 6 5 10 10 10 6 0 10 -4 10
-10z m1850 0 c0 -5 -7 -10 -16 -10 -8 0 -12 5 -9 10 3 6 10 10 16 10 5 0 9 -4
9 -10z m-2216 -23 c8 -12 7 -22 -2 -37 -6 -11 -12 -30 -12 -42 0 -13 -12 -57
-26 -98 -26 -72 -27 -83 -27 -288 0 -117 -3 -210 -7 -205 -4 4 -12 37 -18 72
-12 68 -19 78 -64 88 -24 5 -28 11 -28 39 0 40 17 45 26 8 9 -36 48 -30 52 8
3 22 0 27 -12 22 -11 -4 -16 -1 -16 10 0 9 6 16 14 16 13 0 23 44 32 135 2 22
6 56 10 76 5 29 3 37 -11 43 -23 8 -23 9 -27 -44 -2 -25 -7 -51 -11 -57 -5 -7
-5 -28 -2 -47 7 -37 -20 -105 -36 -89 -12 12 1 53 18 53 8 0 11 5 8 10 -4 6
-11 7 -17 4 -7 -4 -8 5 -3 27 4 19 9 54 10 79 3 48 44 153 45 114 0 -20 17
-34 41 -34 5 0 9 7 9 15 0 8 -5 15 -11 15 -5 0 -8 4 -4 10 3 5 12 7 20 3 19
-7 21 43 3 51 -10 3 -9 8 2 18 9 7 14 21 12 32 -5 22 17 18 32 -7z m326 -3 c0
-8 -4 -14 -9 -14 -12 0 -32 26 -25 33 10 9 34 -4 34 -19z m1828 -22 c2 -7 -3
-12 -12 -12 -9 0 -16 7 -16 16 0 17 22 14 28 -4z m-1772 -36 c-4 -16 -13 -26
-24 -26 -16 1 -16 2 1 15 14 10 17 20 12 37 -6 18 -5 20 5 11 8 -7 10 -22 6
-37z m1399 26 c0 -18 -20 -15 -23 4 -3 10 1 15 10 12 7 -3 13 -10 13 -16z
m440 -11 c-9 -16 -25 -3 -18 15 4 10 9 12 15 6 6 -6 7 -15 3 -21z m-1995 -6
c0 -3 -9 -5 -20 -5 -11 0 -20 7 -20 15 0 13 4 14 20 5 11 -6 20 -13 20 -15z
m1820 -15 c9 -16 8 -18 -5 -14 -8 4 -15 12 -15 20 0 20 7 17 20 -6z m140 -5
c0 -8 -7 -15 -15 -15 -8 0 -15 7 -15 15 0 8 7 15 15 15 8 0 15 -7 15 -15z
m-1003 -27 c-3 -8 -6 -5 -6 6 -1 11 2 17 5 13 3 -3 4 -12 1 -19z m819 7 c4 -8
15 -15 27 -15 20 0 20 0 1 -21 l-18 -20 -8 20 c-4 12 -12 21 -18 21 -5 0 -10
7 -10 15 0 8 5 15 10 15 6 0 13 -7 16 -15z m-1836 -5 c0 -5 -4 -10 -10 -10 -5
0 -10 5 -10 10 0 6 5 10 10 10 6 0 10 -4 10 -10z m2080 0 c0 -5 -4 -10 -10
-10 -5 0 -10 5 -10 10 0 6 5 10 10 10 6 0 10 -4 10 -10z m-132 -44 c3 -12 -1
-17 -10 -14 -7 3 -15 13 -16 22 -3 12 1 17 10 14 7 -3 15 -13 16 -22z m62 8
c0 -17 -22 -14 -28 4 -2 7 3 12 12 12 9 0 16 -7 16 -16z m-260 -24 c0 -5 -4
-10 -10 -10 -5 0 -10 5 -10 10 0 6 5 10 10 10 6 0 10 -4 10 -10z m188 -16 c16
9 52 -11 52 -29 0 -20 -19 -19 -26 0 -5 12 -10 13 -20 4 -8 -6 -14 -18 -14
-25 0 -25 -15 -15 -31 20 -18 39 -5 69 16 39 7 -9 17 -13 23 -9z m-1968 -5 c0
-5 -7 -9 -15 -9 -15 0 -20 12 -9 23 8 8 24 -1 24 -14z m2065 11 c11 -17 -5
-32 -21 -19 -7 6 -11 15 -8 20 7 12 21 11 29 -1z m275 -25 c-1 -12 -25 -45
-33 -45 -9 0 -19 58 -12 70 7 11 45 -9 45 -25z m-1232 -5 c7 0 12 -14 12 -35
0 -19 4 -35 8 -35 4 0 16 -14 26 -31 10 -16 34 -37 54 -46 21 -8 45 -19 54
-24 21 -10 102 -3 129 12 22 11 58 81 59 112 0 9 5 17 10 17 6 0 10 -9 10 -21
0 -11 12 -36 26 -54 14 -19 23 -39 19 -45 -5 -8 -12 -4 -23 11 l-15 22 -18
-24 c-10 -13 -19 -37 -19 -54 0 -44 -14 -62 -34 -46 -13 11 -14 17 -5 28 19
22 4 25 -35 9 -21 -9 -38 -11 -41 -5 -4 5 -20 9 -36 9 -39 0 -129 39 -129 55
0 15 -40 68 -47 61 -3 -3 4 -18 16 -34 12 -17 21 -37 21 -46 0 -9 7 -33 15
-53 35 -84 12 -143 -56 -143 -32 0 -69 27 -69 50 1 13 3 12 13 -2 21 -27 60
-32 87 -10 l24 19 -18 69 c-24 88 -57 134 -96 134 -26 0 -33 -7 -52 -46 -17
-37 -23 -43 -30 -30 -12 22 -54 20 -86 -3 -26 -18 -103 -37 -129 -32 -16 2
-17 -15 -1 -25 7 -5 5 -11 -7 -21 -24 -17 -43 -17 -61 2 -18 18 -10 35 17 35
10 0 19 3 19 8 0 7 -60 38 -70 35 -3 -1 -6 34 -6 78 -2 67 0 78 12 68 8 -6 14
-29 14 -50 0 -93 117 -124 238 -63 26 13 48 19 50 14 8 -23 41 13 57 62 22 67
33 81 59 74 12 -3 27 -6 34 -6z m-1148 -10 c0 -5 -4 -10 -10 -10 -5 0 -10 5
-10 10 0 6 5 10 10 10 6 0 10 -4 10 -10z m1050 -14 c0 -19 -24 -65 -36 -70 -8
-3 -9 7 -2 36 5 23 11 45 14 50 7 11 24 0 24 -16z m-1064 -34 c-4 -3 -14 2
-24 12 -16 18 -16 18 6 6 13 -6 21 -14 18 -18z m2092 2 c3 3 14 -1 24 -10 14
-14 20 -14 33 -4 12 10 16 9 22 -5 4 -13 -1 -24 -18 -38 -24 -19 -24 -19 -27
1 -5 31 -28 47 -47 32 -12 -10 -18 -8 -34 11 -25 31 -16 45 16 24 14 -9 27
-14 31 -11z m-78 -75 c0 -15 5 -31 10 -34 18 -11 11 -74 -10 -95 -25 -25 -26
-43 -1 -35 32 10 33 -12 2 -34 -20 -14 -32 -18 -36 -11 -4 6 -4 14 -1 17 3 3
2 11 -3 17 -17 21 -30 86 -18 86 7 0 19 11 28 23 14 20 15 30 5 68 -6 24 -15
51 -20 59 -5 8 3 4 17 -9 17 -15 27 -35 27 -52z m367 49 c-3 -8 -6 -5 -6 6 -1
11 2 17 5 13 3 -3 4 -12 1 -19z m-2192 -18 c3 -5 1 -10 -4 -10 -6 0 -11 5 -11
10 0 6 2 10 4 10 3 0 8 -4 11 -10z m57 -32 c-15 -15 -26 -4 -18 18 5 13 9 15
18 6 9 -9 9 -15 0 -24z m98 -8 c0 -11 -7 -20 -15 -20 -27 0 -18 30 13 39 1 1
2 -8 2 -19z m1624 -5 c15 -11 17 -18 9 -26 -16 -16 -43 -3 -43 21 0 24 8 25
34 5z m92 -12 c-10 -10 -19 5 -10 18 6 11 8 11 12 0 2 -7 1 -15 -2 -18z m64 8
c0 -4 -8 -19 -19 -32 -10 -13 -20 -29 -22 -36 -2 -7 -9 -1 -16 12 -10 23 -9
25 13 25 17 0 24 6 24 20 0 11 5 20 10 20 6 0 10 -4 10 -9z m-2118 -48 c-4
-24 -17 -30 -27 -14 -3 5 0 13 7 17 8 5 4 10 -11 16 -12 4 -20 12 -17 17 4 5
16 5 29 -2 17 -8 22 -17 19 -34z m78 32 c11 -13 10 -14 -4 -9 -9 3 -16 10 -16
15 0 13 6 11 20 -6z m1555 5 c3 -5 2 -10 -4 -10 -5 0 -13 5 -16 10 -3 6 -2 10
4 10 5 0 13 -4 16 -10z m-1585 -10 c0 -5 -4 -10 -10 -10 -5 0 -10 5 -10 10 0
6 5 10 10 10 6 0 10 -4 10 -10z m1678 -25 c2 -2 2 -10 0 -19 -2 -12 -8 -10
-25 10 l-23 25 23 -7 c12 -3 24 -8 25 -9z m-724 -60 c-8 -64 4 -85 48 -85 23
0 29 -4 24 -15 -3 -8 -1 -15 5 -15 6 0 24 -14 40 -31 20 -22 33 -28 42 -22 16
12 80 9 85 -5 5 -17 -18 -25 -82 -29 -34 -2 -65 -4 -71 -5 -15 -1 -149 22
-153 27 -2 2 -1 9 3 15 5 8 11 8 21 -1 11 -9 18 -9 26 -1 9 9 9 12 0 12 -7 0
-12 6 -12 14 0 11 10 13 40 9 51 -7 53 10 4 33 -54 26 -59 50 -28 137 11 31
14 18 8 -38z m666 40 c0 -8 -4 -15 -10 -15 -5 0 -7 7 -4 15 4 8 8 15 10 15 2
0 4 -7 4 -15z m460 -14 c0 -12 -20 -25 -27 -18 -7 7 6 27 18 27 5 0 9 -4 9 -9z
m-724 -10 c8 7 14 7 19 -1 9 -14 -3 -30 -23 -30 -26 0 -45 16 -37 30 5 8 10 9
18 1 7 -7 14 -7 23 0z m-516 -11 c0 -5 -4 -10 -10 -10 -5 0 -10 5 -10 10 0 6
5 10 10 10 6 0 10 -4 10 -10z m-470 -15 c23 -12 30 -22 30 -45 0 -21 -5 -30
-17 -31 -17 -1 -17 -2 0 -6 25 -6 42 -53 25 -66 -9 -6 -8 -7 4 -3 10 3 44 -10
78 -29 33 -19 93 -51 132 -72 89 -46 104 -59 81 -67 -14 -6 -15 -9 -2 -21 17
-18 147 -85 163 -85 6 0 25 -12 41 -25 l30 -26 -33 7 c-32 6 -101 41 -187 96
-22 14 -51 28 -65 33 -43 13 -94 39 -112 57 -10 10 -26 18 -36 18 -11 0 -27 9
-37 20 -15 16 -15 22 -5 35 10 12 10 15 -3 15 -8 0 -18 8 -22 18 -6 16 -7 16
-16 0 -11 -19 -39 -14 -39 8 0 7 -8 17 -17 23 -10 5 -15 13 -11 17 4 4 -6 22
-22 40 -18 22 -27 40 -23 50 10 26 -20 11 -34 -17 l-13 -24 0 26 c0 26 21 51
50 62 24 9 29 8 60 -8z m1449 -4 c22 -22 18 -49 -11 -90 -17 -24 -38 -21 -38
6 0 14 -3 14 -20 -2 -24 -21 -26 -40 -5 -31 23 8 18 -4 -10 -26 -13 -10 -32
-35 -41 -54 -12 -24 -25 -37 -45 -41 -15 -3 -36 -13 -46 -22 -18 -17 -84 -51
-100 -51 -4 0 -19 -9 -33 -20 -32 -25 -50 -25 -50 0 0 27 -23 25 -72 -7 l-42
-28 33 -5 c32 -5 32 -6 15 -21 -11 -9 -32 -19 -48 -23 -17 -4 -42 -16 -57 -27
-30 -21 -39 -23 -39 -9 0 15 43 51 56 46 14 -5 40 21 31 31 -6 5 -21 -1 -141
-58 -33 -16 -65 -29 -71 -29 -7 0 -23 -11 -37 -24 -19 -20 -222 -116 -243
-116 -3 0 -16 -10 -30 -22 -19 -17 -22 -24 -13 -35 9 -11 4 -13 -31 -7 -32 5
-46 3 -61 -11 -15 -14 -17 -21 -9 -32 11 -12 9 -14 -7 -12 -4 0 -10 -3 -13 -8
-3 -4 -24 -17 -46 -28 -23 -12 -47 -34 -56 -53 -25 -50 -39 -62 -70 -62 -47 0
-38 34 16 60 52 25 59 51 20 76 -23 15 -28 15 -60 0 -33 -16 -37 -16 -70 0
-46 21 -51 31 -29 55 20 23 68 25 104 4 52 -30 129 -10 325 85 58 27 107 50
111 50 3 0 36 18 73 40 37 22 74 40 83 40 9 0 47 15 84 34 38 18 105 50 149
71 44 21 82 42 85 45 3 4 16 10 30 13 14 3 61 29 105 57 43 27 85 50 91 50 23
0 94 75 94 100 0 23 0 23 14 4 8 -10 18 -16 22 -12 4 5 -1 17 -10 27 -15 16
-16 23 -5 43 27 50 83 64 118 29z m61 -14 c0 -5 -4 -5 -10 -2 -5 3 -10 14 -10
23 0 15 2 15 10 2 5 -8 10 -19 10 -23z m-1187 -14 c-7 -2 -19 -2 -25 0 -7 3
-2 5 12 5 14 0 19 -2 13 -5z m217 -60 c0 -19 -21 -16 -36 5 -20 26 -17 31 11
19 14 -7 25 -18 25 -24z m-1165 -43 c3 -5 1 -10 -4 -10 -6 0 -11 5 -11 10 0 6
2 10 4 10 3 0 8 -4 11 -10z m1420 0 c3 -5 -1 -10 -10 -10 -9 0 -13 5 -10 10 3
6 8 10 10 10 2 0 7 -4 10 -10z m692 -2 c44 -20 77 -54 69 -73 -7 -20 -26 -10
-26 14 0 18 -48 47 -59 36 -3 -4 6 -17 22 -30 31 -27 34 -40 11 -49 -31 -12
-51 -5 -64 22 -8 15 -21 35 -28 44 -33 40 15 62 75 36z m328 2 c3 -5 1 -10 -4
-10 -6 0 -11 5 -11 10 0 6 2 10 4 10 3 0 8 -4 11 -10z m-1975 -30 c-13 -11
-26 -17 -29 -14 -7 6 28 34 42 34 6 0 0 -9 -13 -20z m85 -30 c-7 -31 -31 -50
-62 -50 -32 0 -31 37 2 72 22 24 28 26 46 15 14 -9 18 -19 14 -37z m-300 20
c3 -5 1 -10 -4 -10 -6 0 -11 5 -11 10 0 6 2 10 4 10 3 0 8 -4 11 -10z m-288
-52 c-3 -7 -5 -2 -5 12 0 14 2 19 5 13 2 -7 2 -19 0 -25z m2374 -1 c-13 -13
-26 -3 -16 12 3 6 11 8 17 5 6 -4 6 -10 -1 -17z m-1191 -1 c0 -16 -18 -31 -27
-22 -8 8 5 36 17 36 5 0 10 -6 10 -14z m70 0 c0 -24 -12 -46 -21 -40 -15 9
-10 54 6 54 8 0 15 -6 15 -14z m74 -34 c-20 -31 -44 -3 -29 35 5 15 7 15 23 0
13 -14 14 -21 6 -35z m74 16 c-3 -34 -20 -42 -26 -13 -5 22 5 45 18 45 7 0 10
-14 8 -32z m72 2 c0 -11 -4 -20 -10 -20 -5 0 -10 9 -10 20 0 11 5 20 10 20 6
0 10 -9 10 -20z m-1420 -10 c14 -10 22 -22 18 -25 -7 -8 -57 25 -58 38 0 12
14 8 40 -13z m1500 16 c0 -3 -4 -8 -10 -11 -5 -3 -10 -1 -10 4 0 6 5 11 10 11
6 0 10 -2 10 -4z m-1452 -39 c-1 -2 2 -10 8 -18 6 -8 16 -34 23 -59 35 -122
65 -209 84 -242 20 -37 19 -57 -3 -43 -13 8 -70 129 -70 148 0 7 -4 17 -9 23
-6 5 -14 43 -20 84 -5 41 -13 86 -17 100 -4 14 -4 22 0 18 4 -3 6 -8 4 -11z
m-64 -62 c5 -20 4 -27 -3 -20 -5 6 -13 24 -17 40 -4 20 -3 27 3 20 6 -5 14
-23 17 -40z m1105 -35 c5 0 35 -16 67 -35 32 -19 62 -35 67 -35 4 0 6 -4 3 -9
-6 -10 -211 90 -236 115 -8 8 9 3 38 -11 28 -14 56 -25 61 -25z m1173 8 c-18
-18 -15 -28 9 -28 16 0 20 5 16 20 -3 11 -1 20 4 20 15 0 10 -37 -6 -50 -13
-10 -19 -9 -35 5 -19 17 -19 19 -3 35 10 10 20 16 22 14 3 -3 -1 -10 -7 -16z
m163 2 c3 -5 1 -10 -4 -10 -6 0 -11 5 -11 10 0 6 2 10 4 10 3 0 8 -4 11 -10z
m-35 -37 c0 -13 -3 -13 -15 -3 -8 7 -15 16 -15 21 0 5 7 6 15 3 8 -4 15 -13
15 -21z m151 0 c1 -10 0 -33 -1 -52 -1 -22 2 -31 9 -27 6 4 11 14 11 23 0 9 6
13 15 9 10 -3 18 1 22 12 3 9 15 26 26 36 20 19 20 19 14 -5 -14 -59 -71 -194
-86 -204 -5 -3 -12 -1 -16 5 -4 6 -10 8 -15 5 -5 -3 -12 0 -16 6 -3 6 -1 15 6
19 6 4 10 16 8 26 -4 16 -7 15 -16 -8 -6 -16 -17 -28 -23 -28 -16 0 -5 65 21
125 11 26 20 53 20 61 0 20 20 17 21 -3z m-461 -53 c0 -5 -4 -10 -10 -10 -5 0
-10 5 -10 10 0 6 5 10 10 10 6 0 10 -4 10 -10z m245 0 c3 -5 1 -10 -4 -10 -6
0 -11 5 -11 10 0 6 2 10 4 10 3 0 8 -4 11 -10z m-331 -31 c-11 -23 -19 -28
-27 -20 -8 8 -6 16 9 30 29 29 37 25 18 -10z m366 12 c0 -6 -4 -13 -10 -16 -5
-3 -10 1 -10 9 0 9 5 16 10 16 6 0 10 -4 10 -9z m-302 -29 c4 -25 -13 -30 -22
-6 -9 25 -7 36 7 32 6 -3 13 -14 15 -26z m-698 8 c0 -5 -4 -10 -10 -10 -5 0
-10 5 -10 10 0 6 5 10 10 10 6 0 10 -4 10 -10z m114 -5 c-25 -19 -40 -19 -24
0 7 8 20 15 28 15 13 0 12 -3 -4 -15z m676 -25 c9 0 8 -5 -4 -19 -15 -16 -15
-22 -5 -40 12 -17 10 -23 -10 -44 -25 -28 -61 -26 -61 3 0 10 -4 20 -10 22 -6
2 -6 8 0 18 8 13 11 13 19 1 6 -10 13 -11 27 -2 18 10 18 10 1 11 -11 0 -17 6
-14 13 2 6 11 11 21 9 9 -2 16 2 16 8 0 5 -9 10 -20 10 -11 0 -20 6 -20 13 0
23 13 28 30 12 9 -8 23 -15 30 -15z m-2110 -19 c0 -6 -4 -11 -10 -11 -5 0 -10
4 -10 9 0 5 -3 18 -7 28 -6 17 -6 17 10 1 9 -9 17 -21 17 -27z m45 19 c3 -5 2
-10 -4 -10 -5 0 -13 5 -16 10 -3 6 -2 10 4 10 5 0 13 -4 16 -10z m2235 0 c0
-5 -5 -10 -11 -10 -5 0 -7 5 -4 10 3 6 8 10 11 10 2 0 4 -4 4 -10z m-290 -47
c0 -7 -4 -13 -8 -13 -12 0 -32 23 -32 37 0 11 4 11 20 1 11 -7 20 -18 20 -25z
m-60 7 c0 -5 -4 -10 -9 -10 -6 0 -13 5 -16 10 -3 6 1 10 9 10 9 0 16 -4 16
-10z m-375 -45 c38 -18 93 -41 120 -50 28 -10 59 -27 71 -37 26 -23 43 -23 74
2 50 39 150 16 150 -35 0 -18 -12 -19 -28 -3 -9 9 -16 8 -29 -4 -30 -26 -62
-32 -83 -13 -23 20 -66 11 -73 -16 -5 -20 -7 -20 -38 -4 -18 10 -44 28 -58 41
-22 20 -24 26 -11 34 18 11 15 13 -32 27 -22 6 -38 7 -38 2 0 -5 6 -9 14 -9
17 0 29 -27 15 -35 -5 -4 -33 7 -62 23 -28 17 -82 42 -119 57 -67 27 -87 45
-49 45 11 0 23 -4 26 -10 3 -5 16 -10 28 -9 l22 0 -22 9 c-13 5 -23 15 -23 21
0 18 64 2 145 -36z m-1534 3 c11 -21 11 -22 -4 -9 -10 7 -17 17 -17 22 0 15 9
10 21 -13z m2249 12 c0 -5 -4 -10 -10 -10 -5 0 -10 5 -10 10 0 6 5 10 10 10 6
0 10 -4 10 -10z m-274 -37 c-10 -10 -19 5 -10 18 6 11 8 11 12 0 2 -7 1 -15
-2 -18z m417 11 c3 -3 -19 -44 -49 -90 -30 -47 -54 -87 -54 -91 0 -3 -11 -15
-23 -27 -13 -12 -28 -29 -33 -38 -34 -58 -201 -210 -244 -222 -22 -6 -21 -3
10 21 61 49 234 226 268 276 18 26 44 69 59 95 48 86 51 90 66 76z m-1368 -13
c-6 -5 -21 -12 -35 -16 -24 -7 -24 -7 -5 9 21 16 56 23 40 7z m1435 -27 c0 -4
-10 -23 -22 -42 -14 -24 -23 -31 -26 -21 -3 8 -10 18 -16 22 -7 6 -6 7 4 4 16
-4 40 15 40 32 0 6 5 11 10 11 6 0 10 -3 10 -6z m-430 -21 c-1 -14 -30 -47
-36 -41 -3 4 3 15 13 26 21 23 23 25 23 15z m-1824 -95 c33 -47 77 -106 99
-130 22 -24 49 -54 60 -67 l20 -24 -20 11 c-24 12 -115 107 -115 119 0 4 -13
22 -29 39 -30 32 -91 125 -91 138 0 19 22 -6 76 -86z m1934 62 c0 -5 -2 -10
-4 -10 -3 0 -8 5 -11 10 -3 6 -1 10 4 10 6 0 11 -4 11 -10z m-2036 -85 c3 -8
1 -15 -4 -15 -6 0 -10 7 -10 15 0 8 2 15 4 15 2 0 6 -7 10 -15z m1670 -10 c11
-8 29 -15 40 -15 19 0 19 -1 1 -13 -25 -19 -10 -40 24 -32 32 7 55 -13 45 -39
-8 -20 -33 -21 -40 -1 -5 13 -9 13 -34 0 -35 -18 -48 -19 -33 -4 9 9 6 24 -13
60 -32 65 -30 74 10 44z m561 -50 c-15 -19 -30 -33 -33 -31 -3 3 8 22 23 41
15 20 29 34 32 31 3 -2 -7 -21 -22 -41z m-608 -42 c-3 -10 -5 -4 -5 12 0 17 2
24 5 18 2 -7 2 -21 0 -30z m536 -60 c-3 -7 -11 -13 -18 -13 -7 0 -15 -6 -18
-12 -2 -7 -8 -9 -13 -5 -5 4 -2 12 5 16 7 5 11 13 8 17 -3 5 5 9 18 9 14 0 21
-5 18 -12z m-1928 -104 c22 -20 54 -49 70 -64 26 -22 26 -24 6 -14 -13 6 -38
24 -55 39 -17 16 -40 37 -51 47 -11 10 -27 27 -35 38 -14 19 -14 19 5 5 10 -8
37 -31 60 -51z m101 30 c19 -32 251 -164 349 -199 143 -51 200 -65 329 -79 34
-3 61 -11 64 -19 5 -15 -132 -10 -200 8 -90 24 -205 65 -253 91 -58 31 -108
56 -150 78 -38 18 -98 64 -150 114 -23 23 -31 34 -18 28 12 -6 25 -16 29 -22z
m1730 -29 c-14 -17 -26 -29 -26 -25 0 12 42 66 47 61 3 -3 -6 -19 -21 -36z
m-49 -46 c-3 -3 -12 -4 -19 -1 -8 3 -5 6 6 6 11 1 17 -2 13 -5z m-197 -33 c0
-5 -8 -11 -17 -14 -10 -4 -33 -13 -50 -21 -48 -22 -40 -5 10 20 49 25 57 27
57 15z m115 -12 c-10 -15 -25 -10 -19 6 4 8 10 12 15 9 5 -3 7 -10 4 -15z
m-1537 -35 c18 -8 32 -20 32 -25 0 -5 8 -9 17 -9 9 0 14 -3 10 -6 -9 -9 -40 4
-71 31 -34 29 -31 31 12 9z m1312 -1 c0 -20 -82 -59 -235 -111 -43 -15 -138
-31 -225 -37 -65 -6 -73 -4 -58 7 9 8 65 20 125 27 110 12 211 41 318 91 66
31 75 34 75 23z m-551 -142 c20 -13 -3 -23 -34 -15 -14 3 -25 10 -25 15 0 11
41 11 59 0z m4 -98 c-7 -2 -21 -2 -30 0 -10 3 -4 5 12 5 17 0 24 -2 18 -5z"/>
<path d="M2015 2391 c-3 -5 8 -9 25 -9 16 1 30 5 30 10 0 11 -47 10 -55 -1z"/>
<path d="M2085 2361 c-6 -11 9 -23 19 -14 9 9 7 23 -3 23 -6 0 -12 -4 -16 -9z"/>
<path d="M2028 2343 c-18 -5 -24 -19 -10 -26 11 -6 53 19 45 26 -7 7 -8 7 -35
0z"/>
<path d="M2230 2029 c0 -5 5 -7 10 -4 6 3 10 8 10 11 0 2 -4 4 -10 4 -5 0 -10
-5 -10 -11z"/>
<path d="M2240 2000 c0 -5 5 -10 11 -10 5 0 7 5 4 10 -3 6 -8 10 -11 10 -2 0
-4 -4 -4 -10z"/>
<path d="M2185 1960 c-16 -18 -17 -20 -1 -26 16 -6 45 19 46 39 0 14 -27 7
-45 -13z"/>
<path d="M1470 2440 c0 -5 5 -10 10 -10 6 0 10 5 10 10 0 6 -4 10 -10 10 -5 0
-10 -4 -10 -10z"/>
<path d="M1217 2376 c-10 -8 -14 -16 -10 -19 5 -3 14 3 21 14 14 22 13 23 -11
5z"/>
<path d="M1810 2284 c0 -8 5 -12 10 -9 6 4 8 11 5 16 -9 14 -15 11 -15 -7z"/>
<path d="M1850 2192 c6 -13 14 -21 18 -18 3 4 -2 14 -12 24 -18 16 -18 16 -6
-6z"/>
<path d="M1147 2193 c-12 -11 -8 -23 8 -23 8 0 15 7 15 15 0 16 -12 20 -23 8z"/>
<path d="M1440 2160 c-8 -5 -11 -12 -8 -16 10 -9 38 3 38 16 0 12 -10 13 -30
0z"/>
<path d="M1130 2140 c0 -5 5 -10 10 -10 6 0 10 5 10 10 0 6 -4 10 -10 10 -5 0
-10 -4 -10 -10z"/>
<path d="M1460 2120 c0 -14 37 -31 54 -24 30 12 18 34 -19 34 -19 0 -35 -4
-35 -10z"/>
<path d="M1165 2110 c-3 -5 -1 -10 4 -10 6 0 11 5 11 10 0 6 -2 10 -4 10 -3 0
-8 -4 -11 -10z"/>
<path d="M1177 2029 c21 -36 45 -51 67 -43 25 10 19 23 -19 41 -19 9 -35 20
-35 25 0 4 -7 8 -16 8 -13 0 -13 -4 3 -31z"/>
<path d="M1370 2020 c-12 -8 -11 -10 8 -10 12 0 22 5 22 10 0 13 -11 13 -30 0z"/>
<path d="M1450 2015 c0 -8 5 -15 10 -15 6 0 10 7 10 15 0 8 -4 15 -10 15 -5 0
-10 -7 -10 -15z"/>
<path d="M1700 1992 c0 -8 43 -32 55 -32 3 0 5 6 5 14 0 7 -10 16 -22 20 -31
8 -38 7 -38 -2z"/>
<path d="M2380 1569 c0 -5 5 -7 10 -4 6 3 10 8 10 11 0 2 -4 4 -10 4 -5 0 -10
-5 -10 -11z"/>
<path d="M920 1305 c0 -7 78 -55 89 -55 18 0 -40 46 -66 52 -13 4 -23 5 -23 3z"/>
<path d="M1038 1233 c7 -3 16 -2 19 1 4 3 -2 6 -13 5 -11 0 -14 -3 -6 -6z"/>
<path d="M2120 1382 c0 -7 -7 -12 -15 -12 -8 0 -15 -5 -15 -11 0 -6 9 -8 23
-3 30 9 33 12 19 26 -9 9 -12 9 -12 0z"/>
<path d="M2062 1317 c-24 -25 -28 -37 -12 -37 6 0 14 8 17 18 4 9 11 20 17 24
6 4 8 9 5 12 -3 3 -15 -4 -27 -17z"/>
<path d="M1907 1233 c-12 -11 -8 -23 8 -23 8 0 15 7 15 15 0 16 -12 20 -23 8z"/>
<path d="M1002 803 c-12 -2 -20 -9 -17 -14 9 -14 51 -11 65 6 13 16 3 18 -48
8z"/>
<path d="M680 1319 c0 -5 5 -7 10 -4 6 3 10 8 10 11 0 2 -4 4 -10 4 -5 0 -10
-5 -10 -11z"/>
<path d="M2760 1041 c0 -5 -3 -17 -7 -27 -4 -11 -3 -15 4 -11 14 9 24 47 12
47 -5 0 -9 -4 -9 -9z"/>
<path d="M2723 955 c-6 -14 -7 -27 -2 -31 7 -4 29 34 29 52 0 13 -17 0 -27
-21z"/>
<path d="M1632 2849 c3 -8 11 -13 17 -11 6 1 11 -5 11 -13 0 -13 7 -15 34 -10
24 5 35 3 39 -7 2 -8 24 -20 48 -28 24 -7 48 -17 54 -22 14 -12 50 -10 80 6
l27 14 -24 16 c-13 9 -39 19 -58 22 -28 6 -32 5 -27 -9 4 -10 2 -17 -3 -17 -6
0 -10 6 -10 14 0 9 -7 12 -20 9 -11 -3 -20 -1 -20 5 0 10 -39 22 -89 27 -14 1
-34 6 -45 10 -14 6 -17 5 -14 -6z"/>
<path d="M1950 2759 c0 -5 5 -7 10 -4 6 3 10 8 10 11 0 2 -4 4 -10 4 -5 0 -10
-5 -10 -11z"/>
<path d="M2038 2698 c-30 -19 39 -34 69 -15 14 9 27 -9 17 -24 -4 -8 1 -9 17
-4 35 11 35 14 8 33 -25 18 -90 24 -111 10z"/>
<path d="M2160 2630 c0 -5 5 -10 11 -10 5 0 7 5 4 10 -3 6 -8 10 -11 10 -2 0
-4 -4 -4 -10z"/>
<path d="M2205 2611 c-19 -8 -19 -8 3 -20 18 -10 22 -9 22 3 0 8 6 17 13 19 8
4 7 5 -3 6 -8 0 -24 -4 -35 -8z"/>
<path d="M2323 2546 c-21 -10 -32 -36 -15 -36 24 1 52 14 52 26 0 19 -12 22
-37 10z"/>
<path d="M2370 2518 c0 -9 5 -20 11 -23 17 -11 20 0 4 21 -13 17 -14 17 -15 2z"/>
<path d="M2405 2450 c-8 -25 3 -43 21 -36 9 3 14 -2 14 -14 0 -15 7 -20 25
-20 32 0 32 17 -3 58 -32 37 -48 40 -57 12z"/>
<path d="M2498 2373 c-20 -5 -25 -43 -5 -43 20 1 50 28 42 39 -6 11 -9 12 -37
4z"/>
<path d="M2520 2311 c0 -19 35 -71 48 -71 8 0 16 -9 19 -19 3 -12 11 -17 19
-14 8 3 14 1 14 -5 0 -5 -7 -13 -16 -16 -23 -9 -9 -23 26 -24 29 -1 37 7 23
22 -4 3 -8 14 -9 23 -2 8 -17 37 -36 64 -25 37 -35 45 -41 34 -11 -20 -31 -19
-23 0 3 9 0 15 -9 15 -8 0 -15 -4 -15 -9z"/>
<path d="M2733 1977 c4 -10 7 -25 7 -32 0 -7 6 -15 14 -18 18 -7 9 32 -13 53
-13 13 -14 13 -8 -3z"/>
<path d="M2700 1971 c0 -5 5 -13 10 -16 6 -3 10 -2 10 4 0 5 -4 13 -10 16 -5
3 -10 2 -10 -4z"/>
<path d="M2825 1540 c-3 -5 -15 -10 -26 -10 -22 0 -25 -22 -5 -39 22 -18 56 3
56 34 0 25 -14 33 -25 15z"/>
</g>
</svg>
